<svg width="144" height="9" fill="none" xmlns="http://www.w3.org/2000/svg"><path d="M.838.765a.54.54 0 01.164-.393.538.538 0 01.393-.164h4.763c1.168 0 2.03.336 2.584 1.008.309.371.463.846.463 1.424 0 .574-.264 1.076-.79 1.506.75.402 1.124 1.027 1.124 1.875 0 .848-.3 1.492-.902 1.933-.598.438-1.332.657-2.203.657h-5.04a.546.546 0 01-.392-.158.536.536 0 01-.164-.393V.765zm2.209 6.264h3.351c.301 0 .532-.09.692-.27.16-.18.24-.426.24-.738 0-.313-.08-.559-.24-.738-.16-.18-.39-.27-.692-.27H3.047V7.03zm0-3.557h3.135c.246 0 .443-.072.591-.217.149-.148.223-.353.223-.615 0-.266-.074-.473-.223-.621-.148-.149-.345-.223-.591-.223H3.047v1.676zM20.665 8.36c0 .168-.1.252-.299.252H18.96a.99.99 0 01-.492-.158 1.222 1.222 0 01-.405-.393L17.067 6.5c-.41-.64-.906-.96-1.488-.96h-1.43v2.52a.536.536 0 01-.164.393.526.526 0 01-.387.158h-1.101a.546.546 0 01-.393-.158.536.536 0 01-.164-.393V.765a.55.55 0 01.158-.393.517.517 0 01.387-.164h4.834c.895 0 1.627.24 2.197.721.575.48.862 1.129.862 1.945 0 1.137-.737 1.85-2.21 2.14.235.085.452.233.651.444.2.207.428.51.686.909L20.57 8.06a.61.61 0 01.094.299zm-6.516-4.477h2.496c.403 0 .756-.08 1.06-.24.31-.16.464-.416.464-.768 0-.351-.154-.607-.463-.767a2.247 2.247 0 00-1.06-.24h-2.497v2.015zm8.577 1.406V.765a.55.55 0 01.563-.557h1.095a.53.53 0 01.387.164c.11.11.164.24.164.393V5.3c0 .574.125 1.002.375 1.283.254.282.645.422 1.172.422h.938c.527 0 .915-.14 1.165-.422.255-.28.381-.709.381-1.283V.765c0-.152.053-.283.159-.393a.536.536 0 01.392-.164h1.09a.55.55 0 01.404.164c.11.11.164.24.164.393v4.523c0 1.07-.314 1.9-.943 2.49-.629.587-1.547.88-2.754.88h-1.055c-1.21 0-2.13-.293-2.76-.88-.624-.59-.937-1.42-.937-2.49zM33.453 6.46c0-.23.069-.394.206-.492a.672.672 0 01.398-.152h.697c.352 0 .62.191.803.574.184.383.596.574 1.236.574l2.051.041c.688 0 1.031-.224 1.031-.674 0-.34-.42-.607-1.26-.802-.374-.09-.788-.178-1.242-.264-.453-.09-.904-.201-1.353-.334a8.401 8.401 0 01-1.23-.469 2.436 2.436 0 01-.915-.738 1.84 1.84 0 01-.345-1.113c0-.785.279-1.389.838-1.81.558-.427 1.52-.64 2.882-.64l1.489.036c.8 0 1.521.207 2.162.62.644.41.967.925.967 1.542 0 .23-.069.396-.206.498a.666.666 0 01-.392.152h-.697c-.352 0-.62-.191-.803-.574-.184-.387-.596-.58-1.236-.58L36.77 1.82c-.688 0-1.031.224-1.031.674 0 .246.217.447.65.603.438.156.965.295 1.582.416.621.117 1.244.26 1.87.428.624.168 1.154.445 1.587.832.438.383.656.861.656 1.435 0 .786-.28 1.391-.843 1.817-.559.422-1.518.633-2.877.633l-1.776-.036c-.8 0-1.523-.205-2.168-.615-.644-.414-.967-.93-.967-1.547zm11.032 1.6V.765c0-.152.055-.283.165-.393a.55.55 0 01.404-.164h1.09a.52.52 0 01.387.164c.109.11.163.24.163.393v2.637h4.032V.765a.54.54 0 01.164-.393.537.537 0 01.392-.164h1.09a.53.53 0 01.399.164c.11.11.164.24.164.393V8.06a.527.527 0 01-.17.393.545.545 0 01-.393.158h-1.09a.557.557 0 01-.392-.153.517.517 0 01-.164-.386V5.06h-4.032v3.012a.517.517 0 01-.163.386.537.537 0 01-.387.153h-1.09a.566.566 0 01-.398-.158.527.527 0 01-.17-.393zm11.337-.012V.753c0-.152.055-.281.164-.386a.546.546 0 01.393-.159h6.756a.52.52 0 01.387.164c.109.11.163.24.163.393v.55a.535.535 0 01-.163.393.526.526 0 01-.387.159H58.03v1.705h4.395c.152 0 .281.054.386.164.11.105.165.234.165.386v.551a.536.536 0 01-.164.393.526.526 0 01-.387.158H58.03v1.729h5.092a.52.52 0 01.38.158.526.526 0 01.16.386v.563a.536.536 0 01-.165.393.545.545 0 01-.392.158h-6.727a.55.55 0 01-.557-.563zm9.661-1.588c0-.23.069-.394.205-.492a.672.672 0 01.399-.152h.697c.351 0 .62.191.803.574.183.383.595.574 1.236.574l2.05.041c.688 0 1.032-.224 1.032-.674 0-.34-.42-.607-1.26-.802-.375-.09-.789-.178-1.242-.264-.453-.09-.904-.201-1.353-.334a8.403 8.403 0 01-1.23-.469 2.436 2.436 0 01-.915-.738 1.84 1.84 0 01-.346-1.113c0-.785.28-1.389.838-1.81.559-.427 1.52-.64 2.883-.64l1.488.036c.801 0 1.522.207 2.162.62.645.41.967.925.967 1.542 0 .23-.068.396-.205.498a.666.666 0 01-.392.152h-.698c-.351 0-.619-.191-.802-.574-.184-.387-.596-.58-1.237-.58L68.8 1.82c-.688 0-1.032.224-1.032.674 0 .246.217.447.65.603.438.156.966.295 1.583.416.62.117 1.244.26 1.869.428.625.168 1.154.445 1.588.832.437.383.656.861.656 1.435 0 .786-.281 1.391-.844 1.817-.558.422-1.517.633-2.877.633l-1.775-.036c-.8 0-1.523-.205-2.168-.615-.645-.414-.967-.93-.967-1.547zm21.846 1.6V.765c0-.152.053-.283.159-.393a.517.517 0 01.386-.164h4.47c2.364 0 3.546 1.09 3.546 3.27 0 2.176-1.182 3.264-3.545 3.264h-2.807V8.06a.536.536 0 01-.164.393.526.526 0 01-.386.158h-1.102a.545.545 0 01-.393-.158.536.536 0 01-.164-.393zm2.21-2.977h2.138c.656 0 1.154-.109 1.494-.328.34-.222.51-.648.51-1.277 0-.633-.17-1.059-.51-1.277-.34-.223-.838-.334-1.494-.334h-2.139v3.216zm7.768 2.989l1.47-5.578c.399-1.52 1.696-2.282 3.891-2.286h3.158c.145 0 .264.055.358.164a.56.56 0 01.146.381v7.319a.518.518 0 01-.164.386.556.556 0 01-.393.153h-1.101a.554.554 0 01-.399-.153.553.553 0 01-.152-.398V6.583h-4.166l-.392 1.477a.703.703 0 01-.264.398.715.715 0 01-.434.153h-1.154c-.152 0-.262-.043-.328-.13-.067-.089-.1-.167-.1-.234.004-.066.012-.125.024-.175zm3.082-3.147h3.732V1.867h-1.67c-.375 0-.703.107-.984.322a1.55 1.55 0 00-.563.855l-.515 1.881zm8.817 3.147V.765a.54.54 0 01.164-.393.534.534 0 01.392-.164h1.09c.16 0 .293.055.399.164.109.11.164.24.164.393V8.06a.528.528 0 01-.17.393.545.545 0 01-.393.158h-1.09a.555.555 0 01-.392-.153.518.518 0 01-.164-.386zm5.09-.012V.765c0-.152.053-.283.159-.393a.515.515 0 01.386-.164h1.723c.137 0 .281.055.434.164.152.11.277.24.375.393l3.539 5.443V.753c0-.152.052-.281.158-.386a.545.545 0 01.393-.159h1.007c.153 0 .282.053.387.159a.532.532 0 01.164.398V8.06a.537.537 0 01-.164.393.525.525 0 01-.387.158h-1.945a.854.854 0 01-.469-.158c-.16-.11-.287-.24-.381-.393l-3.24-5.027V8.06a.537.537 0 01-.164.393.525.525 0 01-.387.158h-1.031a.544.544 0 01-.392-.158.534.534 0 01-.165-.393zm10.886-6.744V.765a.542.542 0 01.557-.557h7.435a.543.543 0 01.557.557v.55a.545.545 0 01-.158.4.554.554 0 01-.399.152h-2.613v6.205a.539.539 0 01-.551.54h-1.107a.528.528 0 01-.551-.54V1.867h-2.613a.554.554 0 01-.399-.153.542.542 0 01-.158-.398zm10.112 5.144c0-.23.069-.394.205-.492a.674.674 0 01.399-.152h.697c.351 0 .619.191.803.574.183.383.595.574 1.236.574l2.051.041c.687 0 1.031-.224 1.031-.674 0-.34-.42-.607-1.26-.802-.375-.09-.789-.178-1.242-.264-.453-.09-.904-.201-1.353-.334a8.379 8.379 0 01-1.231-.469 2.433 2.433 0 01-.914-.738 1.843 1.843 0 01-.346-1.113c0-.785.28-1.389.838-1.81.559-.427 1.52-.64 2.883-.64l1.488.036c.801 0 1.522.207 2.162.62.645.41.967.925.967 1.542 0 .23-.068.396-.205.498a.665.665 0 01-.392.152h-.698c-.351 0-.619-.191-.802-.574-.184-.387-.596-.58-1.237-.58l-1.763-.035c-.688 0-1.032.224-1.032.674 0 .246.217.447.651.603.437.156.965.295 1.582.416.621.117 1.244.26 1.869.428a3.843 3.843 0 011.588.832c.437.383.656.861.656 1.435 0 .786-.281 1.391-.844 1.817-.558.422-1.517.633-2.877.633l-1.775-.036a3.951 3.951 0 01-2.168-.615c-.645-.414-.967-.93-.967-1.547z" fill="#121212" fill-opacity=".8"/></svg>