<svg width="35" height="35" fill="none" xmlns="http://www.w3.org/2000/svg"><path d="M17.06.44l3.831 11.788h12.395l-10.028 7.286 3.83 11.788-10.027-7.285-10.028 7.285 3.83-11.788L.835 12.228H13.23L17.06.439z" fill="#F95050"/><path d="M13.979 20.087l.726-1.089c.22.227.487.418.803.572.322.147.649.22.979.22.403 0 .737-.11 1-.33a1.04 1.04 0 00.397-.836c0-.396-.158-.697-.474-.902-.308-.205-.707-.308-1.198-.308h-.54l-.308-.726 1.43-1.694c.088-.11.177-.213.264-.308a3.4 3.4 0 01.22-.22l.078-.066v-.022a5.49 5.49 0 01-.694.033h-2.331V13.19h4.762v.891l-1.902 2.211c.586.08 1.085.323 1.495.726.419.396.628.913.628 1.551 0 .704-.25 1.309-.748 1.815-.5.499-1.166.748-2.002.748a3.93 3.93 0 01-1.409-.264 3.41 3.41 0 01-1.176-.781z" fill="#fff"/></svg>