<svg width="35" height="35" fill="none" xmlns="http://www.w3.org/2000/svg"><path d="M17.51.197l3.83 11.788h12.396l-10.028 7.286 3.83 11.789-10.028-7.286L7.482 31.06l3.83-11.789-10.028-7.286H13.68L17.51.197z" fill="#F95050"/><path d="M14.494 19.834l.737-1.067c.476.52 1.03.78 1.66.78.397 0 .738-.12 1.024-.363.293-.249.44-.572.44-.968 0-.403-.147-.73-.44-.979-.294-.249-.668-.373-1.122-.373-.433 0-.836.11-1.21.33l-.792-.287.363-3.96h4.114v1.222h-2.882l-.121 1.287-.055.363h.022c.22-.118.498-.177.836-.177.836 0 1.503.246 2.002.738.498.49.748 1.1.748 1.826 0 .77-.268 1.411-.803 1.925-.536.506-1.207.759-2.013.759-.477 0-.935-.092-1.375-.276a3.233 3.233 0 01-1.133-.78z" fill="#fff"/></svg>