<svg width="35" height="35" fill="none" xmlns="http://www.w3.org/2000/svg"><path d="M17.51.56l3.83 11.79h12.396l-10.028 7.285 3.83 11.789-10.028-7.286-10.028 7.286 3.83-11.789-10.028-7.286H13.68L17.51.561z" fill="#F95050"/><path d="M14.648 21.121a4.005 4.005 0 01-.066-.693c0-.381.066-.737.198-1.067.14-.33.315-.612.528-.847.212-.242.447-.465.704-.67.264-.206.524-.397.78-.573.265-.176.503-.348.716-.517.212-.168.385-.348.517-.539.14-.198.209-.4.209-.605 0-.33-.114-.594-.341-.792a1.244 1.244 0 00-.847-.297c-.286 0-.554.088-.803.264-.25.176-.451.396-.605.66l-1.056-.704c.25-.454.594-.828 1.034-1.122.44-.293.957-.44 1.55-.44.712 0 1.313.21 1.805.627.491.411.737.972.737 1.683 0 .338-.066.657-.198.957-.125.294-.29.547-.495.76a5.622 5.622 0 01-.693.604c-.25.191-.499.367-.748.528-.25.162-.48.323-.693.484a2.489 2.489 0 00-.528.506 1.034 1.034 0 00-.21.572h3.686v1.221h-5.181z" fill="#fff"/></svg>