<svg width="827" height="505" fill="none" xmlns="http://www.w3.org/2000/svg"><path fill-rule="evenodd" clip-rule="evenodd" d="M433.134 453.739c-57.338-4.62-107.728 31.463-162.358 19.225-65.055-14.572-147.774-3.007-194.293-37.751-46.468-34.706-34.685-91.116-42.745-139.287-8.684-51.894-47.106-109.465-6.427-154.571 41.271-45.763 141.117-36.426 205.431-66.094 63.05-29.084 106.492-35.676 178.161-50.586 73.944-15.383 134.029 8.52 190.969 42.758 57.151 34.366 142.525-19.955 180.609 25.875 35.667 42.922-30.006 127.813-12.473 176.422 17.769 49.266 76.806 84.225 39.523 129.351-36.296 43.932-145.673 46.297-210.815 67.673-60.966 20.006-100.131-7.742-165.582-13.015z" fill="#FACECE"/></svg>