<svg width="1067" height="903" fill="none" xmlns="http://www.w3.org/2000/svg"><path fill-rule="evenodd" clip-rule="evenodd" d="M1000.48 400.388c38.43 58.112 22.65 62.095 5.34 134.585-17.903 74.999-244.146 120.458-323.935 163.73-74.794 40.562-161.164 27.69-241.603 23.424-62.146-3.295-119.495-16.785-167.435-45.117-43.824-25.9-58.746-71.785-91.165-107.715-48.526-53.78-158.777-80.436-145.676-154.768 12.601-71.495 128.15-102.252 199.413-150.122 63.947-42.956 129.456-57.365 204.863-70.707 91.12-12.698 284.766 0 383.912 26.633 59.531 28.446 142.81 129.444 176.286 180.057z" fill="#FACECE"/></svg>