<svg width="954" height="704" fill="none" xmlns="http://www.w3.org/2000/svg"><path fill-rule="evenodd" clip-rule="evenodd" d="M566.805 138.804c87.095-1.382 231.479-38.617 296.532 4.329 68.418 45.166-30.372 131.736-7.042 186.779 17.976 42.412 100.6 80.61 94.145 121.253-6.452 40.628-76.986 59.308-126.686 83.65-44.124 21.611-85.237 40.787-145.426 26.04-59.965-20.42-123.701-1.303-184.962-2.925-90.437-2.395-207.236 53.234-288.632 19.471-76.147-31.587 3.788-102.147-29.41-151.396-31.901-47.326-128.067-85.933-129.117-133.279-1.043-47.076 60.711-88.045 124.048-110.281 57.707-20.26 140.992 1.744 209.629-6.866 66.563-8.35 116.489-35.658 186.921-36.775z" fill="#F28484" fill-opacity=".4"/></svg>