<svg width="144" height="9" viewBox="0 0 144 9" fill="none" xmlns="http://www.w3.org/2000/svg">
<path d="M0.837891 0.765015C0.837891 0.612671 0.892578 0.481812 1.00195 0.372437C1.11133 0.263062 1.24219 0.208374 1.39453 0.208374H6.1582C7.32617 0.208374 8.1875 0.544312 8.74219 1.21619C9.05078 1.58728 9.20508 2.06189 9.20508 2.64001C9.20508 3.21423 8.94141 3.71619 8.41406 4.14587C9.16406 4.54822 9.53906 5.17322 9.53906 6.02087C9.53906 6.86853 9.23828 7.51306 8.63672 7.95447C8.03906 8.39197 7.30469 8.61072 6.43359 8.61072H1.39453C1.24219 8.61072 1.11133 8.55798 1.00195 8.45251C0.892578 8.34314 0.837891 8.21228 0.837891 8.05994V0.765015ZM3.04688 7.02869H6.39844C6.69922 7.02869 6.92969 6.93884 7.08984 6.75916C7.25 6.57947 7.33008 6.33337 7.33008 6.02087C7.33008 5.70837 7.25 5.46228 7.08984 5.28259C6.92969 5.10291 6.69922 5.01306 6.39844 5.01306H3.04688V7.02869ZM3.04688 3.47205H6.18164C6.42773 3.47205 6.625 3.39978 6.77344 3.25525C6.92188 3.10681 6.99609 2.90173 6.99609 2.64001C6.99609 2.37439 6.92188 2.16736 6.77344 2.01892C6.625 1.87048 6.42773 1.79626 6.18164 1.79626H3.04688V3.47205ZM20.6648 8.35876C20.6648 8.52673 20.5652 8.61072 20.366 8.61072H18.9598C18.8113 8.61072 18.6473 8.55798 18.4676 8.45251C18.2918 8.34314 18.157 8.21228 18.0633 8.05994L17.0672 6.50134C16.657 5.86072 16.1609 5.54041 15.5789 5.54041H14.1492V8.05994C14.1492 8.21228 14.0945 8.34314 13.9852 8.45251C13.8797 8.55798 13.7508 8.61072 13.5984 8.61072H12.4969C12.3445 8.61072 12.2137 8.55798 12.1043 8.45251C11.9949 8.34314 11.9402 8.21228 11.9402 8.05994V0.765015C11.9402 0.612671 11.993 0.481812 12.0984 0.372437C12.2039 0.263062 12.3328 0.208374 12.4852 0.208374H17.3191C18.2137 0.208374 18.9461 0.448608 19.5164 0.929077C20.0906 1.40955 20.3777 2.05798 20.3777 2.87439C20.3777 4.01111 19.6414 4.724 18.1687 5.01306C18.4031 5.099 18.6199 5.24744 18.8191 5.45837C19.0184 5.66541 19.2469 5.96814 19.5047 6.36658L20.5711 8.05994C20.6336 8.16931 20.6648 8.26892 20.6648 8.35876ZM14.1492 3.8822H16.6453C17.0477 3.8822 17.4012 3.80212 17.7059 3.64197C18.0145 3.48181 18.1687 3.22595 18.1687 2.87439C18.1687 2.52283 18.0145 2.26697 17.7059 2.10681C17.4012 1.94666 17.0477 1.86658 16.6453 1.86658H14.1492V3.8822ZM22.7262 5.28845V0.765015C22.7262 0.612671 22.7789 0.481812 22.8844 0.372437C22.9937 0.263062 23.1285 0.208374 23.2887 0.208374H24.3844C24.5328 0.208374 24.6617 0.263062 24.7711 0.372437C24.8805 0.481812 24.9352 0.612671 24.9352 0.765015V5.30017C24.9352 5.87439 25.0602 6.30212 25.3102 6.58337C25.5641 6.86462 25.9547 7.00525 26.482 7.00525H27.4195C27.9469 7.00525 28.3355 6.86462 28.5855 6.58337C28.8395 6.30212 28.9664 5.87439 28.9664 5.30017V0.765015C28.9664 0.612671 29.0191 0.481812 29.1246 0.372437C29.234 0.263062 29.3648 0.208374 29.5172 0.208374H30.607C30.7672 0.208374 30.902 0.263062 31.0113 0.372437C31.1207 0.481812 31.1754 0.612671 31.1754 0.765015V5.28845C31.1754 6.35876 30.8609 7.18884 30.232 7.77869C29.6031 8.36462 28.6852 8.65759 27.4781 8.65759H26.4234C25.2125 8.65759 24.2926 8.36462 23.6637 7.77869C23.0387 7.18884 22.7262 6.35876 22.7262 5.28845ZM33.4535 6.46033C33.4535 6.22986 33.5219 6.0658 33.6586 5.96814C33.7953 5.86658 33.9281 5.8158 34.057 5.8158H34.7543C35.1059 5.8158 35.3734 6.0072 35.557 6.39001C35.7406 6.77283 36.1527 6.96423 36.7934 6.96423L38.8441 7.00525C39.5316 7.00525 39.8754 6.78064 39.8754 6.33142C39.8754 5.99158 39.4555 5.724 38.6156 5.52869C38.2406 5.43884 37.8266 5.35095 37.3734 5.26501C36.9203 5.17517 36.4691 5.06384 36.0199 4.93103C35.5746 4.79822 35.1645 4.64197 34.7895 4.46228C34.4145 4.28259 34.1098 4.0365 33.8754 3.724C33.6449 3.40759 33.5297 3.0365 33.5297 2.61072C33.5297 1.82556 33.809 1.22205 34.3676 0.800171C34.9262 0.37439 35.8871 0.161499 37.2504 0.161499L38.7387 0.196655C39.5395 0.196655 40.2602 0.403687 40.9008 0.817749C41.5453 1.22791 41.8676 1.74158 41.8676 2.35876C41.8676 2.58923 41.7992 2.75525 41.6625 2.85681C41.5258 2.95837 41.3949 3.00916 41.2699 3.00916H40.5727C40.2211 3.00916 39.9535 2.81775 39.7699 2.43494C39.5863 2.04822 39.1742 1.85486 38.5336 1.85486L36.7699 1.8197C36.0824 1.8197 35.7387 2.04431 35.7387 2.49353C35.7387 2.73962 35.9555 2.9408 36.3891 3.09705C36.8266 3.2533 37.3539 3.39197 37.9711 3.51306C38.5922 3.63025 39.2152 3.77283 39.8402 3.9408C40.4652 4.10876 40.9945 4.38611 41.4281 4.77283C41.8656 5.15564 42.0844 5.63416 42.0844 6.20837C42.0844 6.99353 41.8031 7.599 41.2406 8.02478C40.682 8.44666 39.723 8.65759 38.3637 8.65759L36.5883 8.62244C35.7875 8.62244 35.0648 8.41736 34.4203 8.0072C33.7758 7.59314 33.4535 7.07751 33.4535 6.46033ZM44.4855 8.05994V0.765015C44.4855 0.612671 44.5402 0.481812 44.6496 0.372437C44.759 0.263062 44.8937 0.208374 45.0539 0.208374H46.1437C46.2961 0.208374 46.425 0.263062 46.5305 0.372437C46.6398 0.481812 46.6945 0.612671 46.6945 0.765015V3.40173H50.7258V0.765015C50.7258 0.612671 50.7805 0.481812 50.8898 0.372437C50.9992 0.263062 51.1301 0.208374 51.2824 0.208374H52.3723C52.5324 0.208374 52.6652 0.263062 52.7707 0.372437C52.8801 0.481812 52.9348 0.612671 52.9348 0.765015V8.05994C52.9348 8.21228 52.8781 8.34314 52.7648 8.45251C52.6555 8.55798 52.5246 8.61072 52.3723 8.61072H51.2824C51.1301 8.61072 50.9992 8.55994 50.8898 8.45837C50.7805 8.35291 50.7258 8.224 50.7258 8.07166V5.05994H46.6945V8.07166C46.6945 8.224 46.6398 8.35291 46.5305 8.45837C46.425 8.55994 46.2961 8.61072 46.1437 8.61072H45.0539C44.9016 8.61072 44.7687 8.55798 44.6555 8.45251C44.5422 8.34314 44.4855 8.21228 44.4855 8.05994ZM55.8223 8.04822V0.753296C55.8223 0.600952 55.877 0.472046 55.9863 0.366577C56.0957 0.261108 56.2266 0.208374 56.3789 0.208374H63.1348C63.2871 0.208374 63.416 0.263062 63.5215 0.372437C63.6309 0.481812 63.6855 0.612671 63.6855 0.765015V1.3158C63.6855 1.46814 63.6309 1.599 63.5215 1.70837C63.416 1.81384 63.2871 1.86658 63.1348 1.86658H58.0312V3.57166H62.4258C62.5781 3.57166 62.707 3.62634 62.8125 3.73572C62.9219 3.84119 62.9766 3.97009 62.9766 4.12244V4.67322C62.9766 4.82556 62.9219 4.95642 62.8125 5.0658C62.707 5.17126 62.5781 5.224 62.4258 5.224H58.0312V6.95251H63.123C63.2715 6.95251 63.3984 7.00525 63.5039 7.11072C63.6094 7.21619 63.6621 7.34509 63.6621 7.49744V8.05994C63.6621 8.21228 63.6074 8.34314 63.498 8.45251C63.3887 8.55798 63.2578 8.61072 63.1055 8.61072H56.3789C56.2266 8.61072 56.0957 8.55798 55.9863 8.45251C55.877 8.34314 55.8223 8.20837 55.8223 8.04822ZM65.4832 6.46033C65.4832 6.22986 65.5516 6.0658 65.6883 5.96814C65.825 5.86658 65.9578 5.8158 66.0867 5.8158H66.784C67.1355 5.8158 67.4031 6.0072 67.5867 6.39001C67.7703 6.77283 68.1824 6.96423 68.823 6.96423L70.8738 7.00525C71.5613 7.00525 71.9051 6.78064 71.9051 6.33142C71.9051 5.99158 71.4852 5.724 70.6453 5.52869C70.2703 5.43884 69.8562 5.35095 69.4031 5.26501C68.95 5.17517 68.4988 5.06384 68.0496 4.93103C67.6043 4.79822 67.1941 4.64197 66.8191 4.46228C66.4441 4.28259 66.1395 4.0365 65.9051 3.724C65.6746 3.40759 65.5594 3.0365 65.5594 2.61072C65.5594 1.82556 65.8387 1.22205 66.3973 0.800171C66.9559 0.37439 67.9168 0.161499 69.2801 0.161499L70.7684 0.196655C71.5691 0.196655 72.2898 0.403687 72.9305 0.817749C73.575 1.22791 73.8973 1.74158 73.8973 2.35876C73.8973 2.58923 73.8289 2.75525 73.6922 2.85681C73.5555 2.95837 73.4246 3.00916 73.2996 3.00916H72.6023C72.2508 3.00916 71.9832 2.81775 71.7996 2.43494C71.616 2.04822 71.2039 1.85486 70.5633 1.85486L68.7996 1.8197C68.1121 1.8197 67.7684 2.04431 67.7684 2.49353C67.7684 2.73962 67.9852 2.9408 68.4187 3.09705C68.8562 3.2533 69.3836 3.39197 70.0008 3.51306C70.6219 3.63025 71.2449 3.77283 71.8699 3.9408C72.4949 4.10876 73.0242 4.38611 73.4578 4.77283C73.8953 5.15564 74.1141 5.63416 74.1141 6.20837C74.1141 6.99353 73.8328 7.599 73.2703 8.02478C72.7117 8.44666 71.7527 8.65759 70.3934 8.65759L68.618 8.62244C67.8172 8.62244 67.0945 8.41736 66.45 8.0072C65.8055 7.59314 65.4832 7.07751 65.4832 6.46033ZM87.3293 8.05994V0.765015C87.3293 0.612671 87.382 0.481812 87.4875 0.372437C87.593 0.263062 87.7219 0.208374 87.8742 0.208374H92.3449C94.7082 0.208374 95.8898 1.29822 95.8898 3.47791C95.8898 5.65369 94.7082 6.74158 92.3449 6.74158H89.5383V8.05994C89.5383 8.21228 89.4836 8.34314 89.3742 8.45251C89.2688 8.55798 89.1398 8.61072 88.9875 8.61072H87.8859C87.7336 8.61072 87.6027 8.55798 87.4934 8.45251C87.384 8.34314 87.3293 8.21228 87.3293 8.05994ZM89.5383 5.08337H91.677C92.3332 5.08337 92.8313 4.974 93.1711 4.75525C93.5109 4.53259 93.6809 4.10681 93.6809 3.47791C93.6809 2.84509 93.5109 2.41931 93.1711 2.20056C92.8313 1.97791 92.3332 1.86658 91.677 1.86658H89.5383V5.08337ZM97.3066 8.07166L98.7773 2.49353C99.1758 0.973999 100.473 0.21228 102.668 0.208374H105.826C105.971 0.208374 106.09 0.263062 106.184 0.372437C106.281 0.481812 106.33 0.608765 106.33 0.753296V8.07166C106.33 8.224 106.275 8.35291 106.166 8.45837C106.057 8.55994 105.926 8.61072 105.773 8.61072H104.672C104.512 8.61072 104.379 8.55994 104.273 8.45837C104.172 8.35291 104.121 8.22009 104.121 8.05994V6.58337H99.9551L99.5625 8.05994C99.5234 8.22009 99.4355 8.35291 99.2988 8.45837C99.1621 8.55994 99.0176 8.61072 98.8652 8.61072H97.7109C97.5586 8.61072 97.4492 8.56775 97.3828 8.48181C97.3164 8.39197 97.2832 8.31384 97.2832 8.24744C97.2871 8.18103 97.2949 8.12244 97.3066 8.07166ZM100.389 4.92517H104.121V1.86658H102.451C102.076 1.86658 101.748 1.974 101.467 2.18884C101.189 2.39978 101.002 2.68494 100.904 3.04431L100.389 4.92517ZM109.206 8.07166V0.765015C109.206 0.612671 109.261 0.481812 109.37 0.372437C109.479 0.263062 109.61 0.208374 109.762 0.208374H110.852C111.012 0.208374 111.145 0.263062 111.251 0.372437C111.36 0.481812 111.415 0.612671 111.415 0.765015V8.05994C111.415 8.21228 111.358 8.34314 111.245 8.45251C111.136 8.55798 111.005 8.61072 110.852 8.61072H109.762C109.61 8.61072 109.479 8.55994 109.37 8.45837C109.261 8.35291 109.206 8.224 109.206 8.07166ZM114.296 8.05994V0.765015C114.296 0.612671 114.349 0.481812 114.455 0.372437C114.56 0.263062 114.689 0.208374 114.841 0.208374H116.564C116.701 0.208374 116.845 0.263062 116.998 0.372437C117.15 0.481812 117.275 0.612671 117.373 0.765015L120.912 6.20837V0.753296C120.912 0.600952 120.964 0.472046 121.07 0.366577C121.179 0.261108 121.31 0.208374 121.463 0.208374H122.47C122.623 0.208374 122.752 0.261108 122.857 0.366577C122.966 0.472046 123.021 0.604858 123.021 0.765015V8.05994C123.021 8.21228 122.966 8.34314 122.857 8.45251C122.752 8.55798 122.623 8.61072 122.47 8.61072H120.525C120.373 8.61072 120.216 8.55798 120.056 8.45251C119.896 8.34314 119.769 8.21228 119.675 8.05994L116.435 3.03259V8.05994C116.435 8.21228 116.38 8.34314 116.271 8.45251C116.166 8.55798 116.037 8.61072 115.884 8.61072H114.853C114.701 8.61072 114.57 8.55798 114.461 8.45251C114.351 8.34314 114.296 8.21228 114.296 8.05994ZM125.182 1.3158V0.765015C125.182 0.604858 125.235 0.472046 125.34 0.366577C125.446 0.261108 125.579 0.208374 125.739 0.208374H133.174C133.334 0.208374 133.467 0.261108 133.573 0.366577C133.678 0.472046 133.731 0.604858 133.731 0.765015V1.3158C133.731 1.47595 133.678 1.60876 133.573 1.71423C133.467 1.8158 133.334 1.86658 133.174 1.86658H130.561V8.07166C130.561 8.224 130.506 8.35291 130.397 8.45837C130.291 8.55994 130.162 8.61072 130.01 8.61072H128.903C128.75 8.61072 128.62 8.55994 128.51 8.45837C128.405 8.35291 128.352 8.224 128.352 8.07166V1.86658H125.739C125.579 1.86658 125.446 1.8158 125.34 1.71423C125.235 1.60876 125.182 1.47595 125.182 1.3158ZM135.294 6.46033C135.294 6.22986 135.363 6.0658 135.499 5.96814C135.636 5.86658 135.769 5.8158 135.898 5.8158H136.595C136.946 5.8158 137.214 6.0072 137.398 6.39001C137.581 6.77283 137.993 6.96423 138.634 6.96423L140.685 7.00525C141.372 7.00525 141.716 6.78064 141.716 6.33142C141.716 5.99158 141.296 5.724 140.456 5.52869C140.081 5.43884 139.667 5.35095 139.214 5.26501C138.761 5.17517 138.31 5.06384 137.861 4.93103C137.415 4.79822 137.005 4.64197 136.63 4.46228C136.255 4.28259 135.95 4.0365 135.716 3.724C135.486 3.40759 135.37 3.0365 135.37 2.61072C135.37 1.82556 135.65 1.22205 136.208 0.800171C136.767 0.37439 137.728 0.161499 139.091 0.161499L140.579 0.196655C141.38 0.196655 142.101 0.403687 142.741 0.817749C143.386 1.22791 143.708 1.74158 143.708 2.35876C143.708 2.58923 143.64 2.75525 143.503 2.85681C143.366 2.95837 143.236 3.00916 143.111 3.00916H142.413C142.062 3.00916 141.794 2.81775 141.611 2.43494C141.427 2.04822 141.015 1.85486 140.374 1.85486L138.611 1.8197C137.923 1.8197 137.579 2.04431 137.579 2.49353C137.579 2.73962 137.796 2.9408 138.23 3.09705C138.667 3.2533 139.195 3.39197 139.812 3.51306C140.433 3.63025 141.056 3.77283 141.681 3.9408C142.306 4.10876 142.835 4.38611 143.269 4.77283C143.706 5.15564 143.925 5.63416 143.925 6.20837C143.925 6.99353 143.644 7.599 143.081 8.02478C142.523 8.44666 141.564 8.65759 140.204 8.65759L138.429 8.62244C137.628 8.62244 136.905 8.41736 136.261 8.0072C135.616 7.59314 135.294 7.07751 135.294 6.46033Z" fill="#121212" fill-opacity="0.8"/>
</svg>
