<svg width="35" height="35" viewBox="0 0 35 35" fill="none" xmlns="http://www.w3.org/2000/svg">
<path d="M17.5099 0.196838L21.3402 11.9854L33.7355 11.9854L23.7075 19.2712L27.5378 31.0598L17.5099 23.7741L7.48187 31.0598L11.3122 19.2712L1.28423 11.9854L13.6795 11.9854L17.5099 0.196838Z" fill="#F95050"/>
<path d="M14.4938 19.8335L15.2308 18.7665C15.7074 19.2871 16.2611 19.5475 16.8918 19.5475C17.2878 19.5475 17.6288 19.4265 17.9148 19.1845C18.2081 18.9351 18.3548 18.6125 18.3548 18.2165C18.3548 17.8131 18.2081 17.4868 17.9148 17.2375C17.6214 16.9881 17.2474 16.8635 16.7928 16.8635C16.3601 16.8635 15.9568 16.9735 15.5828 17.1935L14.7908 16.9075L15.1538 12.9475H19.2678V14.1685H16.3858L16.2648 15.4555L16.2098 15.8185H16.2318C16.4518 15.7011 16.7304 15.6425 17.0678 15.6425C17.9038 15.6425 18.5711 15.8881 19.0698 16.3795C19.5684 16.8708 19.8178 17.4795 19.8178 18.2055C19.8178 18.9755 19.5501 19.6171 19.0148 20.1305C18.4794 20.6365 17.8084 20.8895 17.0018 20.8895C16.5251 20.8895 16.0668 20.7978 15.6268 20.6145C15.1868 20.4311 14.8091 20.1708 14.4938 19.8335Z" fill="white"/>
</svg>
