<svg width="35" height="35" viewBox="0 0 35 35" fill="none" xmlns="http://www.w3.org/2000/svg">
<path d="M17.0606 0.439331L20.891 12.2279L33.2863 12.2279L23.2583 19.5137L27.0886 31.3023L17.0606 24.0166L7.03265 31.3023L10.863 19.5137L0.835007 12.2279L13.2303 12.2279L17.0606 0.439331Z" fill="#F95050"/>
<path d="M13.9785 20.087L14.7045 18.998C14.9245 19.2253 15.1922 19.416 15.5075 19.57C15.8302 19.7166 16.1565 19.79 16.4865 19.79C16.8899 19.79 17.2235 19.68 17.4875 19.46C17.7515 19.24 17.8835 18.9613 17.8835 18.624C17.8835 18.228 17.7259 17.9273 17.4105 17.722C17.1025 17.5166 16.7029 17.414 16.2115 17.414H15.6725L15.3645 16.688L16.7945 14.994C16.8825 14.884 16.9705 14.7813 17.0585 14.686C17.1539 14.5833 17.2272 14.51 17.2785 14.466L17.3555 14.4V14.378C17.1942 14.4 16.9632 14.411 16.6625 14.411H14.3305V13.19H19.0935V14.081L17.1905 16.292C17.7772 16.3726 18.2759 16.6146 18.6865 17.018C19.1045 17.414 19.3135 17.931 19.3135 18.569C19.3135 19.273 19.0642 19.878 18.5655 20.384C18.0669 20.8826 17.3995 21.132 16.5635 21.132C16.0869 21.132 15.6175 21.044 15.1555 20.868C14.7009 20.6846 14.3085 20.4243 13.9785 20.087Z" fill="white"/>
</svg>
