<svg width="35" height="35" viewBox="0 0 35 35" fill="none" xmlns="http://www.w3.org/2000/svg">
<path d="M17.5099 0.560669L21.3402 12.3493L33.7355 12.3493L23.7075 19.635L27.5378 31.4237L17.5099 24.1379L7.48187 31.4237L11.3122 19.635L1.28423 12.3493L13.6795 12.3493L17.5099 0.560669Z" fill="#F95050"/>
<path d="M14.6478 21.1213C14.6038 20.872 14.5818 20.641 14.5818 20.4283C14.5818 20.047 14.6478 19.6913 14.7798 19.3613C14.9191 19.0313 15.0951 18.749 15.3078 18.5143C15.5204 18.2723 15.7551 18.0486 16.0118 17.8433C16.2758 17.638 16.5361 17.4473 16.7928 17.2713C17.0568 17.0953 17.2951 16.923 17.5078 16.7543C17.7204 16.5856 17.8928 16.406 18.0248 16.2153C18.1641 16.0173 18.2338 15.8156 18.2338 15.6103C18.2338 15.2803 18.1201 15.0163 17.8928 14.8183C17.6654 14.6203 17.3831 14.5213 17.0458 14.5213C16.7598 14.5213 16.4921 14.6093 16.2428 14.7853C15.9934 14.9613 15.7918 15.1813 15.6378 15.4453L14.5818 14.7413C14.8311 14.2866 15.1758 13.9126 15.6158 13.6193C16.0558 13.326 16.5728 13.1793 17.1668 13.1793C17.8781 13.1793 18.4794 13.3883 18.9708 13.8063C19.4621 14.217 19.7078 14.778 19.7078 15.4893C19.7078 15.8266 19.6418 16.1456 19.5098 16.4463C19.3851 16.7396 19.2201 16.9926 19.0148 17.2053C18.8094 17.418 18.5784 17.6196 18.3218 17.8103C18.0724 18.001 17.8231 18.177 17.5738 18.3383C17.3244 18.4996 17.0934 18.661 16.8808 18.8223C16.6681 18.9763 16.4921 19.145 16.3528 19.3283C16.2208 19.5116 16.1511 19.7023 16.1438 19.9003H19.8288V21.1213H14.6478Z" fill="white"/>
</svg>
