<svg width="866" height="92" fill="none" xmlns="http://www.w3.org/2000/svg"><path d="M5.027 24.926c0-.914.328-1.7.985-2.356.656-.656 1.441-.984 2.355-.984H36.95c7.008 0 12.176 2.016 15.504 6.047 1.852 2.226 2.777 5.074 2.777 8.543 0 3.445-1.582 6.457-4.746 9.035 4.5 2.414 6.75 6.164 6.75 11.25s-1.804 8.953-5.414 11.602C48.234 70.686 43.828 72 38.602 72H8.367a3.269 3.269 0 01-2.355-.95c-.657-.656-.985-1.44-.985-2.355v-43.77zm13.254 37.582h20.11c1.804 0 3.187-.54 4.148-1.617.961-1.078 1.441-2.555 1.441-4.43 0-1.875-.48-3.352-1.44-4.43-.962-1.078-2.345-1.617-4.15-1.617H18.282v12.094zm0-21.34H37.09c1.476 0 2.66-.434 3.55-1.3.891-.891 1.337-2.122 1.337-3.692 0-1.594-.446-2.836-1.336-3.727-.891-.89-2.075-1.336-3.551-1.336H18.28v10.055zm105.708 29.32c0 1.008-.598 1.512-1.793 1.512h-8.437c-.891 0-1.875-.316-2.954-.95-1.054-.656-1.863-1.44-2.425-2.355l-5.977-9.351c-2.46-3.844-5.437-5.766-8.93-5.766h-8.578v15.117c0 .914-.328 1.7-.984 2.356-.633.633-1.406.949-2.32.949h-6.61a3.269 3.269 0 01-2.355-.95c-.657-.656-.985-1.44-.985-2.355v-43.77c0-.913.317-1.698.95-2.355a3.1 3.1 0 012.32-.984h29.004c5.367 0 9.762 1.441 13.183 4.324 3.446 2.883 5.168 6.774 5.168 11.672 0 6.82-4.418 11.098-13.254 12.832 1.407.516 2.708 1.406 3.903 2.672 1.195 1.242 2.566 3.059 4.113 5.45l6.399 10.16c.375.656.562 1.253.562 1.792zm-39.094-26.86h14.977c2.414 0 4.535-.48 6.363-1.44 1.852-.961 2.777-2.497 2.777-4.606 0-2.11-.925-3.645-2.777-4.605-1.828-.961-3.949-1.442-6.363-1.442H84.895V43.63zm51.462 8.438v-27.14c0-.914.316-1.7.949-2.356.656-.656 1.465-.984 2.426-.984h6.574c.891 0 1.664.328 2.321.984.656.657.984 1.442.984 2.356v27.21c0 3.446.75 6.012 2.25 7.7 1.523 1.687 3.867 2.531 7.031 2.531h5.625c3.164 0 5.496-.844 6.996-2.531 1.524-1.688 2.285-4.254 2.285-7.7v-27.21c0-.914.317-1.7.95-2.356.656-.656 1.441-.984 2.355-.984h6.539c.961 0 1.77.328 2.426.984.656.657.984 1.442.984 2.356v27.14c0 6.422-1.886 11.403-5.66 14.942-3.773 3.515-9.281 5.273-16.523 5.273h-6.328c-7.266 0-12.786-1.758-16.559-5.273-3.75-3.54-5.625-8.52-5.625-14.942zm64.364 7.032c0-1.383.41-2.367 1.231-2.953.82-.61 1.617-.915 2.39-.915h4.184c2.109 0 3.715 1.149 4.816 3.446 1.102 2.297 3.574 3.445 7.418 3.445l12.305.246c4.125 0 6.187-1.347 6.187-4.043 0-2.039-2.519-3.644-7.558-4.816a160.866 160.866 0 00-7.453-1.582 91.134 91.134 0 01-8.121-2.004c-2.672-.797-5.133-1.734-7.383-2.813-2.25-1.078-4.078-2.554-5.485-4.43-1.382-1.898-2.074-4.124-2.074-6.679 0-4.71 1.676-8.332 5.027-10.863 3.352-2.555 9.118-3.832 17.297-3.832l8.93.21c4.805 0 9.129 1.243 12.973 3.727 3.867 2.461 5.8 5.543 5.8 9.246 0 1.383-.41 2.38-1.23 2.989-.82.609-1.605.914-2.355.914h-4.184c-2.109 0-3.715-1.149-4.816-3.446-1.102-2.32-3.575-3.48-7.418-3.48l-10.582-.211c-4.125 0-6.188 1.348-6.188 4.043 0 1.476 1.301 2.684 3.902 3.621 2.625.938 5.789 1.77 9.493 2.496 3.726.703 7.464 1.559 11.214 2.566 3.75 1.008 6.926 2.672 9.528 4.993 2.625 2.297 3.937 5.168 3.937 8.613 0 4.71-1.687 8.344-5.062 10.898-3.352 2.532-9.106 3.797-17.262 3.797l-10.652-.21c-4.805 0-9.141-1.231-13.008-3.692-3.867-2.485-5.801-5.578-5.801-9.281zm66.192 9.597v-43.77c0-.913.328-1.698.985-2.355.656-.656 1.464-.984 2.425-.984h6.539a3.1 3.1 0 012.321.984c.656.657.984 1.442.984 2.356v15.82h24.188v-15.82c0-.914.328-1.7.984-2.356.656-.656 1.441-.984 2.356-.984h6.539c.961 0 1.757.328 2.39.984.656.657.985 1.442.985 2.356v43.77c0 .913-.34 1.698-1.02 2.355a3.273 3.273 0 01-2.355.949h-6.539c-.915 0-1.7-.305-2.356-.914a3.1 3.1 0 01-.984-2.32v-18.07h-24.188v18.07a3.1 3.1 0 01-.984 2.32c-.633.61-1.406.914-2.321.914h-6.539c-.914 0-1.711-.316-2.39-.95-.68-.656-1.02-1.44-1.02-2.355zm68.021-.07v-43.77a3.1 3.1 0 01.984-2.32 3.273 3.273 0 012.355-.95h40.536a3.1 3.1 0 012.32.985c.656.657.984 1.442.984 2.356v3.305c0 .913-.328 1.699-.984 2.355-.633.633-1.406.95-2.32.95h-30.621v10.23h26.367a3.1 3.1 0 012.32.984 3.1 3.1 0 01.984 2.32v3.305c0 .914-.328 1.7-.984 2.355-.633.633-1.406.95-2.32.95h-26.367v10.37h30.55c.891 0 1.653.317 2.285.95.633.633.95 1.406.95 2.32v3.375c0 .914-.328 1.7-.985 2.356a3.273 3.273 0 01-2.355.949h-40.36a3.273 3.273 0 01-2.355-.95c-.656-.656-.984-1.464-.984-2.425zm57.965-9.527c0-1.383.41-2.367 1.231-2.953.82-.61 1.617-.915 2.39-.915h4.184c2.109 0 3.715 1.149 4.816 3.446 1.102 2.297 3.575 3.445 7.418 3.445l12.305.246c4.125 0 6.187-1.347 6.187-4.043 0-2.039-2.519-3.644-7.558-4.816a160.587 160.587 0 00-7.453-1.582 91.134 91.134 0 01-8.121-2.004c-2.672-.797-5.133-1.734-7.383-2.813-2.25-1.078-4.078-2.554-5.485-4.43-1.382-1.898-2.074-4.124-2.074-6.679 0-4.71 1.676-8.332 5.028-10.863 3.351-2.555 9.117-3.832 17.296-3.832l8.93.21c4.805 0 9.129 1.243 12.973 3.727 3.867 2.461 5.801 5.543 5.801 9.246 0 1.383-.411 2.38-1.231 2.989-.82.609-1.605.914-2.355.914h-4.184c-2.109 0-3.715-1.149-4.816-3.446-1.102-2.32-3.575-3.48-7.418-3.48l-10.582-.211c-4.125 0-6.188 1.348-6.188 4.043 0 1.476 1.301 2.684 3.903 3.621 2.625.938 5.789 1.77 9.492 2.496a151.32 151.32 0 0111.215 2.566c3.75 1.008 6.925 2.672 9.527 4.993 2.625 2.297 3.937 5.168 3.937 8.613 0 4.71-1.687 8.344-5.062 10.898-3.352 2.532-9.106 3.797-17.262 3.797l-10.652-.21c-4.805 0-9.141-1.231-13.008-3.692-3.867-2.485-5.801-5.578-5.801-9.281zm131.077 9.597v-43.77c0-.913.316-1.698.949-2.355a3.1 3.1 0 012.32-.984h26.825c14.179 0 21.269 6.539 21.269 19.617 0 13.055-7.09 19.582-21.269 19.582h-16.84v7.91c0 .914-.328 1.7-.985 2.356-.633.633-1.406.949-2.32.949h-6.609c-.914 0-1.7-.316-2.356-.95-.656-.656-.984-1.44-.984-2.355zm13.254-17.86h12.832c3.937 0 6.925-.655 8.965-1.968 2.039-1.336 3.058-3.89 3.058-7.664 0-3.797-1.019-6.351-3.058-7.664-2.04-1.336-5.028-2.004-8.965-2.004H537.23v19.3zm46.61 17.93l8.824-33.468c2.391-9.117 10.172-13.688 23.344-13.711h18.949c.867 0 1.582.328 2.145.984.586.657.878 1.418.878 2.285v43.91a3.1 3.1 0 01-.984 2.32c-.656.61-1.441.915-2.355.915h-6.61c-.961 0-1.758-.305-2.39-.914-.61-.633-.914-1.43-.914-2.39v-8.86H599.73l-2.355 8.86c-.234.96-.762 1.757-1.582 2.39-.82.61-1.688.914-2.602.914h-6.925c-.914 0-1.571-.258-1.969-.773-.399-.54-.598-1.008-.598-1.407.024-.398.071-.75.141-1.054zm18.492-18.878h22.395V31.535h-10.02c-2.25 0-4.219.645-5.906 1.934-1.664 1.265-2.789 2.976-3.375 5.133l-3.094 11.285zm52.903 18.879v-43.84c0-.914.328-1.7.985-2.356.656-.656 1.441-.984 2.355-.984h6.539c.961 0 1.758.328 2.391.984.656.657.984 1.442.984 2.356v43.77c0 .913-.34 1.698-1.019 2.355a3.277 3.277 0 01-2.356.949h-6.539c-.914 0-1.699-.305-2.355-.914a3.098 3.098 0 01-.985-2.32zm30.544-.07v-43.77c0-.914.316-1.7.949-2.356a3.1 3.1 0 012.32-.984h10.336c.821 0 1.688.328 2.602.984a8.595 8.595 0 012.25 2.356l21.234 32.66v-32.73c0-.915.317-1.688.95-2.32a3.273 3.273 0 012.355-.95h6.047c.914 0 1.687.316 2.32.95.656.632.985 1.429.985 2.39v43.77c0 .913-.329 1.698-.985 2.355-.633.633-1.406.949-2.32.949H723.15c-.914 0-1.852-.316-2.812-.95-.961-.656-1.723-1.44-2.286-2.355l-19.441-30.164v30.164c0 .914-.328 1.7-.984 2.356-.633.633-1.407.949-2.321.949h-6.187a3.277 3.277 0 01-2.356-.95c-.656-.656-.984-1.44-.984-2.355zm65.313-40.465v-3.305c0-.961.317-1.758.949-2.39.633-.634 1.43-.95 2.391-.95h44.613c.961 0 1.758.316 2.391.95.633.632.949 1.429.949 2.39v3.305c0 .96-.316 1.757-.949 2.39-.633.61-1.43.914-2.391.914h-15.679v37.23c0 .915-.329 1.688-.985 2.32-.633.61-1.406.915-2.32.915h-6.645c-.914 0-1.699-.305-2.355-.914-.633-.633-.949-1.406-.949-2.32v-37.23h-15.68c-.961 0-1.758-.306-2.391-.915-.632-.633-.949-1.43-.949-2.39zm60.673 30.867c0-1.383.41-2.367 1.23-2.953.821-.61 1.617-.915 2.391-.915h4.184c2.109 0 3.714 1.149 4.816 3.446 1.101 2.297 3.574 3.445 7.418 3.445l12.305.246c4.125 0 6.187-1.347 6.187-4.043 0-2.039-2.519-3.644-7.559-4.816a160.587 160.587 0 00-7.453-1.582 91.304 91.304 0 01-8.121-2.004c-2.672-.797-5.133-1.734-7.383-2.813-2.25-1.078-4.078-2.554-5.484-4.43-1.383-1.898-2.074-4.124-2.074-6.679 0-4.71 1.676-8.332 5.027-10.863 3.352-2.555 9.117-3.832 17.297-3.832l8.93.21c4.804 0 9.129 1.243 12.972 3.727 3.868 2.461 5.801 5.543 5.801 9.246 0 1.383-.41 2.38-1.23 2.989-.821.609-1.606.914-2.356.914h-4.183c-2.11 0-3.715-1.149-4.817-3.446-1.101-2.32-3.574-3.48-7.418-3.48l-10.582-.211c-4.125 0-6.187 1.348-6.187 4.043 0 1.476 1.301 2.684 3.902 3.621 2.625.938 5.789 1.77 9.492 2.496 3.727.703 7.465 1.559 11.215 2.566 3.75 1.008 6.926 2.672 9.527 4.993 2.625 2.297 3.938 5.168 3.938 8.613 0 4.71-1.688 8.344-5.063 10.898-3.351 2.532-9.105 3.797-17.261 3.797l-10.653-.21c-4.804 0-9.14-1.231-13.007-3.692-3.868-2.485-5.801-5.578-5.801-9.281z" fill="#303030"/><path d="M483.236 40.18c-8.34-2.698-16.966 4.3-20.236 8.138h11.447c7.154 0 8.789 3.572 15.943 6.35 5.723 2.223 11.106-7.276 13.082-12.304 1.908-3.506 4.579-8.851 0-2.183-5.723 8.335-9.811 3.374-20.236 0z" fill="#F95050"/></svg>