<svg width="390" height="41" fill="none" xmlns="http://www.w3.org/2000/svg"><path d="M218.055 17.882c-3.752-1.214-7.633 1.935-9.104 3.66h5.15c3.218 0 3.954 1.608 7.172 2.858 2.575 1 4.996-3.274 5.885-5.536.858-1.577 2.06-3.982 0-.982-2.575 3.75-4.414 1.518-9.103 0z" fill="#F95050"/><path d="M2.262 10.823c0-.411.147-.764.442-1.06a1.446 1.446 0 011.06-.442h12.858c3.152 0 5.477.906 6.975 2.72.832 1.002 1.249 2.283 1.249 3.843 0 1.55-.712 2.905-2.135 4.065 2.024 1.086 3.037 2.773 3.037 5.06 0 2.288-.812 4.028-2.436 5.22C21.699 31.409 19.717 32 17.365 32h-13.6a1.47 1.47 0 01-1.06-.427 1.446 1.446 0 01-.443-1.06v-19.69zM8.224 27.73h9.046c.812 0 1.434-.243 1.867-.728.432-.485.648-1.149.648-1.992 0-.844-.216-1.508-.648-1.993-.433-.485-1.055-.728-1.867-.728H8.224v5.44zm0-9.6h8.461c.665 0 1.197-.195 1.598-.585.4-.4.6-.955.6-1.66 0-.718-.2-1.277-.6-1.677-.401-.401-.934-.601-1.598-.601H8.224v4.523zm47.554 13.19c0 .453-.27.68-.807.68h-3.795c-.401 0-.844-.142-1.329-.427-.474-.295-.838-.648-1.091-1.06l-2.689-4.207c-1.107-1.729-2.446-2.593-4.017-2.593h-3.859v6.8c0 .412-.148.765-.443 1.06a1.42 1.42 0 01-1.044.427h-2.973c-.411 0-.764-.142-1.06-.427a1.446 1.446 0 01-.442-1.06v-19.69c0-.411.142-.764.427-1.06a1.394 1.394 0 011.044-.442h13.047c2.415 0 4.392.648 5.931 1.945 1.55 1.297 2.325 3.047 2.325 5.25 0 3.069-1.988 4.993-5.963 5.773.633.232 1.218.633 1.756 1.202.538.56 1.154 1.376 1.85 2.452l2.879 4.57c.169.296.253.564.253.807zM38.19 19.237h6.737c1.086 0 2.04-.216 2.863-.648.833-.433 1.25-1.123 1.25-2.072 0-.95-.417-1.64-1.25-2.072-.822-.432-1.777-.649-2.863-.649H38.19v5.441zm23.15 3.796v-12.21c0-.411.143-.764.428-1.06a1.483 1.483 0 011.091-.442h2.957c.401 0 .749.147 1.044.443.295.295.443.648.443 1.06v12.24c0 1.55.337 2.705 1.012 3.464.686.759 1.74 1.139 3.163 1.139h2.53c1.424 0 2.473-.38 3.148-1.14.685-.758 1.028-1.913 1.028-3.463v-12.24c0-.412.142-.765.427-1.06a1.446 1.446 0 011.06-.443h2.941c.433 0 .796.147 1.092.443.295.295.442.648.442 1.06v12.209c0 2.889-.848 5.13-2.546 6.721-1.697 1.582-4.175 2.372-7.433 2.372H71.32c-3.268 0-5.751-.79-7.449-2.372-1.687-1.592-2.53-3.832-2.53-6.721zm28.955 3.163c0-.622.185-1.065.554-1.329.37-.274.728-.411 1.076-.411h1.882c.948 0 1.67.517 2.166 1.55s1.608 1.55 3.337 1.55l5.536.11c1.855 0 2.783-.606 2.783-1.818 0-.918-1.133-1.64-3.4-2.167a72.282 72.282 0 00-3.353-.712 41.014 41.014 0 01-3.653-.901 22.676 22.676 0 01-3.322-1.265c-1.012-.485-1.834-1.15-2.467-1.993-.622-.854-.933-1.856-.933-3.005 0-2.12.754-3.748 2.262-4.887 1.508-1.15 4.101-1.724 7.781-1.724l4.017.095c2.161 0 4.107.559 5.836 1.677 1.74 1.107 2.609 2.493 2.609 4.159 0 .622-.184 1.07-.553 1.344-.369.274-.722.412-1.06.412h-1.882c-.949 0-1.671-.517-2.166-1.55-.496-1.044-1.608-1.566-3.337-1.566l-4.76-.095c-1.857 0-2.784.606-2.784 1.819 0 .664.585 1.207 1.755 1.629 1.18.421 2.604.796 4.27 1.123 1.677.316 3.358.7 5.045 1.154 1.687.454 3.116 1.202 4.286 2.246 1.181 1.033 1.772 2.325 1.772 3.875 0 2.119-.759 3.753-2.278 4.903-1.508 1.138-4.096 1.707-7.765 1.707l-4.792-.094c-2.162 0-4.112-.554-5.852-1.661-1.74-1.118-2.61-2.51-2.61-4.175zm29.778 4.317v-19.69c0-.411.147-.764.443-1.06a1.482 1.482 0 011.091-.442h2.942c.411 0 .759.147 1.043.443.296.295.443.648.443 1.06v7.116h10.881v-7.117c0-.411.148-.764.443-1.06a1.445 1.445 0 011.06-.442h2.941c.433 0 .791.147 1.076.443.295.295.443.648.443 1.06v19.69c0 .41-.153.764-.459 1.059a1.472 1.472 0 01-1.06.427h-2.941c-.412 0-.765-.137-1.06-.411a1.395 1.395 0 01-.443-1.044v-8.13h-10.881v8.13c0 .411-.147.76-.443 1.044a1.446 1.446 0 01-1.043.411h-2.942a1.53 1.53 0 01-1.076-.427 1.424 1.424 0 01-.458-1.06zm30.599-.031v-19.69c0-.412.148-.76.443-1.044a1.475 1.475 0 011.06-.427h18.235c.411 0 .759.147 1.044.443.295.295.443.648.443 1.06v1.486c0 .411-.148.764-.443 1.06a1.421 1.421 0 01-1.044.427h-13.775v4.602h11.861c.412 0 .76.147 1.044.443.295.284.443.632.443 1.043v1.487c0 .411-.148.765-.443 1.06a1.418 1.418 0 01-1.044.427h-11.861v4.665h13.743a1.4 1.4 0 011.028.427c.285.285.427.633.427 1.044v1.518c0 .412-.147.765-.442 1.06a1.475 1.475 0 01-1.06.427h-18.156a1.484 1.484 0 01-1.503-1.518zm26.077-4.286c0-.622.184-1.065.553-1.329.369-.274.728-.411 1.076-.411h1.882c.949 0 1.671.517 2.167 1.55.495 1.033 1.608 1.55 3.337 1.55l5.535.11c1.856 0 2.784-.606 2.784-1.818 0-.918-1.134-1.64-3.401-2.167a72.282 72.282 0 00-3.353-.712 41.05 41.05 0 01-3.653-.901 22.669 22.669 0 01-3.321-1.265c-1.012-.485-1.835-1.15-2.467-1.993-.622-.854-.933-1.856-.933-3.005 0-2.12.753-3.748 2.261-4.887 1.508-1.15 4.102-1.724 7.781-1.724l4.017.095c2.162 0 4.107.559 5.836 1.677 1.74 1.107 2.61 2.493 2.61 4.159 0 .622-.185 1.07-.554 1.344-.369.274-.722.412-1.059.412h-1.882c-.949 0-1.672-.517-2.167-1.55-.496-1.044-1.608-1.566-3.337-1.566l-4.761-.095c-1.855 0-2.783.606-2.783 1.819 0 .664.585 1.207 1.755 1.629 1.181.421 2.605.796 4.271 1.123 1.676.316 3.358.7 5.045 1.154 1.687.454 3.115 1.202 4.286 2.246 1.181 1.033 1.771 2.325 1.771 3.875 0 2.119-.759 3.753-2.277 4.903-1.508 1.138-4.097 1.707-7.766 1.707l-4.792-.094c-2.161 0-4.112-.554-5.852-1.661-1.739-1.118-2.609-2.51-2.609-4.175zm58.966 4.317v-19.69c0-.411.142-.764.427-1.06a1.396 1.396 0 011.044-.442h12.067c6.379 0 9.568 2.941 9.568 8.825 0 5.872-3.189 8.809-9.568 8.809h-7.575v3.558c0 .412-.148.765-.443 1.06a1.421 1.421 0 01-1.044.427h-2.973a1.47 1.47 0 01-1.06-.427 1.447 1.447 0 01-.443-1.06zm5.963-8.034h5.772c1.771 0 3.116-.295 4.033-.886.917-.6 1.376-1.75 1.376-3.447 0-1.708-.459-2.858-1.376-3.448-.917-.601-2.262-.902-4.033-.902h-5.772v8.683zm20.968 8.066l3.969-15.056c1.076-4.102 4.576-6.158 10.502-6.168h8.524c.39 0 .712.147.965.443.264.295.395.637.395 1.027v19.754c0 .411-.147.76-.442 1.044a1.506 1.506 0 01-1.06.411h-2.973c-.433 0-.791-.137-1.076-.411-.274-.285-.411-.643-.411-1.076v-3.985h-11.245l-1.059 3.985a1.9 1.9 0 01-.712 1.076c-.369.274-.759.411-1.17.411h-3.116c-.411 0-.707-.116-.886-.348-.179-.242-.269-.453-.269-.633a2.88 2.88 0 01.064-.474zm8.319-8.493h10.074v-8.255h-4.507c-1.013 0-1.898.29-2.657.87-.749.569-1.255 1.338-1.519 2.308l-1.391 5.077zm23.799 8.493V10.823c0-.411.147-.764.442-1.06a1.448 1.448 0 011.06-.442h2.942c.432 0 .79.147 1.075.443.295.295.443.648.443 1.06v19.69c0 .41-.153.764-.459 1.059a1.471 1.471 0 01-1.059.427h-2.942c-.411 0-.764-.137-1.06-.411a1.395 1.395 0 01-.442-1.044zm13.74-.032v-19.69c0-.411.142-.764.427-1.06a1.396 1.396 0 011.044-.442h4.65c.369 0 .759.147 1.17.443a3.86 3.86 0 011.012 1.06l9.553 14.692V10.792c0-.412.142-.76.427-1.044a1.471 1.471 0 011.059-.427h2.72c.412 0 .76.142 1.044.427.296.284.443.643.443 1.075v19.69c0 .412-.147.765-.443 1.06a1.418 1.418 0 01-1.044.427h-5.25c-.411 0-.833-.142-1.265-.427a3.498 3.498 0 01-1.028-1.06l-8.746-13.57v13.57c0 .412-.148.765-.443 1.06a1.421 1.421 0 01-1.044.427h-2.784a1.47 1.47 0 01-1.059-.427 1.447 1.447 0 01-.443-1.06zm29.382-18.203v-1.487c0-.432.142-.79.427-1.075.285-.285.643-.427 1.075-.427h20.07c.432 0 .791.142 1.076.427.284.284.427.643.427 1.075v1.487c0 .432-.143.79-.427 1.075-.285.274-.644.412-1.076.412h-7.054v16.748c0 .411-.147.76-.442 1.044a1.45 1.45 0 01-1.044.411h-2.989c-.412 0-.765-.137-1.06-.411a1.419 1.419 0 01-.427-1.044V13.797h-7.054c-.432 0-.79-.138-1.075-.412-.285-.284-.427-.643-.427-1.075zm27.294 13.886c0-.622.185-1.065.554-1.329.369-.274.727-.411 1.075-.411h1.882c.949 0 1.671.517 2.167 1.55.495 1.033 1.608 1.55 3.337 1.55l5.535.11c1.856 0 2.784-.606 2.784-1.818 0-.918-1.134-1.64-3.401-2.167a72.224 72.224 0 00-3.352-.712 41.07 41.07 0 01-3.654-.901 22.669 22.669 0 01-3.321-1.265c-1.012-.485-1.835-1.15-2.467-1.993-.622-.854-.933-1.856-.933-3.005 0-2.12.754-3.748 2.261-4.887 1.508-1.15 4.102-1.724 7.781-1.724l4.018.095c2.161 0 4.106.559 5.836 1.677 1.739 1.107 2.609 2.493 2.609 4.159 0 .622-.184 1.07-.553 1.344-.37.274-.723.412-1.06.412h-1.882c-.949 0-1.671-.517-2.167-1.55-.495-1.044-1.608-1.566-3.337-1.566l-4.76-.095c-1.856 0-2.784.606-2.784 1.819 0 .664.585 1.207 1.756 1.629 1.181.421 2.604.796 4.27 1.123 1.676.316 3.358.7 5.045 1.154 1.687.454 3.116 1.202 4.286 2.246 1.181 1.033 1.771 2.325 1.771 3.875 0 2.119-.759 3.753-2.277 4.903-1.508 1.138-4.096 1.707-7.766 1.707l-4.792-.094c-2.161 0-4.112-.554-5.851-1.661-1.74-1.118-2.61-2.51-2.61-4.175z" fill="#303030"/></svg>