<svg width="390" height="72" fill="none" xmlns="http://www.w3.org/2000/svg"><path d="M218.055 17.882c-3.752-1.214-7.633 1.935-9.104 3.66h5.15c3.218 0 3.954 1.608 7.172 2.858 2.575 1 4.996-3.274 5.885-5.536.858-1.577 2.06-3.982 0-.982-2.575 3.75-4.414 1.518-9.103 0z" fill="#F95050"/><path d="M2.262 10.823c0-.411.147-.764.442-1.06a1.446 1.446 0 011.06-.442h12.858c3.152 0 5.477.906 6.975 2.72.832 1.002 1.249 2.283 1.249 3.843 0 1.55-.712 2.905-2.135 4.065 2.024 1.086 3.037 2.773 3.037 5.06 0 2.288-.812 4.028-2.436 5.22C21.699 31.409 19.717 32 17.365 32h-13.6a1.47 1.47 0 01-1.06-.427 1.446 1.446 0 01-.443-1.06v-19.69zM8.224 27.73h9.046c.812 0 1.434-.243 1.867-.728.432-.485.648-1.149.648-1.992 0-.844-.216-1.508-.648-1.993-.433-.485-1.055-.728-1.867-.728H8.224v5.44zm0-9.6h8.461c.665 0 1.197-.195 1.598-.585.4-.4.6-.955.6-1.66 0-.718-.2-1.277-.6-1.677-.401-.401-.934-.601-1.598-.601H8.224v4.523zm47.554 13.19c0 .453-.27.68-.807.68h-3.795c-.401 0-.844-.142-1.329-.427-.474-.295-.838-.648-1.091-1.06l-2.689-4.207c-1.107-1.729-2.446-2.593-4.017-2.593h-3.859v6.8c0 .412-.148.765-.443 1.06a1.42 1.42 0 01-1.044.427h-2.973c-.411 0-.764-.142-1.06-.427a1.446 1.446 0 01-.442-1.06v-19.69c0-.411.142-.764.427-1.06a1.394 1.394 0 011.044-.442h13.047c2.415 0 4.392.648 5.931 1.945 1.55 1.297 2.325 3.047 2.325 5.25 0 3.069-1.988 4.993-5.963 5.773.633.232 1.218.633 1.756 1.202.538.56 1.154 1.376 1.85 2.452l2.879 4.57c.169.296.253.564.253.807zM38.19 19.237h6.737c1.086 0 2.04-.216 2.863-.648.833-.433 1.25-1.123 1.25-2.072 0-.95-.417-1.64-1.25-2.072-.822-.432-1.777-.649-2.863-.649H38.19v5.441zm23.15 3.796v-12.21c0-.411.143-.764.428-1.06a1.483 1.483 0 011.091-.442h2.957c.401 0 .749.147 1.044.443.295.295.443.648.443 1.06v12.24c0 1.55.337 2.705 1.012 3.464.686.759 1.74 1.139 3.163 1.139h2.53c1.424 0 2.473-.38 3.148-1.14.685-.758 1.028-1.913 1.028-3.463v-12.24c0-.412.142-.765.427-1.06a1.446 1.446 0 011.06-.443h2.941c.433 0 .796.147 1.092.443.295.295.442.648.442 1.06v12.209c0 2.889-.848 5.13-2.546 6.721-1.697 1.582-4.175 2.372-7.433 2.372H71.32c-3.268 0-5.751-.79-7.449-2.372-1.687-1.592-2.53-3.832-2.53-6.721zm28.955 3.163c0-.622.185-1.065.554-1.329.37-.274.728-.411 1.076-.411h1.882c.948 0 1.67.517 2.166 1.55s1.608 1.55 3.337 1.55l5.536.11c1.855 0 2.783-.606 2.783-1.818 0-.918-1.133-1.64-3.4-2.167a72.282 72.282 0 00-3.353-.712 41.014 41.014 0 01-3.653-.901 22.676 22.676 0 01-3.322-1.265c-1.012-.485-1.834-1.15-2.467-1.993-.622-.854-.933-1.856-.933-3.005 0-2.12.754-3.748 2.262-4.887 1.508-1.15 4.101-1.724 7.781-1.724l4.017.095c2.161 0 4.107.559 5.836 1.677 1.74 1.107 2.609 2.493 2.609 4.159 0 .622-.184 1.07-.553 1.344-.369.274-.722.412-1.06.412h-1.882c-.949 0-1.671-.517-2.166-1.55-.496-1.044-1.608-1.566-3.337-1.566l-4.76-.095c-1.857 0-2.784.606-2.784 1.819 0 .664.585 1.207 1.755 1.629 1.18.421 2.604.796 4.27 1.123 1.677.316 3.358.7 5.045 1.154 1.687.454 3.116 1.202 4.286 2.246 1.181 1.033 1.772 2.325 1.772 3.875 0 2.119-.759 3.753-2.278 4.903-1.508 1.138-4.096 1.707-7.765 1.707l-4.792-.094c-2.162 0-4.112-.554-5.852-1.661-1.74-1.118-2.61-2.51-2.61-4.175zm29.778 4.317v-19.69c0-.411.147-.764.443-1.06a1.482 1.482 0 011.091-.442h2.942c.411 0 .759.147 1.043.443.296.295.443.648.443 1.06v7.116h10.881v-7.117c0-.411.148-.764.443-1.06a1.445 1.445 0 011.06-.442h2.941c.433 0 .791.147 1.076.443.295.295.443.648.443 1.06v19.69c0 .41-.153.764-.459 1.059a1.472 1.472 0 01-1.06.427h-2.941c-.412 0-.765-.137-1.06-.411a1.395 1.395 0 01-.443-1.044v-8.13h-10.881v8.13c0 .411-.147.76-.443 1.044a1.446 1.446 0 01-1.043.411h-2.942a1.53 1.53 0 01-1.076-.427 1.424 1.424 0 01-.458-1.06zm30.599-.031v-19.69c0-.412.148-.76.443-1.044a1.475 1.475 0 011.06-.427h18.235c.411 0 .759.147 1.044.443.295.295.443.648.443 1.06v1.486c0 .411-.148.764-.443 1.06a1.421 1.421 0 01-1.044.427h-13.775v4.602h11.861c.412 0 .76.147 1.044.443.295.284.443.632.443 1.043v1.487c0 .411-.148.765-.443 1.06a1.418 1.418 0 01-1.044.427h-11.861v4.665h13.743a1.4 1.4 0 011.028.427c.285.285.427.633.427 1.044v1.518c0 .412-.147.765-.442 1.06a1.475 1.475 0 01-1.06.427h-18.156a1.484 1.484 0 01-1.503-1.518zm26.077-4.286c0-.622.184-1.065.553-1.329.369-.274.728-.411 1.076-.411h1.882c.949 0 1.671.517 2.167 1.55.495 1.033 1.608 1.55 3.337 1.55l5.535.11c1.856 0 2.784-.606 2.784-1.818 0-.918-1.134-1.64-3.401-2.167a72.282 72.282 0 00-3.353-.712 41.05 41.05 0 01-3.653-.901 22.669 22.669 0 01-3.321-1.265c-1.012-.485-1.835-1.15-2.467-1.993-.622-.854-.933-1.856-.933-3.005 0-2.12.753-3.748 2.261-4.887 1.508-1.15 4.102-1.724 7.781-1.724l4.017.095c2.162 0 4.107.559 5.836 1.677 1.74 1.107 2.61 2.493 2.61 4.159 0 .622-.185 1.07-.554 1.344-.369.274-.722.412-1.059.412h-1.882c-.949 0-1.672-.517-2.167-1.55-.496-1.044-1.608-1.566-3.337-1.566l-4.761-.095c-1.855 0-2.783.606-2.783 1.819 0 .664.585 1.207 1.755 1.629 1.181.421 2.605.796 4.271 1.123 1.676.316 3.358.7 5.045 1.154 1.687.454 3.115 1.202 4.286 2.246 1.181 1.033 1.771 2.325 1.771 3.875 0 2.119-.759 3.753-2.277 4.903-1.508 1.138-4.097 1.707-7.766 1.707l-4.792-.094c-2.161 0-4.112-.554-5.852-1.661-1.739-1.118-2.609-2.51-2.609-4.175zm58.966 4.317v-19.69c0-.411.142-.764.427-1.06a1.396 1.396 0 011.044-.442h12.067c6.379 0 9.568 2.941 9.568 8.825 0 5.872-3.189 8.809-9.568 8.809h-7.575v3.558c0 .412-.148.765-.443 1.06a1.421 1.421 0 01-1.044.427h-2.973a1.47 1.47 0 01-1.06-.427 1.447 1.447 0 01-.443-1.06zm5.963-8.034h5.772c1.771 0 3.116-.295 4.033-.886.917-.6 1.376-1.75 1.376-3.447 0-1.708-.459-2.858-1.376-3.448-.917-.601-2.262-.902-4.033-.902h-5.772v8.683zm20.968 8.066l3.969-15.056c1.076-4.102 4.576-6.158 10.502-6.168h8.524c.39 0 .712.147.965.443.264.295.395.637.395 1.027v19.754c0 .411-.147.76-.442 1.044a1.506 1.506 0 01-1.06.411h-2.973c-.433 0-.791-.137-1.076-.411-.274-.285-.411-.643-.411-1.076v-3.985h-11.245l-1.059 3.985a1.9 1.9 0 01-.712 1.076c-.369.274-.759.411-1.17.411h-3.116c-.411 0-.707-.116-.886-.348-.179-.242-.269-.453-.269-.633a2.88 2.88 0 01.064-.474zm8.319-8.493h10.074v-8.255h-4.507c-1.013 0-1.898.29-2.657.87-.749.569-1.255 1.338-1.519 2.308l-1.391 5.077zm23.799 8.493V10.823c0-.411.147-.764.442-1.06a1.448 1.448 0 011.06-.442h2.942c.432 0 .79.147 1.075.443.295.295.443.648.443 1.06v19.69c0 .41-.153.764-.459 1.059a1.471 1.471 0 01-1.059.427h-2.942c-.411 0-.764-.137-1.06-.411a1.395 1.395 0 01-.442-1.044zm13.74-.032v-19.69c0-.411.142-.764.427-1.06a1.396 1.396 0 011.044-.442h4.65c.369 0 .759.147 1.17.443a3.86 3.86 0 011.012 1.06l9.553 14.692V10.792c0-.412.142-.76.427-1.044a1.471 1.471 0 011.059-.427h2.72c.412 0 .76.142 1.044.427.296.284.443.643.443 1.075v19.69c0 .412-.147.765-.443 1.06a1.418 1.418 0 01-1.044.427h-5.25c-.411 0-.833-.142-1.265-.427a3.498 3.498 0 01-1.028-1.06l-8.746-13.57v13.57c0 .412-.148.765-.443 1.06a1.421 1.421 0 01-1.044.427h-2.784a1.47 1.47 0 01-1.059-.427 1.447 1.447 0 01-.443-1.06zm29.382-18.203v-1.487c0-.432.142-.79.427-1.075.285-.285.643-.427 1.075-.427h20.07c.432 0 .791.142 1.076.427.284.284.427.643.427 1.075v1.487c0 .432-.143.79-.427 1.075-.285.274-.644.412-1.076.412h-7.054v16.748c0 .411-.147.76-.442 1.044a1.45 1.45 0 01-1.044.411h-2.989c-.412 0-.765-.137-1.06-.411a1.419 1.419 0 01-.427-1.044V13.797h-7.054c-.432 0-.79-.138-1.075-.412-.285-.284-.427-.643-.427-1.075zm27.294 13.886c0-.622.185-1.065.554-1.329.369-.274.727-.411 1.075-.411h1.882c.949 0 1.671.517 2.167 1.55.495 1.033 1.608 1.55 3.337 1.55l5.535.11c1.856 0 2.784-.606 2.784-1.818 0-.918-1.134-1.64-3.401-2.167a72.224 72.224 0 00-3.352-.712 41.07 41.07 0 01-3.654-.901 22.669 22.669 0 01-3.321-1.265c-1.012-.485-1.835-1.15-2.467-1.993-.622-.854-.933-1.856-.933-3.005 0-2.12.754-3.748 2.261-4.887 1.508-1.15 4.102-1.724 7.781-1.724l4.018.095c2.161 0 4.106.559 5.836 1.677 1.739 1.107 2.609 2.493 2.609 4.159 0 .622-.184 1.07-.553 1.344-.37.274-.723.412-1.06.412h-1.882c-.949 0-1.671-.517-2.167-1.55-.495-1.044-1.608-1.566-3.337-1.566l-4.76-.095c-1.856 0-2.784.606-2.784 1.819 0 .664.585 1.207 1.756 1.629 1.181.421 2.604.796 4.27 1.123 1.676.316 3.358.7 5.045 1.154 1.687.454 3.116 1.202 4.286 2.246 1.181 1.033 1.771 2.325 1.771 3.875 0 2.119-.759 3.753-2.277 4.903-1.508 1.138-4.096 1.707-7.766 1.707l-4.792-.094c-2.161 0-4.112-.554-5.851-1.661-1.74-1.118-2.61-2.51-2.61-4.175z" fill="#303030"/><path opacity=".5" d="M1.257 66.191v-10.96a.81.81 0 01.835-.834h9.896a.77.77 0 01.58.246c.164.164.247.36.247.588v.827c0 .228-.08.424-.238.589a.76.76 0 01-.571.237H4.57v2.127h4.342c1.424 0 2.578.337 3.463 1.01.885.669 1.327 1.664 1.327 2.989 0 1.318-.442 2.314-1.327 2.988-.885.668-2.04 1.002-3.463 1.002H2.048a.765.765 0 01-.563-.228.805.805 0 01-.228-.58zm3.313-1.678h4.342c.984 0 1.477-.504 1.477-1.512s-.493-1.512-1.477-1.512H4.57v3.024zm13.258 3.401l1.151.15c.826 0 1.403-.607 1.732-1.82-.996 0-1.829-.299-2.496-.896-.668-.604-1.243-1.673-1.723-3.208l-1.31-4.245a.447.447 0 01-.026-.159c0-.064.035-.14.105-.228a.441.441 0 01.334-.14h1.837a.78.78 0 01.484.175c.158.111.26.252.307.422l1.152 3.726c.287.914.577 1.547.87 1.899.299.351.65.527 1.054.527l1.75-6.152a.816.816 0 01.272-.422.71.71 0 01.466-.176h1.854c.147 0 .255.047.325.14.07.095.106.174.106.238a.55.55 0 01-.018.15l-2.302 8.208c-.41 1.454-.92 2.49-1.53 3.112-.603.62-1.383.931-2.338.931-.955 0-1.631-.035-2.03-.105-.392-.07-.639-.158-.738-.264a.481.481 0 01-.15-.351v-.967c0-.158.05-.29.15-.395.1-.1.228-.15.387-.15h.325zm9.495-8.956v-1.046a.523.523 0 01.545-.545h8.658a.523.523 0 01.536.545v1.046c0 .152-.05.281-.15.387-.1.1-.228.15-.386.15h-2.804v6.969a.526.526 0 01-.545.536h-1.96a.554.554 0 01-.395-.15.542.542 0 01-.15-.386v-6.97h-2.804a.553.553 0 01-.395-.15.542.542 0 01-.15-.386zm11.913 7.506v-8.552a.523.523 0 01.536-.545h1.837c.158 0 .287.053.387.158.105.1.158.229.158.387v5.775L45.248 58c.094-.182.237-.331.43-.448.194-.123.381-.185.563-.185h2.461c.158 0 .287.053.387.158.105.1.158.229.158.387v8.552a.523.523 0 01-.545.536h-1.837a.523.523 0 01-.387-.15.542.542 0 01-.15-.386v-5.766l-3.093 5.67c-.094.17-.237.319-.43.447a1.044 1.044 0 01-.563.185h-2.47a.524.524 0 01-.386-.15.523.523 0 01-.15-.386zm22.776.15c0 .257-.152.386-.457.386h-1.661c-.563 0-1.01-.275-1.345-.826l-1.116-1.82c-.48-.779-1.178-1.169-2.092-1.169v3.279a.508.508 0 01-.158.387c-.1.1-.226.149-.378.149h-1.969a.523.523 0 01-.386-.15.523.523 0 01-.15-.386v-8.552a.523.523 0 01.536-.545h1.97a.523.523 0 01.536.545v3.27c1.019 0 1.716-.396 2.091-1.187l.844-1.793c.117-.252.29-.454.518-.606.229-.153.475-.229.739-.229h1.66c.294 0 .44.114.44.343 0 .129-.047.293-.14.492l-1.134 2.39a3.163 3.163 0 01-.791 1.03 2.417 2.417 0 01-1.081.553c.72.217 1.344.744 1.872 1.582l1.494 2.417c.1.17.152.316.158.44zm1.454-4.615v-1.046a.523.523 0 01.536-.545h6.627c.158 0 .287.053.387.158.105.1.158.229.158.387V62a.523.523 0 01-.545.536h-6.627a.523.523 0 01-.387-.15.523.523 0 01-.15-.386zm10.04 4.465v-8.552a.523.523 0 01.537-.545h3.023c.346 0 .61.217.791.65l2.145 5.239 2.144-5.238c.182-.434.445-.65.791-.65h3.023c.159 0 .288.052.387.157.106.1.159.229.159.387v8.552a.523.523 0 01-.545.536h-1.908a.523.523 0 01-.386-.15.542.542 0 01-.15-.386V60.97l-2.25 5.414c-.181.41-.46.615-.835.615h-.861c-.37 0-.645-.205-.826-.615l-2.25-5.414v5.493a.523.523 0 01-.545.536h-1.907a.523.523 0 01-.387-.15.523.523 0 01-.15-.386zm16.668-.097c-.773-.539-1.16-1.3-1.16-2.285 0-.984.387-1.74 1.16-2.267.78-.528 1.781-.792 3.006-.792h2.91c0-.685-.145-1.163-.432-1.432-.287-.27-.79-.404-1.511-.404-.715 0-1.22.178-1.512.536-.287.351-.642.527-1.064.527h-1.31a.554.554 0 01-.395-.15.542.542 0 01-.149-.386c0-1.682 1.597-2.523 4.79-2.523 1.395 0 2.514.314 3.358.94.843.622 1.265 1.586 1.265 2.892v5.44c0 .16-.05.288-.15.388a.52.52 0 01-.386.149h-1.696a.523.523 0 01-.387-.15.542.542 0 01-.15-.386v-.273c-.925.662-1.995.99-3.208.985-1.207 0-2.2-.27-2.979-.809zm3.217-3.348c-.41 0-.736.1-.976.298a.968.968 0 00-.351.774c0 .316.123.577.369.782.246.205.594.308 1.046.308.902 0 1.772-.264 2.61-.791v-1.371h-2.698zm13.468 4.157c-1.64 0-2.918-.422-3.832-1.266-.914-.844-1.371-2.083-1.371-3.718 0-1.64.454-2.882 1.362-3.726.909-.85 2.171-1.275 3.788-1.275 1.623 0 2.869.258 3.736.774.873.515 1.309 1.277 1.309 2.285a.506.506 0 01-.158.387.522.522 0 01-.387.15h-1.309c-.399 0-.735-.215-1.011-.642-.346-.551-.958-.827-1.837-.827-.873 0-1.485.226-1.837.677-.345.445-.518 1.175-.518 2.189 0 1.013.178 1.746.536 2.197.363.451.99.677 1.881.677.896 0 1.517-.276 1.863-.827.275-.433.612-.65 1.011-.65h1.309a.51.51 0 01.387.158c.106.1.158.226.158.378 0 1.008-.436 1.77-1.309 2.285-.868.516-2.124.774-3.771.774zm6.516-8.218v-1.046c0-.158.05-.287.15-.387a.535.535 0 01.395-.158h8.658a.524.524 0 01.536.545v1.046a.54.54 0 01-.15.387.521.521 0 01-.386.15h-2.804v6.969a.528.528 0 01-.545.536h-1.96a.556.556 0 01-.396-.15.545.545 0 01-.149-.386v-6.97h-2.804a.552.552 0 01-.395-.15.54.54 0 01-.15-.386zm12.634 6.935c-.903-.856-1.354-2.086-1.354-3.692 0-1.611.454-2.848 1.363-3.709.908-.867 2.168-1.3 3.779-1.3 1.611 0 2.868.421 3.77 1.265.903.838 1.354 2.042 1.354 3.612v.501a.525.525 0 01-.545.545h-6.618c.058.72.263 1.245.615 1.574.357.328.926.492 1.705.492s1.313-.176 1.6-.528c.287-.351.641-.53 1.063-.536h1.31a.51.51 0 01.387.158.51.51 0 01.158.387c0 1.682-1.603 2.52-4.808 2.514-1.617 0-2.877-.428-3.779-1.283zm1.731-4.632h4.087c-.058-1.383-.738-2.075-2.039-2.075-1.295 0-1.977.692-2.048 2.075zm9.698 8.165V57.912a.525.525 0 01.536-.545h1.697c.152 0 .278.053.377.158.106.1.159.229.159.387v.264c.925-.657 2.001-.985 3.225-.985 1.225 0 2.247.434 3.068 1.301.82.861 1.23 2.098 1.23 3.71 0 1.605-.425 2.835-1.274 3.69-.85.856-1.995 1.284-3.437 1.284-.744 0-1.591-.15-2.54-.448v2.698a.51.51 0 01-.158.386.499.499 0 01-.378.159h-1.969a.528.528 0 01-.536-.545zm3.041-4.729c.756.24 1.392.36 1.907.36.803 0 1.371-.228 1.705-.685.34-.457.51-1.187.51-2.188 0-1.002-.161-1.729-.483-2.18-.317-.457-.794-.686-1.433-.686-.633 0-1.368.264-2.206.791v4.588zm14.435 2.479c-1.64 0-2.918-.422-3.832-1.266-.914-.844-1.371-2.083-1.371-3.718 0-1.64.454-2.882 1.362-3.726.909-.85 2.171-1.275 3.789-1.275 1.623 0 2.868.258 3.735.774.873.515 1.309 1.277 1.309 2.285a.506.506 0 01-.158.387.521.521 0 01-.386.15h-1.31c-.398 0-.735-.215-1.011-.642-.345-.551-.958-.827-1.837-.827-.873 0-1.485.226-1.837.677-.345.445-.518 1.175-.518 2.189 0 1.013.179 1.746.536 2.197.363.451.99.677 1.881.677.896 0 1.517-.276 1.863-.827.275-.433.612-.65 1.011-.65h1.309c.159 0 .288.053.387.158.106.1.158.226.158.378 0 1.008-.436 1.77-1.309 2.285-.867.516-2.124.774-3.771.774zm17.134-.563c0 .258-.153.387-.457.387h-1.662c-.562 0-1.01-.275-1.344-.826l-1.116-1.82c-.481-.779-1.178-1.169-2.092-1.169v3.279a.51.51 0 01-.158.387c-.1.1-.226.149-.378.149h-1.969a.525.525 0 01-.387-.15.525.525 0 01-.149-.386v-8.552a.525.525 0 01.536-.545h1.969a.524.524 0 01.536.545v3.27c1.019 0 1.717-.396 2.092-1.187l.843-1.793c.117-.252.29-.454.519-.606.228-.153.474-.229.738-.229h1.661c.293 0 .44.114.44.343 0 .129-.047.293-.141.492l-1.134 2.39a3.157 3.157 0 01-.791 1.03 2.416 2.416 0 01-1.081.553c.721.217 1.345.744 1.872 1.582l1.494 2.417c.1.17.153.316.159.44zm2.701-.246c-.773-.539-1.16-1.3-1.16-2.285 0-.984.387-1.74 1.16-2.267.78-.528 1.782-.792 3.006-.792h2.909c0-.685-.143-1.163-.43-1.432-.287-.27-.791-.404-1.512-.404-.715 0-1.219.178-1.512.536-.287.351-.641.527-1.063.527h-1.31a.552.552 0 01-.395-.15.541.541 0 01-.15-.386c0-1.682 1.597-2.523 4.79-2.523 1.395 0 2.514.314 3.358.94.844.622 1.265 1.586 1.265 2.892v5.44a.521.521 0 01-.149.388c-.1.1-.228.149-.387.149h-1.696a.525.525 0 01-.387-.15.545.545 0 01-.149-.386v-.273c-.926.662-1.995.99-3.208.985-1.207 0-2.2-.27-2.98-.809zm3.217-3.348c-.41 0-.735.1-.975.298a.966.966 0 00-.352.774c0 .316.123.577.369.782.246.205.595.308 1.046.308.902 0 1.773-.264 2.61-.791v-1.371h-2.698zm8.38-2.55c0-2.062 1.306-3.096 3.92-3.102h5.185a.521.521 0 01.536.545v8.552a.521.521 0 01-.149.387c-.1.1-.229.149-.387.149h-1.96a.552.552 0 01-.395-.15.541.541 0 01-.15-.386v-2.9h-1.722l-1.495 2.663c-.287.515-.744.773-1.371.773h-1.582c-.216 0-.357-.08-.422-.237a.508.508 0 01-.035-.203c0-.087.044-.199.132-.333l1.767-2.954c-1.248-.463-1.872-1.397-1.872-2.803zm3.348-.8c-.205.194-.307.46-.307.8 0 .335.099.601.299.8.205.2.489.3.852.3h2.408V59.37h-2.408c-.357 0-.639.1-.844.299zm15.845 2.611v-.43c0-.24.115-.51.343-.809l1.802-2.303c.199-.263.439-.395.72-.395h1.073c.181 0 .29.07.325.21.035.136-.012.305-.141.51l-1.837 3.006 1.837 3.006c.129.205.176.378.141.519-.035.135-.144.202-.325.202h-1.073c-.281 0-.521-.132-.72-.396l-1.802-2.302c-.228-.305-.343-.578-.343-.818zm7.902-3.937c.228 0 .342.102.342.307 0 .106-.052.244-.158.413l-1.837 3.006 1.837 3.006c.106.153.158.27.158.352a.398.398 0 01-.017.15c-.035.146-.144.219-.325.219h-1.081c-.276 0-.516-.132-.721-.396l-1.802-2.302c-.223-.305-.334-.578-.334-.818v-.43c0-.24.111-.51.334-.809l1.802-2.303c.205-.263.445-.395.721-.395h1.081zm15.903 8.27c0 .258-.153.387-.457.387h-2.013c-.229 0-.475-.08-.738-.237a1.922 1.922 0 01-.616-.59l-1.547-2.451c-.369-.598-.741-1.046-1.116-1.345-.375-.305-.826-.457-1.353-.457h-1.89v4.271a.775.775 0 01-.246.58.805.805 0 01-.58.229h-1.652a.803.803 0 01-.589-.246.833.833 0 01-.246-.598V55.231c0-.228.082-.427.246-.597a.79.79 0 01.589-.255h1.652c.228 0 .422.085.58.255.164.17.246.369.246.597v4.21h1.89c.515 0 .967-.14 1.353-.422.393-.28.765-.735 1.116-1.362l1.363-2.426c.31-.562.732-.846 1.265-.852h2.031c.281 0 .422.123.422.369 0 .135-.05.296-.15.483l-1.907 3.454c-.276.505-.586.92-.932 1.249-.34.328-.785.56-1.336.694.387.082.783.325 1.187.73.41.404.77.843 1.081 1.318l2.197 3.498c.1.17.15.316.15.44zm1.989-.15v-8.55a.525.525 0 01.537-.545h1.836c.159 0 .288.052.387.157.106.1.158.229.158.387v5.775L237.345 58c.094-.182.237-.331.431-.448a1.05 1.05 0 01.562-.185h2.461a.51.51 0 01.387.158.51.51 0 01.158.387v8.552a.525.525 0 01-.545.536h-1.837a.521.521 0 01-.386-.15.541.541 0 01-.15-.386v-5.766l-3.094 5.67c-.093.17-.237.319-.43.447a1.05 1.05 0 01-.563.185h-2.469a.522.522 0 01-.387-.15.522.522 0 01-.15-.386zm17.723.713c-1.641 0-2.918-.422-3.832-1.266-.914-.844-1.371-2.083-1.371-3.718 0-1.64.454-2.882 1.362-3.726.908-.85 2.171-1.275 3.788-1.275 1.623 0 2.868.258 3.735.774.873.515 1.31 1.277 1.31 2.285a.525.525 0 01-.545.536h-1.31c-.398 0-.735-.214-1.01-.642-.346-.55-.958-.826-1.837-.826-.873 0-1.486.226-1.837.677-.346.445-.519 1.175-.519 2.189 0 1.013.179 1.746.536 2.197.364.451.991.677 1.881.677.897 0 1.518-.276 1.864-.827.275-.433.612-.65 1.01-.65h1.31a.51.51 0 01.387.158.5.5 0 01.158.378c0 1.008-.437 1.77-1.31 2.285-.867.516-2.124.774-3.77.774zm6.516-8.218v-1.046a.525.525 0 01.545-.545h8.657a.525.525 0 01.536.545v1.046c0 .152-.05.281-.149.387-.1.1-.229.15-.387.15h-2.804v6.969a.524.524 0 01-.545.536h-1.96a.552.552 0 01-.395-.15.54.54 0 01-.149-.386v-6.97h-2.804a.556.556 0 01-.396-.15.544.544 0 01-.149-.386zm11.913 7.506v-8.552a.521.521 0 01.536-.545h1.837c.158 0 .287.053.386.158.106.1.159.229.159.387v5.775L273.496 58c.094-.182.238-.331.431-.448a1.05 1.05 0 01.562-.185h2.461a.51.51 0 01.387.158c.106.1.158.229.158.387v8.552a.523.523 0 01-.545.536h-1.837a.521.521 0 01-.386-.15.541.541 0 01-.15-.386v-5.766l-3.093 5.67c-.094.17-.238.319-.431.447a1.048 1.048 0 01-.563.185h-2.469a.523.523 0 01-.387-.15.521.521 0 01-.149-.386zm29.986.15c0 .257-.152.386-.457.386h-1.661c-.563 0-1.011-.275-1.345-.826l-1.116-1.82c-.48-.779-1.178-1.169-2.092-1.169v3.279a.51.51 0 01-.158.387c-.1.1-.226.149-.378.149h-1.969a.521.521 0 01-.386-.15.522.522 0 01-.15-.386v-8.552a.524.524 0 01.536-.545h1.969a.525.525 0 01.536.545v3.27c1.02 0 1.717-.396 2.092-1.187l.844-1.793a1.45 1.45 0 01.518-.606c.229-.153.475-.229.739-.229h1.661c.293 0 .439.114.439.343 0 .129-.047.293-.14.492l-1.134 2.39a3.17 3.17 0 01-.791 1.03 2.42 2.42 0 01-1.081.553c.72.217 1.344.744 1.872 1.582l1.494 2.417c.1.17.152.316.158.44zm2.175 2.812V57.912a.521.521 0 01.536-.545h1.696a.5.5 0 01.378.158.51.51 0 01.158.387v.264c.926-.657 2.001-.985 3.226-.985 1.224 0 2.247.434 3.067 1.301.82.861 1.231 2.098 1.231 3.71 0 1.605-.425 2.835-1.275 3.69-.85.856-1.995 1.284-3.436 1.284-.745 0-1.591-.15-2.54-.448v2.698a.507.507 0 01-.159.386.496.496 0 01-.378.159h-1.968a.525.525 0 01-.536-.545zm3.041-4.729c.755.24 1.391.36 1.907.36.802 0 1.371-.228 1.705-.685.34-.457.51-1.187.51-2.188 0-1.002-.162-1.729-.484-2.18-.316-.457-.794-.686-1.432-.686-.633 0-1.369.264-2.206.791v4.588zm10.392 1.67c-.774-.539-1.16-1.3-1.16-2.285 0-.984.386-1.74 1.16-2.267.779-.528 1.781-.792 3.006-.792h2.909c0-.685-.144-1.163-.431-1.432-.287-.27-.791-.404-1.512-.404-.714 0-1.218.178-1.511.536-.287.351-.642.527-1.064.527h-1.309a.554.554 0 01-.396-.15.54.54 0 01-.149-.386c0-1.682 1.596-2.523 4.79-2.523 1.394 0 2.513.314 3.357.94.844.622 1.266 1.586 1.266 2.892v5.44c0 .16-.05.288-.15.388a.521.521 0 01-.386.149h-1.697a.521.521 0 01-.386-.15.541.541 0 01-.15-.386v-.273c-.926.662-1.995.99-3.208.985-1.207 0-2.2-.27-2.979-.809zm3.217-3.348c-.411 0-.736.1-.976.298a.97.97 0 00-.352.774c0 .316.123.577.369.782.247.205.595.308 1.046.308.903 0 1.773-.264 2.611-.791v-1.371h-2.698zm13.468 4.157c-1.641 0-2.918-.422-3.832-1.266-.914-.844-1.371-2.083-1.371-3.718 0-1.64.454-2.882 1.362-3.726.908-.85 2.171-1.275 3.788-1.275 1.623 0 2.868.258 3.735.774.874.515 1.31 1.277 1.31 2.285a.525.525 0 01-.545.536h-1.309c-.399 0-.736-.214-1.011-.642-.346-.55-.958-.826-1.837-.826-.873 0-1.485.226-1.837.677-.346.445-.519 1.175-.519 2.189 0 1.013.179 1.746.537 2.197.363.451.99.677 1.88.677.897 0 1.518-.276 1.864-.827.275-.433.612-.65 1.01-.65h1.31a.51.51 0 01.387.158.5.5 0 01.158.378c0 1.008-.437 1.77-1.31 2.285-.867.516-2.124.774-3.77.774zm17.133-.563c0 .258-.152.387-.457.387h-1.661c-.562 0-1.011-.275-1.345-.826l-1.116-1.82c-.48-.779-1.178-1.169-2.092-1.169v3.279a.506.506 0 01-.158.387.51.51 0 01-.378.149h-1.969a.521.521 0 01-.386-.15.522.522 0 01-.15-.386v-8.552a.524.524 0 01.536-.545h1.969a.521.521 0 01.536.545v3.27c1.02 0 1.717-.396 2.092-1.187l.844-1.793a1.45 1.45 0 01.518-.606c.229-.153.475-.229.739-.229h1.661c.293 0 .439.114.439.343 0 .129-.047.293-.14.492l-1.134 2.39a3.157 3.157 0 01-.791 1.03 2.416 2.416 0 01-1.081.553c.721.217 1.345.744 1.872 1.582l1.494 2.417c.1.17.152.316.158.44zm2.175-.15v-8.55a.521.521 0 01.536-.546h1.837c.158 0 .287.053.386.158.106.1.159.229.159.387v5.775L355.083 58c.094-.182.238-.331.431-.448a1.05 1.05 0 01.563-.185h2.461c.158 0 .287.053.386.158.106.1.158.229.158.387v8.552a.506.506 0 01-.158.387.521.521 0 01-.386.149h-1.837a.522.522 0 01-.387-.15.541.541 0 01-.15-.386v-5.766l-3.093 5.67c-.094.17-.238.319-.431.447a1.048 1.048 0 01-.562.185h-2.47a.525.525 0 01-.387-.15.521.521 0 01-.149-.386zm12.361-.887v-.14c0-.07.046-.19.14-.36l1.837-3.007-1.837-3.006c-.105-.158-.155-.275-.149-.351.006-.076.009-.135.009-.176.035-.129.143-.193.325-.193h1.081c.275 0 .515.132.721.395l1.793 2.303c.228.299.342.568.342.809v.43c0 .24-.114.513-.342.818L363.56 65.4c-.206.264-.446.396-.721.396h-1.081c-.182 0-.29-.073-.325-.22zm3.946-6.926c0-.205.111-.307.334-.307h1.081c.275 0 .516.132.721.395l1.801 2.303c.229.299.343.568.343.809v.43c0 .24-.114.513-.343.818l-1.801 2.302c-.205.264-.446.396-.721.396h-1.081c-.176 0-.281-.073-.317-.22 0-.023-.002-.07-.008-.14s.044-.19.149-.36l1.837-3.007-1.837-3.006c-.105-.158-.158-.295-.158-.413z" fill="#303030"/></svg>