<svg width="393" height="77" fill="none" xmlns="http://www.w3.org/2000/svg"><path opacity=".5" d="M18.3 71.524c0 .258-.152.387-.457.387H15.83c-.228 0-.475-.08-.738-.238a1.914 1.914 0 01-.615-.588l-1.547-2.453c-.37-.597-.742-1.046-1.117-1.344-.375-.305-.826-.457-1.353-.457H8.57v4.271a.775.775 0 01-.246.58.805.805 0 01-.58.229H6.092a.804.804 0 01-.59-.246.833.833 0 01-.245-.598V60.142c0-.228.082-.428.246-.598a.79.79 0 01.589-.254h1.652a.76.76 0 01.58.254c.164.17.246.37.246.598v4.21h1.89c.516 0 .967-.14 1.353-.422.393-.281.765-.735 1.117-1.362l1.362-2.426c.31-.562.732-.847 1.266-.852h2.03c.281 0 .422.123.422.369 0 .135-.05.296-.15.483l-1.907 3.454c-.275.504-.586.92-.931 1.248-.34.328-.786.56-1.337.695.387.082.783.325 1.187.73.41.403.77.843 1.081 1.317l2.197 3.499c.1.17.15.316.15.439zm2.605-.246c-.774-.54-1.16-1.3-1.16-2.285 0-.985.386-1.74 1.16-2.268.78-.527 1.781-.79 3.006-.79h2.909c0-.686-.144-1.164-.43-1.434-.288-.27-.792-.404-1.512-.404-.715 0-1.22.179-1.512.536-.287.352-.642.528-1.064.528h-1.31a.553.553 0 01-.395-.15.542.542 0 01-.15-.386c0-1.682 1.598-2.523 4.79-2.523 1.395 0 2.515.314 3.358.94.844.622 1.266 1.585 1.266 2.892v5.44a.52.52 0 01-.15.387c-.1.1-.228.15-.386.15h-1.697a.523.523 0 01-.386-.15.542.542 0 01-.15-.386v-.273c-.925.662-1.995.99-3.208.984-1.207 0-2.2-.27-2.98-.808zm3.217-3.349c-.41 0-.736.1-.976.299a.968.968 0 00-.352.773c0 .317.124.578.37.783.246.205.594.307 1.046.307.902 0 1.772-.263 2.61-.79v-1.372h-2.698zm8.81 6.407V62.823a.523.523 0 01.536-.545h1.696c.153 0 .279.053.378.158.106.1.158.229.158.387v.263c.926-.656 2.001-.984 3.226-.984s2.247.434 3.067 1.3c.82.862 1.23 2.099 1.23 3.71 0 1.605-.424 2.836-1.274 3.691-.85.856-1.995 1.283-3.436 1.283-.744 0-1.59-.149-2.54-.448v2.698a.508.508 0 01-.158.387.497.497 0 01-.378.158h-1.969a.526.526 0 01-.536-.545zm3.04-4.728c.757.24 1.392.36 1.908.36.803 0 1.371-.228 1.705-.685.34-.457.51-1.187.51-2.189s-.161-1.728-.483-2.18c-.317-.457-.794-.685-1.433-.685-.633 0-1.368.264-2.206.791v4.588zm8.697-5.74v-1.045a.523.523 0 01.545-.545h8.657a.523.523 0 01.536.545v1.046a.54.54 0 01-.15.386.52.52 0 01-.386.15h-2.804v6.97a.526.526 0 01-.545.536h-1.96a.554.554 0 01-.395-.15.542.542 0 01-.15-.386v-6.97h-2.803a.553.553 0 01-.396-.15.542.542 0 01-.15-.386zm11.912 7.506v-8.551a.523.523 0 01.537-.545h1.837c.158 0 .287.053.386.158.106.1.158.229.158.387v5.774l3.094-5.686c.094-.182.237-.331.43-.449a1.05 1.05 0 01.563-.184h2.461a.51.51 0 01.387.158c.106.1.158.229.158.387v8.551a.523.523 0 01-.545.536H64.21a.523.523 0 01-.386-.149.542.542 0 01-.15-.386v-5.766l-3.093 5.669a1.3 1.3 0 01-.431.448 1.05 1.05 0 01-.563.185h-2.47a.523.523 0 01-.386-.15.523.523 0 01-.15-.386zm13.064 0v-8.551a.523.523 0 01.537-.545h1.968a.523.523 0 01.536.545v3.146h3.85v-3.146a.523.523 0 01.545-.545h1.96a.523.523 0 01.536.545v8.551a.52.52 0 01-.15.387.52.52 0 01-.386.15h-1.96a.554.554 0 01-.395-.15.542.542 0 01-.15-.386v-3.279h-3.85v3.278a.508.508 0 01-.158.387.51.51 0 01-.378.15h-1.968a.523.523 0 01-.387-.15.523.523 0 01-.15-.386zm12.994 0v-8.551a.523.523 0 01.536-.545h1.97a.523.523 0 01.536.545v2.645h2.091c1.248 0 2.212.246 2.892.739.685.492 1.028 1.32 1.028 2.487 0 1.16-.343 1.986-1.028 2.478-.68.493-1.644.739-2.892.739h-4.597a.523.523 0 01-.386-.15.523.523 0 01-.15-.386zm2.989-1.423H87.5c.767 0 1.151-.42 1.151-1.257 0-.844-.384-1.266-1.151-1.266h-1.873v2.523zm7.303 1.424v-8.552a.523.523 0 01.545-.545h1.96a.523.523 0 01.536.545v8.551a.52.52 0 01-.15.387.52.52 0 01-.386.15h-1.96a.553.553 0 01-.395-.15.523.523 0 01-.15-.386zm13.323 0v-8.552a.526.526 0 01.536-.545h8.859a.522.522 0 01.536.545v8.551a.521.521 0 01-.149.387c-.1.1-.229.15-.387.15h-1.96a.552.552 0 01-.395-.15.54.54 0 01-.15-.386v-6.97h-3.849v6.97a.51.51 0 01-.158.386c-.1.1-.226.15-.378.15h-1.969a.525.525 0 01-.387-.15.525.525 0 01-.149-.386zm13.82-.554c-.914-.844-1.371-2.086-1.371-3.727 0-1.646.457-2.888 1.371-3.726.914-.844 2.226-1.266 3.937-1.266 1.717 0 3.032.422 3.946 1.266.914.838 1.372 2.08 1.372 3.726 0 1.64-.458 2.883-1.372 3.727-.914.844-2.229 1.265-3.946 1.265-1.711 0-3.023-.421-3.937-1.265zm2.223-6.012c-.363.475-.545 1.234-.545 2.276 0 1.043.182 1.805.545 2.286.364.48.935.72 1.714.72.785 0 1.36-.24 1.723-.72.369-.48.553-1.243.553-2.286 0-1.042-.184-1.801-.553-2.276-.363-.474-.938-.712-1.723-.712-.779 0-1.35.238-1.714.712zm16.768 6.566v-8.552a.526.526 0 01.536-.545h1.969a.526.526 0 01.536.545v3.146h3.85v-3.146c0-.158.049-.287.149-.387a.538.538 0 01.396-.158h1.96a.524.524 0 01.536.545v8.551a.52.52 0 01-.15.387.521.521 0 01-.386.15h-1.96a.554.554 0 01-.396-.15.54.54 0 01-.149-.386v-3.279h-3.85v3.278a.51.51 0 01-.158.387c-.1.1-.226.15-.378.15h-1.969a.525.525 0 01-.387-.15.525.525 0 01-.149-.386zm13.82-.554c-.914-.844-1.371-2.086-1.371-3.727 0-1.646.457-2.888 1.371-3.726.914-.844 2.227-1.266 3.937-1.266 1.717 0 3.033.422 3.947 1.266.914.838 1.371 2.08 1.371 3.726 0 1.64-.457 2.883-1.371 3.727-.914.844-2.23 1.265-3.947 1.265-1.71 0-3.023-.421-3.937-1.265zm2.224-6.012c-.364.475-.545 1.234-.545 2.276 0 1.043.181 1.805.545 2.286.363.48.934.72 1.713.72.786 0 1.36-.24 1.723-.72.369-.48.554-1.243.554-2.286 0-1.042-.185-1.801-.554-2.276-.363-.474-.937-.712-1.723-.712-.779 0-1.35.238-1.713.712zm9.557 6.566v-8.552a.526.526 0 01.536-.545h3.023c.346 0 .61.217.791.65l2.145 5.239 2.144-5.239c.182-.433.446-.65.791-.65h3.024a.51.51 0 01.387.158.51.51 0 01.158.387v8.551a.525.525 0 01-.545.536h-1.907a.523.523 0 01-.387-.149.54.54 0 01-.149-.386V65.88l-2.25 5.414c-.182.41-.46.616-.835.616h-.862c-.369 0-.644-.205-.826-.616l-2.25-5.414v5.493a.525.525 0 01-.545.536h-1.907a.525.525 0 01-.387-.149.525.525 0 01-.149-.386zm16.861-.572c-.903-.855-1.354-2.086-1.354-3.691 0-1.611.454-2.848 1.363-3.71.908-.866 2.168-1.3 3.779-1.3 1.611 0 2.868.422 3.77 1.266.903.838 1.354 2.042 1.354 3.612v.501a.525.525 0 01-.545.545h-6.618c.058.72.263 1.245.615 1.573.357.328.926.492 1.705.492s1.313-.175 1.6-.527c.287-.352.641-.53 1.063-.536h1.31c.158 0 .287.053.386.158.106.1.159.229.159.387 0 1.681-1.603 2.52-4.808 2.513-1.617 0-2.877-.427-3.779-1.283zm1.731-4.632h4.087c-.058-1.382-.738-2.074-2.039-2.074-1.295 0-1.977.692-2.048 2.074zm9.698 8.165V62.823a.526.526 0 01.536-.545h1.696c.153 0 .279.053.378.158.106.1.159.229.159.387v.263c.925-.656 2.001-.984 3.225-.984 1.225 0 2.247.434 3.068 1.3.82.862 1.23 2.099 1.23 3.71 0 1.605-.425 2.836-1.274 3.691-.85.856-1.995 1.283-3.437 1.283-.744 0-1.591-.149-2.54-.448v2.698a.51.51 0 01-.158.387.499.499 0 01-.378.158h-1.969a.528.528 0 01-.536-.545zm3.041-4.728c.756.24 1.392.36 1.907.36.803 0 1.371-.228 1.705-.685.34-.457.51-1.187.51-2.189s-.161-1.728-.483-2.18c-.317-.457-.794-.685-1.433-.685-.633 0-1.368.264-2.206.791v4.588zm10.392 1.67c-.773-.54-1.16-1.3-1.16-2.285 0-.985.387-1.74 1.16-2.268.78-.527 1.782-.79 3.006-.79h2.909c0-.686-.143-1.164-.43-1.434-.287-.27-.791-.404-1.512-.404-.715 0-1.219.179-1.512.536-.287.352-.641.528-1.063.528h-1.31a.552.552 0 01-.395-.15.54.54 0 01-.15-.386c0-1.682 1.597-2.523 4.79-2.523 1.395 0 2.514.314 3.358.94.843.622 1.265 1.585 1.265 2.892v5.44a.521.521 0 01-.149.387c-.1.1-.229.15-.387.15h-1.696a.525.525 0 01-.387-.15.544.544 0 01-.149-.386v-.273c-.926.662-1.995.99-3.208.984-1.207 0-2.2-.27-2.98-.808zm3.217-3.349c-.41 0-.735.1-.976.299a.969.969 0 00-.351.773c0 .317.123.578.369.783.246.205.595.307 1.046.307.902 0 1.772-.263 2.61-.79v-1.372h-2.698zm8.81 3.445v-8.551a.524.524 0 01.536-.545h3.024c.345 0 .609.217.791.65l2.144 5.239 2.145-5.239c.182-.433.445-.65.791-.65h3.023a.51.51 0 01.387.158c.106.1.158.229.158.387v8.551a.523.523 0 01-.545.536h-1.907a.525.525 0 01-.387-.149.544.544 0 01-.149-.386V65.88l-2.25 5.414c-.182.41-.46.616-.835.616h-.861c-.369 0-.645-.205-.827-.616l-2.25-5.414v5.493a.506.506 0 01-.158.387.521.521 0 01-.386.15h-1.908a.521.521 0 01-.386-.15.522.522 0 01-.15-.386z" fill="#fff" fill-opacity=".8"/><path d="M2.262 11.685c0-.411.147-.764.442-1.06a1.446 1.446 0 011.06-.443h12.858c3.152 0 5.477.907 6.975 2.72.832 1.002 1.249 2.284 1.249 3.844 0 1.55-.712 2.905-2.135 4.065 2.024 1.085 3.037 2.772 3.037 5.06s-.812 4.028-2.436 5.22c-1.613 1.18-3.595 1.77-5.947 1.77h-13.6c-.412 0-.765-.142-1.06-.426a1.446 1.446 0 01-.443-1.06v-19.69zm5.962 16.907h9.046c.812 0 1.434-.243 1.867-.728.432-.485.648-1.15.648-1.993 0-.843-.216-1.507-.648-1.992-.433-.485-1.055-.728-1.867-.728H8.224v5.44zm0-9.6h8.461c.665 0 1.197-.195 1.598-.585.4-.401.6-.955.6-1.661 0-.717-.2-1.276-.6-1.676-.401-.401-.934-.601-1.598-.601H8.224v4.523zm47.554 13.19c0 .453-.27.68-.807.68h-3.795c-.401 0-.844-.143-1.329-.427-.474-.295-.838-.649-1.091-1.06l-2.689-4.207c-1.107-1.729-2.446-2.593-4.017-2.593h-3.859v6.8c0 .411-.148.765-.443 1.06a1.42 1.42 0 01-1.044.427h-2.973c-.411 0-.764-.143-1.06-.427a1.446 1.446 0 01-.442-1.06v-19.69c0-.411.142-.764.427-1.06a1.394 1.394 0 011.044-.443h13.047c2.415 0 4.392.649 5.931 1.946 1.55 1.297 2.325 3.047 2.325 5.25 0 3.069-1.988 4.993-5.963 5.773.633.232 1.218.633 1.756 1.202.538.559 1.154 1.376 1.85 2.451l2.879 4.571c.169.295.253.564.253.807zM38.19 20.099h6.737c1.086 0 2.04-.216 2.863-.649.833-.432 1.25-1.123 1.25-2.072 0-.948-.417-1.639-1.25-2.071-.822-.433-1.777-.649-2.863-.649H38.19v5.44zm23.15 3.796v-12.21c0-.411.143-.764.428-1.06a1.483 1.483 0 011.091-.443h2.957c.401 0 .749.148 1.044.443.295.296.443.649.443 1.06v12.241c0 1.55.337 2.705 1.012 3.464.686.759 1.74 1.138 3.163 1.138h2.53c1.424 0 2.473-.38 3.148-1.138.685-.76 1.028-1.914 1.028-3.464V11.685c0-.411.142-.764.427-1.06a1.446 1.446 0 011.06-.443h2.941c.433 0 .796.148 1.092.443.295.296.442.649.442 1.06v12.21c0 2.888-.848 5.129-2.546 6.721-1.697 1.582-4.175 2.372-7.433 2.372H71.32c-3.268 0-5.751-.79-7.449-2.372-1.687-1.592-2.53-3.833-2.53-6.721zm28.955 3.163c0-.622.185-1.065.554-1.329.37-.274.728-.411 1.076-.411h1.882c.948 0 1.67.516 2.166 1.55.496 1.033 1.608 1.55 3.337 1.55l5.536.11c1.855 0 2.783-.606 2.783-1.818 0-.918-1.133-1.64-3.4-2.167a72.282 72.282 0 00-3.353-.712 41.014 41.014 0 01-3.653-.901 22.665 22.665 0 01-3.322-1.265c-1.012-.485-1.834-1.15-2.467-1.993-.622-.854-.933-1.856-.933-3.005 0-2.12.754-3.748 2.262-4.887 1.508-1.15 4.101-1.724 7.781-1.724l4.017.095c2.161 0 4.107.559 5.836 1.676 1.74 1.107 2.609 2.494 2.609 4.16 0 .622-.184 1.07-.553 1.344-.369.274-.722.411-1.06.411h-1.882c-.949 0-1.671-.516-2.166-1.55-.496-1.043-1.608-1.565-3.337-1.565l-4.76-.095c-1.857 0-2.784.606-2.784 1.819 0 .664.585 1.207 1.755 1.629 1.18.421 2.604.796 4.27 1.122 1.677.317 3.358.702 5.045 1.155 1.687.453 3.116 1.202 4.286 2.246 1.181 1.033 1.772 2.325 1.772 3.875 0 2.119-.759 3.753-2.278 4.902-1.508 1.139-4.096 1.708-7.765 1.708l-4.792-.095c-2.162 0-4.112-.553-5.852-1.66-1.74-1.118-2.61-2.51-2.61-4.175zm29.778 4.317v-19.69c0-.411.147-.764.443-1.06a1.482 1.482 0 011.091-.443h2.942c.411 0 .759.148 1.043.443.296.296.443.649.443 1.06v7.117h10.881v-7.117c0-.411.148-.764.443-1.06a1.445 1.445 0 011.06-.443h2.941c.433 0 .791.148 1.076.443.295.296.443.649.443 1.06v19.69c0 .411-.153.765-.459 1.06a1.472 1.472 0 01-1.06.427h-2.941c-.412 0-.765-.137-1.06-.411a1.395 1.395 0 01-.443-1.044v-8.13h-10.881v8.13c0 .411-.147.759-.443 1.044a1.446 1.446 0 01-1.043.41h-2.942a1.53 1.53 0 01-1.076-.426 1.424 1.424 0 01-.458-1.06zm30.599-.032v-19.69c0-.41.148-.759.443-1.043a1.475 1.475 0 011.06-.428h18.235c.411 0 .759.148 1.044.443.295.296.443.649.443 1.06v1.487c0 .41-.148.764-.443 1.06a1.421 1.421 0 01-1.044.426h-13.775v4.603h11.861c.412 0 .76.147 1.044.442.295.285.443.633.443 1.044v1.487c0 .411-.148.764-.443 1.06a1.418 1.418 0 01-1.044.427h-11.861v4.665h13.743a1.4 1.4 0 011.028.427c.285.285.427.633.427 1.044v1.518c0 .411-.147.765-.442 1.06a1.475 1.475 0 01-1.06.427h-18.156a1.484 1.484 0 01-1.503-1.518zm26.077-4.285c0-.622.184-1.065.553-1.329.369-.274.728-.411 1.076-.411h1.882c.949 0 1.671.516 2.167 1.55.495 1.033 1.608 1.55 3.337 1.55l5.535.11c1.856 0 2.784-.606 2.784-1.818 0-.918-1.134-1.64-3.401-2.167a72.282 72.282 0 00-3.353-.712 41.05 41.05 0 01-3.653-.901 22.658 22.658 0 01-3.321-1.265c-1.012-.485-1.835-1.15-2.467-1.993-.622-.854-.933-1.856-.933-3.005 0-2.12.753-3.748 2.261-4.887 1.508-1.15 4.102-1.724 7.781-1.724l4.017.095c2.162 0 4.107.559 5.836 1.676 1.74 1.107 2.61 2.494 2.61 4.16 0 .622-.185 1.07-.554 1.344-.369.274-.722.411-1.059.411h-1.882c-.949 0-1.672-.516-2.167-1.55-.496-1.043-1.608-1.565-3.337-1.565l-4.761-.095c-1.855 0-2.783.606-2.783 1.819 0 .664.585 1.207 1.755 1.629 1.181.421 2.605.796 4.271 1.122 1.676.317 3.358.702 5.045 1.155 1.687.453 3.115 1.202 4.286 2.246 1.181 1.033 1.771 2.325 1.771 3.875 0 2.119-.759 3.753-2.277 4.902-1.508 1.139-4.097 1.708-7.766 1.708l-4.792-.095c-2.161 0-4.112-.553-5.852-1.66-1.739-1.118-2.609-2.51-2.609-4.175zm58.966 4.317v-19.69c0-.411.142-.764.427-1.06a1.396 1.396 0 011.044-.443h12.067c6.379 0 9.568 2.942 9.568 8.825 0 5.873-3.189 8.81-9.568 8.81h-7.575v3.558c0 .411-.148.765-.443 1.06a1.421 1.421 0 01-1.044.427h-2.973c-.412 0-.765-.143-1.06-.427a1.447 1.447 0 01-.443-1.06zm5.963-8.034h5.772c1.771 0 3.116-.295 4.033-.886.917-.6 1.376-1.75 1.376-3.447 0-1.709-.459-2.858-1.376-3.448-.917-.601-2.262-.902-4.033-.902h-5.772v8.683zm20.968 8.066l3.969-15.056c1.076-4.102 4.576-6.158 10.502-6.168h8.524c.39 0 .712.147.965.442.264.296.395.638.395 1.028v19.754c0 .411-.147.759-.442 1.044a1.506 1.506 0 01-1.06.41h-2.973c-.433 0-.791-.136-1.076-.41-.274-.285-.411-.643-.411-1.076V27.39h-11.245l-1.059 3.985a1.9 1.9 0 01-.712 1.076c-.369.274-.759.41-1.17.41h-3.116c-.411 0-.707-.115-.886-.347-.179-.243-.269-.454-.269-.633a2.88 2.88 0 01.064-.474zm8.319-8.493h10.074v-8.256h-4.507c-1.013 0-1.898.29-2.657.87-.749.57-1.255 1.34-1.519 2.31l-1.391 5.076zm23.799 8.493V11.685c0-.411.147-.764.442-1.06a1.448 1.448 0 011.06-.443h2.942c.432 0 .79.148 1.075.443.295.296.443.649.443 1.06v19.69c0 .411-.153.765-.459 1.06a1.471 1.471 0 01-1.059.427h-2.942c-.411 0-.764-.137-1.06-.411a1.395 1.395 0 01-.442-1.044zm13.74-.032v-19.69c0-.411.142-.764.427-1.06a1.396 1.396 0 011.044-.443h4.65c.369 0 .759.148 1.17.443.411.296.748.649 1.012 1.06l9.553 14.693V11.653c0-.41.142-.759.427-1.043a1.471 1.471 0 011.059-.428h2.72c.412 0 .76.143 1.044.428.296.284.443.643.443 1.075v19.69c0 .411-.147.765-.443 1.06a1.418 1.418 0 01-1.044.427h-5.25c-.411 0-.833-.143-1.265-.427a3.498 3.498 0 01-1.028-1.06l-8.746-13.57v13.57c0 .411-.148.765-.443 1.06a1.421 1.421 0 01-1.044.427h-2.784c-.411 0-.764-.143-1.059-.427a1.447 1.447 0 01-.443-1.06zm29.382-18.203v-1.487c0-.432.142-.79.427-1.075.285-.285.643-.428 1.075-.428h20.07c.432 0 .791.143 1.076.428.284.284.427.643.427 1.075v1.487c0 .432-.143.79-.427 1.075-.285.274-.644.411-1.076.411h-7.054v16.749c0 .411-.147.759-.442 1.044a1.45 1.45 0 01-1.044.41h-2.989c-.412 0-.765-.136-1.06-.41a1.419 1.419 0 01-.427-1.044V14.658h-7.054c-.432 0-.79-.137-1.075-.41-.285-.286-.427-.644-.427-1.076zm27.294 13.886c0-.622.185-1.065.554-1.329.369-.274.727-.411 1.075-.411h1.882c.949 0 1.671.516 2.167 1.55.495 1.033 1.608 1.55 3.337 1.55l5.535.11c1.856 0 2.784-.606 2.784-1.818 0-.918-1.134-1.64-3.401-2.167a72.224 72.224 0 00-3.352-.712 41.07 41.07 0 01-3.654-.901 22.658 22.658 0 01-3.321-1.265c-1.012-.485-1.835-1.15-2.467-1.993-.622-.854-.933-1.856-.933-3.005 0-2.12.754-3.748 2.261-4.887 1.508-1.15 4.102-1.724 7.781-1.724l4.018.095c2.161 0 4.106.559 5.836 1.676 1.739 1.107 2.609 2.494 2.609 4.16 0 .622-.184 1.07-.553 1.344-.37.274-.723.411-1.06.411h-1.882c-.949 0-1.671-.516-2.167-1.55-.495-1.043-1.608-1.565-3.337-1.565l-4.76-.095c-1.856 0-2.784.606-2.784 1.819 0 .664.585 1.207 1.756 1.629 1.181.421 2.604.796 4.27 1.122 1.676.317 3.358.702 5.045 1.155 1.687.453 3.116 1.202 4.286 2.246 1.181 1.033 1.771 2.325 1.771 3.875 0 2.119-.759 3.753-2.277 4.902-1.508 1.139-4.096 1.708-7.766 1.708l-4.792-.095c-2.161 0-4.112-.553-5.851-1.66-1.74-1.118-2.61-2.51-2.61-4.175z" fill="#fff" fill-opacity=".8"/><path d="M215.876 20.293c-3.752-1.214-7.632 1.934-9.104 3.66h5.15c3.218 0 3.954 1.607 7.172 2.857 2.575 1 4.996-3.273 5.885-5.535.858-1.577 2.06-3.982 0-.982-2.575 3.75-4.414 1.518-9.103 0z" fill="#F95050"/></svg>