<svg width="196" height="20" fill="none" xmlns="http://www.w3.org/2000/svg"><path d="M1.117 5.54c0-.204.073-.379.219-.524a.714.714 0 01.523-.22h6.352c1.557 0 2.706.449 3.445 1.345.412.494.617 1.127.617 1.898 0 .766-.351 1.435-1.054 2.008 1 .536 1.5 1.37 1.5 2.5s-.401 1.99-1.203 2.578c-.797.583-1.776.875-2.938.875H1.86a.728.728 0 01-.523-.21.714.714 0 01-.219-.524V5.539zm2.946 8.35H8.53c.401 0 .709-.12.922-.359.214-.24.32-.568.32-.984 0-.417-.106-.745-.32-.985-.213-.24-.52-.359-.922-.359H4.062v2.688zm0-4.742h4.18c.327 0 .59-.096.788-.289.198-.198.297-.471.297-.82 0-.354-.099-.63-.297-.828-.198-.198-.46-.297-.789-.297h-4.18v2.234zm23.49 6.516c0 .224-.133.336-.398.336H25.28c-.198 0-.417-.07-.657-.21a1.625 1.625 0 01-.539-.524l-1.328-2.079c-.547-.854-1.208-1.28-1.984-1.28h-1.906v3.359a.714.714 0 01-.22.523.701.701 0 01-.515.211h-1.468a.728.728 0 01-.524-.21.714.714 0 01-.219-.524V5.539c0-.203.07-.378.211-.523a.689.689 0 01.516-.22h6.445c1.193 0 2.17.321 2.93.962.766.64 1.148 1.505 1.148 2.594 0 1.515-.982 2.466-2.945 2.851.313.115.602.313.867.594.266.276.57.68.914 1.21l1.422 2.259a.817.817 0 01.125.398zm-8.687-5.969h3.328c.536 0 1.008-.106 1.414-.32.411-.214.617-.555.617-1.023 0-.47-.206-.81-.617-1.024-.406-.213-.878-.32-1.414-.32h-3.328v2.687zm11.436 1.875V5.54a.732.732 0 01.75-.742h1.46a.701.701 0 01.516.218c.146.145.219.32.219.523v6.047c0 .766.166 1.336.5 1.71.338.376.86.563 1.562.563h1.25c.704 0 1.222-.187 1.555-.562.339-.375.508-.945.508-1.711V5.539c0-.203.07-.378.21-.523a.714.714 0 01.524-.22h1.453c.214 0 .394.074.54.22.145.145.218.32.218.523v6.031c0 1.427-.42 2.534-1.258 3.32-.838.782-2.062 1.172-3.671 1.172H35.23c-1.614 0-2.84-.39-3.68-1.171-.833-.787-1.25-1.894-1.25-3.32zm14.303 1.563c0-.307.09-.526.273-.656.182-.136.36-.204.531-.204h.93c.469 0 .826.256 1.07.766.245.51.795.766 1.649.766l2.734.054c.917 0 1.375-.3 1.375-.898 0-.453-.56-.81-1.68-1.07a35.57 35.57 0 00-1.656-.352 20.293 20.293 0 01-1.804-.445 11.213 11.213 0 01-1.641-.625c-.5-.24-.906-.568-1.219-.985-.307-.421-.46-.916-.46-1.484 0-1.047.372-1.852 1.116-2.414.745-.568 2.026-.852 3.844-.852l1.985.047c1.067 0 2.028.276 2.882.828.86.547 1.29 1.232 1.29 2.055 0 .307-.092.529-.274.664-.182.136-.357.203-.523.203h-.93c-.469 0-.826-.255-1.07-.765-.245-.516-.795-.774-1.649-.774l-2.351-.047c-.917 0-1.375.3-1.375.899 0 .328.289.596.867.804a14.86 14.86 0 002.11.555c.827.156 1.658.346 2.491.57.834.224 1.54.594 2.117 1.11.584.51.875 1.148.875 1.914 0 1.047-.375 1.854-1.125 2.422-.744.562-2.023.844-3.835.844l-2.368-.047c-1.067 0-2.03-.274-2.89-.82-.86-.553-1.29-1.24-1.29-2.063zm14.71 2.133V5.539a.71.71 0 01.218-.523.732.732 0 01.539-.22h1.453c.203 0 .375.074.516.22a.71.71 0 01.218.523v3.516h5.375V5.539c0-.203.073-.378.22-.523a.714.714 0 01.523-.22h1.453c.213 0 .39.074.53.22.147.145.22.32.22.523v9.727a.702.702 0 01-.227.523.728.728 0 01-.523.211h-1.453a.743.743 0 01-.524-.203.69.69 0 01-.219-.516v-4.015H62.26v4.015a.689.689 0 01-.218.516.715.715 0 01-.516.203h-1.453a.755.755 0 01-.531-.21.702.702 0 01-.227-.524zm15.115-.016V5.523a.69.69 0 01.218-.515.73.73 0 01.524-.211h9.008c.203 0 .375.073.515.219.146.145.22.32.22.523v.734a.714.714 0 01-.22.524.701.701 0 01-.515.21h-6.805v2.274h5.86c.203 0 .374.073.515.219.146.14.219.313.219.516v.734a.714.714 0 01-.219.523.701.701 0 01-.516.211h-5.859v2.305h6.79c.197 0 .366.07.507.211.14.14.21.313.21.516v.75a.714.714 0 01-.218.523.728.728 0 01-.523.211h-8.97a.733.733 0 01-.742-.75zm12.88-2.117c0-.307.092-.526.274-.656.183-.136.36-.204.532-.204h.93c.468 0 .825.256 1.07.766.244.51.794.766 1.648.766l2.734.054c.917 0 1.375-.3 1.375-.898 0-.453-.56-.81-1.68-1.07-.5-.12-1.051-.237-1.656-.352a20.295 20.295 0 01-1.804-.445 11.216 11.216 0 01-1.64-.625c-.5-.24-.907-.568-1.22-.985-.307-.421-.46-.916-.46-1.484 0-1.047.372-1.852 1.117-2.414.745-.568 2.026-.852 3.843-.852l1.985.047c1.067 0 2.028.276 2.883.828.859.547 1.289 1.232 1.289 2.055 0 .307-.091.529-.274.664-.182.136-.356.203-.523.203h-.93c-.469 0-.825-.255-1.07-.765-.245-.516-.794-.774-1.649-.774l-2.351-.047c-.917 0-1.375.3-1.375.899 0 .328.289.596.867.804a14.7 14.7 0 002.11.555 33.55 33.55 0 012.492.57c.833.224 1.539.594 2.117 1.11.583.51.875 1.148.875 1.914 0 1.047-.375 1.854-1.125 2.422-.745.562-2.024.844-3.836.844l-2.367-.047c-1.068 0-2.032-.274-2.891-.82-.86-.553-1.29-1.24-1.29-2.063zm29.129 2.133V5.539c0-.203.07-.378.211-.523a.69.69 0 01.516-.22h5.961c3.151 0 4.726 1.454 4.726 4.36 0 2.901-1.575 4.352-4.726 4.352h-3.743v1.758a.717.717 0 01-.218.523.703.703 0 01-.516.211h-1.469a.727.727 0 01-.523-.21.714.714 0 01-.219-.524zm2.945-3.97h2.852c.875 0 1.539-.145 1.992-.437.453-.296.68-.864.68-1.703 0-.844-.227-1.411-.68-1.703-.453-.297-1.117-.445-1.992-.445h-2.852v4.289zm10.358 3.985l1.961-7.437c.531-2.026 2.261-3.042 5.188-3.047h4.211a.6.6 0 01.476.219.74.74 0 01.195.507v9.758a.688.688 0 01-.218.516.744.744 0 01-.524.203h-1.469a.736.736 0 01-.531-.203.737.737 0 01-.203-.531v-1.97h-5.555l-.523 1.97a.934.934 0 01-.352.53.953.953 0 01-.578.204h-1.539c-.203 0-.349-.057-.437-.172-.089-.12-.133-.224-.133-.312.005-.089.016-.167.031-.235zm4.11-4.195h4.976V7.008h-2.226a2.1 2.1 0 00-1.313.43c-.37.28-.62.661-.75 1.14l-.687 2.508zm11.756 4.195V5.54c0-.203.073-.378.219-.523a.712.712 0 01.523-.22h1.453c.214 0 .391.074.531.22.146.145.219.32.219.523v9.727a.702.702 0 01-.226.523.73.73 0 01-.524.211h-1.453a.74.74 0 01-.523-.203.689.689 0 01-.219-.516zm6.787-.015V5.539a.73.73 0 01.211-.523.69.69 0 01.516-.22h2.297c.182 0 .375.074.578.22.203.145.37.32.5.523l4.719 7.258V5.523a.7.7 0 01.211-.515.728.728 0 01.523-.211h1.344a.7.7 0 01.515.21.71.71 0 01.219.532v9.727a.714.714 0 01-.219.523.7.7 0 01-.515.211H160.7c-.203 0-.411-.07-.625-.21a1.728 1.728 0 01-.508-.524l-4.32-6.704v6.704a.714.714 0 01-.219.523.701.701 0 01-.516.211h-1.375a.727.727 0 01-.523-.21.714.714 0 01-.219-.524zm14.514-8.993V5.54a.723.723 0 01.743-.742h9.914a.721.721 0 01.742.742v.734a.72.72 0 01-.211.532.736.736 0 01-.531.203h-3.485v8.273a.691.691 0 01-.218.516.717.717 0 01-.516.203h-1.477a.742.742 0 01-.523-.203.7.7 0 01-.211-.516V7.008h-3.484a.737.737 0 01-.532-.203.723.723 0 01-.211-.532zm13.483 6.86c0-.307.091-.526.274-.656.182-.136.359-.204.531-.204h.93c.468 0 .825.256 1.07.766.245.51.794.766 1.648.766l2.735.054c.916 0 1.375-.3 1.375-.898 0-.453-.56-.81-1.68-1.07-.5-.12-1.052-.237-1.656-.352a20.318 20.318 0 01-1.805-.445 11.208 11.208 0 01-1.641-.625c-.5-.24-.906-.568-1.218-.985-.308-.421-.461-.916-.461-1.484 0-1.047.372-1.852 1.117-2.414.745-.568 2.026-.852 3.844-.852l1.984.047c1.068 0 2.029.276 2.883.828.859.547 1.289 1.232 1.289 2.055 0 .307-.091.529-.274.664-.182.136-.356.203-.523.203h-.93c-.468 0-.825-.255-1.07-.765-.245-.516-.794-.774-1.648-.774l-2.352-.047c-.917 0-1.375.3-1.375.899 0 .328.289.596.867.804.584.209 1.287.394 2.11.555a33.55 33.55 0 012.492.57c.833.224 1.539.594 2.117 1.11.583.51.875 1.148.875 1.914 0 1.047-.375 1.854-1.125 2.422-.745.562-2.023.844-3.836.844l-2.367-.047c-1.068 0-2.031-.274-2.891-.82-.859-.553-1.289-1.24-1.289-2.063z" fill="#303030"/><path d="M106.235 8.707c-1.745-.6-3.55.955-4.235 1.808h2.396c1.497 0 1.839.794 3.337 1.411 1.198.494 2.324-1.617 2.738-2.734.399-.78.958-1.967 0-.485-1.198 1.852-2.054.75-4.236 0z" fill="#F95050"/></svg>