<svg width="210" height="64" fill="none" xmlns="http://www.w3.org/2000/svg"><path d="M161.199 36.465c-14.463 0-21.928 4.538-28.512 8.542-5.784 3.516-10.352 6.294-20.291 6.294-9.937 0-14.505-2.778-20.287-6.294-6.585-4.004-14.05-8.542-28.512-8.542-14.461 0-21.926 4.538-28.51 8.542-5.782 3.516-10.35 6.294-20.288 6.294-9.937 0-14.505-2.778-20.287-6.294-6.586-4.004-14.051-8.542-28.512-8.542v12.363c9.939 0 14.505 2.777 20.287 6.293 6.587 4.005 14.05 8.543 28.512 8.543 14.46 0 21.926-4.54 28.51-8.543 5.782-3.516 10.35-6.293 20.288-6.293 9.939 0 14.505 2.777 20.289 6.293 6.584 4.005 14.05 8.543 28.51 8.543 14.462 0 21.927-4.54 28.514-8.543 5.782-3.516 10.35-6.293 20.289-6.293 9.939 0 14.505 2.777 20.289 6.293 6.585 4.005 14.049 8.543 28.512 8.543V51.301c-9.939 0-14.507-2.778-20.289-6.294-6.587-4.004-14.051-8.542-28.512-8.542zm28.512-27.922C183.124 4.538 175.66 0 161.199 0c-14.463 0-21.928 4.538-28.512 8.543-5.784 3.516-10.352 6.293-20.291 6.293-9.937 0-14.505-2.777-20.287-6.293C85.524 4.538 78.059 0 63.597 0 49.136 0 41.67 4.538 35.087 8.543c-5.782 3.516-10.35 6.293-20.288 6.293-9.937 0-14.505-2.777-20.287-6.293C-12.074 4.538-19.54 0-34 0v12.363c9.939 0 14.505 2.777 20.287 6.293 6.587 4.005 14.05 8.543 28.512 8.543 14.46 0 21.926-4.538 28.51-8.543 5.782-3.516 10.35-6.293 20.288-6.293 9.939 0 14.505 2.777 20.289 6.293 6.584 4.005 14.05 8.543 28.51 8.543 14.462 0 21.927-4.538 28.514-8.543 5.782-3.516 10.35-6.293 20.289-6.293 9.939 0 14.505 2.777 20.289 6.293 6.585 4.005 14.049 8.543 28.512 8.543V14.836c-9.939 0-14.507-2.777-20.289-6.293z" fill="#F7F2E6"/></svg>