<svg width="94" height="295" fill="none" xmlns="http://www.w3.org/2000/svg"><path d="M45.762 2.706c.41 18.029 6.785 29.85 12.456 43.306 6.182 14.67 9.444 32.786 15.695 47.227 2.236 5.166 4.725 9.057 6.826 14.497 2.214 5.732 4.123 13.56 4.036 20.695-.066 5.401-.89 11.45-2.94 15.408-1.693 3.27-1.968 11.89-1.993 15.955-.068 11.071.54 19.007 3.687 28.537a284.635 284.635 0 017.549 27.26c.807 3.6 2.577 6.2-.523 6.2-4.003 0-7.325-5.425-10.713-8.524-3.967-3.63-6.186-3.938-8.246 3.601-2.628 9.619.98 24.683 2.417 33.232.879 5.227 1.993 10.577 2.64 15.909.197 1.617-10.808 25.891-9.96 26.667m-18.531-.206c.41-18.028-17.04-53.149-11.37-66.606 6.182-14.669-22.893-29.612-16.641-44.053 2.236-5.166 4.725-9.057 6.826-14.496 2.214-5.733 4.122-13.561 4.035-20.696-.065-5.4-.89-11.449-2.94-15.408-1.692-3.27-1.967-11.89-1.992-15.955-.068-11.07.54-19.007 3.687-28.537a284.571 284.571 0 007.548-27.26c.808-3.6 2.577-6.2-.523-6.2-4.002 0-7.324 5.425-10.712 8.525-3.967 3.63-6.186 3.938-8.246-3.602-2.629-9.619 4.562-10.563 6-19.112.879-5.226-6-25.639-14.77-14.12.195-1.616-7.385-21.83-6.537-22.606" stroke="#fff" stroke-width="3" stroke-linecap="round" stroke-linejoin="round"/></svg>