<svg width="154" height="153" fill="none" xmlns="http://www.w3.org/2000/svg"><path d="M66.642 122.422l11.11 6.172h17.966l32.729-9.637.001-.001a8.677 8.677 0 014.022-.224 8.677 8.677 0 013.688 1.619 8.655 8.655 0 013.498 6.998v.002l-.5-.002a8.245 8.245 0 01-5.498 7.769l-67.016-12.696zm0 0h22.311a2.891 2.891 0 002.89-2.891v-7.175a2.969 2.969 0 00-.833-2.041h0l-.006-.007-4.781-4.781-.004-.003a2.923 2.923 0 00-1.47-.779h0l-35.86-7.172h0l-.012-.002a3.728 3.728 0 00-.552-.055h0-14.353a2.739 2.739 0 00-1.075.203l-.003.001-7.988 3.191v-2.894s0 0 0 0m41.736 24.405L24.906 98.016m71.218 50.703s0 0 0 0H60.255v0a3.347 3.347 0 01-.9-.141l-.007-.002-.007-.002-28.228-9.418h-6.208v1.891h-.5a2.39 2.39 0 01-2.008 2.367l73.726 5.305zm0 0h.001v-.5.5zM24.906 98.016v0h-.5.5zm61.157 15.531v3.094h-30.58a2.887 2.887 0 00-2.788 2.158 2.888 2.888 0 001.371 3.247l.004.002 21.511 11.951a2.77 2.77 0 001.422.376H96.12a2.56 2.56 0 00.82-.117l.005-.002 33.148-9.751.005-.001a2.87 2.87 0 012.586.468l.005.004a2.955 2.955 0 01-.777 5.153l-36.28 12.809H60.73l-28.228-9.418-.007-.002-.007-.002a3.349 3.349 0 00-.9-.141h0-6.681v-26.224l9.614-3.854h13.504l34.73 6.941 3.308 3.309zm-66.938-13.076v38.121l-8.563 1.434v-40.99l8.563 1.435zm94.48-86.529h0l-35.86-9.563a2.89 2.89 0 00-1.49 0l-35.86 9.563h0a2.89 2.89 0 00-2.145 2.792v28.688c0 13.94 4.32 26.6 11.319 35.785C56.566 90.392 66.264 96.125 77 96.125s20.433-5.733 27.432-14.918c6.998-9.185 11.318-21.845 11.318-35.785V16.734a2.889 2.889 0 00-2.145-2.792zm-69.574 5.015L77 10.164l32.969 8.793v26.465c0 12.427-3.725 23.676-9.716 31.807C94.262 85.359 86.031 90.344 77 90.344c-9.03 0-17.262-4.984-23.253-13.115-5.99-8.13-9.716-19.38-9.716-31.807V18.957z" fill="#674D43" stroke="#674D43"/><path d="M67.438 59.766v7.172a4.781 4.781 0 004.78 4.78h9.563a4.782 4.782 0 004.781-4.78v-7.172h7.172a4.781 4.781 0 004.782-4.782v-9.562a4.781 4.781 0 00-4.782-4.781h-7.171v-7.172a4.781 4.781 0 00-4.782-4.782H72.22a4.781 4.781 0 00-4.781 4.782v7.172h-7.172a4.781 4.781 0 00-4.782 4.78v9.563a4.781 4.781 0 004.782 4.782h7.172zm-7.172-14.344h7.172a4.782 4.782 0 004.78-4.781v-7.172h9.563v7.172a4.782 4.782 0 004.781 4.78h7.172v9.563h-7.171a4.781 4.781 0 00-4.782 4.782v7.172H72.22v-7.172a4.781 4.781 0 00-4.781-4.782h-7.172v-9.562zm64.546-26.297h4.782v-4.781h4.781V9.563h-4.781V4.78h-4.782v4.782h-4.781v4.78h4.781v4.782zm23.907 4.781h-4.781v-4.781h-4.782v4.781h-4.781v4.782h4.781v4.78h4.782v-4.78h4.781v-4.782zM115.25 78.89v4.782h-4.781v4.781h4.781v4.781h4.781v-4.78h4.781v-4.782h-4.781V78.89h-4.781zm19.125-14.343h-4.781v4.781h-4.782v4.781h4.782v4.782h4.781v-4.782h4.781v-4.78h-4.781v-4.782zM24.406 19.125h4.782v-4.781h4.78V9.563h-4.78V4.78h-4.782v4.782h-4.781v4.78h4.781v4.782zM10.063 33.469h4.78v-4.782h4.782v-4.78h-4.781v-4.782h-4.781v4.781H5.28v4.782h4.782v4.78zM33.969 78.89v4.782h-4.782v4.781h4.782v4.781h4.781v-4.78h4.781v-4.782H38.75V78.89h-4.781zm-9.563 0v-4.78h4.782v-4.782h-4.782v-4.781h-4.781v4.781h-4.781v4.781h4.781v4.782h4.781z" fill="#674D43"/></svg>