<svg width="152" height="152" fill="none" xmlns="http://www.w3.org/2000/svg"><path d="M108.192 42.36h.001c2.615 2.53 3.897 5.794 3.897 9.66 0 3.87-1.282 7.135-3.898 9.661-2.612 2.525-5.964 3.746-9.92 3.746h-7.745v.215h12.232c.608 0 1.213.21 1.686.685.478.477.684 1.084.684 1.686v3.488c0 .606-.208 1.21-.682 1.686a2.346 2.346 0 01-1.688.686H90.528v3.731c0 .632-.232 1.247-.728 1.716m18.392-36.96L88.769 78.23m19.423-35.87c-2.612-2.522-5.963-3.745-9.92-3.745H83.616c-.61 0-1.212.212-1.684.683h0l-.004.004a2.35 2.35 0 00-.682 1.685v15.637m26.946-14.264L81.246 56.624M89.8 79.32l-1.03-1.09m1.03 1.09l.004-.003-1.035-1.087m1.031 1.09a2.357 2.357 0 01-1.642.656h-4.541a2.343 2.343 0 01-1.687-.686m6.84-1.06a.857.857 0 01-.612.246h-4.541a.844.844 0 01-.626-.246m-1.06 1.06c0 .001 0 .002.002.003l1.058-1.063m-1.06 1.06a2.343 2.343 0 01-.684-1.686v-3.731m.683 5.417l-.002-.002 1.063-1.058m0 0l-1.745-4.358m0 0v-1.5h1.5v1.5l-7.777-9.13c.475.476 1.08.684 1.687.684h4.59v.215h-4.59c-.611 0-1.215.213-1.688.687a2.347 2.347 0 00-.683 1.685v3.488c0 .607.209 1.21.683 1.685a2.342 2.342 0 001.688.686h4.59zm0-17.248h-4.59c-.635 0-1.247.234-1.715.727l-.002.002a2.362 2.362 0 00-.654 1.643v4.059c0 .607.209 1.211.683 1.686l6.278-8.117zm7.782 17.248v-1.5h1.5l-1.5 1.5zm8.7-17.247h-7.201v-9.206h7.201c1.61 0 2.763.461 3.614 1.274.846.809 1.303 1.871 1.303 3.328 0 1.46-.457 2.521-1.303 3.329h-.001c-.85.814-2.004 1.275-3.613 1.275z" stroke="#674D43" stroke-width="3"/><path d="M90.594 117.358h.002c2.325-.269 4.074-2.221 4.074-4.539 0-1.71-.96-3.27-2.517-4.063l-.004-.002a2.548 2.548 0 01-.17-4.423c1.84-1.138 2.862-3.169 2.664-5.303h0c-.258-2.819-2.893-5.091-6.067-5.091H60.553a2.547 2.547 0 01-2.089-1.096l-.002-.004a2.557 2.557 0 01-.279-2.343s0 0 0 0l32.411 26.864zm0 0a2.547 2.547 0 00-2.117 1.722l-.001.002m2.118-1.724l-2.118 1.724m0 0a2.546 2.546 0 00.669 2.649v.001m-.669-2.65l.67 2.65m0 0a4.542 4.542 0 011.451 3.329c0 2.318-1.75 4.27-4.07 4.539h-.001m2.62-7.868l-2.62 7.868m0 0a2.548 2.548 0 00-2.118 1.721v.003m2.118-1.724l-2.118 1.724m0 0a2.546 2.546 0 00.669 2.649v.001m-.67-2.65l.67 2.65m0 0c1.21 1.141 1.695 2.737 1.33 4.397h0m-1.33-4.397l1.33 4.397m0 0c-.445 2.019-2.425 3.533-4.762 3.533H44.262c-1.59 0-3.752-.377-5.76-.997-2.026-.625-3.792-1.467-4.662-2.341l-.001-.002m52.567-.193l-52.567.193m0 0a2.552 2.552 0 00-2.762-.548h-.001m2.763.548l-2.763-.548m0 0a2.54 2.54 0 00-1.568 2.347c0 3.1-2.518 5.621-5.609 5.621H11.681c-3.09 0-5.608-2.521-5.608-5.621v-32.644c0-3.1 2.517-5.621 5.608-5.621h17.827m1.568 35.918l-1.568-35.918m0 0v1.54c0 .88.457 1.697 1.205 2.163h0l.006.003c.74.447 1.669.492 2.457.107l.005-.002 4.07-2.039.001-.001a2.533 2.533 0 001.167-1.204l.001-.001L50.638 76.14l.001-.003c.15-.332.232-.696.232-1.063V62.198l-21.363 39.9zm16.29-27.579l-11.28 24.476a2.539 2.539 0 00-2.474-1.978H11.681C5.788 97.017 1 101.816 1 107.719v32.644c0 5.903 4.788 10.702 10.681 10.702H23.9c4.424 0 8.23-2.708 9.85-6.555 3.4 1.626 7.745 2.474 10.513 2.474h37.383c4.653 0 8.75-3.142 9.716-7.517h0c.457-2.075.245-4.165-.568-6.024a9.643 9.643 0 004.877-8.382 9.612 9.612 0 00-.8-3.86 9.643 9.643 0 004.872-8.382 9.57 9.57 0 00-2.475-6.436 10.647 10.647 0 002.428-7.822h0c-.502-5.464-5.4-9.705-11.119-9.705H64.108c1.25-3.907 3.053-10.466 3.053-15.822 0-4.565-1.933-8.755-4.456-11.8-1.264-1.524-2.684-2.772-4.103-3.643-1.412-.867-2.856-1.38-4.158-1.38-4.36 0-7.48 2.43-7.681 2.586l-.005.004h0l-.006.005a2.543 2.543 0 00-.954 1.986v13.727z" fill="#674D43" stroke="#674D43"/><path d="M32.044 101.098a2.54 2.54 0 00-2.536 2.54v36.725a2.54 2.54 0 002.536 2.541 2.54 2.54 0 002.537-2.541v-36.725a2.54 2.54 0 00-2.537-2.54z" fill="#674D43" stroke="#674D43"/><path d="M102.675 100.527c6.601-2.965 18.907-11.302 23.279-17.102 4.372-5.801 7.198-12.596 8.2-19.719 1.003-7.123.148-14.33-2.481-20.918a39.717 39.717 0 00-12.516-16.66c-5.574-4.331-12.219-7.106-19.284-8.053-7.065-.947-14.309-.033-21.021 2.652a43.06 43.06 0 00-17.273 12.668c-4.608 5.617-7.716 12.294-9.018 19.377" stroke="#674D43" stroke-width="4"/></svg>