<svg width="138" height="138" fill="none" xmlns="http://www.w3.org/2000/svg"><path d="M52.577 113.939l23.427 4.314m-23.427-4.314a2.002 2.002 0 01-.109-.024 6.934 6.934 0 00-5.056.654m5.165-.63l-.09.491.002.001 68.421-33.607a11.62 11.62 0 0115.497 4.238 2.246 2.246 0 01-.654 3.011l-40.52 27.822-.282-.413m-42.374-1.543l-.086.492 23.423 4.313.002.001a30.812 30.812 0 0019.042-2.689h0a2.25 2.25 0 00.276-.161l-.283-.413m-18.947 2.771l-28.592-3.684m28.592 3.684a30.32 30.32 0 0018.733-2.645c.074-.037.145-.079.214-.126m-18.947 2.771l59.974-32.933a1.747 1.747 0 01-.508 2.341l-40.52 27.821m-47.538-.913l.242.438.013-.007.012-.008-.267-.423zm73.497-33.745l-.336.181c-2.948-3.303-7.84-4.574-11.646-2.647l-.048.024h0l-.005.003-1.335.719a12.878 12.878 0 00-14.482-1.118l-8.663 4.711H72.838s0 0 0 0a16.376 16.376 0 01-7.089-1.624l-1.605-.776a28.07 28.07 0 00-29.216 2.853l-.002.001c-.038.03-.09.07-.143.118l-3.876 3.451s0 0 0 0a12.958 12.958 0 01-4.417 2.574l-2.056-6.749h0a2.247 2.247 0 00-2.149-1.592H3.518a2.246 2.246 0 00-2.23 2.52h0l6.255 51.291s0 0 0 0a2.246 2.246 0 002.23 1.975h28.149a2.246 2.246 0 002.15-2.902l-3.587-11.77 84.424-41.243zM95.23 81.92h0l.01-.005v-.001h.002l.011-.007.039-.022a8.385 8.385 0 017.719-.34l-6.717 3.615a13.774 13.774 0 00-3.687-1.816l2.623-1.424zm-49.914 29.246l-10.193 6.444-7.322-24.013a17.465 17.465 0 006.091-3.523h0l3.81-3.392a23.59 23.59 0 0124.481-2.345h.001l1.607.778h0a20.892 20.892 0 009.044 2.073H88.42a9.355 9.355 0 019.034 6.975l-10.64-.482h0a68.139 68.139 0 00-12.384.573h-.005a2.247 2.247 0 00.616 4.452l.005-.001a63.56 63.56 0 0111.564-.534l13.294.601h.022l.023.001.024.001h.033a2.246 2.246 0 002.247-2.246c0-.185-.005-.368-.013-.549l1.54-.811.004-.003 19.26-10.387h.001a7.132 7.132 0 018.161.964l-38.384 26.354a26.3 26.3 0 01-16.103 2.226h-.002l-23.352-4.3a10.914 10.914 0 00-8.049 1.144s0 0 0 0zm54.333-22.705l11.329-6.104c1.679-.837 3.823-.324 5.416.903l-14.721 7.942-.004.002-.397.21a13.841 13.841 0 00-1.623-2.953zm-87.887 43.784L6.056 85.447H20.62l14.268 46.798H11.762z" fill="#674D43" stroke="#674D43"/><path d="M16.873 125.518a5.496 5.496 0 003.395 5.081 5.504 5.504 0 005.994-1.192 5.498 5.498 0 10-7.776-7.777 5.507 5.507 0 00-1.613 3.888zm5.5-2.006a2.002 2.002 0 011.854 1.238 2.006 2.006 0 11-1.854-1.238z" fill="#674D43"/><path d="M82.783 20.735v-5.762a13.76 13.76 0 00-27.521 0v5.762a13.761 13.761 0 0027.521 0zm-23.027-.004v-5.754a9.267 9.267 0 0118.533 0v5.754a9.267 9.267 0 01-18.533 0z" fill="#674D43" stroke="#674D43"/><path d="M94.056 42.126c-1 .139-1.97.446-2.867.909a15.117 15.117 0 011.454 6.481m1.413-7.39l-1.913 18.097h.5m1.413-18.097a12.013 12.013 0 0017.62.055m-17.62-.055l.197-.528a11.513 11.513 0 0017.237.045m-18.847 7.873h-.5.5v0zm0 0v10.707m0 0v.5h26.518v-.5m-26.518 0h26.518m0 0h.5v-9.092m-.5 9.092v-9.091m0 0h.5m-.5 0v0h.5m-.5 0a9.1 9.1 0 00-7.485-8.951m7.985 8.95a9.6 9.6 0 00-8.171-9.488m0 0l.373.332c-.062.07-.124.138-.187.206m-.186-.538l-.075.494c.087.013.174.028.261.044m-92.84 8.952v9.09H45.4V49.516h.5a14.637 14.637 0 011.598-6.67l-28.662 8.287zm0 0a9.16 9.16 0 017.823-9.004 12.012 12.012 0 0017.616.051c.894.16 1.758.455 2.564.873l-28.003 8.08zm-2.247 13.584h28.81v3.51a2.247 2.247 0 002.248 2.247h42.75a2.247 2.247 0 002.246-2.247v-3.51h28.765a2.246 2.246 0 002.247-2.247V51.131v0a13.591 13.591 0 00-12.726-13.56c-1.186-.085-1.814.682-2.194 1.146l-.026.032h0a7.52 7.52 0 01-9.282 1.91 7.518 7.518 0 01-2.578-2.2 2.249 2.249 0 00-1.862-.91 13.45 13.45 0 00-6.313 1.735 15.186 15.186 0 00-10.32-4.943h0-.01c-1.157-.048-1.757.681-2.188 1.205l-.02.024-.001.001a8.907 8.907 0 01-14.054-.342 2.241 2.241 0 00-1.862-.911 15.12 15.12 0 00-10.871 4.981 13.49 13.49 0 00-5.82-1.728c-1.186-.086-1.818.686-2.197 1.15a9.72 9.72 0 00-.023.027h0a7.518 7.518 0 01-11.86-.29h0a2.251 2.251 0 00-1.862-.91h0a13.59 13.59 0 00-13.244 13.583v11.34a2.247 2.247 0 002.247 2.246zm42.687-25.825a13.4 13.4 0 0019.884.053 10.722 10.722 0 018.99 10.571V65.98H49.894V49.517a10.787 10.787 0 019.382-10.625z" fill="#674D43" stroke="#674D43"/><path d="M115.025 25.936v-5.039a12.326 12.326 0 00-21.04-8.715 12.325 12.325 0 00-3.61 8.715v5.04a12.325 12.325 0 1024.65 0zm-20.156 0v-5.039a7.83 7.83 0 0115.662 0v5.04a7.83 7.83 0 01-13.368 5.537 7.83 7.83 0 01-2.294-5.538zm-47.245 0v-5.039a12.326 12.326 0 00-21.04-8.715 12.324 12.324 0 00-3.61 8.715v5.04a12.324 12.324 0 0024.65 0zm-20.155 0v-5.039a7.83 7.83 0 0115.661 0v5.04a7.832 7.832 0 11-15.661 0z" fill="#674D43" stroke="#674D43"/></svg>