<svg width="151" height="151" fill="none" xmlns="http://www.w3.org/2000/svg"><g clip-path="url(#clip0)" fill="#674D43"><path d="M93.078 76.742a2.93 2.93 0 000 5.86 2.93 2.93 0 000-5.86z"/><path d="M1.23 69.886c.008.01.015.02.023.028l.003.004 72.07 79.688a2.988 2.988 0 002.174.964 2.98 2.98 0 002.172-.964l72.071-79.688.003-.004.023-.028a2.928 2.928 0 00.112-3.73c-.009-.01-.015-.023-.023-.033L126.42 36.826a2.93 2.93 0 00-2.288-1.1H26.867a2.93 2.93 0 00-2.288 1.1L1.14 66.123c-.008.01-.014.022-.022.033a2.929 2.929 0 00.11 3.73zm58.35-28.3h31.839l14.062 23.437H45.517L59.58 41.586zM44.838 70.883h61.323l-30.662 69.5-30.661-69.5zm67.727 0h28.405L85.513 132.2l27.052-61.318zm-74.132 0L65.485 132.2 10.03 70.883h28.404zm103.041-5.86h-29.16L98.252 41.586h24.472l18.75 23.437zm-113.2-23.437h24.473L38.684 65.023H9.524l18.75-23.437z"/><path d="M81.36 76.742H59.614a2.93 2.93 0 100 5.86H81.36a2.93 2.93 0 000-5.86zM75.5 24.008a2.93 2.93 0 002.93-2.93V3.5a2.93 2.93 0 10-5.86 0v17.578a2.93 2.93 0 002.93 2.93zm19.65-.858l11.719-11.72a2.93 2.93 0 00-4.144-4.143l-11.718 11.72a2.93 2.93 0 004.143 4.143zm-39.3 0a2.93 2.93 0 004.144-4.144L48.275 7.287a2.93 2.93 0 00-4.143 4.144L55.85 23.15z"/></g><defs><clipPath id="clip0"><path fill="#fff" transform="translate(.5 .57)" d="M0 0h150v150H0z"/></clipPath></defs></svg>