<svg width="148" height="148" fill="none" xmlns="http://www.w3.org/2000/svg"><g clip-path="url(#clip0)" fill="#674D43"><path d="M147.715 80.836c-1.329-13.365-7.3-25.966-16.815-35.48a58.048 58.048 0 00-28.554-15.68v-7.344c4.277-1.064 7.456-4.936 7.456-9.537 0-5.42-4.409-9.829-9.829-9.829H79.162c-5.42 0-9.829 4.41-9.829 9.829 0 4.601 3.18 8.472 7.456 9.537v7.365a58.043 58.043 0 00-28.466 15.658 58.681 58.681 0 00-4.908 5.57c-.073-.005-.145-.01-.22-.01H22.596a2.89 2.89 0 000 5.78h16.886a57.945 57.945 0 00-5.13 11.111H2.891a2.89 2.89 0 000 5.782h29.827a58.779 58.779 0 00-1.435 11.11H18.5a2.89 2.89 0 000 5.782h12.875a58.696 58.696 0 001.805 11.111H14.453a2.89 2.89 0 100 5.781h20.572a58.045 58.045 0 0013.297 20.562c9.523 9.524 22.137 15.496 35.517 16.818 1.91.189 3.82.282 5.729.282 11.28 0 22.417-3.264 31.866-9.418a2.89 2.89 0 00-3.155-4.845c-20.684 13.47-48.387 10.558-65.87-6.925-20.512-20.513-20.512-53.89 0-74.402 20.513-20.513 53.89-20.513 74.403 0 17.459 17.46 20.388 45.138 6.962 65.812a2.89 2.89 0 104.849 3.149c7.173-11.047 10.402-24.389 9.092-37.569zM75.114 12.795a4.051 4.051 0 014.047-4.047h20.813a4.051 4.051 0 014.046 4.047 4.051 4.051 0 01-4.046 4.047H79.16a4.052 4.052 0 01-4.047-4.047zm7.456 15.908v-6.08h13.994v6.07a58.9 58.9 0 00-13.994.01z"/><path d="M128.857 122.998c-.763 0-1.506.309-2.043.847a2.898 2.898 0 00-.847 2.044 2.896 2.896 0 002.89 2.89c.761 0 1.504-.306 2.044-.847a2.909 2.909 0 00.847-2.043c0-.761-.309-1.506-.847-2.044a2.916 2.916 0 00-2.044-.847zM89.61 41.802c-24.726 0-44.842 20.116-44.842 44.842 0 24.727 20.116 44.843 44.842 44.843s44.843-20.116 44.843-44.843c0-24.726-20.117-44.842-44.843-44.842zm0 83.904c-21.538 0-39.061-17.523-39.061-39.062 0-21.538 17.523-39.061 39.061-39.061 21.539 0 39.062 17.523 39.062 39.061 0 21.539-17.523 39.062-39.062 39.062z"/><path d="M107.896 64.271L93.579 78.588a8.928 8.928 0 00-3.968-.926 8.93 8.93 0 00-3.968.926l-6.407-6.407a2.891 2.891 0 00-4.089 4.088l6.408 6.407a8.923 8.923 0 00-.926 3.968c0 4.953 4.029 8.983 8.982 8.983 4.953 0 8.983-4.03 8.983-8.983a8.93 8.93 0 00-.927-3.968l13.897-13.897.42-.42a2.89 2.89 0 10-4.088-4.088zM89.611 89.846a3.205 3.205 0 01-3.201-3.202 3.205 3.205 0 013.201-3.2 3.205 3.205 0 013.201 3.2 3.205 3.205 0 01-3.2 3.201zm30.907-6.057h-2.678a2.891 2.891 0 000 5.781h2.678a2.891 2.891 0 000-5.781zm-59.137-.071h-2.678a2.89 2.89 0 000 5.782h2.678a2.89 2.89 0 000-5.782zm28.266-22.412a2.89 2.89 0 002.89-2.89v-2.678a2.89 2.89 0 00-5.781 0v2.677a2.89 2.89 0 002.89 2.891zm-.071 50.677a2.89 2.89 0 00-2.89 2.89v2.678a2.89 2.89 0 105.78 0v-2.678a2.89 2.89 0 00-2.89-2.89zM2.89 101.59a2.91 2.91 0 00-2.043.847A2.91 2.91 0 000 104.48c0 .763.309 1.506.847 2.044a2.912 2.912 0 002.044.847 2.91 2.91 0 002.043-.847 2.913 2.913 0 00.847-2.044c0-.76-.31-1.506-.847-2.043a2.91 2.91 0 00-2.043-.847z"/></g><defs><clipPath id="clip0"><path fill="#fff" d="M0 0h148v148H0z"/></clipPath></defs></svg>