<svg width="407" height="405" fill="none" xmlns="http://www.w3.org/2000/svg"><path fill-rule="evenodd" clip-rule="evenodd" d="M286.62 89.757c30.086 18.8 61.616 47.297 62.572 82.873.952 35.442-43.091 54.101-58.026 86.344-13.896 30.001 1.877 74.388-25.206 93.354-26.863 18.812-63.919.291-95.205-9.031-25.297-7.537-46.961-21.469-66.521-39.156-18.985-17.166-34.882-36.724-43.922-60.707-10.11-26.819-24.063-58.021-10.38-83.346 13.663-25.288 50.825-22.26 75.444-37.076 24.157-14.539 39.204-42.83 66.772-48.515 32.092-6.618 66.782-2.043 94.472 15.26z" fill="#F28484" fill-opacity=".5"/></svg>