<svg width="291" height="285" fill="none" xmlns="http://www.w3.org/2000/svg"><path fill-rule="evenodd" clip-rule="evenodd" d="M155.175 18.863c36.79-4.543 77.515-31.574 107.982-10.457 30.369 21.05 26.138 67.61 27.735 104.527 1.241 28.721-8.351 55.378-19.68 81.799-10.285 23.984-21.908 47.475-42.582 63.4-21.091 16.247-46.88 24.371-73.455 25.986-27.95 1.699-57.078-.911-80.242-16.644-23.567-16.006-34.452-43.423-46.324-69.321-13.535-29.528-34.186-59.363-27.207-91.087 7.174-32.604 34.613-57.58 63.57-74.19 27.057-15.52 59.247-10.191 90.203-14.013z" fill="#F9C2C2"/></svg>