<svg width="292" height="284" fill="none" xmlns="http://www.w3.org/2000/svg"><path fill-rule="evenodd" clip-rule="evenodd" d="M123.772 1.626c27.978 5.809 37.745 40.614 62.183 55.261 28.256 16.935 70.928 8.912 89.699 35.77 19.444 27.822 21.867 69.77 4.37 98.825-17.159 28.493-59.591 25.192-88.85 41.458-24.295 13.507-40.18 39.447-67.402 45.408-31.315 6.856-69.796 11.323-93.3-10.222-23.554-21.591-11.995-59.977-17.399-91.254-4.39-25.411-15.667-49.21-11.262-74.619 4.924-28.4 14.949-57.363 37.346-75.842C62.297 7.319 94.259-4.501 123.772 1.626z" fill="#F9C2C2"/></svg>