<svg width="292" height="285" fill="none" xmlns="http://www.w3.org/2000/svg"><path fill-rule="evenodd" clip-rule="evenodd" d="M139.552 1.694c31.61-1.894 68.869-5.242 91.254 14.413 22.253 19.54 5.537 53.509 15.821 79.606 10.617 26.943 48.504 45.399 44.591 73.697-3.95 28.561-38.676 44.356-63.516 63.159-27.421 20.756-51.924 52.017-88.15 51.646-36.202-.37-60.83-31.202-86.667-53.434C30.835 211.809 7.446 192.1 1.59 165.507c-5.534-25.133 11.305-48.464 20.929-72.63 9.363-23.514 13.179-49.805 34.414-66.35C79.24 9.147 109.777 3.478 139.551 1.694z" fill="#F9C2C2"/></svg>