<svg width="292" height="284" fill="none" xmlns="http://www.w3.org/2000/svg"><path fill-rule="evenodd" clip-rule="evenodd" d="M138.472 7.678c30.281-7.88 63.914-12.737 91.842.946 29.729 14.565 53.511 42.31 60.268 73.579 6.502 30.087-15.815 57.257-25.676 86.498-9.893 29.337-8.638 63.681-32.101 84.83-24.643 22.213-60.97 34.742-94.333 29.136-31.77-5.337-51.831-33.956-72.967-57.245-16.619-18.312-25.466-40.039-35.519-62.295-11.325-25.073-37.238-50.276-26.814-75.704 10.504-25.624 49.283-24.45 73.792-38.895 21.784-12.84 36.813-34.424 61.508-40.85z" fill="#F9C2C2"/></svg>