<svg width="292" height="284" fill="none" xmlns="http://www.w3.org/2000/svg"><path fill-rule="evenodd" clip-rule="evenodd" d="M164.397.02c30.983.609 60.931 13.215 84.447 33.907 22.31 19.63 36.232 47.526 41.75 77.132 5.063 27.167-5.686 53.16-12.48 79.927-7.323 28.852-5.628 63.952-28.657 82.154-23.109 18.266-55.883 8.037-85.06 7.729-28.806-.305-58.112 3.863-83.794-9.516-28.548-14.871-52.91-38.361-65.801-68.415-13.74-32.029-19.289-69.343-7.354-102.123 11.715-32.178 41.725-52.024 70.114-70.257C104.146 13.486 133.035-.597 164.397.02z" fill="#F9C2C2"/></svg>