<svg width="390" height="41" viewBox="0 0 390 41" fill="none" xmlns="http://www.w3.org/2000/svg">
<path d="M218.055 17.8822C214.303 16.668 210.422 19.8166 208.951 21.5427H214.101C217.319 21.5427 218.055 23.1497 221.273 24.3996C223.848 25.3996 226.269 21.126 227.158 18.8643C228.016 17.287 229.218 14.8824 227.158 17.8822C224.583 21.632 222.744 19.4 218.055 17.8822Z" fill="#F95050"/>
<path d="M2.2616 10.8232C2.2616 10.412 2.40922 10.0587 2.70444 9.76352C2.99966 9.4683 3.35287 9.32069 3.76407 9.32069H16.622C19.7745 9.32069 22.0994 10.2274 23.5966 12.0409C24.4295 13.0426 24.846 14.3236 24.846 15.8841C24.846 17.434 24.1343 18.7889 22.7109 19.9487C24.7353 21.0346 25.7475 22.7216 25.7475 25.0096C25.7475 27.2975 24.9356 29.0372 23.3119 30.2287C21.6988 31.4096 19.7166 32 17.3653 32H3.76407C3.35287 32 2.99966 31.8577 2.70444 31.573C2.40922 31.2778 2.2616 30.9246 2.2616 30.5134V10.8232ZM8.22402 27.7298H17.2704C18.0823 27.7298 18.7044 27.4873 19.1367 27.0023C19.5689 26.5173 19.7851 25.8531 19.7851 25.0096C19.7851 24.1661 19.5689 23.5018 19.1367 23.0168C18.7044 22.5318 18.0823 22.2893 17.2704 22.2893H8.22402V27.7298ZM8.22402 18.1299H16.6853C17.3495 18.1299 17.882 17.9348 18.2826 17.5447C18.6833 17.1441 18.8836 16.5905 18.8836 15.8841C18.8836 15.1671 18.6833 14.6083 18.2826 14.2077C17.882 13.807 17.3495 13.6067 16.6853 13.6067H8.22402V18.1299ZM55.7778 31.3199C55.7778 31.7733 55.5089 32 54.9712 32H51.1755C50.7749 32 50.332 31.8577 49.847 31.573C49.3726 31.2778 49.0088 30.9246 48.7558 30.5134L46.0671 26.3065C44.9601 24.5773 43.621 23.7127 42.05 23.7127H38.1911V30.5134C38.1911 30.9246 38.0435 31.2778 37.7482 31.573C37.4636 31.8577 37.1156 32 36.7044 32H33.7311C33.3199 32 32.9667 31.8577 32.6715 31.573C32.3763 31.2778 32.2287 30.9246 32.2287 30.5134V10.8232C32.2287 10.412 32.371 10.0587 32.6557 9.76352C32.9403 9.4683 33.2883 9.32069 33.6995 9.32069H46.7472C49.1617 9.32069 51.1386 9.96913 52.678 11.266C54.2279 12.5629 55.0029 14.3131 55.0029 16.5167C55.0029 19.5849 53.0154 21.5091 49.0404 22.2893C49.6731 22.5213 50.2582 22.922 50.796 23.4913C51.3337 24.0501 51.9505 24.8672 52.6464 25.9427L55.5248 30.5134C55.6935 30.8086 55.7778 31.0774 55.7778 31.3199ZM38.1911 19.237H44.9284C46.0144 19.237 46.9686 19.0208 47.791 18.5885C48.624 18.1562 49.0404 17.4656 49.0404 16.5167C49.0404 15.5678 48.624 14.8772 47.791 14.4449C46.9686 14.0126 46.0144 13.7965 44.9284 13.7965H38.1911V19.237ZM61.3417 23.0327V10.8232C61.3417 10.412 61.484 10.0587 61.7687 9.76352C62.0639 9.4683 62.4277 9.32069 62.86 9.32069H65.8174C66.2181 9.32069 66.566 9.4683 66.8613 9.76352C67.1565 10.0587 67.3041 10.412 67.3041 10.8232V23.0643C67.3041 24.6142 67.6415 25.7687 68.3163 26.5279C69.0016 27.287 70.056 27.6666 71.4794 27.6666H74.0098C75.4332 27.6666 76.4823 27.287 77.1571 26.5279C77.8424 25.7687 78.1851 24.6142 78.1851 23.0643V10.8232C78.1851 10.412 78.3274 10.0587 78.6121 9.76352C78.9073 9.4683 79.2605 9.32069 79.6717 9.32069H82.6134C83.0457 9.32069 83.4095 9.4683 83.7047 9.76352C83.9999 10.0587 84.1475 10.412 84.1475 10.8232V23.0327C84.1475 25.9216 83.2987 28.1621 81.6012 29.7542C79.9037 31.3358 77.426 32.1265 74.168 32.1265H71.3212C68.0527 32.1265 65.5697 31.3358 63.8721 29.7542C62.1852 28.1621 61.3417 25.9216 61.3417 23.0327ZM90.2965 26.1957C90.2965 25.5737 90.481 25.1308 90.8501 24.8672C91.2191 24.5931 91.5776 24.456 91.9255 24.456H93.8076C94.7565 24.456 95.4787 24.9727 95.9743 26.006C96.4698 27.0392 97.5822 27.5559 99.3113 27.5559L104.847 27.6666C106.702 27.6666 107.63 27.0603 107.63 25.8478C107.63 24.9305 106.497 24.2083 104.23 23.6811C103.218 23.4386 102.1 23.2014 100.877 22.9694C99.654 22.7269 98.4362 22.4264 97.2237 22.0679C96.0217 21.7094 94.9146 21.2877 93.9025 20.8027C92.8903 20.3177 92.0679 19.6534 91.4352 18.8099C90.8132 17.9559 90.5021 16.9543 90.5021 15.805C90.5021 13.6857 91.256 12.0568 92.7637 10.9181C94.2715 9.7688 96.8652 9.19417 100.545 9.19417L104.562 9.28906C106.723 9.28906 108.669 9.84787 110.398 10.9655C112.138 12.0726 113.007 13.4591 113.007 15.125C113.007 15.747 112.823 16.1951 112.454 16.4693C112.085 16.7434 111.732 16.8805 111.394 16.8805H109.512C108.563 16.8805 107.841 16.3638 107.346 15.3306C106.85 14.2867 105.738 13.7648 104.009 13.7648L99.2481 13.6699C97.3924 13.6699 96.4645 14.2762 96.4645 15.4887C96.4645 16.153 97.0497 16.6959 98.2201 17.1177C99.4009 17.5394 100.824 17.9137 102.49 18.2406C104.167 18.5569 105.848 18.9417 107.535 19.3951C109.222 19.8485 110.651 20.5971 111.821 21.6409C113.002 22.6742 113.593 23.9658 113.593 25.5157C113.593 27.6349 112.834 29.2692 111.315 30.4185C109.807 31.5572 107.219 32.1265 103.55 32.1265L98.7578 32.0316C96.5963 32.0316 94.6458 31.4781 92.9061 30.371C91.1664 29.2534 90.2965 27.8616 90.2965 26.1957ZM120.074 30.5134V10.8232C120.074 10.412 120.221 10.0587 120.517 9.76352C120.812 9.4683 121.176 9.32069 121.608 9.32069H124.55C124.961 9.32069 125.309 9.4683 125.593 9.76352C125.889 10.0587 126.036 10.412 126.036 10.8232V17.9401H136.917V10.8232C136.917 10.412 137.065 10.0587 137.36 9.76352C137.655 9.4683 138.008 9.32069 138.42 9.32069H141.361C141.794 9.32069 142.152 9.4683 142.437 9.76352C142.732 10.0587 142.88 10.412 142.88 10.8232V30.5134C142.88 30.9246 142.727 31.2778 142.421 31.573C142.126 31.8577 141.773 32 141.361 32H138.42C138.008 32 137.655 31.8629 137.36 31.5888C137.065 31.3041 136.917 30.9562 136.917 30.545V22.4159H126.036V30.545C126.036 30.9562 125.889 31.3041 125.593 31.5888C125.309 31.8629 124.961 32 124.55 32H121.608C121.197 32 120.838 31.8577 120.532 31.573C120.227 31.2778 120.074 30.9246 120.074 30.5134ZM150.673 30.4817V10.7915C150.673 10.3803 150.821 10.0324 151.116 9.74771C151.412 9.46303 151.765 9.32069 152.176 9.32069H170.411C170.822 9.32069 171.17 9.4683 171.455 9.76352C171.75 10.0587 171.898 10.412 171.898 10.8232V12.3098C171.898 12.721 171.75 13.0742 171.455 13.3694C171.17 13.6541 170.822 13.7965 170.411 13.7965H156.636V18.3987H168.497C168.909 18.3987 169.257 18.5464 169.541 18.8416C169.836 19.1263 169.984 19.4742 169.984 19.8854V21.372C169.984 21.7832 169.836 22.1365 169.541 22.4317C169.257 22.7164 168.909 22.8587 168.497 22.8587H156.636V27.5242H170.379C170.78 27.5242 171.123 27.6666 171.407 27.9513C171.692 28.2359 171.834 28.5839 171.834 28.9951V30.5134C171.834 30.9246 171.687 31.2778 171.392 31.573C171.096 31.8577 170.743 32 170.332 32H152.176C151.765 32 151.412 31.8577 151.116 31.573C150.821 31.2778 150.673 30.914 150.673 30.4817ZM176.75 26.1957C176.75 25.5737 176.934 25.1308 177.303 24.8672C177.672 24.5931 178.031 24.456 178.379 24.456H180.261C181.21 24.456 181.932 24.9727 182.428 26.006C182.923 27.0392 184.036 27.5559 185.765 27.5559L191.3 27.6666C193.156 27.6666 194.084 27.0603 194.084 25.8478C194.084 24.9305 192.95 24.2083 190.683 23.6811C189.671 23.4386 188.553 23.2014 187.33 22.9694C186.107 22.7269 184.89 22.4264 183.677 22.0679C182.475 21.7094 181.368 21.2877 180.356 20.8027C179.344 20.3177 178.521 19.6534 177.889 18.8099C177.267 17.9559 176.956 16.9543 176.956 15.805C176.956 13.6857 177.709 12.0568 179.217 10.9181C180.725 9.7688 183.319 9.19417 186.998 9.19417L191.015 9.28906C193.177 9.28906 195.122 9.84787 196.851 10.9655C198.591 12.0726 199.461 13.4591 199.461 15.125C199.461 15.747 199.276 16.1951 198.907 16.4693C198.538 16.7434 198.185 16.8805 197.848 16.8805H195.966C195.017 16.8805 194.294 16.3638 193.799 15.3306C193.303 14.2867 192.191 13.7648 190.462 13.7648L185.701 13.6699C183.846 13.6699 182.918 14.2762 182.918 15.4887C182.918 16.153 183.503 16.6959 184.673 17.1177C185.854 17.5394 187.278 17.9137 188.944 18.2406C190.62 18.5569 192.302 18.9417 193.989 19.3951C195.676 19.8485 197.104 20.5971 198.275 21.6409C199.456 22.6742 200.046 23.9658 200.046 25.5157C200.046 27.6349 199.287 29.2692 197.769 30.4185C196.261 31.5572 193.672 32.1265 190.003 32.1265L185.211 32.0316C183.05 32.0316 181.099 31.4781 179.359 30.371C177.62 29.2534 176.75 27.8616 176.75 26.1957ZM235.716 30.5134V10.8232C235.716 10.412 235.858 10.0587 236.143 9.76352C236.428 9.4683 236.776 9.32069 237.187 9.32069H249.254C255.633 9.32069 258.822 12.2624 258.822 18.1457C258.822 24.0185 255.633 26.9549 249.254 26.9549H241.679V30.5134C241.679 30.9246 241.531 31.2778 241.236 31.573C240.951 31.8577 240.603 32 240.192 32H237.219C236.807 32 236.454 31.8577 236.159 31.573C235.864 31.2778 235.716 30.9246 235.716 30.5134ZM241.679 22.4791H247.451C249.222 22.4791 250.567 22.1839 251.484 21.5935C252.401 20.9925 252.86 19.8432 252.86 18.1457C252.86 16.4376 252.401 15.2884 251.484 14.6979C250.567 14.0969 249.222 13.7965 247.451 13.7965H241.679V22.4791ZM262.647 30.545L266.616 15.4887C267.692 11.3872 271.192 9.33124 277.118 9.32069H285.642C286.032 9.32069 286.354 9.4683 286.607 9.76352C286.871 10.0587 287.002 10.4014 287.002 10.7915V30.545C287.002 30.9562 286.855 31.3041 286.56 31.5888C286.264 31.8629 285.911 32 285.5 32H282.527C282.094 32 281.736 31.8629 281.451 31.5888C281.177 31.3041 281.04 30.9456 281.04 30.5134V26.5279H269.795L268.736 30.5134C268.63 30.9456 268.393 31.3041 268.024 31.5888C267.655 31.8629 267.265 32 266.854 32H263.738C263.327 32 263.031 31.884 262.852 31.6521C262.673 31.4096 262.583 31.1987 262.583 31.0194C262.594 30.8402 262.615 30.682 262.647 30.545ZM270.966 22.0521H281.04V13.7965H276.533C275.52 13.7965 274.635 14.0864 273.876 14.6663C273.127 15.2357 272.621 16.0053 272.357 16.9754L270.966 22.0521ZM294.765 30.545V10.8232C294.765 10.412 294.912 10.0587 295.207 9.76352C295.503 9.4683 295.856 9.32069 296.267 9.32069H299.209C299.641 9.32069 299.999 9.4683 300.284 9.76352C300.579 10.0587 300.727 10.412 300.727 10.8232V30.5134C300.727 30.9246 300.574 31.2778 300.268 31.573C299.973 31.8577 299.62 32 299.209 32H296.267C295.856 32 295.503 31.8629 295.207 31.5888C294.912 31.3041 294.765 30.9562 294.765 30.545ZM308.505 30.5134V10.8232C308.505 10.412 308.647 10.0587 308.932 9.76352C309.217 9.4683 309.565 9.32069 309.976 9.32069H314.626C314.995 9.32069 315.385 9.4683 315.796 9.76352C316.207 10.0587 316.544 10.412 316.808 10.8232L326.361 25.5157V10.7915C326.361 10.3803 326.503 10.0324 326.788 9.74771C327.083 9.46303 327.436 9.32069 327.847 9.32069H330.567C330.979 9.32069 331.327 9.46303 331.611 9.74771C331.907 10.0324 332.054 10.3909 332.054 10.8232V30.5134C332.054 30.9246 331.907 31.2778 331.611 31.573C331.327 31.8577 330.979 32 330.567 32H325.317C324.906 32 324.484 31.8577 324.052 31.573C323.619 31.2778 323.277 30.9246 323.024 30.5134L314.278 16.9437V30.5134C314.278 30.9246 314.13 31.2778 313.835 31.573C313.55 31.8577 313.202 32 312.791 32H310.007C309.596 32 309.243 31.8577 308.948 31.573C308.653 31.2778 308.505 30.9246 308.505 30.5134ZM337.887 12.3098V10.8232C337.887 10.3909 338.029 10.0324 338.314 9.74771C338.599 9.46303 338.957 9.32069 339.389 9.32069H359.459C359.891 9.32069 360.25 9.46303 360.535 9.74771C360.819 10.0324 360.962 10.3909 360.962 10.8232V12.3098C360.962 12.7421 360.819 13.1006 360.535 13.3853C360.25 13.6594 359.891 13.7965 359.459 13.7965H352.405V30.545C352.405 30.9562 352.258 31.3041 351.963 31.5888C351.678 31.8629 351.33 32 350.919 32H347.93C347.518 32 347.165 31.8629 346.87 31.5888C346.585 31.3041 346.443 30.9562 346.443 30.545V13.7965H339.389C338.957 13.7965 338.599 13.6594 338.314 13.3853C338.029 13.1006 337.887 12.7421 337.887 12.3098ZM365.181 26.1957C365.181 25.5737 365.366 25.1308 365.735 24.8672C366.104 24.5931 366.462 24.456 366.81 24.456H368.692C369.641 24.456 370.363 24.9727 370.859 26.006C371.354 27.0392 372.467 27.5559 374.196 27.5559L379.731 27.6666C381.587 27.6666 382.515 27.0603 382.515 25.8478C382.515 24.9305 381.381 24.2083 379.114 23.6811C378.102 23.4386 376.985 23.2014 375.762 22.9694C374.539 22.7269 373.321 22.4264 372.108 22.0679C370.906 21.7094 369.799 21.2877 368.787 20.8027C367.775 20.3177 366.952 19.6534 366.32 18.8099C365.698 17.9559 365.387 16.9543 365.387 15.805C365.387 13.6857 366.141 12.0568 367.648 10.9181C369.156 9.7688 371.75 9.19417 375.429 9.19417L379.447 9.28906C381.608 9.28906 383.553 9.84787 385.283 10.9655C387.022 12.0726 387.892 13.4591 387.892 15.125C387.892 15.747 387.708 16.1951 387.339 16.4693C386.969 16.7434 386.616 16.8805 386.279 16.8805H384.397C383.448 16.8805 382.726 16.3638 382.23 15.3306C381.735 14.2867 380.622 13.7648 378.893 13.7648L374.133 13.6699C372.277 13.6699 371.349 14.2762 371.349 15.4887C371.349 16.153 371.934 16.6959 373.105 17.1177C374.286 17.5394 375.709 17.9137 377.375 18.2406C379.051 18.5569 380.733 18.9417 382.42 19.3951C384.107 19.8485 385.536 20.5971 386.706 21.6409C387.887 22.6742 388.477 23.9658 388.477 25.5157C388.477 27.6349 387.718 29.2692 386.2 30.4185C384.692 31.5572 382.104 32.1265 378.434 32.1265L373.642 32.0316C371.481 32.0316 369.53 31.4781 367.791 30.371C366.051 29.2534 365.181 27.8616 365.181 26.1957Z" fill="#303030"/>
</svg>
