<svg width="150" height="150" fill="none" xmlns="http://www.w3.org/2000/svg"><path d="M147.5 1.395H2.5a2.5 2.5 0 00-2.5 2.5v100a2.5 2.5 0 002.5 2.5h45.142c.075.833.198 1.653.345 2.465l-13.712 16.343a2.5 2.5 0 001.335 4.04l15.095 3.605 6.172 14.25a2.5 2.5 0 004.21.612l13.69-16.315h.445l13.69 16.315a2.5 2.5 0 004.21-.612l6.173-14.25 15.095-3.605a2.5 2.5 0 001.335-4.04l-13.713-16.343c.148-.812.271-1.632.345-2.465H147.5a2.5 2.5 0 002.5-2.5v-100a2.5 2.5 0 00-2.5-2.5zm-87.642 140l-5.063-11.675a2.5 2.5 0 00-1.712-1.437l-12.375-2.958 8.974-10.697c.048.11.11.21.158.32a26.617 26.617 0 001.567 3.042 29.21 29.21 0 001.09 1.68c.268.383.548.75.836 1.125a28.746 28.746 0 002.245 2.528c.307.307.624.605.95.897.27.25.512.513.794.75.283.238.548.398.818.608.123.095.227.205.352.297.226.17.463.318.693.48.36.25.715.52 1.087.75.71.455 1.443.87 2.186 1.25.285.145.575.278.864.413.667.313 1.338.598 2.013.855.195.072.388.155.583.222a26.75 26.75 0 002.89.838l.027.007-8.977 10.705zm19.837-15.53c-1.147.243-2.31.396-3.48.458h-.032c-.396.02-.79.047-1.188.047-.398 0-.793-.027-1.188-.047h-.032a22.933 22.933 0 01-3.473-.455l-.21-.043a20.935 20.935 0 01-1.32-.342c-.182-.053-.367-.1-.547-.158-.313-.097-.62-.212-.927-.322-.308-.11-.6-.218-.895-.34a9.96 9.96 0 01-.543-.25 24.15 24.15 0 01-1.215-.58l-.2-.11a22.656 22.656 0 01-2.95-1.885c-.52-.388-1-.815-1.472-1.238a22.131 22.131 0 01-1.598-1.577c-.2-.215-.415-.42-.605-.643a21.901 21.901 0 01-1.905-2.607c-.085-.135-.157-.278-.25-.418a21.88 21.88 0 01-1.4-2.767c-.035-.085-.075-.17-.108-.25a22.459 22.459 0 01-1.064-3.37c0-.045-.036-.08-.048-.125a22.625 22.625 0 01-.545-4.948c-.008-12.426 10.06-22.506 22.486-22.513 12.427-.008 22.506 10.06 22.514 22.486 0 1.683-.187 3.361-.56 5.002-.013.043-.037.08-.047.123a22.57 22.57 0 01-1.063 3.367 3.289 3.289 0 01-.112.25 21.9 21.9 0 01-1.395 2.75c-.083.14-.158.287-.25.427a22.12 22.12 0 01-1.903 2.606c-.188.22-.4.42-.597.635a22.685 22.685 0 01-1.618 1.592c-.475.423-.948.85-1.465 1.235-.517.385-.98.71-1.485 1.033l-.03.017a20.52 20.52 0 01-1.385.803c-.093.05-.183.102-.275.15-.377.197-.75.375-1.147.547-.2.09-.398.183-.6.265-.28.118-.566.22-.85.323-.285.102-.638.235-.963.335-.172.055-.347.102-.522.152-.443.125-.888.25-1.338.345l-.2.04zm29.597-.547l-12.374 2.957a2.5 2.5 0 00-1.713 1.438l-5.063 11.682-8.977-10.697h.022c.982-.225 1.95-.505 2.9-.84.188-.065.368-.143.555-.21a26.894 26.894 0 002.06-.878c.276-.127.55-.25.82-.39.75-.39 1.5-.812 2.22-1.275.348-.22.68-.467 1.018-.705.25-.172.5-.33.75-.512.132-.1.25-.218.38-.32.25-.205.54-.378.795-.593.255-.215.515-.5.78-.735.33-.3.655-.602.97-.915a28.306 28.306 0 002.24-2.52c.288-.367.568-.75.835-1.125a24.88 24.88 0 001.087-1.675c.175-.29.346-.582.5-.88.389-.705.743-1.426 1.063-2.162.045-.128.11-.23.157-.343l8.975 10.698zM145 101.395h-42.627C101.016 86.277 87.66 75.12 72.541 76.477c-13.239 1.188-23.73 11.68-24.918 24.918H5v-95h140v95z" fill="#826B62"/><path d="M12.5 11.395a2.5 2.5 0 00-2.5 2.5v10h5v-7.5h7.5v-5h-10zm125 0h-10v5h7.5v7.5h5v-10a2.5 2.5 0 00-2.5-2.5zm-2.5 72.5v7.5h-7.5v5h10a2.5 2.5 0 002.5-2.5v-10h-5zm-120 7.5v-7.5h-5v10a2.5 2.5 0 002.5 2.5h10v-5H15zm90-62.5H45v5h60v-5zm15 15H30v5h90v-5zm-45 42.5c-9.665 0-17.5 7.835-17.5 17.5.01 9.661 7.84 17.489 17.5 17.5 9.665 0 17.5-7.835 17.5-17.5s-7.835-17.5-17.5-17.5zm0 30c-6.903 0-12.5-5.596-12.5-12.5.008-6.9 5.6-12.492 12.5-12.5 6.903 0 12.5 5.597 12.5 12.5 0 6.904-5.597 12.5-12.5 12.5z" fill="#826B62"/></svg>