<svg width="254" height="144" fill="none" xmlns="http://www.w3.org/2000/svg"><g clip-path="url(#clip0)"><mask id="a" maskUnits="userSpaceOnUse" x="173.104" y="-.476" width="31" height="67" fill="#000"><path fill="#fff" d="M173.104-.476h31v67h-31z"/><path d="M201.93 57.109h-.775v-.337l-2.512-41.065c0-1.467-1.036-2.657-2.314-2.657h-.513V8.928h.67c1.278 0 2.314-1.19 2.314-2.657V3.168c-.006-1.462-1.04-2.644-2.314-2.644h-15.86c-1.278-.007-2.319 1.177-2.324 2.644v3.03c0 1.467 1.035 2.657 2.313 2.657h.649v4.111h-.513c-1.252-.007-2.279 1.136-2.313 2.573l-2.513 41.318v.252h-.775c-.578 0-1.046.538-1.046 1.202v5.722c-.001.664.468 1.203 1.046 1.203h26.78c.578 0 1.047-.539 1.047-1.203v-5.722c0-.664-.469-1.202-1.047-1.202zM180.626 6.45c-.118.007-.22-.093-.231-.228V3.168c0-.139.099-.252.22-.252h15.871c.122 0 .22.113.22.252v3.03c0 .14-.098.252-.22.252h-15.86zm13.107 2.73v3.606c0 .14-.099.252-.22.252h-9.935c-.122 0-.22-.113-.22-.252V9.179c0-.14.098-.252.22-.252h9.935c.121 0 .22.113.22.252zm-13.17 6.527c0-.14.098-.253.22-.253h15.536c.125 0 .22.12.22.337l2.523 41.09c-.011.13-.107.229-.22.228h-20.603a.242.242 0 01-.22-.168l2.544-41.234zm20.31 47.124h-24.655v-3.318h24.665l-.01 3.318z"/></mask><path d="M201.93 57.109h-.775v-.337l-2.512-41.065c0-1.467-1.036-2.657-2.314-2.657h-.513V8.928h.67c1.278 0 2.314-1.19 2.314-2.657V3.168c-.006-1.462-1.04-2.644-2.314-2.644h-15.86c-1.278-.007-2.319 1.177-2.324 2.644v3.03c0 1.467 1.035 2.657 2.313 2.657h.649v4.111h-.513c-1.252-.007-2.279 1.136-2.313 2.573l-2.513 41.318v.252h-.775c-.578 0-1.046.538-1.046 1.202v5.722c-.001.664.468 1.203 1.046 1.203h26.78c.578 0 1.047-.539 1.047-1.203v-5.722c0-.664-.469-1.202-1.047-1.202zM180.626 6.45c-.118.007-.22-.093-.231-.228V3.168c0-.139.099-.252.22-.252h15.871c.122 0 .22.113.22.252v3.03c0 .14-.098.252-.22.252h-15.86zm13.107 2.73v3.606c0 .14-.099.252-.22.252h-9.935c-.122 0-.22-.113-.22-.252V9.179c0-.14.098-.252.22-.252h9.935c.121 0 .22.113.22.252zm-13.17 6.527c0-.14.098-.253.22-.253h15.536c.125 0 .22.12.22.337l2.523 41.09c-.011.13-.107.229-.22.228h-20.603a.242.242 0 01-.22-.168l2.544-41.234zm20.31 47.124h-24.655v-3.318h24.665l-.01 3.318z" fill="#826B62"/><path d="M201.155 57.109h-1v1h1v-1zm0-.337h1v-.03l-.002-.03-.998.06zm-2.512-41.065h-1v.03l.002.031.998-.061zm-2.827-2.657h-1v1h1v-1zm0-4.123v-1h-1v1h1zm2.984-5.759h1v-.004l-1 .004zM180.626.524l-.005 1h.005v-1zm-2.324 2.644l-1-.003v.003h1zm2.962 5.687h1v-1h-1v1zm0 4.111v1h1v-1h-1zm-.513 0l-.005 1h.005v-1zm-2.313 2.573l.998.06.001-.018v-.019l-.999-.023zm-2.513 41.318l-.998-.061-.002.03v.03h1zm0 .252v1h1v-1h-1zm-1.821 6.924h1-1zm1.046 1.203v1-1zm.021 0v-1h-.021l.021 1zm5.455-58.786v-1h-.03l-.03.002.06.998zm-.231-.228h-1v.041l.004.041.996-.082zm13.118 2.705v-1 1zm-12.95 6.78l.998.061.002-.03v-.031h-1zm15.976.084h-1v.03l.001.031.999-.061zm2.523 41.09l.996.083.006-.072-.004-.073-.998.062zm-.22.228l.005-1h-.005v1zm-20.603 0l-.008 1h.008v-1zm-.22-.168l-.998-.062-.013.21.073.199.938-.347zm22.854 5.89v1h.997l.003-.997-1-.003zm-24.655 0h-1v1h1v-1zm0-3.318v-1h-1v1h1zm24.665 0l1 .004.003-1.004h-1.003v1zm1.047-3.404h-.775v2h.775v-2zm.225 1v-.252h-2v.253h2zm0-.252v-.084h-2v.084h2zm-.002-.146l-2.512-41.065-1.996.122 2.512 41.066 1.996-.123zm-2.51-41.004c0-1.885-1.358-3.657-3.314-3.657v2c.6 0 1.314.608 1.314 1.657h2zm-3.314-3.657h-.513v2h.513v-2zm.487 1v-.252h-2v.252h2zm0-.252V9.179h-2v3.619h2zm0-3.619v-.252h-2v.253h2zm-1 .748h.67v-2h-.67v2zm.67 0c1.956 0 3.314-1.772 3.314-3.657h-2c0 1.05-.714 1.657-1.314 1.657v2zM199.8 6.27V3.168h-2V6.27h2zm0-3.106c-.008-1.88-1.365-3.64-3.314-3.64v2c.598 0 1.31.603 1.314 1.648l2-.008zm-3.314-3.64h-15.86v2h15.86v-2zm-15.855 0c-1.956-.01-3.322 1.755-3.329 3.64l2 .008c.004-1.049.719-1.651 1.319-1.648l.01-2zm-3.329 3.644v3.03h2v-3.03h-2zm0 3.03c0 1.885 1.358 3.657 3.313 3.657v-2c-.6 0-1.313-.608-1.313-1.657h-2zm3.313 3.657h.649v-2h-.649v2zm-.351-1v.252h2v-.252h-2zm0 .252v3.607h2V9.107h-2zm0 3.607v.252h2v-.252h-2zm1-.748h-.513v2h.513v-2zm-.507 0c-1.919-.01-3.275 1.697-3.319 3.549l1.999.047c.025-1.022.724-1.6 1.309-1.596l.011-2zm-3.317 3.512l-2.513 41.318 1.996.121 2.513-41.318-1.996-.121zm-2.515 41.379v.252h2v-.252h-2zm1-.748h-.775v2h.775v-2zm-.775 0c-1.255 0-2.046 1.12-2.046 2.202h2c0-.098.034-.163.06-.193.025-.028.022-.009-.014-.009v-2zm-2.046 2.202v5.722h2v-5.722h-2zm0 5.722c-.001 1.082.79 2.203 2.046 2.203v-2c.036 0 .039.019.014-.009a.293.293 0 01-.06-.193h-2zm2.046 2.203h.043l-.043-2v2zm.021 0h26.759v-2h-26.759v2zm26.759 0c1.256 0 2.047-1.12 2.047-2.203h-2a.298.298 0 01-.061.194c-.024.028-.022.009.014.009v2zm2.047-2.203v-5.722h-2v5.722h2zm0-5.722c0-1.082-.791-2.202-2.047-2.202v2c-.036 0-.038-.019-.014.009.026.03.061.095.061.193h2zM180.566 5.452a.77.77 0 01.826.688l-1.993.164c.045.547.506 1.191 1.287 1.145l-.12-1.997zm.829.77V3.168h-2v3.054h2zm0-3.054a.764.764 0 01-.78.748v-2c-.799 0-1.22.695-1.22 1.252h2zm-.78.748h15.871v-2h-15.871v2zm15.871 0a.764.764 0 01-.78-.748h2c0-.557-.421-1.252-1.22-1.252v2zm-.78-.748v3.03h2v-3.03h-2zm0 3.03c0-.279.224-.748.78-.748v2c.799 0 1.22-.695 1.22-1.252h-2zm.78-.748h-15.86v2h15.86v-2zm-3.753 3.73v3.606h2V9.179h-2zm0 3.606c0-.279.224-.748.78-.748v2c.799 0 1.22-.695 1.22-1.252h-2zm.78-.748h-9.935v2h9.935v-2zm-9.935 0c.556 0 .78.47.78.748h-2c0 .557.421 1.252 1.22 1.252v-2zm.78.748V9.179h-2v3.607h2zm0-3.607a.764.764 0 01-.78.748v-2c-.799 0-1.22.695-1.22 1.252h2zm-.78.748h9.935v-2h-9.935v2zm9.935 0a.764.764 0 01-.78-.748h2c0-.557-.421-1.252-1.22-1.252v2zm-11.95 5.78a.764.764 0 01-.78.747v-2c-.799 0-1.22.695-1.22 1.253h2zm-.78.747h15.536v-2h-15.536v2zm15.536 0a.813.813 0 01-.667-.346.573.573 0 01-.113-.317h2c0-.239-.051-.541-.239-.816a1.188 1.188 0 00-.981-.52v2zm-.779-.602l2.523 41.09 1.997-.123-2.523-41.09-1.997.123zm2.525 40.945a.768.768 0 01.782-.688l-.011 2c.747.004 1.178-.614 1.222-1.145l-1.993-.167zm.777-.688h-20.603v2h20.603v-2zm-20.595 0a.76.76 0 01.71.484l-1.876.695c.158.426.574.817 1.15.821l.016-2zm.77.893l2.544-41.234-1.996-.123-2.544 41.234 1.996.123zm21.856 4.83h-24.655v2h24.655v-2zm-23.655 1v-3.319h-2v3.318h2zm-1-2.319h24.665v-2h-24.665v2zm23.665-1.003l-.01 3.318 2 .006.01-3.318-2-.006z" fill="#826B62" mask="url(#a)"/><path d="M188.591 28.33c-3.988 0-7.234 3.15-7.234 7.032 0 3.883 3.246 7.033 7.234 7.033 3.989 0 7.235-3.15 7.235-7.033 0-3.883-3.288-7.033-7.235-7.033zm0 11.66c-2.837 0-5.14-2.08-5.14-4.628 0-2.549 2.303-4.628 5.14-4.628 2.838 0 5.141 2.08 5.141 4.628 0 2.549-2.345 4.628-5.141 4.628z" fill="#826B62"/></g><g clip-path="url(#clip1)"><mask id="b" maskUnits="userSpaceOnUse" x="209.736" y="-.476" width="31" height="67" fill="#000"><path fill="#fff" d="M209.736-.476h31v67h-31z"/><path d="M238.563 57.109h-.775v-.337l-2.512-41.065c0-1.467-1.036-2.657-2.314-2.657h-.513V8.928h.67c1.278 0 2.314-1.19 2.314-2.657V3.168c-.006-1.462-1.04-2.644-2.314-2.644h-15.861c-1.277-.007-2.318 1.177-2.324 2.644v3.03c0 1.467 1.036 2.657 2.314 2.657h.649v4.111h-.513c-1.252-.007-2.279 1.136-2.314 2.573l-2.512 41.318v.252h-.775c-.578 0-1.047.538-1.047 1.202v5.722c0 .664.469 1.203 1.047 1.203h26.78c.578 0 1.047-.539 1.047-1.203v-5.722c0-.664-.469-1.202-1.047-1.202zM217.258 6.45c-.117.007-.219-.093-.23-.228V3.168c0-.139.099-.252.22-.252h15.871c.121 0 .22.113.22.252v3.03c0 .14-.099.252-.22.252h-15.861zm13.108 2.73v3.606c0 .14-.099.252-.22.252h-9.935c-.122 0-.22-.113-.22-.252V9.179c0-.14.098-.252.22-.252h9.935c.121 0 .22.113.22.252zm-13.17 6.527c0-.14.098-.253.22-.253h15.535c.126 0 .22.12.22.337l2.523 41.09c-.011.13-.106.229-.22.228h-20.602a.242.242 0 01-.22-.168l2.544-41.234zm20.309 47.124h-24.654v-3.318h24.665l-.011 3.318z"/></mask><path d="M238.563 57.109h-.775v-.337l-2.512-41.065c0-1.467-1.036-2.657-2.314-2.657h-.513V8.928h.67c1.278 0 2.314-1.19 2.314-2.657V3.168c-.006-1.462-1.04-2.644-2.314-2.644h-15.861c-1.277-.007-2.318 1.177-2.324 2.644v3.03c0 1.467 1.036 2.657 2.314 2.657h.649v4.111h-.513c-1.252-.007-2.279 1.136-2.314 2.573l-2.512 41.318v.252h-.775c-.578 0-1.047.538-1.047 1.202v5.722c0 .664.469 1.203 1.047 1.203h26.78c.578 0 1.047-.539 1.047-1.203v-5.722c0-.664-.469-1.202-1.047-1.202zM217.258 6.45c-.117.007-.219-.093-.23-.228V3.168c0-.139.099-.252.22-.252h15.871c.121 0 .22.113.22.252v3.03c0 .14-.099.252-.22.252h-15.861zm13.108 2.73v3.606c0 .14-.099.252-.22.252h-9.935c-.122 0-.22-.113-.22-.252V9.179c0-.14.098-.252.22-.252h9.935c.121 0 .22.113.22.252zm-13.17 6.527c0-.14.098-.253.22-.253h15.535c.126 0 .22.12.22.337l2.523 41.09c-.011.13-.106.229-.22.228h-20.602a.242.242 0 01-.22-.168l2.544-41.234zm20.309 47.124h-24.654v-3.318h24.665l-.011 3.318z" fill="#826B62"/><path d="M237.788 57.109h-1v1h1v-1zm0-.337h1v-.03l-.002-.03-.998.06zm-2.512-41.065h-1v.03l.001.031.999-.061zm-2.827-2.657h-1v1h1v-1zm0-4.123v-1h-1v1h1zm2.984-5.759h1v-.004l-1 .004zM217.258.524l-.005 1h.005v-1zm-2.324 2.644l-1-.003v.003h1zm2.963 5.687h1v-1h-1v1zm0 4.111v1h1v-1h-1zm-.513 0l-.006 1h.006v-1zm-2.314 2.573l.999.06.001-.018v-.019l-1-.023zm-2.512 41.318l-.998-.061-.002.03v.03h1zm0 .252v1h1v-1h-1zm-1.822 6.924h1-1zm1.047 1.203v1-1zm.021 0v-1h-.021l.021 1zm5.454-58.786v-1h-.029l-.03.002.059.998zm-.23-.228h-1v.041l.004.041.996-.082zm13.118 2.705v-1 1zm-12.95 6.78l.998.061.002-.03v-.031h-1zm15.975.084h-1v.03l.002.031.998-.061zm2.523 41.09l.997.083.006-.072-.005-.073-.998.062zm-.22.228l.006-1h-.006v1zm-20.602 0l-.008 1h.008v-1zm-.22-.168l-.998-.062-.013.21.073.199.938-.347zm22.853 5.89v1h.997l.003-.997-1-.003zm-24.654 0h-1v1h1v-1zm0-3.318v-1h-1v1h1zm24.665 0l1 .004.003-1.004h-1.003v1zm1.047-3.404h-.775v2h.775v-2zm.225 1v-.252h-2v.253h2zm0-.252v-.042h-2 2v-.042h-2v.084h2zm-.002-.146l-2.512-41.065-1.997.122 2.513 41.066 1.996-.123zm-2.51-41.004c0-1.885-1.359-3.657-3.314-3.657v2c.6 0 1.314.608 1.314 1.657h2zm-3.314-3.657h-.513v2h.513v-2zm.487 1v-.252h-2v.252h2zm0-.252V9.179h-2v3.619h2zm0-3.619v-.252h-2v.253h2zm-1 .748h.67v-2h-.67v2zm.67 0c1.955 0 3.314-1.772 3.314-3.657h-2c0 1.05-.714 1.657-1.314 1.657v2zm3.314-3.657V3.168h-2V6.27h2zm0-3.106c-.008-1.88-1.365-3.64-3.314-3.64v2c.598 0 1.31.603 1.314 1.648l2-.008zm-3.314-3.64h-15.861v2h15.861v-2zm-15.855 0c-1.956-.01-3.322 1.755-3.33 3.64l2 .008c.004-1.049.72-1.651 1.319-1.648l.011-2zm-3.33 3.644v3.03h2v-3.03h-2zm0 3.03c0 1.885 1.359 3.657 3.314 3.657v-2c-.6 0-1.314-.608-1.314-1.657h-2zm3.314 3.657h.649v-2h-.649v2zm-.351-1v.252h2v-.252h-2zm0 .252v3.607h2V9.107h-2zm0 3.607v.252h2v-.252h-2zm1-.748h-.513v2h.513v-2zm-.507 0c-1.919-.01-3.275 1.697-3.319 3.549l1.999.047c.025-1.022.724-1.6 1.308-1.596l.012-2zm-3.318 3.512l-2.512 41.318 1.996.121 2.513-41.318-1.997-.121zm-2.514 41.379v.252h2v-.252h-2zm1-.748h-.775v2h.775v-2zm-.775 0c-1.256 0-2.047 1.12-2.047 2.202h2c0-.098.035-.163.061-.193.024-.028.022-.009-.014-.009v-2zm-2.047 2.202v5.722h2v-5.722h-2zm0 5.722c0 1.082.791 2.203 2.047 2.203v-2c.036 0 .038.019.014-.009a.298.298 0 01-.061-.193h-2zm2.047 2.203h.042l-.042-2v2zm.021 0h26.759v-2h-26.759v2zm26.759 0c1.256 0 2.047-1.12 2.047-2.203h-2a.297.297 0 01-.061.194c-.024.028-.022.009.014.009v2zm2.047-2.203v-5.722h-2v5.722h2zm0-5.722c0-1.082-.791-2.202-2.047-2.202v2c-.036 0-.038-.019-.014.009.026.03.061.095.061.193h2zM217.199 5.452a.77.77 0 01.826.688l-1.993.164c.045.547.505 1.191 1.286 1.145l-.119-1.997zm.829.77V3.168h-2v3.054h2zm0-3.054a.764.764 0 01-.78.748v-2c-.799 0-1.22.695-1.22 1.252h2zm-.78.748h15.871v-2h-15.871v2zm15.871 0a.764.764 0 01-.78-.748h2c0-.557-.421-1.252-1.22-1.252v2zm-.78-.748v3.03h2v-3.03h-2zm0 3.03c0-.279.224-.748.78-.748v2c.799 0 1.22-.695 1.22-1.252h-2zm.78-.748h-15.861v2h15.861v-2zm-3.753 3.73v3.606h2V9.179h-2zm0 3.606c0-.279.224-.748.78-.748v2c.799 0 1.22-.695 1.22-1.252h-2zm.78-.748h-9.935v2h9.935v-2zm-9.935 0c.556 0 .78.47.78.748h-2c0 .557.421 1.252 1.22 1.252v-2zm.78.748V9.179h-2v3.607h2zm0-3.607a.764.764 0 01-.78.748v-2c-.799 0-1.22.695-1.22 1.252h2zm-.78.748h9.935v-2h-9.935v2zm9.935 0a.764.764 0 01-.78-.748h2c0-.557-.421-1.252-1.22-1.252v2zm-11.95 5.78a.764.764 0 01-.78.747v-2c-.8 0-1.22.695-1.22 1.253h2zm-.78.747h15.535v-2h-15.535v2zm15.535 0a.816.816 0 01-.667-.346.582.582 0 01-.113-.317h2c0-.239-.05-.541-.238-.816a1.188 1.188 0 00-.982-.52v2zm-.778-.602l2.523 41.09 1.996-.123-2.523-41.09-1.996.123zm2.525 40.945a.767.767 0 01.782-.688l-.011 2c.747.004 1.177-.614 1.222-1.145l-1.993-.167zm.776-.688h-20.602v2h20.602v-2zm-20.595 0a.757.757 0 01.71.484l-1.875.695c.158.426.573.817 1.15.821l.015-2zm.771.893l2.544-41.234-1.996-.123-2.544 41.234 1.996.123zm21.855 4.83h-24.654v2h24.654v-2zm-23.654 1v-3.319h-2v3.318h2zm-1-2.319h24.665v-2h-24.665v2zm23.665-1.003l-.011 3.318 2 .006.011-3.318-2-.006z" fill="#826B62" mask="url(#b)"/><path d="M225.224 28.33c-3.988 0-7.234 3.15-7.234 7.032 0 3.883 3.246 7.033 7.234 7.033 3.989 0 7.234-3.15 7.234-7.033 0-3.883-3.287-7.033-7.234-7.033zm0 11.66c-2.837 0-5.14-2.08-5.14-4.628 0-2.549 2.303-4.628 5.14-4.628 2.837 0 5.141 2.08 5.141 4.628 0 2.549-2.345 4.628-5.141 4.628z" fill="#826B62"/></g><g clip-path="url(#clip2)" fill="#826B62"><path d="M90.738 90.54v.5l-45.33 3.246c-1.896.011-3.421 1.563-3.42 3.465v.157l-3.784.003h-2.029a1592.43 1592.43 0 00-1.433 0h-.035l-.018.002a.95.95 0 00-.097.018c-.14.12-.19.304-.185.48h-.06l-.002 18.631v.5h.5l3.29.003h.002l3.77-.003v.156c-.007 1.867 1.464 3.405 3.324 3.46l45.528 3.168v.506c0 1.013.817 1.84 1.831 1.839l6.332-.005s0 0 0 0a1.837 1.837 0 001.83-1.842v-.032l-.021-34.26a1.836 1.836 0 00-1.832-1.839l-6.332.005a1.836 1.836 0 00-1.829 1.842zm.018 30.095l-45.096-3.183-.011-19.48 45.092-3.24.015 25.903zM45.501 97.982h.002-.002zm45.24-3.49v.003-.002zm-52.314 7.087l3.55-.003.007 12.285-3.55.003-.007-12.285zm55.973-9.2l2.671.008.019 30.572-2.672.003L94.4 92.38z" stroke="#826B62"/><path d="M59.404 107.644c.004 5.107 3.491 9.26 7.788 9.257 4.297-.004 7.78-4.162 7.777-9.27-.003-5.107-3.491-9.26-7.788-9.257-4.297.004-7.78 4.216-7.776 9.27zm12.904-.01c.002 3.632-2.297 6.584-5.117 6.586-2.82.002-5.124-2.945-5.126-6.578-.002-3.633 2.297-6.584 5.118-6.587 2.82-.002 5.123 2.999 5.125 6.579z"/></g><path d="M84.55 88.12C82.133 57.8 95.3 10.712 169.303 32.021m0 0l-7.893-6.904m7.893 6.904l-7.893 4.358m26.869 31.378c2.383 30.32-10.838 77.394-84.817 56.001m0 0l7.885 6.913m-7.885-6.913l7.898-4.349m42.175-42.078c0 9.913-7.607 17.73-16.728 17.73-9.121 0-16.729-7.817-16.729-17.73s7.608-17.73 16.729-17.73c9.121 0 16.728 7.817 16.728 17.73z" stroke="#826B62" stroke-width="5"/><path d="M125.781 73.53l10.665 15.646 14.723-36.824" stroke="#826B62" stroke-width="5"/><defs><clipPath id="clip0"><path fill="#fff" transform="translate(160.363 .524)" d="M0 0h56.355v64.712H0z"/></clipPath><clipPath id="clip1"><path fill="#fff" transform="translate(196.996 .524)" d="M0 0h56.355v64.712H0z"/></clipPath><clipPath id="clip2"><path fill="#fff" transform="rotate(-90.035 86.193 57.59) skewX(.011)" d="M0 0h72.163v71.609H0z"/></clipPath></defs></svg>