<svg width="151" height="151" fill="none" xmlns="http://www.w3.org/2000/svg"><g clip-path="url(#clip0)" fill="#826B62"><path d="M129.41 112.776a11.324 11.324 0 00-14.548-1.236l-11.219 8.526c-.408-1.934-1.337-3.702-2.689-5.054a8.733 8.733 0 00-6.215-2.574H77.73a5.817 5.817 0 01-4.138-1.712L58.006 95.067a17.463 17.463 0 00-12.43-5.148H22.971a2.93 2.93 0 00-2.917-2.677H7.81a2.93 2.93 0 00-2.93 2.93v52.149a2.93 2.93 0 002.93 2.929h12.243a2.93 2.93 0 002.93-2.929v-3.093l22.198 10.992c.404.2.85.304 1.3.304H99.95c.662 0 1.305-.225 1.823-.636l26.787-21.286a10.664 10.664 0 003.955-7.723 10.663 10.663 0 00-3.104-8.103zM17.124 134.508v4.883H10.74v-46.29h6.384v41.407zm109.539-13.944a4.724 4.724 0 01-1.764 3.462l-25.972 20.638H47.168L22.984 132.69V95.778h22.592a11.64 11.64 0 018.282 3.428l15.586 15.659a11.643 11.643 0 008.286 3.432h17.01c.782 0 1.517.305 2.07.859.792.79 1.232 1.98 1.209 3.264-.02 1.11-.407 2.146-1.008 2.705a2.93 2.93 0 003.767 4.479l17.57-13.354a5.466 5.466 0 016.919.669 4.735 4.735 0 011.396 3.645z"/><path d="M78.22 125.768H61.49c-4.298 0-8.34-1.674-11.379-4.714l-3.647-3.647a2.93 2.93 0 00-4.143 4.144l3.647 3.647a21.81 21.81 0 0015.522 6.429h16.73a2.93 2.93 0 000-5.859zm13.42 2.358a2.981 2.981 0 00-.437-1.054 2.798 2.798 0 00-.366-.446 2.763 2.763 0 00-.445-.363 3.064 3.064 0 00-1.052-.44 2.907 2.907 0 00-2.2.44 2.78 2.78 0 00-.809.809 2.904 2.904 0 00-.437 1.054 2.892 2.892 0 00-.058.572 2.948 2.948 0 00.495 1.625 2.844 2.844 0 00.809.809 3.037 3.037 0 001.054.436 2.9 2.9 0 00.572.059 2.946 2.946 0 001.626-.495 2.938 2.938 0 001.307-2.434c0-.191-.021-.384-.06-.572zm52.641-98.337a2.93 2.93 0 000-4.144l-9.476-9.476a2.932 2.932 0 00-4.144 0l-6.533 6.532a45.594 45.594 0 00-14.03-6.264c.432-1.25.661-2.573.661-3.919 0-6.614-5.381-11.994-11.994-11.994-6.614 0-11.995 5.38-11.995 11.994 0 1.346.229 2.67.661 3.92-19.79 5.056-34.466 23.035-34.466 44.38 0 25.253 20.545 45.799 45.8 45.799 25.254 0 45.799-20.546 45.799-45.8 0-8.925-2.568-17.26-7.001-24.31l6.718-6.718zm-11.548-7.405l5.333 5.333-3.964 3.964a45.966 45.966 0 00-5.262-5.405l3.893-3.892zm-33.969-16a6.143 6.143 0 016.136 6.134c0 .99-.239 1.956-.688 2.82-.128-.015-.257-.025-.386-.04a46.874 46.874 0 00-2.062-.18c-.133-.008-.267-.018-.4-.025-.356-.02-.714-.035-1.072-.047l-.198-.008a46.59 46.59 0 00-1.33-.02c-.444 0-.887.007-1.329.02l-.177.007a44.19 44.19 0 00-1.096.048c-.127.007-.253.016-.38.024a48.65 48.65 0 00-1.365.108c-.247.023-.494.05-.74.076-.12.014-.24.024-.36.038a6.125 6.125 0 01-.688-2.82 6.142 6.142 0 016.135-6.136zm39.941 54.434c0 22.023-17.917 39.94-39.94 39.94-22.023 0-39.94-17.917-39.94-39.94 0-19.927 14.668-36.491 33.774-39.465.41-.063.822-.121 1.235-.172l.374-.043a42.99 42.99 0 011.3-.128l.083-.007c.504-.04 1.009-.069 1.514-.089l.132-.005a41.019 41.019 0 013.056 0l.145.006c.5.02.999.049 1.497.088.042.003.084.008.126.01.416.035.831.077 1.245.124l.404.046c.405.05.808.106 1.209.168 19.112 2.97 33.786 19.536 33.786 39.466z"/><path d="M98.763 28.77c-.244 0-.486 0-.727.008-8.406.187-16.278 3.6-22.167 9.613-5.903 6.025-9.154 13.99-9.154 22.427 0 17.672 14.377 32.049 32.048 32.049a31.985 31.985 0 0021.548-8.323 32.153 32.153 0 0010.501-23.56v-.166c0-17.671-14.377-32.048-32.049-32.048zm17.608 51.437a26.137 26.137 0 01-17.608 6.8c-14.44 0-26.189-11.748-26.189-26.19 0-13.337 10.236-24.549 23.26-26.022v26.189a2.93 2.93 0 002.93 2.93h26.002a26.284 26.284 0 01-8.395 16.293zm-14.678-22.153v-23.26l.104.011c.335.04.669.083 1 .134l.104.018c.321.05.641.108.959.171l.118.023a26.097 26.097 0 012.076.511l.178.053c.315.094.629.192.939.297l.073.026c.299.103.595.212.889.324.049.02.099.038.148.057a25.365 25.365 0 011.064.445c.287.127.57.258.851.395l.161.08c.283.14.564.284.84.434l.056.03c.28.153.556.312.83.474l.16.094a27.123 27.123 0 011.726 1.135l.132.097c.244.176.485.357.723.542l.082.063c.249.196.493.396.734.6l.151.128c.233.2.462.404.688.611l.148.139c.229.213.455.43.676.651l.09.093c.211.214.418.431.622.652l.093.1c.211.231.417.467.62.706l.129.153a26.787 26.787 0 011.268 1.641l.044.064c.18.254.354.512.524.772l.084.127c.17.264.336.532.497.803l.099.167c.159.272.314.546.463.823l.077.146a25.378 25.378 0 011.293 2.832l.067.176c.114.302.223.606.326.913.015.042.028.085.042.128.102.308.199.62.289.933l.019.062c.092.32.176.645.255.97l.041.168c.075.316.145.635.208.956l.034.178c.063.328.121.657.171.99.005.034.009.069.015.103.047.326.089.654.125.983l.009.078h-23.114z"/></g><defs><clipPath id="clip0"><path fill="#fff" transform="translate(.01 .524)" d="M0 0h150v150H0z"/></clipPath></defs></svg>