<svg width="29" height="18" viewBox="0 0 29 18" fill="none" xmlns="http://www.w3.org/2000/svg">
<path fill-rule="evenodd" clip-rule="evenodd" d="M28.2175 15.6292C28.1831 15.5503 28.1512 15.4854 28.1214 15.4322C27.6306 14.4872 26.6919 13.3271 25.3068 11.9513L25.2774 11.9197L25.263 11.9045L25.2481 11.8881H25.2334C24.6045 11.2482 24.2061 10.8174 24.04 10.5965C23.7346 10.1763 23.6663 9.75259 23.8328 9.32068C23.9506 8.99514 24.3932 8.30724 25.1593 7.25699C25.562 6.70177 25.8815 6.25466 26.1172 5.91803C27.8168 3.5025 28.5536 1.95898 28.3275 1.28747L28.2397 1.13024C28.1809 1.03557 28.0287 0.949639 27.7832 0.870742C27.5374 0.791257 27.2229 0.778993 26.8396 0.831598L22.596 0.862573C22.5272 0.835672 22.4291 0.838612 22.3011 0.870742C22.1734 0.901717 22.1093 0.917509 22.1093 0.917509L22.0355 0.957829L21.9768 1.0046C21.9277 1.03557 21.8736 1.09051 21.8149 1.1694C21.756 1.2483 21.7071 1.34064 21.668 1.44585C21.2055 2.71643 20.6805 3.8976 20.0907 4.98993C19.7274 5.64041 19.3935 6.20499 19.0887 6.68306C18.7842 7.15997 18.5286 7.51182 18.3224 7.73741C18.116 7.9636 17.9295 8.14476 17.7624 8.28095C17.5953 8.41829 17.4678 8.47556 17.3793 8.4551C17.2911 8.43349 17.2077 8.41304 17.1285 8.392C16.9912 8.29731 16.8805 8.16931 16.7974 8.00625C16.7133 7.8432 16.6572 7.63805 16.6275 7.392C16.5984 7.14537 16.5811 6.93203 16.5761 6.7532C16.5716 6.57554 16.5736 6.32247 16.5835 5.99751C16.5939 5.67138 16.5984 5.45223 16.5984 5.33534C16.5984 4.93674 16.6054 4.50366 16.6203 4.03727C16.635 3.56914 16.647 3.19918 16.6572 2.92565C16.6673 2.65272 16.672 2.36401 16.672 2.0601C16.672 1.7556 16.6547 1.51597 16.6203 1.3424C16.5861 1.16882 16.5347 1.00166 16.4659 0.838024C16.3969 0.676702 16.2962 0.550471 16.1636 0.461053C16.0309 0.371635 15.8663 0.300319 15.6703 0.247735C15.1495 0.122071 14.4863 0.053695 13.6806 0.043174C11.8531 0.0221319 10.6793 0.147796 10.1586 0.420733C9.95217 0.536443 9.76558 0.694825 9.5987 0.893548C9.42171 1.12499 9.39704 1.25122 9.52491 1.27109C10.1143 1.36519 10.5317 1.59194 10.7775 1.94964L10.8659 2.139C10.9348 2.27459 11.0035 2.51597 11.072 2.86312C11.1408 3.20911 11.1854 3.59251 11.205 4.01331C11.254 4.77953 11.254 5.43587 11.205 5.98231C11.1555 6.52877 11.1092 6.95249 11.0649 7.25699C11.0206 7.56208 10.9541 7.80872 10.8659 7.99867C10.7775 8.18744 10.7184 8.30199 10.689 8.34407C10.6593 8.38614 10.6348 8.41304 10.6152 8.42297C10.4878 8.47499 10.3546 8.50246 10.2174 8.50246C10.0796 8.50246 9.91262 8.42763 9.71633 8.28095C9.51966 8.13365 9.3163 7.93203 9.10488 7.67371C8.89361 7.41772 8.65531 7.05829 8.39009 6.59599C8.12485 6.13311 7.84977 5.58783 7.56485 4.9572L7.32904 4.50074C7.18187 4.20676 6.9803 3.77836 6.72466 3.21671C6.46942 2.65507 6.2436 2.11153 6.04715 1.58611C5.96853 1.36519 5.85073 1.19861 5.69358 1.08232L5.61979 1.03498C5.57067 0.993487 5.49189 0.948484 5.38424 0.90115C5.27589 0.853795 5.16312 0.819901 5.04523 0.798859L1.00731 0.829834C0.594927 0.829834 0.314702 0.930361 0.167246 1.13024L0.108174 1.22375C0.0788945 1.27694 0.0640465 1.36052 0.0640465 1.47623C0.0640465 1.59138 0.0934545 1.7334 0.152558 1.90172C0.74155 3.38211 1.38296 4.81051 2.07573 6.18628C2.76805 7.5609 3.36981 8.67018 3.88043 9.50827C4.3916 10.3493 4.91217 11.1424 5.44251 11.8881C5.97323 12.6333 6.32446 13.112 6.49646 13.3206C6.66833 13.5316 6.80344 13.6888 6.90165 13.794L7.26993 14.1722C7.5059 14.4235 7.85227 14.7262 8.30853 15.0775C8.766 15.4299 9.27189 15.7759 9.82664 16.1178C10.3819 16.4585 11.028 16.7361 11.7646 16.9518C12.5018 17.1675 13.2187 17.254 13.9163 17.2119H15.6108C15.955 17.1809 16.2149 17.0646 16.3921 16.8653L16.4506 16.787C16.4901 16.7244 16.5271 16.6257 16.5615 16.4959C16.5957 16.3638 16.6128 16.2195 16.6128 16.0623C16.6028 15.6117 16.6348 15.2043 16.7081 14.8413C16.7816 14.4802 16.8655 14.2066 16.959 14.0231C17.0526 13.839 17.1581 13.6836 17.2757 13.5573C17.3935 13.4328 17.4775 13.3557 17.5266 13.3306C17.5757 13.3037 17.6149 13.2856 17.6443 13.2745C17.88 13.1909 18.1576 13.2721 18.4771 13.5182C18.7964 13.7654 19.0959 14.0705 19.3761 14.4322C19.6562 14.7952 19.9926 15.202 20.3854 15.6531C20.7785 16.1055 21.1224 16.441 21.4168 16.6613L21.7114 16.8501C21.9083 16.9763 22.1639 17.0921 22.4784 17.1967C22.792 17.3019 23.067 17.3282 23.3033 17.275L27.0756 17.213C27.4483 17.213 27.7391 17.147 27.945 17.0155C28.1512 16.8846 28.2738 16.7408 28.3135 16.5824C28.353 16.4264 28.355 16.2458 28.3211 16.0471C28.2863 15.8478 28.2519 15.7081 28.2175 15.6292Z" fill="#F95050"/>
</svg>
