<svg width="21" height="20" viewBox="0 0 21 20" fill="none" xmlns="http://www.w3.org/2000/svg">
<path d="M10.6119 0H10.6069C5.09313 0 0.609375 4.485 0.609375 10C0.609375 12.1875 1.31438 14.215 2.51312 15.8612L1.26688 19.5763L5.11063 18.3475C6.69187 19.395 8.57812 20 10.6119 20C16.1256 20 20.6094 15.5138 20.6094 10C20.6094 4.48625 16.1256 0 10.6119 0ZM16.4306 14.1213C16.1894 14.8025 15.2319 15.3675 14.4681 15.5325C13.9456 15.6437 13.2631 15.7325 10.9656 14.78C8.02687 13.5625 6.13438 10.5763 5.98688 10.3825C5.84562 10.1887 4.79938 8.80125 4.79938 7.36625C4.79938 5.93125 5.52813 5.2325 5.82188 4.9325C6.06313 4.68625 6.46187 4.57375 6.84437 4.57375C6.96812 4.57375 7.07938 4.58 7.17938 4.585C7.47312 4.5975 7.62063 4.615 7.81437 5.07875C8.05562 5.66 8.64312 7.095 8.71313 7.2425C8.78438 7.39 8.85563 7.59 8.75562 7.78375C8.66187 7.98375 8.57937 8.0725 8.43187 8.2425C8.28437 8.4125 8.14437 8.5425 7.99687 8.725C7.86187 8.88375 7.70937 9.05375 7.87937 9.3475C8.04938 9.635 8.63688 10.5937 9.50187 11.3637C10.6181 12.3575 11.5231 12.675 11.8469 12.81C12.0881 12.91 12.3756 12.8863 12.5519 12.6988C12.7756 12.4575 13.0519 12.0575 13.3331 11.6638C13.5331 11.3813 13.7856 11.3462 14.0506 11.4462C14.3206 11.54 15.7494 12.2462 16.0431 12.3925C16.3369 12.54 16.5306 12.61 16.6019 12.7338C16.6719 12.8575 16.6719 13.4388 16.4306 14.1213Z" fill="#F95050"/>
</svg>
