<svg width="27" height="28" viewBox="0 0 27 28" fill="none" xmlns="http://www.w3.org/2000/svg">
<path d="M10.3679 27.8317C12.1739 27.8317 13.6381 26.3676 13.6381 24.5615C13.6381 22.7554 12.1739 21.2913 10.3679 21.2913C8.56178 21.2913 7.09766 22.7554 7.09766 24.5615C7.09766 26.3676 8.56178 27.8317 10.3679 27.8317Z" fill="#303030"/>
<path d="M19.9108 21.2914C18.1048 21.2914 16.6406 22.7555 16.6406 24.5616C16.6406 26.3676 18.1048 27.8318 19.9108 27.8318C21.7169 27.8318 23.181 26.3676 23.181 24.5616C23.181 22.7555 21.7169 21.2914 19.9108 21.2914Z" fill="#303030"/>
<path d="M25.7612 17.9544H8.70942L8.37573 16.0189H22.3909C22.8032 16.0202 23.1741 15.7685 23.3252 15.3849L26.6622 6.97583C26.8649 6.46147 26.6122 5.88011 26.0979 5.67742C25.9801 5.63095 25.8545 5.60729 25.7278 5.60768H6.64052L5.83965 1.0027C5.7574 0.51578 5.33233 0.161556 4.83857 0.168465H1.00108C0.448206 0.168465 0 0.616671 0 1.16955C0 1.72242 0.448206 2.17063 1.00108 2.17063H4.00433L6.8741 19.1223C6.95635 19.6092 7.38142 19.9634 7.87518 19.9565H25.7612C26.3141 19.9565 26.7623 19.5083 26.7623 18.9554C26.7623 18.4026 26.3141 17.9544 25.7612 17.9544Z" fill="#303030"/>
</svg>
