<svg width="33" height="31" viewBox="0 0 33 31" fill="none" xmlns="http://www.w3.org/2000/svg">
<path d="M10.3679 30.8317C12.1739 30.8317 13.6381 29.3676 13.6381 27.5615C13.6381 25.7554 12.1739 24.2913 10.3679 24.2913C8.56178 24.2913 7.09766 25.7554 7.09766 27.5615C7.09766 29.3676 8.56178 30.8317 10.3679 30.8317Z" fill="#303030"/>
<path d="M19.9108 24.2914C18.1048 24.2914 16.6406 25.7555 16.6406 27.5616C16.6406 29.3676 18.1048 30.8318 19.9108 30.8318C21.7169 30.8318 23.181 29.3676 23.181 27.5616C23.181 25.7555 21.7169 24.2914 19.9108 24.2914Z" fill="#303030"/>
<path d="M25.7612 20.9544H8.70942L8.37573 19.0189H22.3909C22.8032 19.0202 23.1741 18.7685 23.3252 18.3849L26.6622 9.97583C26.8649 9.46147 26.6122 8.88011 26.0979 8.67742C25.9801 8.63095 25.8545 8.60729 25.7278 8.60768H6.64052L5.83965 4.0027C5.7574 3.51578 5.33233 3.16156 4.83857 3.16846H1.00108C0.448206 3.16846 0 3.61667 0 4.16955C0 4.72242 0.448206 5.17063 1.00108 5.17063H4.00433L6.8741 22.1223C6.95635 22.6092 7.38142 22.9634 7.87518 22.9565H25.7612C26.3141 22.9565 26.7623 22.5083 26.7623 21.9554C26.7623 21.4026 26.3141 20.9544 25.7612 20.9544Z" fill="#303030"/>
<circle cx="30" cy="3" r="3" fill="#F28484"/>
</svg>
