<svg width="393" height="77" viewBox="0 0 393 77" fill="none" xmlns="http://www.w3.org/2000/svg">
<path opacity="0.5" d="M18.2998 71.5239C18.2998 71.7817 18.1475 71.9106 17.8428 71.9106H15.8301C15.6016 71.9106 15.3555 71.8315 15.0918 71.6733C14.8281 71.5093 14.623 71.313 14.4766 71.0845L12.9297 68.6323C12.5605 68.0347 12.1885 67.5864 11.8135 67.2876C11.4385 66.9829 10.9873 66.8306 10.46 66.8306H8.57031V71.1021C8.57031 71.3306 8.48828 71.5239 8.32422 71.6821C8.16602 71.8345 7.97266 71.9106 7.74414 71.9106H6.0918C5.86328 71.9106 5.66699 71.8286 5.50293 71.6646C5.33887 71.4946 5.25684 71.2954 5.25684 71.0669V60.1421C5.25684 59.9136 5.33887 59.7144 5.50293 59.5444C5.66699 59.3745 5.86328 59.2896 6.0918 59.2896H7.74414C7.97266 59.2896 8.16602 59.3745 8.32422 59.5444C8.48828 59.7144 8.57031 59.9136 8.57031 60.1421V64.3521H10.46C10.9756 64.3521 11.4268 64.2114 11.8135 63.9302C12.2061 63.6489 12.5781 63.1948 12.9297 62.5679L14.292 60.1421C14.6025 59.5796 15.0244 59.2954 15.5576 59.2896H17.5879C17.8691 59.2896 18.0098 59.4126 18.0098 59.6587C18.0098 59.7935 17.96 59.9546 17.8604 60.1421L15.9531 63.5962C15.6777 64.1001 15.3672 64.5161 15.0215 64.8442C14.6816 65.1724 14.2363 65.4038 13.6855 65.5386C14.0723 65.6206 14.4678 65.8638 14.8721 66.2681C15.2822 66.6724 15.6426 67.1118 15.9531 67.5864L18.1504 71.0845C18.25 71.2544 18.2998 71.4009 18.2998 71.5239ZM20.9049 71.2778C20.1314 70.7388 19.7447 69.9771 19.7447 68.9927C19.7447 68.0083 20.1314 67.2524 20.9049 66.7251C21.6842 66.1978 22.6861 65.9341 23.9107 65.9341H26.8199C26.8199 65.2485 26.6764 64.771 26.3893 64.5015C26.1021 64.2319 25.5982 64.0972 24.8775 64.0972C24.1627 64.0972 23.6588 64.2759 23.3658 64.6333C23.0787 64.9849 22.7242 65.1606 22.3023 65.1606H20.9928C20.8346 65.1606 20.7027 65.1108 20.5973 65.0112C20.4977 64.9058 20.4479 64.7769 20.4479 64.6245C20.4479 62.9429 22.0445 62.1021 25.2379 62.1021C26.6324 62.1021 27.7516 62.4155 28.5953 63.0425C29.4391 63.6636 29.8609 64.6274 29.8609 65.9341V71.3745C29.8609 71.5327 29.8111 71.6616 29.7115 71.7612C29.6119 71.8608 29.483 71.9106 29.3248 71.9106H27.6285C27.4703 71.9106 27.3414 71.8608 27.2418 71.7612C27.1422 71.6558 27.0924 71.5269 27.0924 71.3745V71.1021C26.1666 71.7642 25.0973 72.0923 23.8844 72.0864C22.6773 72.0864 21.6842 71.8169 20.9049 71.2778ZM24.1217 67.9292C23.7115 67.9292 23.3863 68.0288 23.1461 68.228C22.9117 68.4272 22.7945 68.6851 22.7945 69.0015C22.7945 69.3179 22.9176 69.5786 23.1637 69.7837C23.4098 69.9888 23.7584 70.0913 24.2096 70.0913C25.1119 70.0913 25.982 69.8276 26.8199 69.3003V67.9292H24.1217ZM32.9318 74.3364V62.8228C32.9318 62.6646 32.9816 62.5356 33.0812 62.436C33.1867 62.3306 33.3156 62.2778 33.468 62.2778H35.1643C35.3166 62.2778 35.4426 62.3306 35.5422 62.436C35.6477 62.5356 35.7004 62.6646 35.7004 62.8228V63.0864C36.6262 62.4302 37.7014 62.1021 38.926 62.1021C40.1506 62.1021 41.173 62.5356 41.9934 63.4028C42.8137 64.2642 43.2238 65.5005 43.2238 67.1118C43.2238 68.7173 42.799 69.9478 41.9494 70.8032C41.0998 71.6587 39.9543 72.0864 38.5129 72.0864C37.7687 72.0864 36.9221 71.937 35.9729 71.6382V74.3364C35.9729 74.4946 35.9201 74.6235 35.8146 74.7231C35.715 74.8286 35.5891 74.8813 35.4367 74.8813H33.468C33.3156 74.8813 33.1867 74.8286 33.0812 74.7231C32.9816 74.6235 32.9318 74.4946 32.9318 74.3364ZM35.9729 69.6079C36.7287 69.8481 37.3645 69.9683 37.8801 69.9683C38.6828 69.9683 39.2512 69.7397 39.5852 69.2827C39.925 68.8257 40.0949 68.0962 40.0949 67.0942C40.0949 66.0923 39.9338 65.3657 39.6115 64.9146C39.2951 64.4575 38.8176 64.229 38.1789 64.229C37.5461 64.229 36.8107 64.4927 35.9729 65.02V69.6079ZM44.6688 63.8687V62.8228C44.6688 62.6646 44.7186 62.5356 44.8182 62.436C44.9236 62.3306 45.0555 62.2778 45.2137 62.2778H53.8709C54.0291 62.2778 54.158 62.3306 54.2576 62.436C54.3572 62.5356 54.407 62.6646 54.407 62.8228V63.8687C54.407 64.021 54.3572 64.1499 54.2576 64.2554C54.158 64.355 54.0291 64.4048 53.8709 64.4048H51.0672V71.3745C51.0672 71.5269 51.0145 71.6558 50.909 71.7612C50.8094 71.8608 50.6805 71.9106 50.5223 71.9106H48.5623C48.4041 71.9106 48.2723 71.8608 48.1668 71.7612C48.0672 71.6558 48.0174 71.5269 48.0174 71.3745V64.4048H45.2137C45.0555 64.4048 44.9236 64.355 44.8182 64.2554C44.7186 64.1499 44.6688 64.021 44.6688 63.8687ZM56.5814 71.3745V62.8228C56.5814 62.6646 56.6312 62.5356 56.7309 62.436C56.8363 62.3306 56.9652 62.2778 57.1176 62.2778H58.9545C59.1127 62.2778 59.2416 62.3306 59.3412 62.436C59.4467 62.5356 59.4994 62.6646 59.4994 62.8228V68.5972L62.5932 62.9106C62.6869 62.729 62.8305 62.5796 63.0238 62.4624C63.2172 62.3394 63.4047 62.2778 63.5863 62.2778H66.0473C66.2055 62.2778 66.3344 62.3306 66.434 62.436C66.5395 62.5356 66.5922 62.6646 66.5922 62.8228V71.3745C66.5922 71.5327 66.5395 71.6616 66.434 71.7612C66.3344 71.8608 66.2055 71.9106 66.0473 71.9106H64.2104C64.0521 71.9106 63.9232 71.8608 63.8236 71.7612C63.724 71.6558 63.6742 71.5269 63.6742 71.3745V65.6089L60.5805 71.2778C60.4867 71.4478 60.3432 71.5972 60.1498 71.7261C59.9564 71.8491 59.7689 71.9106 59.5873 71.9106H57.1176C56.9594 71.9106 56.8305 71.8608 56.7309 71.7612C56.6312 71.6616 56.5814 71.5327 56.5814 71.3745ZM69.6455 71.3745V62.8228C69.6455 62.6646 69.6953 62.5356 69.7949 62.436C69.9004 62.3306 70.0293 62.2778 70.1816 62.2778H72.1504C72.3086 62.2778 72.4375 62.3306 72.5371 62.436C72.6367 62.5356 72.6865 62.6646 72.6865 62.8228V65.9692H76.5361V62.8228C76.5361 62.6646 76.5859 62.5356 76.6855 62.436C76.791 62.3306 76.9229 62.2778 77.0811 62.2778H79.041C79.1992 62.2778 79.3281 62.3306 79.4277 62.436C79.5273 62.5356 79.5771 62.6646 79.5771 62.8228V71.3745C79.5771 71.5327 79.5273 71.6616 79.4277 71.7612C79.3281 71.8608 79.1992 71.9106 79.041 71.9106H77.0811C76.9229 71.9106 76.791 71.8608 76.6855 71.7612C76.5859 71.6558 76.5361 71.5269 76.5361 71.3745V68.0962H72.6865V71.3745C72.6865 71.5327 72.6338 71.6616 72.5283 71.7612C72.4287 71.8608 72.3027 71.9106 72.1504 71.9106H70.1816C70.0234 71.9106 69.8945 71.8608 69.7949 71.7612C69.6953 71.6616 69.6455 71.5327 69.6455 71.3745ZM82.6393 71.3745V62.8228C82.6393 62.6646 82.6891 62.5356 82.7887 62.436C82.8941 62.3306 83.023 62.2778 83.1754 62.2778H85.1441C85.3023 62.2778 85.4313 62.3306 85.5309 62.436C85.6305 62.5356 85.6803 62.6646 85.6803 62.8228V65.4683H87.7721C89.0201 65.4683 89.984 65.7144 90.6637 66.2065C91.3492 66.6987 91.692 67.5278 91.692 68.6938C91.692 69.854 91.3492 70.6802 90.6637 71.1724C89.984 71.6646 89.0201 71.9106 87.7721 71.9106H83.1754C83.0172 71.9106 82.8883 71.8608 82.7887 71.7612C82.6891 71.6616 82.6393 71.5327 82.6393 71.3745ZM85.6275 69.9507H87.4996C88.2672 69.9507 88.651 69.5317 88.651 68.6938C88.651 67.8501 88.2672 67.4282 87.4996 67.4282H85.6275V69.9507ZM92.9313 71.3745V62.8228C92.9313 62.6646 92.9811 62.5356 93.0807 62.436C93.1861 62.3306 93.318 62.2778 93.4762 62.2778H95.4361C95.5943 62.2778 95.7232 62.3306 95.8229 62.436C95.9225 62.5356 95.9723 62.6646 95.9723 62.8228V71.3745C95.9723 71.5327 95.9225 71.6616 95.8229 71.7612C95.7232 71.8608 95.5943 71.9106 95.4361 71.9106H93.4762C93.318 71.9106 93.1861 71.8608 93.0807 71.7612C92.9811 71.6616 92.9313 71.5327 92.9313 71.3745ZM106.254 71.3745V62.8228C106.254 62.6646 106.304 62.5356 106.403 62.436C106.509 62.3306 106.637 62.2778 106.79 62.2778H115.649C115.807 62.2778 115.936 62.3306 116.036 62.436C116.136 62.5356 116.185 62.6646 116.185 62.8228V71.3745C116.185 71.5327 116.136 71.6616 116.036 71.7612C115.936 71.8608 115.807 71.9106 115.649 71.9106H113.689C113.531 71.9106 113.399 71.8608 113.294 71.7612C113.194 71.6558 113.144 71.5269 113.144 71.3745V64.4048H109.295V71.3745C109.295 71.5327 109.242 71.6616 109.137 71.7612C109.037 71.8608 108.911 71.9106 108.759 71.9106H106.79C106.632 71.9106 106.503 71.8608 106.403 71.7612C106.304 71.6616 106.254 71.5327 106.254 71.3745ZM120.074 70.8208C119.16 69.9771 118.703 68.7349 118.703 67.0942C118.703 65.4478 119.16 64.2056 120.074 63.3677C120.988 62.5239 122.3 62.1021 124.011 62.1021C125.728 62.1021 127.043 62.5239 127.957 63.3677C128.871 64.2056 129.329 65.4478 129.329 67.0942C129.329 68.7349 128.871 69.9771 127.957 70.8208C127.043 71.6646 125.728 72.0864 124.011 72.0864C122.3 72.0864 120.988 71.6646 120.074 70.8208ZM122.297 64.8091C121.934 65.2837 121.752 66.0425 121.752 67.0854C121.752 68.1284 121.934 68.8901 122.297 69.3706C122.661 69.8511 123.232 70.0913 124.011 70.0913C124.796 70.0913 125.371 69.8511 125.734 69.3706C126.103 68.8901 126.287 68.1284 126.287 67.0854C126.287 66.0425 126.103 65.2837 125.734 64.8091C125.371 64.3345 124.796 64.0972 124.011 64.0972C123.232 64.0972 122.661 64.3345 122.297 64.8091ZM139.065 71.3745V62.8228C139.065 62.6646 139.115 62.5356 139.214 62.436C139.32 62.3306 139.449 62.2778 139.601 62.2778H141.57C141.728 62.2778 141.857 62.3306 141.957 62.436C142.056 62.5356 142.106 62.6646 142.106 62.8228V65.9692H145.956V62.8228C145.956 62.6646 146.005 62.5356 146.105 62.436C146.211 62.3306 146.342 62.2778 146.501 62.2778H148.461C148.619 62.2778 148.748 62.3306 148.847 62.436C148.947 62.5356 148.997 62.6646 148.997 62.8228V71.3745C148.997 71.5327 148.947 71.6616 148.847 71.7612C148.748 71.8608 148.619 71.9106 148.461 71.9106H146.501C146.342 71.9106 146.211 71.8608 146.105 71.7612C146.005 71.6558 145.956 71.5269 145.956 71.3745V68.0962H142.106V71.3745C142.106 71.5327 142.053 71.6616 141.948 71.7612C141.848 71.8608 141.722 71.9106 141.57 71.9106H139.601C139.443 71.9106 139.314 71.8608 139.214 71.7612C139.115 71.6616 139.065 71.5327 139.065 71.3745ZM152.885 70.8208C151.971 69.9771 151.514 68.7349 151.514 67.0942C151.514 65.4478 151.971 64.2056 152.885 63.3677C153.799 62.5239 155.112 62.1021 156.822 62.1021C158.539 62.1021 159.855 62.5239 160.769 63.3677C161.683 64.2056 162.14 65.4478 162.14 67.0942C162.14 68.7349 161.683 69.9771 160.769 70.8208C159.855 71.6646 158.539 72.0864 156.822 72.0864C155.112 72.0864 153.799 71.6646 152.885 70.8208ZM155.109 64.8091C154.745 65.2837 154.564 66.0425 154.564 67.0854C154.564 68.1284 154.745 68.8901 155.109 69.3706C155.472 69.8511 156.043 70.0913 156.822 70.0913C157.608 70.0913 158.182 69.8511 158.545 69.3706C158.914 68.8901 159.099 68.1284 159.099 67.0854C159.099 66.0425 158.914 65.2837 158.545 64.8091C158.182 64.3345 157.608 64.0972 156.822 64.0972C156.043 64.0972 155.472 64.3345 155.109 64.8091ZM164.666 71.3745V62.8228C164.666 62.6646 164.716 62.5356 164.815 62.436C164.921 62.3306 165.05 62.2778 165.202 62.2778H168.225C168.571 62.2778 168.835 62.4946 169.016 62.9282L171.161 68.1665L173.305 62.9282C173.487 62.4946 173.751 62.2778 174.096 62.2778H177.12C177.278 62.2778 177.407 62.3306 177.507 62.436C177.612 62.5356 177.665 62.6646 177.665 62.8228V71.3745C177.665 71.5327 177.612 71.6616 177.507 71.7612C177.407 71.8608 177.278 71.9106 177.12 71.9106H175.213C175.054 71.9106 174.926 71.8608 174.826 71.7612C174.726 71.6558 174.677 71.5269 174.677 71.3745V65.8813L172.427 71.2954C172.245 71.7056 171.967 71.9106 171.592 71.9106H170.73C170.361 71.9106 170.086 71.7056 169.904 71.2954L167.654 65.8813V71.3745C167.654 71.5327 167.601 71.6616 167.496 71.7612C167.396 71.8608 167.267 71.9106 167.109 71.9106H165.202C165.044 71.9106 164.915 71.8608 164.815 71.7612C164.716 71.6616 164.666 71.5327 164.666 71.3745ZM181.527 70.8032C180.624 69.9478 180.173 68.7173 180.173 67.1118C180.173 65.5005 180.627 64.2642 181.536 63.4028C182.444 62.5356 183.704 62.1021 185.315 62.1021C186.926 62.1021 188.183 62.5239 189.085 63.3677C189.988 64.2056 190.439 65.4097 190.439 66.98V67.481C190.439 67.6392 190.386 67.771 190.281 67.8765C190.181 67.9761 190.052 68.0259 189.894 68.0259H183.276C183.334 68.7466 183.539 69.271 183.891 69.5991C184.248 69.9272 184.817 70.0913 185.596 70.0913C186.375 70.0913 186.909 69.9155 187.196 69.564C187.483 69.2124 187.837 69.0337 188.259 69.0278H189.569C189.727 69.0278 189.856 69.0806 189.955 69.186C190.061 69.2856 190.114 69.4146 190.114 69.5728C190.114 71.2544 188.511 72.0923 185.306 72.0864C183.689 72.0864 182.429 71.6587 181.527 70.8032ZM183.258 66.1714H187.345C187.287 64.7886 186.607 64.0972 185.306 64.0972C184.011 64.0972 183.329 64.7886 183.258 66.1714ZM192.956 74.3364V62.8228C192.956 62.6646 193.006 62.5356 193.105 62.436C193.211 62.3306 193.34 62.2778 193.492 62.2778H195.188C195.341 62.2778 195.467 62.3306 195.566 62.436C195.672 62.5356 195.725 62.6646 195.725 62.8228V63.0864C196.65 62.4302 197.726 62.1021 198.95 62.1021C200.175 62.1021 201.197 62.5356 202.018 63.4028C202.838 64.2642 203.248 65.5005 203.248 67.1118C203.248 68.7173 202.823 69.9478 201.974 70.8032C201.124 71.6587 199.979 72.0864 198.537 72.0864C197.793 72.0864 196.946 71.937 195.997 71.6382V74.3364C195.997 74.4946 195.944 74.6235 195.839 74.7231C195.739 74.8286 195.613 74.8813 195.461 74.8813H193.492C193.34 74.8813 193.211 74.8286 193.105 74.7231C193.006 74.6235 192.956 74.4946 192.956 74.3364ZM195.997 69.6079C196.753 69.8481 197.389 69.9683 197.904 69.9683C198.707 69.9683 199.275 69.7397 199.609 69.2827C199.949 68.8257 200.119 68.0962 200.119 67.0942C200.119 66.0923 199.958 65.3657 199.636 64.9146C199.319 64.4575 198.842 64.229 198.203 64.229C197.57 64.229 196.835 64.4927 195.997 65.02V69.6079ZM206.389 71.2778C205.616 70.7388 205.229 69.9771 205.229 68.9927C205.229 68.0083 205.616 67.2524 206.389 66.7251C207.169 66.1978 208.171 65.9341 209.395 65.9341H212.304C212.304 65.2485 212.161 64.771 211.874 64.5015C211.587 64.2319 211.083 64.0972 210.362 64.0972C209.647 64.0972 209.143 64.2759 208.85 64.6333C208.563 64.9849 208.209 65.1606 207.787 65.1606H206.477C206.319 65.1606 206.187 65.1108 206.082 65.0112C205.982 64.9058 205.932 64.7769 205.932 64.6245C205.932 62.9429 207.529 62.1021 210.722 62.1021C212.117 62.1021 213.236 62.4155 214.08 63.0425C214.923 63.6636 215.345 64.6274 215.345 65.9341V71.3745C215.345 71.5327 215.296 71.6616 215.196 71.7612C215.096 71.8608 214.967 71.9106 214.809 71.9106H213.113C212.955 71.9106 212.826 71.8608 212.726 71.7612C212.627 71.6558 212.577 71.5269 212.577 71.3745V71.1021C211.651 71.7642 210.582 72.0923 209.369 72.0864C208.162 72.0864 207.169 71.8169 206.389 71.2778ZM209.606 67.9292C209.196 67.9292 208.871 68.0288 208.63 68.228C208.396 68.4272 208.279 68.6851 208.279 69.0015C208.279 69.3179 208.402 69.5786 208.648 69.7837C208.894 69.9888 209.243 70.0913 209.694 70.0913C210.596 70.0913 211.466 69.8276 212.304 69.3003V67.9292H209.606ZM218.416 71.3745V62.8228C218.416 62.6646 218.466 62.5356 218.566 62.436C218.671 62.3306 218.8 62.2778 218.952 62.2778H221.976C222.321 62.2778 222.585 62.4946 222.767 62.9282L224.911 68.1665L227.056 62.9282C227.238 62.4946 227.501 62.2778 227.847 62.2778H230.87C231.029 62.2778 231.157 62.3306 231.257 62.436C231.363 62.5356 231.415 62.6646 231.415 62.8228V71.3745C231.415 71.5327 231.363 71.6616 231.257 71.7612C231.157 71.8608 231.029 71.9106 230.87 71.9106H228.963C228.805 71.9106 228.676 71.8608 228.576 71.7612C228.477 71.6558 228.427 71.5269 228.427 71.3745V65.8813L226.177 71.2954C225.995 71.7056 225.717 71.9106 225.342 71.9106H224.481C224.112 71.9106 223.836 71.7056 223.654 71.2954L221.404 65.8813V71.3745C221.404 71.5327 221.352 71.6616 221.246 71.7612C221.147 71.8608 221.018 71.9106 220.86 71.9106H218.952C218.794 71.9106 218.665 71.8608 218.566 71.7612C218.466 71.6616 218.416 71.5327 218.416 71.3745Z" fill="white" fill-opacity="0.8"/>
<path d="M2.2616 11.685C2.2616 11.2738 2.40922 10.9206 2.70444 10.6253C2.99966 10.3301 3.35287 10.1825 3.76407 10.1825H16.622C19.7745 10.1825 22.0994 11.0893 23.5966 12.9028C24.4295 13.9044 24.846 15.1855 24.846 16.7459C24.846 18.2958 24.1343 19.6507 22.7109 20.8105C24.7353 21.8965 25.7475 23.5834 25.7475 25.8714C25.7475 28.1594 24.9356 29.8991 23.3119 31.0905C21.6988 32.2714 19.7166 32.8618 17.3653 32.8618H3.76407C3.35287 32.8618 2.99966 32.7195 2.70444 32.4348C2.40922 32.1396 2.2616 31.7864 2.2616 31.3752V11.685ZM8.22402 28.5917H17.2704C18.0823 28.5917 18.7044 28.3492 19.1367 27.8641C19.5689 27.3791 19.7851 26.7149 19.7851 25.8714C19.7851 25.0279 19.5689 24.3637 19.1367 23.8787C18.7044 23.3937 18.0823 23.1512 17.2704 23.1512H8.22402V28.5917ZM8.22402 18.9917H16.6853C17.3495 18.9917 17.882 18.7966 18.2826 18.4065C18.6833 18.0059 18.8836 17.4523 18.8836 16.7459C18.8836 16.0289 18.6833 15.4701 18.2826 15.0695C17.882 14.6688 17.3495 14.4685 16.6853 14.4685H8.22402V18.9917ZM55.7778 32.1818C55.7778 32.6351 55.5089 32.8618 54.9712 32.8618H51.1755C50.7749 32.8618 50.332 32.7195 49.847 32.4348C49.3726 32.1396 49.0088 31.7864 48.7558 31.3752L46.0671 27.1683C44.9601 25.4391 43.621 24.5745 42.05 24.5745H38.1911V31.3752C38.1911 31.7864 38.0435 32.1396 37.7482 32.4348C37.4636 32.7195 37.1156 32.8618 36.7044 32.8618H33.7311C33.3199 32.8618 32.9667 32.7195 32.6715 32.4348C32.3763 32.1396 32.2287 31.7864 32.2287 31.3752V11.685C32.2287 11.2738 32.371 10.9206 32.6557 10.6253C32.9403 10.3301 33.2883 10.1825 33.6995 10.1825H46.7472C49.1617 10.1825 51.1386 10.8309 52.678 12.1278C54.2279 13.4247 55.0029 15.1749 55.0029 17.3785C55.0029 20.4467 53.0154 22.3709 49.0404 23.1512C49.6731 23.3831 50.2582 23.7838 50.796 24.3531C51.3337 24.9119 51.9505 25.7291 52.6464 26.8045L55.5248 31.3752C55.6935 31.6704 55.7778 31.9393 55.7778 32.1818ZM38.1911 20.0988H44.9284C46.0144 20.0988 46.9686 19.8826 47.791 19.4503C48.624 19.0181 49.0404 18.3274 49.0404 17.3785C49.0404 16.4296 48.624 15.739 47.791 15.3067C46.9686 14.8744 46.0144 14.6583 44.9284 14.6583H38.1911V20.0988ZM61.3417 23.8945V11.685C61.3417 11.2738 61.484 10.9206 61.7687 10.6253C62.0639 10.3301 62.4277 10.1825 62.86 10.1825H65.8174C66.2181 10.1825 66.566 10.3301 66.8613 10.6253C67.1565 10.9206 67.3041 11.2738 67.3041 11.685V23.9261C67.3041 25.476 67.6415 26.6305 68.3163 27.3897C69.0016 28.1488 70.056 28.5284 71.4794 28.5284H74.0098C75.4332 28.5284 76.4823 28.1488 77.1571 27.3897C77.8424 26.6305 78.1851 25.476 78.1851 23.9261V11.685C78.1851 11.2738 78.3274 10.9206 78.6121 10.6253C78.9073 10.3301 79.2605 10.1825 79.6717 10.1825H82.6134C83.0457 10.1825 83.4095 10.3301 83.7047 10.6253C83.9999 10.9206 84.1475 11.2738 84.1475 11.685V23.8945C84.1475 26.7834 83.2987 29.0239 81.6012 30.616C79.9037 32.1976 77.426 32.9883 74.168 32.9883H71.3212C68.0527 32.9883 65.5697 32.1976 63.8721 30.616C62.1852 29.0239 61.3417 26.7834 61.3417 23.8945ZM90.2965 27.0576C90.2965 26.4355 90.481 25.9927 90.8501 25.7291C91.2191 25.4549 91.5776 25.3179 91.9255 25.3179H93.8076C94.7565 25.3179 95.4787 25.8345 95.9743 26.8678C96.4698 27.901 97.5822 28.4177 99.3113 28.4177L104.847 28.5284C106.702 28.5284 107.63 27.9221 107.63 26.7096C107.63 25.7923 106.497 25.0701 104.23 24.5429C103.218 24.3004 102.1 24.0632 100.877 23.8312C99.654 23.5887 98.4362 23.2882 97.2237 22.9297C96.0217 22.5713 94.9146 22.1495 93.9025 21.6645C92.8903 21.1795 92.0679 20.5152 91.4352 19.6718C90.8132 18.8177 90.5021 17.8161 90.5021 16.6668C90.5021 14.5476 91.256 12.9186 92.7637 11.7799C94.2715 10.6306 96.8652 10.056 100.545 10.056L104.562 10.1509C106.723 10.1509 108.669 10.7097 110.398 11.8273C112.138 12.9344 113.007 14.3209 113.007 15.9868C113.007 16.6088 112.823 17.0569 112.454 17.3311C112.085 17.6052 111.732 17.7423 111.394 17.7423H109.512C108.563 17.7423 107.841 17.2256 107.346 16.1924C106.85 15.1486 105.738 14.6266 104.009 14.6266L99.2481 14.5317C97.3924 14.5317 96.4645 15.138 96.4645 16.3505C96.4645 17.0148 97.0497 17.5578 98.2201 17.9795C99.4009 18.4013 100.824 18.7756 102.49 19.1024C104.167 19.4187 105.848 19.8036 107.535 20.2569C109.222 20.7103 110.651 21.4589 111.821 22.5027C113.002 23.536 113.593 24.8276 113.593 26.3775C113.593 28.4968 112.834 30.131 111.315 31.2803C109.807 32.419 107.219 32.9883 103.55 32.9883L98.7578 32.8934C96.5963 32.8934 94.6458 32.3399 92.9061 31.2328C91.1664 30.1152 90.2965 28.7234 90.2965 27.0576ZM120.074 31.3752V11.685C120.074 11.2738 120.221 10.9206 120.517 10.6253C120.812 10.3301 121.176 10.1825 121.608 10.1825H124.55C124.961 10.1825 125.309 10.3301 125.593 10.6253C125.889 10.9206 126.036 11.2738 126.036 11.685V18.8019H136.917V11.685C136.917 11.2738 137.065 10.9206 137.36 10.6253C137.655 10.3301 138.008 10.1825 138.42 10.1825H141.361C141.794 10.1825 142.152 10.3301 142.437 10.6253C142.732 10.9206 142.88 11.2738 142.88 11.685V31.3752C142.88 31.7864 142.727 32.1396 142.421 32.4348C142.126 32.7195 141.773 32.8618 141.361 32.8618H138.42C138.008 32.8618 137.655 32.7247 137.36 32.4506C137.065 32.1659 136.917 31.818 136.917 31.4068V23.2777H126.036V31.4068C126.036 31.818 125.889 32.1659 125.593 32.4506C125.309 32.7247 124.961 32.8618 124.55 32.8618H121.608C121.197 32.8618 120.838 32.7195 120.532 32.4348C120.227 32.1396 120.074 31.7864 120.074 31.3752ZM150.673 31.3435V11.6533C150.673 11.2421 150.821 10.8942 151.116 10.6095C151.412 10.3248 151.765 10.1825 152.176 10.1825H170.411C170.822 10.1825 171.17 10.3301 171.455 10.6253C171.75 10.9206 171.898 11.2738 171.898 11.685V13.1716C171.898 13.5828 171.75 13.936 171.455 14.2313C171.17 14.5159 170.822 14.6583 170.411 14.6583H156.636V19.2606H168.497C168.909 19.2606 169.257 19.4082 169.541 19.7034C169.836 19.9881 169.984 20.336 169.984 20.7472V22.2339C169.984 22.6451 169.836 22.9983 169.541 23.2935C169.257 23.5782 168.909 23.7205 168.497 23.7205H156.636V28.3861H170.379C170.78 28.3861 171.123 28.5284 171.407 28.8131C171.692 29.0977 171.834 29.4457 171.834 29.8569V31.3752C171.834 31.7864 171.687 32.1396 171.392 32.4348C171.096 32.7195 170.743 32.8618 170.332 32.8618H152.176C151.765 32.8618 151.412 32.7195 151.116 32.4348C150.821 32.1396 150.673 31.7758 150.673 31.3435ZM176.75 27.0576C176.75 26.4355 176.934 25.9927 177.303 25.7291C177.672 25.4549 178.031 25.3179 178.379 25.3179H180.261C181.21 25.3179 181.932 25.8345 182.428 26.8678C182.923 27.901 184.036 28.4177 185.765 28.4177L191.3 28.5284C193.156 28.5284 194.084 27.9221 194.084 26.7096C194.084 25.7923 192.95 25.0701 190.683 24.5429C189.671 24.3004 188.553 24.0632 187.33 23.8312C186.107 23.5887 184.89 23.2882 183.677 22.9297C182.475 22.5713 181.368 22.1495 180.356 21.6645C179.344 21.1795 178.521 20.5152 177.889 19.6718C177.267 18.8177 176.956 17.8161 176.956 16.6668C176.956 14.5476 177.709 12.9186 179.217 11.7799C180.725 10.6306 183.319 10.056 186.998 10.056L191.015 10.1509C193.177 10.1509 195.122 10.7097 196.851 11.8273C198.591 12.9344 199.461 14.3209 199.461 15.9868C199.461 16.6088 199.276 17.0569 198.907 17.3311C198.538 17.6052 198.185 17.7423 197.848 17.7423H195.966C195.017 17.7423 194.294 17.2256 193.799 16.1924C193.303 15.1486 192.191 14.6266 190.462 14.6266L185.701 14.5317C183.846 14.5317 182.918 15.138 182.918 16.3505C182.918 17.0148 183.503 17.5578 184.673 17.9795C185.854 18.4013 187.278 18.7756 188.944 19.1024C190.62 19.4187 192.302 19.8036 193.989 20.2569C195.676 20.7103 197.104 21.4589 198.275 22.5027C199.456 23.536 200.046 24.8276 200.046 26.3775C200.046 28.4968 199.287 30.131 197.769 31.2803C196.261 32.419 193.672 32.9883 190.003 32.9883L185.211 32.8934C183.05 32.8934 181.099 32.3399 179.359 31.2328C177.62 30.1152 176.75 28.7234 176.75 27.0576ZM235.716 31.3752V11.685C235.716 11.2738 235.858 10.9206 236.143 10.6253C236.428 10.3301 236.776 10.1825 237.187 10.1825H249.254C255.633 10.1825 258.822 13.1242 258.822 19.0075C258.822 24.8803 255.633 27.8167 249.254 27.8167H241.679V31.3752C241.679 31.7864 241.531 32.1396 241.236 32.4348C240.951 32.7195 240.603 32.8618 240.192 32.8618H237.219C236.807 32.8618 236.454 32.7195 236.159 32.4348C235.864 32.1396 235.716 31.7864 235.716 31.3752ZM241.679 23.3409H247.451C249.222 23.3409 250.567 23.0457 251.484 22.4553C252.401 21.8543 252.86 20.705 252.86 19.0075C252.86 17.2994 252.401 16.1502 251.484 15.5598C250.567 14.9588 249.222 14.6583 247.451 14.6583H241.679V23.3409ZM262.647 31.4068L266.616 16.3505C267.692 12.2491 271.192 10.1931 277.118 10.1825H285.642C286.032 10.1825 286.354 10.3301 286.607 10.6253C286.871 10.9206 287.002 11.2632 287.002 11.6533V31.4068C287.002 31.818 286.855 32.1659 286.56 32.4506C286.264 32.7247 285.911 32.8618 285.5 32.8618H282.527C282.094 32.8618 281.736 32.7247 281.451 32.4506C281.177 32.1659 281.04 31.8075 281.04 31.3752V27.3897H269.795L268.736 31.3752C268.63 31.8075 268.393 32.1659 268.024 32.4506C267.655 32.7247 267.265 32.8618 266.854 32.8618H263.738C263.327 32.8618 263.031 32.7458 262.852 32.5139C262.673 32.2714 262.583 32.0605 262.583 31.8813C262.594 31.702 262.615 31.5439 262.647 31.4068ZM270.966 22.9139H281.04V14.6583H276.533C275.52 14.6583 274.635 14.9482 273.876 15.5281C273.127 16.0975 272.621 16.8672 272.357 17.8372L270.966 22.9139ZM294.765 31.4068V11.685C294.765 11.2738 294.912 10.9206 295.207 10.6253C295.503 10.3301 295.856 10.1825 296.267 10.1825H299.209C299.641 10.1825 299.999 10.3301 300.284 10.6253C300.579 10.9206 300.727 11.2738 300.727 11.685V31.3752C300.727 31.7864 300.574 32.1396 300.268 32.4348C299.973 32.7195 299.62 32.8618 299.209 32.8618H296.267C295.856 32.8618 295.503 32.7247 295.207 32.4506C294.912 32.1659 294.765 31.818 294.765 31.4068ZM308.505 31.3752V11.685C308.505 11.2738 308.647 10.9206 308.932 10.6253C309.217 10.3301 309.565 10.1825 309.976 10.1825H314.626C314.995 10.1825 315.385 10.3301 315.796 10.6253C316.207 10.9206 316.544 11.2738 316.808 11.685L326.361 26.3775V11.6533C326.361 11.2421 326.503 10.8942 326.788 10.6095C327.083 10.3248 327.436 10.1825 327.847 10.1825H330.567C330.979 10.1825 331.327 10.3248 331.611 10.6095C331.907 10.8942 332.054 11.2527 332.054 11.685V31.3752C332.054 31.7864 331.907 32.1396 331.611 32.4348C331.327 32.7195 330.979 32.8618 330.567 32.8618H325.317C324.906 32.8618 324.484 32.7195 324.052 32.4348C323.619 32.1396 323.277 31.7864 323.024 31.3752L314.278 17.8055V31.3752C314.278 31.7864 314.13 32.1396 313.835 32.4348C313.55 32.7195 313.202 32.8618 312.791 32.8618H310.007C309.596 32.8618 309.243 32.7195 308.948 32.4348C308.653 32.1396 308.505 31.7864 308.505 31.3752ZM337.887 13.1716V11.685C337.887 11.2527 338.029 10.8942 338.314 10.6095C338.599 10.3248 338.957 10.1825 339.389 10.1825H359.459C359.891 10.1825 360.25 10.3248 360.535 10.6095C360.819 10.8942 360.962 11.2527 360.962 11.685V13.1716C360.962 13.6039 360.819 13.9624 360.535 14.2471C360.25 14.5212 359.891 14.6583 359.459 14.6583H352.405V31.4068C352.405 31.818 352.258 32.1659 351.963 32.4506C351.678 32.7247 351.33 32.8618 350.919 32.8618H347.93C347.518 32.8618 347.165 32.7247 346.87 32.4506C346.585 32.1659 346.443 31.818 346.443 31.4068V14.6583H339.389C338.957 14.6583 338.599 14.5212 338.314 14.2471C338.029 13.9624 337.887 13.6039 337.887 13.1716ZM365.181 27.0576C365.181 26.4355 365.366 25.9927 365.735 25.7291C366.104 25.4549 366.462 25.3179 366.81 25.3179H368.692C369.641 25.3179 370.363 25.8345 370.859 26.8678C371.354 27.901 372.467 28.4177 374.196 28.4177L379.731 28.5284C381.587 28.5284 382.515 27.9221 382.515 26.7096C382.515 25.7923 381.381 25.0701 379.114 24.5429C378.102 24.3004 376.985 24.0632 375.762 23.8312C374.539 23.5887 373.321 23.2882 372.108 22.9297C370.906 22.5713 369.799 22.1495 368.787 21.6645C367.775 21.1795 366.952 20.5152 366.32 19.6718C365.698 18.8177 365.387 17.8161 365.387 16.6668C365.387 14.5476 366.141 12.9186 367.648 11.7799C369.156 10.6306 371.75 10.056 375.429 10.056L379.447 10.1509C381.608 10.1509 383.553 10.7097 385.283 11.8273C387.022 12.9344 387.892 14.3209 387.892 15.9868C387.892 16.6088 387.708 17.0569 387.339 17.3311C386.969 17.6052 386.616 17.7423 386.279 17.7423H384.397C383.448 17.7423 382.726 17.2256 382.23 16.1924C381.735 15.1486 380.622 14.6266 378.893 14.6266L374.133 14.5317C372.277 14.5317 371.349 15.138 371.349 16.3505C371.349 17.0148 371.934 17.5578 373.105 17.9795C374.286 18.4013 375.709 18.7756 377.375 19.1024C379.051 19.4187 380.733 19.8036 382.42 20.2569C384.107 20.7103 385.536 21.4589 386.706 22.5027C387.887 23.536 388.477 24.8276 388.477 26.3775C388.477 28.4968 387.718 30.131 386.2 31.2803C384.692 32.419 382.104 32.9883 378.434 32.9883L373.642 32.8934C371.481 32.8934 369.53 32.3399 367.791 31.2328C366.051 30.1152 365.181 28.7234 365.181 27.0576Z" fill="white" fill-opacity="0.8"/>
<path d="M215.876 20.2928C212.124 19.0786 208.244 22.2272 206.772 23.9532H211.922C215.14 23.9532 215.876 25.5603 219.094 26.8102C221.669 27.8101 224.09 23.5366 224.979 21.2748C225.837 19.6976 227.039 17.293 224.979 20.2928C222.404 24.0425 220.565 21.8105 215.876 20.2928Z" fill="#F95050"/>
</svg>
