<svg width="199" height="21" viewBox="0 0 199 21" fill="none" xmlns="http://www.w3.org/2000/svg">
<path d="M1.11719 5.53906C1.11719 5.33594 1.1901 5.16146 1.33594 5.01562C1.48177 4.86979 1.65625 4.79688 1.85938 4.79688H8.21094C9.76823 4.79688 10.9167 5.24479 11.6562 6.14062C12.0677 6.63542 12.2734 7.26823 12.2734 8.03906C12.2734 8.80469 11.9219 9.47396 11.2188 10.0469C12.2188 10.5833 12.7188 11.4167 12.7188 12.5469C12.7188 13.6771 12.3177 14.5365 11.5156 15.125C10.7188 15.7083 9.73958 16 8.57812 16H1.85938C1.65625 16 1.48177 15.9297 1.33594 15.7891C1.1901 15.6432 1.11719 15.4688 1.11719 15.2656V5.53906ZM4.0625 13.8906H8.53125C8.93229 13.8906 9.23958 13.7708 9.45312 13.5312C9.66667 13.2917 9.77344 12.9635 9.77344 12.5469C9.77344 12.1302 9.66667 11.8021 9.45312 11.5625C9.23958 11.3229 8.93229 11.2031 8.53125 11.2031H4.0625V13.8906ZM4.0625 9.14844H8.24219C8.57031 9.14844 8.83333 9.05208 9.03125 8.85938C9.22917 8.66146 9.32812 8.38802 9.32812 8.03906C9.32812 7.6849 9.22917 7.40885 9.03125 7.21094C8.83333 7.01302 8.57031 6.91406 8.24219 6.91406H4.0625V9.14844ZM27.5531 15.6641C27.5531 15.888 27.4203 16 27.1547 16H25.2797C25.0818 16 24.863 15.9297 24.6234 15.7891C24.3891 15.6432 24.2094 15.4688 24.0844 15.2656L22.7563 13.1875C22.2094 12.3333 21.5479 11.9062 20.7719 11.9062H18.8656V15.2656C18.8656 15.4688 18.7927 15.6432 18.6469 15.7891C18.5063 15.9297 18.3344 16 18.1313 16H16.6625C16.4594 16 16.2849 15.9297 16.1391 15.7891C15.9932 15.6432 15.9203 15.4688 15.9203 15.2656V5.53906C15.9203 5.33594 15.9906 5.16146 16.1313 5.01562C16.2719 4.86979 16.4438 4.79688 16.6469 4.79688H23.0922C24.2849 4.79688 25.2615 5.11719 26.0219 5.75781C26.7875 6.39844 27.1703 7.26302 27.1703 8.35156C27.1703 9.86719 26.1885 10.8177 24.225 11.2031C24.5375 11.3177 24.8266 11.5156 25.0922 11.7969C25.3578 12.0729 25.6625 12.4766 26.0063 13.0078L27.4281 15.2656C27.5115 15.4115 27.5531 15.5443 27.5531 15.6641ZM18.8656 9.69531H22.1938C22.7302 9.69531 23.2016 9.58854 23.6078 9.375C24.0193 9.16146 24.225 8.82031 24.225 8.35156C24.225 7.88281 24.0193 7.54167 23.6078 7.32812C23.2016 7.11458 22.7302 7.00781 22.1938 7.00781H18.8656V9.69531ZM30.3016 11.5703V5.53906C30.3016 5.33594 30.3719 5.16146 30.5125 5.01562C30.6583 4.86979 30.838 4.79688 31.0516 4.79688H32.5125C32.7104 4.79688 32.8823 4.86979 33.0281 5.01562C33.174 5.16146 33.2469 5.33594 33.2469 5.53906V11.5859C33.2469 12.3516 33.4135 12.9219 33.7469 13.2969C34.0854 13.6719 34.6063 13.8594 35.3094 13.8594H36.5594C37.2625 13.8594 37.7807 13.6719 38.1141 13.2969C38.4526 12.9219 38.6219 12.3516 38.6219 11.5859V5.53906C38.6219 5.33594 38.6922 5.16146 38.8328 5.01562C38.9786 4.86979 39.1531 4.79688 39.3563 4.79688H40.8094C41.0229 4.79688 41.2026 4.86979 41.3484 5.01562C41.4943 5.16146 41.5672 5.33594 41.5672 5.53906V11.5703C41.5672 12.9974 41.1479 14.1042 40.3094 14.8906C39.4708 15.6719 38.2469 16.0625 36.6375 16.0625H35.2313C33.6167 16.0625 32.3901 15.6719 31.5516 14.8906C30.7182 14.1042 30.3016 12.9974 30.3016 11.5703ZM44.6047 13.1328C44.6047 12.8255 44.6958 12.6068 44.8781 12.4766C45.0604 12.3411 45.2375 12.2734 45.4094 12.2734H46.3391C46.8078 12.2734 47.1646 12.5286 47.4094 13.0391C47.6542 13.5495 48.2036 13.8047 49.0578 13.8047L51.7922 13.8594C52.7089 13.8594 53.1672 13.5599 53.1672 12.9609C53.1672 12.5078 52.6073 12.151 51.4875 11.8906C50.9875 11.7708 50.4354 11.6536 49.8312 11.5391C49.2271 11.4193 48.6255 11.2708 48.0266 11.0938C47.4328 10.9167 46.8859 10.7083 46.3859 10.4688C45.8859 10.2292 45.4797 9.90104 45.1672 9.48438C44.8599 9.0625 44.7062 8.56771 44.7062 8C44.7062 6.95312 45.0786 6.14844 45.8234 5.58594C46.5682 5.01823 47.8495 4.73438 49.6672 4.73438L51.6516 4.78125C52.7193 4.78125 53.6802 5.05729 54.5344 5.60938C55.3937 6.15625 55.8234 6.84115 55.8234 7.66406C55.8234 7.97135 55.7323 8.19271 55.55 8.32812C55.3677 8.46354 55.1932 8.53125 55.0266 8.53125H54.0969C53.6281 8.53125 53.2714 8.27604 53.0266 7.76562C52.7818 7.25 52.2323 6.99219 51.3781 6.99219L49.0266 6.94531C48.1099 6.94531 47.6516 7.24479 47.6516 7.84375C47.6516 8.17188 47.9406 8.4401 48.5187 8.64844C49.1021 8.85677 49.8052 9.04167 50.6281 9.20312C51.4562 9.35938 52.287 9.54948 53.1203 9.77344C53.9536 9.9974 54.6594 10.3672 55.2375 10.8828C55.8208 11.3932 56.1125 12.0312 56.1125 12.7969C56.1125 13.8438 55.7375 14.651 54.9875 15.2188C54.2427 15.7812 52.9641 16.0625 51.1516 16.0625L48.7844 16.0156C47.7167 16.0156 46.7531 15.7422 45.8937 15.1953C45.0344 14.6432 44.6047 13.9557 44.6047 13.1328ZM59.3141 15.2656V5.53906C59.3141 5.33594 59.387 5.16146 59.5328 5.01562C59.6786 4.86979 59.8583 4.79688 60.0719 4.79688H61.525C61.7281 4.79688 61.9 4.86979 62.0406 5.01562C62.1865 5.16146 62.2594 5.33594 62.2594 5.53906V9.05469H67.6344V5.53906C67.6344 5.33594 67.7073 5.16146 67.8531 5.01562C67.999 4.86979 68.1734 4.79688 68.3766 4.79688H69.8297C70.0432 4.79688 70.2203 4.86979 70.3609 5.01562C70.5068 5.16146 70.5797 5.33594 70.5797 5.53906V15.2656C70.5797 15.4688 70.5042 15.6432 70.3531 15.7891C70.2073 15.9297 70.0328 16 69.8297 16H68.3766C68.1734 16 67.999 15.9323 67.8531 15.7969C67.7073 15.6562 67.6344 15.4844 67.6344 15.2812V11.2656H62.2594V15.2812C62.2594 15.4844 62.1865 15.6562 62.0406 15.7969C61.9 15.9323 61.7281 16 61.525 16H60.0719C59.8688 16 59.6917 15.9297 59.5406 15.7891C59.3896 15.6432 59.3141 15.4688 59.3141 15.2656ZM74.4297 15.25V5.52344C74.4297 5.32031 74.5026 5.14844 74.6484 5.00781C74.7943 4.86719 74.9688 4.79688 75.1719 4.79688H84.1797C84.3828 4.79688 84.5547 4.86979 84.6953 5.01562C84.8411 5.16146 84.9141 5.33594 84.9141 5.53906V6.27344C84.9141 6.47656 84.8411 6.65104 84.6953 6.79688C84.5547 6.9375 84.3828 7.00781 84.1797 7.00781H77.375V9.28125H83.2344C83.4375 9.28125 83.6094 9.35417 83.75 9.5C83.8958 9.64062 83.9688 9.8125 83.9688 10.0156V10.75C83.9688 10.9531 83.8958 11.1276 83.75 11.2734C83.6094 11.4141 83.4375 11.4844 83.2344 11.4844H77.375V13.7891H84.1641C84.362 13.7891 84.5312 13.8594 84.6719 14C84.8125 14.1406 84.8828 14.3125 84.8828 14.5156V15.2656C84.8828 15.4688 84.8099 15.6432 84.6641 15.7891C84.5182 15.9297 84.3438 16 84.1406 16H75.1719C74.9688 16 74.7943 15.9297 74.6484 15.7891C74.5026 15.6432 74.4297 15.4635 74.4297 15.25ZM87.3109 13.1328C87.3109 12.8255 87.4021 12.6068 87.5844 12.4766C87.7667 12.3411 87.9437 12.2734 88.1156 12.2734H89.0453C89.5141 12.2734 89.8708 12.5286 90.1156 13.0391C90.3604 13.5495 90.9099 13.8047 91.7641 13.8047L94.4984 13.8594C95.4151 13.8594 95.8734 13.5599 95.8734 12.9609C95.8734 12.5078 95.3135 12.151 94.1937 11.8906C93.6937 11.7708 93.1417 11.6536 92.5375 11.5391C91.9333 11.4193 91.3318 11.2708 90.7328 11.0938C90.1391 10.9167 89.5922 10.7083 89.0922 10.4688C88.5922 10.2292 88.1859 9.90104 87.8734 9.48438C87.5661 9.0625 87.4125 8.56771 87.4125 8C87.4125 6.95312 87.7849 6.14844 88.5297 5.58594C89.2745 5.01823 90.5557 4.73438 92.3734 4.73438L94.3578 4.78125C95.4255 4.78125 96.3865 5.05729 97.2406 5.60938C98.1 6.15625 98.5297 6.84115 98.5297 7.66406C98.5297 7.97135 98.4385 8.19271 98.2562 8.32812C98.074 8.46354 97.8995 8.53125 97.7328 8.53125H96.8031C96.3344 8.53125 95.9776 8.27604 95.7328 7.76562C95.488 7.25 94.9385 6.99219 94.0844 6.99219L91.7328 6.94531C90.8161 6.94531 90.3578 7.24479 90.3578 7.84375C90.3578 8.17188 90.6469 8.4401 91.225 8.64844C91.8083 8.85677 92.5115 9.04167 93.3344 9.20312C94.1625 9.35938 94.9932 9.54948 95.8266 9.77344C96.6599 9.9974 97.3656 10.3672 97.9437 10.8828C98.5271 11.3932 98.8187 12.0312 98.8187 12.7969C98.8187 13.8438 98.4437 14.651 97.6937 15.2188C96.949 15.7812 95.6703 16.0625 93.8578 16.0625L91.4906 16.0156C90.4229 16.0156 89.4594 15.7422 88.6 15.1953C87.7406 14.6432 87.3109 13.9557 87.3109 13.1328ZM116.439 15.2656V5.53906C116.439 5.33594 116.509 5.16146 116.65 5.01562C116.791 4.86979 116.963 4.79688 117.166 4.79688H123.127C126.278 4.79688 127.853 6.25 127.853 9.15625C127.853 12.0573 126.278 13.5078 123.127 13.5078H119.384V15.2656C119.384 15.4688 119.311 15.6432 119.166 15.7891C119.025 15.9297 118.853 16 118.65 16H117.181C116.978 16 116.804 15.9297 116.658 15.7891C116.512 15.6432 116.439 15.4688 116.439 15.2656ZM119.384 11.2969H122.236C123.111 11.2969 123.775 11.151 124.228 10.8594C124.681 10.5625 124.908 9.99479 124.908 9.15625C124.908 8.3125 124.681 7.74479 124.228 7.45312C123.775 7.15625 123.111 7.00781 122.236 7.00781H119.384V11.2969ZM129.742 15.2812L131.703 7.84375C132.234 5.81771 133.964 4.80208 136.891 4.79688H141.102C141.294 4.79688 141.453 4.86979 141.578 5.01562C141.708 5.16146 141.773 5.33073 141.773 5.52344V15.2812C141.773 15.4844 141.701 15.6562 141.555 15.7969C141.409 15.9323 141.234 16 141.031 16H139.562C139.349 16 139.172 15.9323 139.031 15.7969C138.896 15.6562 138.828 15.4792 138.828 15.2656V13.2969H133.273L132.75 15.2656C132.698 15.4792 132.581 15.6562 132.398 15.7969C132.216 15.9323 132.023 16 131.82 16H130.281C130.078 16 129.932 15.9427 129.844 15.8281C129.755 15.7083 129.711 15.6042 129.711 15.5156C129.716 15.4271 129.727 15.349 129.742 15.2812ZM133.852 11.0859H138.828V7.00781H136.602C136.102 7.00781 135.664 7.15104 135.289 7.4375C134.919 7.71875 134.669 8.09896 134.539 8.57812L133.852 11.0859ZM145.608 15.2812V5.53906C145.608 5.33594 145.681 5.16146 145.827 5.01562C145.972 4.86979 146.147 4.79688 146.35 4.79688H147.803C148.017 4.79688 148.194 4.86979 148.334 5.01562C148.48 5.16146 148.553 5.33594 148.553 5.53906V15.2656C148.553 15.4688 148.478 15.6432 148.327 15.7891C148.181 15.9297 148.006 16 147.803 16H146.35C146.147 16 145.972 15.9323 145.827 15.7969C145.681 15.6562 145.608 15.4844 145.608 15.2812ZM152.395 15.2656V5.53906C152.395 5.33594 152.466 5.16146 152.606 5.01562C152.747 4.86979 152.919 4.79688 153.122 4.79688H155.419C155.601 4.79688 155.794 4.86979 155.997 5.01562C156.2 5.16146 156.367 5.33594 156.497 5.53906L161.216 12.7969V5.52344C161.216 5.32031 161.286 5.14844 161.427 5.00781C161.572 4.86719 161.747 4.79688 161.95 4.79688H163.294C163.497 4.79688 163.669 4.86719 163.809 5.00781C163.955 5.14844 164.028 5.32552 164.028 5.53906V15.2656C164.028 15.4688 163.955 15.6432 163.809 15.7891C163.669 15.9297 163.497 16 163.294 16H160.7C160.497 16 160.289 15.9297 160.075 15.7891C159.861 15.6432 159.692 15.4688 159.567 15.2656L155.247 8.5625V15.2656C155.247 15.4688 155.174 15.6432 155.028 15.7891C154.887 15.9297 154.716 16 154.512 16H153.137C152.934 16 152.76 15.9297 152.614 15.7891C152.468 15.6432 152.395 15.4688 152.395 15.2656ZM166.909 6.27344V5.53906C166.909 5.32552 166.98 5.14844 167.12 5.00781C167.261 4.86719 167.438 4.79688 167.652 4.79688H177.566C177.779 4.79688 177.956 4.86719 178.097 5.00781C178.238 5.14844 178.308 5.32552 178.308 5.53906V6.27344C178.308 6.48698 178.238 6.66406 178.097 6.80469C177.956 6.9401 177.779 7.00781 177.566 7.00781H174.081V15.2812C174.081 15.4844 174.008 15.6562 173.863 15.7969C173.722 15.9323 173.55 16 173.347 16H171.87C171.667 16 171.493 15.9323 171.347 15.7969C171.206 15.6562 171.136 15.4844 171.136 15.2812V7.00781H167.652C167.438 7.00781 167.261 6.9401 167.12 6.80469C166.98 6.66406 166.909 6.48698 166.909 6.27344ZM180.392 13.1328C180.392 12.8255 180.483 12.6068 180.666 12.4766C180.848 12.3411 181.025 12.2734 181.197 12.2734H182.127C182.595 12.2734 182.952 12.5286 183.197 13.0391C183.442 13.5495 183.991 13.8047 184.845 13.8047L187.58 13.8594C188.496 13.8594 188.955 13.5599 188.955 12.9609C188.955 12.5078 188.395 12.151 187.275 11.8906C186.775 11.7708 186.223 11.6536 185.619 11.5391C185.015 11.4193 184.413 11.2708 183.814 11.0938C183.22 10.9167 182.673 10.7083 182.173 10.4688C181.673 10.2292 181.267 9.90104 180.955 9.48438C180.647 9.0625 180.494 8.56771 180.494 8C180.494 6.95312 180.866 6.14844 181.611 5.58594C182.356 5.01823 183.637 4.73438 185.455 4.73438L187.439 4.78125C188.507 4.78125 189.468 5.05729 190.322 5.60938C191.181 6.15625 191.611 6.84115 191.611 7.66406C191.611 7.97135 191.52 8.19271 191.337 8.32812C191.155 8.46354 190.981 8.53125 190.814 8.53125H189.884C189.416 8.53125 189.059 8.27604 188.814 7.76562C188.569 7.25 188.02 6.99219 187.166 6.99219L184.814 6.94531C183.897 6.94531 183.439 7.24479 183.439 7.84375C183.439 8.17188 183.728 8.4401 184.306 8.64844C184.89 8.85677 185.593 9.04167 186.416 9.20312C187.244 9.35938 188.074 9.54948 188.908 9.77344C189.741 9.9974 190.447 10.3672 191.025 10.8828C191.608 11.3932 191.9 12.0312 191.9 12.7969C191.9 13.8438 191.525 14.651 190.775 15.2188C190.03 15.7812 188.752 16.0625 186.939 16.0625L184.572 16.0156C183.504 16.0156 182.541 15.7422 181.681 15.1953C180.822 14.6432 180.392 13.9557 180.392 13.1328Z" fill="white" fill-opacity="0.8"/>
<path d="M104.706 9.70686C102.767 9.10707 100.761 10.6624 100 11.5151H102.662C104.326 11.5151 104.706 12.3089 106.37 12.9263C107.701 13.4203 108.953 11.3093 109.412 10.192C109.856 9.41285 110.477 8.22502 109.412 9.70686C108.081 11.5592 107.13 10.4566 104.706 9.70686Z" fill="#F95050"/>
</svg>
