<svg width="390" height="72" viewBox="0 0 390 72" fill="none" xmlns="http://www.w3.org/2000/svg">
<path d="M218.055 17.8822C214.303 16.668 210.422 19.8166 208.951 21.5427H214.101C217.319 21.5427 218.055 23.1497 221.273 24.3996C223.848 25.3996 226.269 21.126 227.158 18.8643C228.016 17.287 229.218 14.8824 227.158 17.8822C224.583 21.632 222.744 19.4 218.055 17.8822Z" fill="#F95050"/>
<path d="M2.2616 10.8232C2.2616 10.412 2.40922 10.0587 2.70444 9.76352C2.99966 9.4683 3.35287 9.32069 3.76407 9.32069H16.622C19.7745 9.32069 22.0994 10.2274 23.5966 12.0409C24.4295 13.0426 24.846 14.3236 24.846 15.8841C24.846 17.434 24.1343 18.7889 22.7109 19.9487C24.7353 21.0346 25.7475 22.7216 25.7475 25.0096C25.7475 27.2975 24.9356 29.0372 23.3119 30.2287C21.6988 31.4096 19.7166 32 17.3653 32H3.76407C3.35287 32 2.99966 31.8577 2.70444 31.573C2.40922 31.2778 2.2616 30.9246 2.2616 30.5134V10.8232ZM8.22402 27.7298H17.2704C18.0823 27.7298 18.7044 27.4873 19.1367 27.0023C19.5689 26.5173 19.7851 25.8531 19.7851 25.0096C19.7851 24.1661 19.5689 23.5018 19.1367 23.0168C18.7044 22.5318 18.0823 22.2893 17.2704 22.2893H8.22402V27.7298ZM8.22402 18.1299H16.6853C17.3495 18.1299 17.882 17.9348 18.2826 17.5447C18.6833 17.1441 18.8836 16.5905 18.8836 15.8841C18.8836 15.1671 18.6833 14.6083 18.2826 14.2077C17.882 13.807 17.3495 13.6067 16.6853 13.6067H8.22402V18.1299ZM55.7778 31.3199C55.7778 31.7733 55.5089 32 54.9712 32H51.1755C50.7749 32 50.332 31.8577 49.847 31.573C49.3726 31.2778 49.0088 30.9246 48.7558 30.5134L46.0671 26.3065C44.9601 24.5773 43.621 23.7127 42.05 23.7127H38.1911V30.5134C38.1911 30.9246 38.0435 31.2778 37.7482 31.573C37.4636 31.8577 37.1156 32 36.7044 32H33.7311C33.3199 32 32.9667 31.8577 32.6715 31.573C32.3763 31.2778 32.2287 30.9246 32.2287 30.5134V10.8232C32.2287 10.412 32.371 10.0587 32.6557 9.76352C32.9403 9.4683 33.2883 9.32069 33.6995 9.32069H46.7472C49.1617 9.32069 51.1386 9.96913 52.678 11.266C54.2279 12.5629 55.0029 14.3131 55.0029 16.5167C55.0029 19.5849 53.0154 21.5091 49.0404 22.2893C49.6731 22.5213 50.2582 22.922 50.796 23.4913C51.3337 24.0501 51.9505 24.8672 52.6464 25.9427L55.5248 30.5134C55.6935 30.8086 55.7778 31.0774 55.7778 31.3199ZM38.1911 19.237H44.9284C46.0144 19.237 46.9686 19.0208 47.791 18.5885C48.624 18.1562 49.0404 17.4656 49.0404 16.5167C49.0404 15.5678 48.624 14.8772 47.791 14.4449C46.9686 14.0126 46.0144 13.7965 44.9284 13.7965H38.1911V19.237ZM61.3417 23.0327V10.8232C61.3417 10.412 61.484 10.0587 61.7687 9.76352C62.0639 9.4683 62.4277 9.32069 62.86 9.32069H65.8174C66.2181 9.32069 66.566 9.4683 66.8613 9.76352C67.1565 10.0587 67.3041 10.412 67.3041 10.8232V23.0643C67.3041 24.6142 67.6415 25.7687 68.3163 26.5279C69.0016 27.287 70.056 27.6666 71.4794 27.6666H74.0098C75.4332 27.6666 76.4823 27.287 77.1571 26.5279C77.8424 25.7687 78.1851 24.6142 78.1851 23.0643V10.8232C78.1851 10.412 78.3274 10.0587 78.6121 9.76352C78.9073 9.4683 79.2605 9.32069 79.6717 9.32069H82.6134C83.0457 9.32069 83.4095 9.4683 83.7047 9.76352C83.9999 10.0587 84.1475 10.412 84.1475 10.8232V23.0327C84.1475 25.9216 83.2987 28.1621 81.6012 29.7542C79.9037 31.3358 77.426 32.1265 74.168 32.1265H71.3212C68.0527 32.1265 65.5697 31.3358 63.8721 29.7542C62.1852 28.1621 61.3417 25.9216 61.3417 23.0327ZM90.2965 26.1957C90.2965 25.5737 90.481 25.1308 90.8501 24.8672C91.2191 24.5931 91.5776 24.456 91.9255 24.456H93.8076C94.7565 24.456 95.4787 24.9727 95.9743 26.006C96.4698 27.0392 97.5822 27.5559 99.3113 27.5559L104.847 27.6666C106.702 27.6666 107.63 27.0603 107.63 25.8478C107.63 24.9305 106.497 24.2083 104.23 23.6811C103.218 23.4386 102.1 23.2014 100.877 22.9694C99.654 22.7269 98.4362 22.4264 97.2237 22.0679C96.0217 21.7094 94.9146 21.2877 93.9025 20.8027C92.8903 20.3177 92.0679 19.6534 91.4352 18.8099C90.8132 17.9559 90.5021 16.9543 90.5021 15.805C90.5021 13.6857 91.256 12.0568 92.7637 10.9181C94.2715 9.7688 96.8652 9.19417 100.545 9.19417L104.562 9.28906C106.723 9.28906 108.669 9.84787 110.398 10.9655C112.138 12.0726 113.007 13.4591 113.007 15.125C113.007 15.747 112.823 16.1951 112.454 16.4693C112.085 16.7434 111.732 16.8805 111.394 16.8805H109.512C108.563 16.8805 107.841 16.3638 107.346 15.3306C106.85 14.2867 105.738 13.7648 104.009 13.7648L99.2481 13.6699C97.3924 13.6699 96.4645 14.2762 96.4645 15.4887C96.4645 16.153 97.0497 16.6959 98.2201 17.1177C99.4009 17.5394 100.824 17.9137 102.49 18.2406C104.167 18.5569 105.848 18.9417 107.535 19.3951C109.222 19.8485 110.651 20.5971 111.821 21.6409C113.002 22.6742 113.593 23.9658 113.593 25.5157C113.593 27.6349 112.834 29.2692 111.315 30.4185C109.807 31.5572 107.219 32.1265 103.55 32.1265L98.7578 32.0316C96.5963 32.0316 94.6458 31.4781 92.9061 30.371C91.1664 29.2534 90.2965 27.8616 90.2965 26.1957ZM120.074 30.5134V10.8232C120.074 10.412 120.221 10.0587 120.517 9.76352C120.812 9.4683 121.176 9.32069 121.608 9.32069H124.55C124.961 9.32069 125.309 9.4683 125.593 9.76352C125.889 10.0587 126.036 10.412 126.036 10.8232V17.9401H136.917V10.8232C136.917 10.412 137.065 10.0587 137.36 9.76352C137.655 9.4683 138.008 9.32069 138.42 9.32069H141.361C141.794 9.32069 142.152 9.4683 142.437 9.76352C142.732 10.0587 142.88 10.412 142.88 10.8232V30.5134C142.88 30.9246 142.727 31.2778 142.421 31.573C142.126 31.8577 141.773 32 141.361 32H138.42C138.008 32 137.655 31.8629 137.36 31.5888C137.065 31.3041 136.917 30.9562 136.917 30.545V22.4159H126.036V30.545C126.036 30.9562 125.889 31.3041 125.593 31.5888C125.309 31.8629 124.961 32 124.55 32H121.608C121.197 32 120.838 31.8577 120.532 31.573C120.227 31.2778 120.074 30.9246 120.074 30.5134ZM150.673 30.4817V10.7915C150.673 10.3803 150.821 10.0324 151.116 9.74771C151.412 9.46303 151.765 9.32069 152.176 9.32069H170.411C170.822 9.32069 171.17 9.4683 171.455 9.76352C171.75 10.0587 171.898 10.412 171.898 10.8232V12.3098C171.898 12.721 171.75 13.0742 171.455 13.3694C171.17 13.6541 170.822 13.7965 170.411 13.7965H156.636V18.3987H168.497C168.909 18.3987 169.257 18.5464 169.541 18.8416C169.836 19.1263 169.984 19.4742 169.984 19.8854V21.372C169.984 21.7832 169.836 22.1365 169.541 22.4317C169.257 22.7164 168.909 22.8587 168.497 22.8587H156.636V27.5242H170.379C170.78 27.5242 171.123 27.6666 171.407 27.9513C171.692 28.2359 171.834 28.5839 171.834 28.9951V30.5134C171.834 30.9246 171.687 31.2778 171.392 31.573C171.096 31.8577 170.743 32 170.332 32H152.176C151.765 32 151.412 31.8577 151.116 31.573C150.821 31.2778 150.673 30.914 150.673 30.4817ZM176.75 26.1957C176.75 25.5737 176.934 25.1308 177.303 24.8672C177.672 24.5931 178.031 24.456 178.379 24.456H180.261C181.21 24.456 181.932 24.9727 182.428 26.006C182.923 27.0392 184.036 27.5559 185.765 27.5559L191.3 27.6666C193.156 27.6666 194.084 27.0603 194.084 25.8478C194.084 24.9305 192.95 24.2083 190.683 23.6811C189.671 23.4386 188.553 23.2014 187.33 22.9694C186.107 22.7269 184.89 22.4264 183.677 22.0679C182.475 21.7094 181.368 21.2877 180.356 20.8027C179.344 20.3177 178.521 19.6534 177.889 18.8099C177.267 17.9559 176.956 16.9543 176.956 15.805C176.956 13.6857 177.709 12.0568 179.217 10.9181C180.725 9.7688 183.319 9.19417 186.998 9.19417L191.015 9.28906C193.177 9.28906 195.122 9.84787 196.851 10.9655C198.591 12.0726 199.461 13.4591 199.461 15.125C199.461 15.747 199.276 16.1951 198.907 16.4693C198.538 16.7434 198.185 16.8805 197.848 16.8805H195.966C195.017 16.8805 194.294 16.3638 193.799 15.3306C193.303 14.2867 192.191 13.7648 190.462 13.7648L185.701 13.6699C183.846 13.6699 182.918 14.2762 182.918 15.4887C182.918 16.153 183.503 16.6959 184.673 17.1177C185.854 17.5394 187.278 17.9137 188.944 18.2406C190.62 18.5569 192.302 18.9417 193.989 19.3951C195.676 19.8485 197.104 20.5971 198.275 21.6409C199.456 22.6742 200.046 23.9658 200.046 25.5157C200.046 27.6349 199.287 29.2692 197.769 30.4185C196.261 31.5572 193.672 32.1265 190.003 32.1265L185.211 32.0316C183.05 32.0316 181.099 31.4781 179.359 30.371C177.62 29.2534 176.75 27.8616 176.75 26.1957ZM235.716 30.5134V10.8232C235.716 10.412 235.858 10.0587 236.143 9.76352C236.428 9.4683 236.776 9.32069 237.187 9.32069H249.254C255.633 9.32069 258.822 12.2624 258.822 18.1457C258.822 24.0185 255.633 26.9549 249.254 26.9549H241.679V30.5134C241.679 30.9246 241.531 31.2778 241.236 31.573C240.951 31.8577 240.603 32 240.192 32H237.219C236.807 32 236.454 31.8577 236.159 31.573C235.864 31.2778 235.716 30.9246 235.716 30.5134ZM241.679 22.4791H247.451C249.222 22.4791 250.567 22.1839 251.484 21.5935C252.401 20.9925 252.86 19.8432 252.86 18.1457C252.86 16.4376 252.401 15.2884 251.484 14.6979C250.567 14.0969 249.222 13.7965 247.451 13.7965H241.679V22.4791ZM262.647 30.545L266.616 15.4887C267.692 11.3872 271.192 9.33124 277.118 9.32069H285.642C286.032 9.32069 286.354 9.4683 286.607 9.76352C286.871 10.0587 287.002 10.4014 287.002 10.7915V30.545C287.002 30.9562 286.855 31.3041 286.56 31.5888C286.264 31.8629 285.911 32 285.5 32H282.527C282.094 32 281.736 31.8629 281.451 31.5888C281.177 31.3041 281.04 30.9456 281.04 30.5134V26.5279H269.795L268.736 30.5134C268.63 30.9456 268.393 31.3041 268.024 31.5888C267.655 31.8629 267.265 32 266.854 32H263.738C263.327 32 263.031 31.884 262.852 31.6521C262.673 31.4096 262.583 31.1987 262.583 31.0194C262.594 30.8402 262.615 30.682 262.647 30.545ZM270.966 22.0521H281.04V13.7965H276.533C275.52 13.7965 274.635 14.0864 273.876 14.6663C273.127 15.2357 272.621 16.0053 272.357 16.9754L270.966 22.0521ZM294.765 30.545V10.8232C294.765 10.412 294.912 10.0587 295.207 9.76352C295.503 9.4683 295.856 9.32069 296.267 9.32069H299.209C299.641 9.32069 299.999 9.4683 300.284 9.76352C300.579 10.0587 300.727 10.412 300.727 10.8232V30.5134C300.727 30.9246 300.574 31.2778 300.268 31.573C299.973 31.8577 299.62 32 299.209 32H296.267C295.856 32 295.503 31.8629 295.207 31.5888C294.912 31.3041 294.765 30.9562 294.765 30.545ZM308.505 30.5134V10.8232C308.505 10.412 308.647 10.0587 308.932 9.76352C309.217 9.4683 309.565 9.32069 309.976 9.32069H314.626C314.995 9.32069 315.385 9.4683 315.796 9.76352C316.207 10.0587 316.544 10.412 316.808 10.8232L326.361 25.5157V10.7915C326.361 10.3803 326.503 10.0324 326.788 9.74771C327.083 9.46303 327.436 9.32069 327.847 9.32069H330.567C330.979 9.32069 331.327 9.46303 331.611 9.74771C331.907 10.0324 332.054 10.3909 332.054 10.8232V30.5134C332.054 30.9246 331.907 31.2778 331.611 31.573C331.327 31.8577 330.979 32 330.567 32H325.317C324.906 32 324.484 31.8577 324.052 31.573C323.619 31.2778 323.277 30.9246 323.024 30.5134L314.278 16.9437V30.5134C314.278 30.9246 314.13 31.2778 313.835 31.573C313.55 31.8577 313.202 32 312.791 32H310.007C309.596 32 309.243 31.8577 308.948 31.573C308.653 31.2778 308.505 30.9246 308.505 30.5134ZM337.887 12.3098V10.8232C337.887 10.3909 338.029 10.0324 338.314 9.74771C338.599 9.46303 338.957 9.32069 339.389 9.32069H359.459C359.891 9.32069 360.25 9.46303 360.535 9.74771C360.819 10.0324 360.962 10.3909 360.962 10.8232V12.3098C360.962 12.7421 360.819 13.1006 360.535 13.3853C360.25 13.6594 359.891 13.7965 359.459 13.7965H352.405V30.545C352.405 30.9562 352.258 31.3041 351.963 31.5888C351.678 31.8629 351.33 32 350.919 32H347.93C347.518 32 347.165 31.8629 346.87 31.5888C346.585 31.3041 346.443 30.9562 346.443 30.545V13.7965H339.389C338.957 13.7965 338.599 13.6594 338.314 13.3853C338.029 13.1006 337.887 12.7421 337.887 12.3098ZM365.181 26.1957C365.181 25.5737 365.366 25.1308 365.735 24.8672C366.104 24.5931 366.462 24.456 366.81 24.456H368.692C369.641 24.456 370.363 24.9727 370.859 26.006C371.354 27.0392 372.467 27.5559 374.196 27.5559L379.731 27.6666C381.587 27.6666 382.515 27.0603 382.515 25.8478C382.515 24.9305 381.381 24.2083 379.114 23.6811C378.102 23.4386 376.985 23.2014 375.762 22.9694C374.539 22.7269 373.321 22.4264 372.108 22.0679C370.906 21.7094 369.799 21.2877 368.787 20.8027C367.775 20.3177 366.952 19.6534 366.32 18.8099C365.698 17.9559 365.387 16.9543 365.387 15.805C365.387 13.6857 366.141 12.0568 367.648 10.9181C369.156 9.7688 371.75 9.19417 375.429 9.19417L379.447 9.28906C381.608 9.28906 383.553 9.84787 385.283 10.9655C387.022 12.0726 387.892 13.4591 387.892 15.125C387.892 15.747 387.708 16.1951 387.339 16.4693C386.969 16.7434 386.616 16.8805 386.279 16.8805H384.397C383.448 16.8805 382.726 16.3638 382.23 15.3306C381.735 14.2867 380.622 13.7648 378.893 13.7648L374.133 13.6699C372.277 13.6699 371.349 14.2762 371.349 15.4887C371.349 16.153 371.934 16.6959 373.105 17.1177C374.286 17.5394 375.709 17.9137 377.375 18.2406C379.051 18.5569 380.733 18.9417 382.42 19.3951C384.107 19.8485 385.536 20.5971 386.706 21.6409C387.887 22.6742 388.477 23.9658 388.477 25.5157C388.477 27.6349 387.718 29.2692 386.2 30.4185C384.692 31.5572 382.104 32.1265 378.434 32.1265L373.642 32.0316C371.481 32.0316 369.53 31.4781 367.791 30.371C366.051 29.2534 365.181 27.8616 365.181 26.1957Z" fill="#303030"/>
<path opacity="0.5" d="M1.25684 66.1914V55.2314C1.25684 54.9912 1.33594 54.792 1.49414 54.6338C1.65234 54.4756 1.85156 54.3965 2.0918 54.3965H11.9883C12.2168 54.3965 12.4102 54.4785 12.5684 54.6426C12.7324 54.8066 12.8145 55.0029 12.8145 55.2314V56.0576C12.8145 56.2861 12.7354 56.4824 12.5771 56.6465C12.4248 56.8047 12.2344 56.8838 12.0059 56.8838H4.57031V59.0107H8.91211C10.3359 59.0107 11.4902 59.3477 12.375 60.0215C13.2598 60.6895 13.7021 61.6855 13.7021 63.0098C13.7021 64.3281 13.2598 65.3242 12.375 65.998C11.4902 66.666 10.3359 67 8.91211 67H2.04785C1.8252 67 1.6377 66.9238 1.48535 66.7715C1.33301 66.6133 1.25684 66.4199 1.25684 66.1914ZM4.57031 64.5127H8.91211C9.89648 64.5127 10.3887 64.0088 10.3887 63.001C10.3887 61.9932 9.89648 61.4893 8.91211 61.4893H4.57031V64.5127ZM17.8277 67.9141L18.9791 68.0635C19.8053 68.0635 20.3824 67.457 20.7105 66.2441C19.7145 66.2441 18.8824 65.9453 18.2145 65.3477C17.5465 64.7441 16.9723 63.6748 16.4918 62.1396L15.1822 57.8945C15.1646 57.8477 15.1559 57.7949 15.1559 57.7363C15.1559 57.6719 15.191 57.5957 15.2613 57.5078C15.3375 57.4199 15.4488 57.373 15.5953 57.3672H17.4322C17.6021 57.3672 17.7633 57.4258 17.9156 57.543C18.0738 57.6543 18.1764 57.7949 18.2232 57.9648L19.3746 61.6914C19.6617 62.6055 19.9518 63.2383 20.2447 63.5898C20.5436 63.9414 20.8951 64.1172 21.2994 64.1172L23.0484 57.9648C23.0953 57.7949 23.1861 57.6543 23.3209 57.543C23.4615 57.4258 23.6168 57.3672 23.7867 57.3672H25.6412C25.7877 57.3672 25.8961 57.4141 25.9664 57.5078C26.0367 57.6016 26.0719 57.6807 26.0719 57.7451C26.0719 57.8037 26.066 57.8535 26.0543 57.8945L23.7516 66.1035C23.3414 67.5566 22.8316 68.5938 22.2223 69.2148C21.6187 69.8359 20.8395 70.1465 19.8844 70.1465C18.9293 70.1465 18.2525 70.1113 17.8541 70.041C17.4615 69.9707 17.2154 69.8828 17.1158 69.7773C17.0162 69.6777 16.9664 69.5605 16.9664 69.4258V68.459C16.9664 68.3008 17.0162 68.1689 17.1158 68.0635C17.2154 67.9639 17.3443 67.9141 17.5025 67.9141H17.8277ZM27.3234 58.958V57.9121C27.3234 57.7539 27.3732 57.625 27.4729 57.5254C27.5783 57.4199 27.7102 57.3672 27.8684 57.3672H36.5256C36.6838 57.3672 36.8127 57.4199 36.9123 57.5254C37.0119 57.625 37.0617 57.7539 37.0617 57.9121V58.958C37.0617 59.1104 37.0119 59.2393 36.9123 59.3447C36.8127 59.4443 36.6838 59.4941 36.5256 59.4941H33.7219V66.4639C33.7219 66.6162 33.6691 66.7451 33.5637 66.8506C33.4641 66.9502 33.3352 67 33.177 67H31.217C31.0588 67 30.927 66.9502 30.8215 66.8506C30.7219 66.7451 30.6721 66.6162 30.6721 66.4639V59.4941H27.8684C27.7102 59.4941 27.5783 59.4443 27.4729 59.3447C27.3732 59.2393 27.3234 59.1104 27.3234 58.958ZM39.2361 66.4639V57.9121C39.2361 57.7539 39.2859 57.625 39.3855 57.5254C39.491 57.4199 39.6199 57.3672 39.7723 57.3672H41.6092C41.7674 57.3672 41.8963 57.4199 41.9959 57.5254C42.1014 57.625 42.1541 57.7539 42.1541 57.9121V63.6865L45.2479 58C45.3416 57.8184 45.4852 57.6689 45.6785 57.5518C45.8719 57.4287 46.0594 57.3672 46.241 57.3672H48.702C48.8602 57.3672 48.9891 57.4199 49.0887 57.5254C49.1941 57.625 49.2469 57.7539 49.2469 57.9121V66.4639C49.2469 66.6221 49.1941 66.751 49.0887 66.8506C48.9891 66.9502 48.8602 67 48.702 67H46.865C46.7068 67 46.5779 66.9502 46.4783 66.8506C46.3787 66.7451 46.3289 66.6162 46.3289 66.4639V60.6982L43.2352 66.3672C43.1414 66.5371 42.9979 66.6865 42.8045 66.8154C42.6111 66.9385 42.4236 67 42.242 67H39.7723C39.6141 67 39.4852 66.9502 39.3855 66.8506C39.2859 66.751 39.2361 66.6221 39.2361 66.4639ZM62.0121 66.6133C62.0121 66.8711 61.8598 67 61.5551 67H59.8939C59.3314 67 58.8832 66.7246 58.5492 66.1738L57.433 64.3545C56.9525 63.5752 56.2553 63.1855 55.3412 63.1855V66.4639C55.3412 66.6221 55.2885 66.751 55.183 66.8506C55.0834 66.9502 54.9574 67 54.8051 67H52.8363C52.6781 67 52.5492 66.9502 52.4496 66.8506C52.35 66.751 52.3002 66.6221 52.3002 66.4639V57.9121C52.3002 57.7539 52.35 57.625 52.4496 57.5254C52.5551 57.4199 52.684 57.3672 52.8363 57.3672H54.8051C54.9633 57.3672 55.0922 57.4199 55.1918 57.5254C55.2914 57.625 55.3412 57.7539 55.3412 57.9121V61.1816C56.3607 61.1816 57.058 60.7861 57.433 59.9951L58.2768 58.2021C58.3939 57.9502 58.5668 57.748 58.7953 57.5957C59.0238 57.4434 59.2699 57.3672 59.5336 57.3672H61.1947C61.4877 57.3672 61.6342 57.4814 61.6342 57.71C61.6342 57.8389 61.5873 58.0029 61.4936 58.2021L60.3598 60.5928C60.1664 60.9912 59.9027 61.334 59.5687 61.6211C59.2348 61.9082 58.8744 62.0928 58.4877 62.1748C59.2084 62.3916 59.8324 62.9189 60.3598 63.7568L61.8539 66.1738C61.9535 66.3438 62.0062 66.4902 62.0121 66.6133ZM63.4658 61.999V60.9531C63.4658 60.7949 63.5156 60.666 63.6152 60.5664C63.7207 60.4609 63.8496 60.4082 64.002 60.4082H70.6289C70.7871 60.4082 70.916 60.4609 71.0156 60.5664C71.1211 60.666 71.1738 60.7949 71.1738 60.9531V61.999C71.1738 62.1572 71.1211 62.2861 71.0156 62.3857C70.916 62.4854 70.7871 62.5352 70.6289 62.5352H64.002C63.8438 62.5352 63.7148 62.4854 63.6152 62.3857C63.5156 62.2861 63.4658 62.1572 63.4658 61.999ZM73.5064 66.4639V57.9121C73.5064 57.7539 73.5563 57.625 73.6559 57.5254C73.7613 57.4199 73.8902 57.3672 74.0426 57.3672H77.066C77.4117 57.3672 77.6754 57.584 77.857 58.0176L80.0016 63.2559L82.1461 58.0176C82.3277 57.584 82.5914 57.3672 82.9371 57.3672H85.9605C86.1188 57.3672 86.2477 57.4199 86.3473 57.5254C86.4527 57.625 86.5055 57.7539 86.5055 57.9121V66.4639C86.5055 66.6221 86.4527 66.751 86.3473 66.8506C86.2477 66.9502 86.1188 67 85.9605 67H84.0533C83.8951 67 83.7662 66.9502 83.6666 66.8506C83.567 66.7451 83.5172 66.6162 83.5172 66.4639V60.9707L81.2672 66.3848C81.0855 66.7949 80.8072 67 80.4322 67H79.5709C79.2018 67 78.9264 66.7949 78.7447 66.3848L76.4947 60.9707V66.4639C76.4947 66.6221 76.442 66.751 76.3365 66.8506C76.2369 66.9502 76.108 67 75.9498 67H74.0426C73.8844 67 73.7555 66.9502 73.6559 66.8506C73.5563 66.751 73.5064 66.6221 73.5064 66.4639ZM90.174 66.3672C89.4006 65.8281 89.0139 65.0664 89.0139 64.082C89.0139 63.0977 89.4006 62.3418 90.174 61.8145C90.9533 61.2871 91.9553 61.0234 93.1799 61.0234H96.0891C96.0891 60.3379 95.9455 59.8604 95.6584 59.5908C95.3713 59.3213 94.8674 59.1865 94.1467 59.1865C93.4318 59.1865 92.9279 59.3652 92.635 59.7227C92.3479 60.0742 91.9934 60.25 91.5715 60.25H90.2619C90.1037 60.25 89.9719 60.2002 89.8664 60.1006C89.7668 59.9951 89.717 59.8662 89.717 59.7139C89.717 58.0322 91.3137 57.1914 94.507 57.1914C95.9016 57.1914 97.0207 57.5049 97.8645 58.1318C98.7082 58.7529 99.1301 59.7168 99.1301 61.0234V66.4639C99.1301 66.6221 99.0803 66.751 98.9807 66.8506C98.8811 66.9502 98.7522 67 98.5939 67H96.8977C96.7395 67 96.6105 66.9502 96.5109 66.8506C96.4113 66.7451 96.3615 66.6162 96.3615 66.4639V66.1914C95.4357 66.8535 94.3664 67.1816 93.1535 67.1758C91.9465 67.1758 90.9533 66.9062 90.174 66.3672ZM93.3908 63.0186C92.9807 63.0186 92.6555 63.1182 92.4152 63.3174C92.1809 63.5166 92.0637 63.7744 92.0637 64.0908C92.0637 64.4072 92.1867 64.668 92.4328 64.873C92.6789 65.0781 93.0275 65.1807 93.4787 65.1807C94.3811 65.1807 95.2512 64.917 96.0891 64.3896V63.0186H93.3908ZM106.859 67.1758C105.219 67.1758 103.941 66.7539 103.027 65.9102C102.113 65.0664 101.656 63.8271 101.656 62.1924C101.656 60.5518 102.11 59.3096 103.018 58.4658C103.927 57.6162 105.189 57.1914 106.806 57.1914C108.429 57.1914 109.675 57.4492 110.542 57.9648C111.415 58.4805 111.851 59.2422 111.851 60.25C111.851 60.4082 111.799 60.5371 111.693 60.6367C111.594 60.7363 111.465 60.7861 111.306 60.7861H109.997C109.598 60.7861 109.262 60.5723 108.986 60.1445C108.64 59.5938 108.028 59.3184 107.149 59.3184C106.276 59.3184 105.664 59.5439 105.312 59.9951C104.967 60.4404 104.794 61.1699 104.794 62.1836C104.794 63.1973 104.972 63.9297 105.33 64.3809C105.693 64.832 106.32 65.0576 107.211 65.0576C108.107 65.0576 108.728 64.7822 109.074 64.2314C109.349 63.7979 109.686 63.5811 110.085 63.5811H111.394C111.553 63.5811 111.681 63.6338 111.781 63.7393C111.887 63.8389 111.939 63.9648 111.939 64.1172C111.939 65.125 111.503 65.8867 110.63 66.4023C109.762 66.918 108.506 67.1758 106.859 67.1758ZM113.375 58.958V57.9121C113.375 57.7539 113.425 57.625 113.525 57.5254C113.63 57.4199 113.762 57.3672 113.92 57.3672H122.578C122.736 57.3672 122.865 57.4199 122.964 57.5254C123.064 57.625 123.114 57.7539 123.114 57.9121V58.958C123.114 59.1104 123.064 59.2393 122.964 59.3447C122.865 59.4443 122.736 59.4941 122.578 59.4941H119.774V66.4639C119.774 66.6162 119.721 66.7451 119.616 66.8506C119.516 66.9502 119.387 67 119.229 67H117.269C117.111 67 116.979 66.9502 116.873 66.8506C116.774 66.7451 116.724 66.6162 116.724 66.4639V59.4941H113.92C113.762 59.4941 113.63 59.4443 113.525 59.3447C113.425 59.2393 113.375 59.1104 113.375 58.958ZM126.009 65.8926C125.106 65.0371 124.655 63.8066 124.655 62.2012C124.655 60.5898 125.109 59.3535 126.018 58.4922C126.926 57.625 128.186 57.1914 129.797 57.1914C131.408 57.1914 132.665 57.6133 133.567 58.457C134.47 59.2949 134.921 60.499 134.921 62.0693V62.5703C134.921 62.7285 134.868 62.8604 134.763 62.9658C134.663 63.0654 134.534 63.1152 134.376 63.1152H127.758C127.816 63.8359 128.021 64.3604 128.373 64.6885C128.73 65.0166 129.299 65.1807 130.078 65.1807C130.857 65.1807 131.391 65.0049 131.678 64.6533C131.965 64.3018 132.319 64.123 132.741 64.1172H134.051C134.209 64.1172 134.338 64.1699 134.438 64.2754C134.543 64.375 134.596 64.5039 134.596 64.6621C134.596 66.3438 132.993 67.1816 129.788 67.1758C128.171 67.1758 126.911 66.748 126.009 65.8926ZM127.74 61.2607H131.827C131.769 59.8779 131.089 59.1865 129.788 59.1865C128.493 59.1865 127.811 59.8779 127.74 61.2607ZM137.438 69.4258V57.9121C137.438 57.7539 137.488 57.625 137.587 57.5254C137.693 57.4199 137.822 57.3672 137.974 57.3672H139.671C139.823 57.3672 139.949 57.4199 140.048 57.5254C140.154 57.625 140.207 57.7539 140.207 57.9121V58.1758C141.132 57.5195 142.208 57.1914 143.432 57.1914C144.657 57.1914 145.679 57.625 146.5 58.4922C147.32 59.3535 147.73 60.5898 147.73 62.2012C147.73 63.8066 147.305 65.0371 146.456 65.8926C145.606 66.748 144.461 67.1758 143.019 67.1758C142.275 67.1758 141.428 67.0264 140.479 66.7275V69.4258C140.479 69.584 140.426 69.7129 140.321 69.8125C140.221 69.918 140.095 69.9707 139.943 69.9707H137.974C137.822 69.9707 137.693 69.918 137.587 69.8125C137.488 69.7129 137.438 69.584 137.438 69.4258ZM140.479 64.6973C141.235 64.9375 141.871 65.0576 142.386 65.0576C143.189 65.0576 143.757 64.8291 144.091 64.3721C144.431 63.915 144.601 63.1855 144.601 62.1836C144.601 61.1816 144.44 60.4551 144.118 60.0039C143.801 59.5469 143.324 59.3184 142.685 59.3184C142.052 59.3184 141.317 59.582 140.479 60.1094V64.6973ZM154.914 67.1758C153.274 67.1758 151.996 66.7539 151.082 65.9102C150.168 65.0664 149.711 63.8271 149.711 62.1924C149.711 60.5518 150.165 59.3096 151.073 58.4658C151.982 57.6162 153.244 57.1914 154.862 57.1914C156.485 57.1914 157.73 57.4492 158.597 57.9648C159.47 58.4805 159.906 59.2422 159.906 60.25C159.906 60.4082 159.854 60.5371 159.748 60.6367C159.649 60.7363 159.52 60.7861 159.362 60.7861H158.052C157.654 60.7861 157.317 60.5723 157.041 60.1445C156.696 59.5938 156.083 59.3184 155.204 59.3184C154.331 59.3184 153.719 59.5439 153.367 59.9951C153.022 60.4404 152.849 61.1699 152.849 62.1836C152.849 63.1973 153.028 63.9297 153.385 64.3809C153.748 64.832 154.375 65.0576 155.266 65.0576C156.162 65.0576 156.783 64.7822 157.129 64.2314C157.404 63.7979 157.741 63.5811 158.14 63.5811H159.449C159.608 63.5811 159.737 63.6338 159.836 63.7393C159.942 63.8389 159.994 63.9648 159.994 64.1172C159.994 65.125 159.558 65.8867 158.685 66.4023C157.818 66.918 156.561 67.1758 154.914 67.1758ZM172.048 66.6133C172.048 66.8711 171.895 67 171.591 67H169.929C169.367 67 168.919 66.7246 168.585 66.1738L167.469 64.3545C166.988 63.5752 166.291 63.1855 165.377 63.1855V66.4639C165.377 66.6221 165.324 66.751 165.219 66.8506C165.119 66.9502 164.993 67 164.841 67H162.872C162.714 67 162.585 66.9502 162.485 66.8506C162.386 66.751 162.336 66.6221 162.336 66.4639V57.9121C162.336 57.7539 162.386 57.625 162.485 57.5254C162.591 57.4199 162.72 57.3672 162.872 57.3672H164.841C164.999 57.3672 165.128 57.4199 165.227 57.5254C165.327 57.625 165.377 57.7539 165.377 57.9121V61.1816C166.396 61.1816 167.094 60.7861 167.469 59.9951L168.312 58.2021C168.429 57.9502 168.602 57.748 168.831 57.5957C169.059 57.4434 169.305 57.3672 169.569 57.3672H171.23C171.523 57.3672 171.67 57.4814 171.67 57.71C171.67 57.8389 171.623 58.0029 171.529 58.2021L170.395 60.5928C170.202 60.9912 169.938 61.334 169.604 61.6211C169.27 61.9082 168.91 62.0928 168.523 62.1748C169.244 62.3916 169.868 62.9189 170.395 63.7568L171.889 66.1738C171.989 66.3438 172.042 66.4902 172.048 66.6133ZM174.749 66.3672C173.976 65.8281 173.589 65.0664 173.589 64.082C173.589 63.0977 173.976 62.3418 174.749 61.8145C175.529 61.2871 176.531 61.0234 177.755 61.0234H180.664C180.664 60.3379 180.521 59.8604 180.234 59.5908C179.947 59.3213 179.443 59.1865 178.722 59.1865C178.007 59.1865 177.503 59.3652 177.21 59.7227C176.923 60.0742 176.569 60.25 176.147 60.25H174.837C174.679 60.25 174.547 60.2002 174.442 60.1006C174.342 59.9951 174.292 59.8662 174.292 59.7139C174.292 58.0322 175.889 57.1914 179.082 57.1914C180.477 57.1914 181.596 57.5049 182.44 58.1318C183.284 58.7529 183.705 59.7168 183.705 61.0234V66.4639C183.705 66.6221 183.656 66.751 183.556 66.8506C183.456 66.9502 183.328 67 183.169 67H181.473C181.315 67 181.186 66.9502 181.086 66.8506C180.987 66.7451 180.937 66.6162 180.937 66.4639V66.1914C180.011 66.8535 178.942 67.1816 177.729 67.1758C176.522 67.1758 175.529 66.9062 174.749 66.3672ZM177.966 63.0186C177.556 63.0186 177.231 63.1182 176.991 63.3174C176.756 63.5166 176.639 63.7744 176.639 64.0908C176.639 64.4072 176.762 64.668 177.008 64.873C177.254 65.0781 177.603 65.1807 178.054 65.1807C178.956 65.1807 179.827 64.917 180.664 64.3896V63.0186H177.966ZM186.346 60.4697C186.346 58.4072 187.652 57.373 190.266 57.3672H195.451C195.609 57.3672 195.738 57.4199 195.838 57.5254C195.938 57.625 195.987 57.7539 195.987 57.9121V66.4639C195.987 66.6221 195.938 66.751 195.838 66.8506C195.738 66.9502 195.609 67 195.451 67H193.491C193.333 67 193.201 66.9502 193.096 66.8506C192.996 66.7451 192.946 66.6162 192.946 66.4639V63.5635H191.224L189.729 66.2266C189.442 66.7422 188.985 67 188.358 67H186.776C186.56 67 186.419 66.9209 186.354 66.7627C186.331 66.71 186.319 66.6426 186.319 66.5605C186.319 66.4727 186.363 66.3613 186.451 66.2266L188.218 63.2734C186.97 62.8105 186.346 61.876 186.346 60.4697ZM189.694 59.6699C189.489 59.8633 189.387 60.1299 189.387 60.4697C189.387 60.8037 189.486 61.0703 189.686 61.2695C189.891 61.4688 190.175 61.5684 190.538 61.5684H192.946V59.3711H190.538C190.181 59.3711 189.899 59.4707 189.694 59.6699ZM205.539 62.2803V61.8496C205.539 61.6094 205.654 61.3398 205.882 61.041L207.684 58.7383C207.883 58.4746 208.123 58.3428 208.404 58.3428H209.477C209.658 58.3428 209.767 58.4131 209.802 58.5537C209.837 58.6885 209.79 58.8584 209.661 59.0635L207.824 62.0693L209.661 65.0752C209.79 65.2803 209.837 65.4531 209.802 65.5938C209.767 65.7285 209.658 65.7959 209.477 65.7959H208.404C208.123 65.7959 207.883 65.6641 207.684 65.4004L205.882 63.0977C205.654 62.793 205.539 62.5205 205.539 62.2803ZM213.441 58.3428C213.669 58.3428 213.783 58.4453 213.783 58.6504C213.783 58.7559 213.731 58.8936 213.625 59.0635L211.788 62.0693L213.625 65.0752C213.731 65.2275 213.783 65.3447 213.783 65.4268C213.783 65.5029 213.778 65.5527 213.766 65.5762C213.731 65.7227 213.622 65.7959 213.441 65.7959H212.36C212.084 65.7959 211.844 65.6641 211.639 65.4004L209.837 63.0977C209.614 62.793 209.503 62.5205 209.503 62.2803V61.8496C209.503 61.6094 209.614 61.3398 209.837 61.041L211.639 58.7383C211.844 58.4746 212.084 58.3428 212.36 58.3428H213.441ZM229.344 66.6133C229.344 66.8711 229.191 67 228.887 67H226.874C226.645 67 226.399 66.9209 226.136 66.7627C225.872 66.5986 225.667 66.4023 225.52 66.1738L223.973 63.7217C223.604 63.124 223.232 62.6758 222.857 62.377C222.482 62.0723 222.031 61.9199 221.504 61.9199H219.614V66.1914C219.614 66.4199 219.532 66.6133 219.368 66.7715C219.21 66.9238 219.016 67 218.788 67H217.136C216.907 67 216.711 66.918 216.547 66.7539C216.383 66.584 216.301 66.3848 216.301 66.1562V55.2314C216.301 55.0029 216.383 54.8037 216.547 54.6338C216.711 54.4639 216.907 54.3789 217.136 54.3789H218.788C219.016 54.3789 219.21 54.4639 219.368 54.6338C219.532 54.8037 219.614 55.0029 219.614 55.2314V59.4414H221.504C222.019 59.4414 222.471 59.3008 222.857 59.0195C223.25 58.7383 223.622 58.2842 223.973 57.6572L225.336 55.2314C225.646 54.6689 226.068 54.3848 226.601 54.3789H228.632C228.913 54.3789 229.054 54.502 229.054 54.748C229.054 54.8828 229.004 55.0439 228.904 55.2314L226.997 58.6855C226.721 59.1895 226.411 59.6055 226.065 59.9336C225.725 60.2617 225.28 60.4932 224.729 60.6279C225.116 60.71 225.512 60.9531 225.916 61.3574C226.326 61.7617 226.686 62.2012 226.997 62.6758L229.194 66.1738C229.294 66.3438 229.344 66.4902 229.344 66.6133ZM231.333 66.4639V57.9121C231.333 57.7539 231.383 57.625 231.483 57.5254C231.588 57.4199 231.717 57.3672 231.87 57.3672H233.706C233.865 57.3672 233.994 57.4199 234.093 57.5254C234.199 57.625 234.251 57.7539 234.251 57.9121V63.6865L237.345 58C237.439 57.8184 237.582 57.6689 237.776 57.5518C237.969 57.4287 238.157 57.3672 238.338 57.3672H240.799C240.957 57.3672 241.086 57.4199 241.186 57.5254C241.291 57.625 241.344 57.7539 241.344 57.9121V66.4639C241.344 66.6221 241.291 66.751 241.186 66.8506C241.086 66.9502 240.957 67 240.799 67H238.962C238.804 67 238.675 66.9502 238.576 66.8506C238.476 66.7451 238.426 66.6162 238.426 66.4639V60.6982L235.332 66.3672C235.239 66.5371 235.095 66.6865 234.902 66.8154C234.708 66.9385 234.521 67 234.339 67H231.87C231.711 67 231.582 66.9502 231.483 66.8506C231.383 66.751 231.333 66.6221 231.333 66.4639ZM249.056 67.1758C247.415 67.1758 246.138 66.7539 245.224 65.9102C244.31 65.0664 243.853 63.8271 243.853 62.1924C243.853 60.5518 244.307 59.3096 245.215 58.4658C246.123 57.6162 247.386 57.1914 249.003 57.1914C250.626 57.1914 251.871 57.4492 252.738 57.9648C253.611 58.4805 254.048 59.2422 254.048 60.25C254.048 60.4082 253.995 60.5371 253.89 60.6367C253.79 60.7363 253.661 60.7861 253.503 60.7861H252.193C251.795 60.7861 251.458 60.5723 251.183 60.1445C250.837 59.5938 250.225 59.3184 249.346 59.3184C248.473 59.3184 247.86 59.5439 247.509 59.9951C247.163 60.4404 246.99 61.1699 246.99 62.1836C246.99 63.1973 247.169 63.9297 247.526 64.3809C247.89 64.832 248.517 65.0576 249.407 65.0576C250.304 65.0576 250.925 64.7822 251.271 64.2314C251.546 63.7979 251.883 63.5811 252.281 63.5811H253.591C253.749 63.5811 253.878 63.6338 253.978 63.7393C254.083 63.8389 254.136 63.9648 254.136 64.1172C254.136 65.125 253.699 65.8867 252.826 66.4023C251.959 66.918 250.702 67.1758 249.056 67.1758ZM255.572 58.958V57.9121C255.572 57.7539 255.622 57.625 255.721 57.5254C255.827 57.4199 255.959 57.3672 256.117 57.3672H264.774C264.932 57.3672 265.061 57.4199 265.161 57.5254C265.26 57.625 265.31 57.7539 265.31 57.9121V58.958C265.31 59.1104 265.26 59.2393 265.161 59.3447C265.061 59.4443 264.932 59.4941 264.774 59.4941H261.97V66.4639C261.97 66.6162 261.918 66.7451 261.812 66.8506C261.712 66.9502 261.584 67 261.425 67H259.465C259.307 67 259.175 66.9502 259.07 66.8506C258.97 66.7451 258.921 66.6162 258.921 66.4639V59.4941H256.117C255.959 59.4941 255.827 59.4443 255.721 59.3447C255.622 59.2393 255.572 59.1104 255.572 58.958ZM267.485 66.4639V57.9121C267.485 57.7539 267.534 57.625 267.634 57.5254C267.739 57.4199 267.868 57.3672 268.021 57.3672H269.858C270.016 57.3672 270.145 57.4199 270.244 57.5254C270.35 57.625 270.403 57.7539 270.403 57.9121V63.6865L273.496 58C273.59 57.8184 273.734 57.6689 273.927 57.5518C274.12 57.4287 274.308 57.3672 274.489 57.3672H276.95C277.109 57.3672 277.237 57.4199 277.337 57.5254C277.443 57.625 277.495 57.7539 277.495 57.9121V66.4639C277.495 66.6221 277.443 66.751 277.337 66.8506C277.237 66.9502 277.109 67 276.95 67H275.113C274.955 67 274.826 66.9502 274.727 66.8506C274.627 66.7451 274.577 66.6162 274.577 66.4639V60.6982L271.484 66.3672C271.39 66.5371 271.246 66.6865 271.053 66.8154C270.86 66.9385 270.672 67 270.49 67H268.021C267.862 67 267.734 66.9502 267.634 66.8506C267.534 66.751 267.485 66.6221 267.485 66.4639ZM297.471 66.6133C297.471 66.8711 297.319 67 297.014 67H295.353C294.79 67 294.342 66.7246 294.008 66.1738L292.892 64.3545C292.412 63.5752 291.714 63.1855 290.8 63.1855V66.4639C290.8 66.6221 290.747 66.751 290.642 66.8506C290.542 66.9502 290.416 67 290.264 67H288.295C288.137 67 288.008 66.9502 287.909 66.8506C287.809 66.751 287.759 66.6221 287.759 66.4639V57.9121C287.759 57.7539 287.809 57.625 287.909 57.5254C288.014 57.4199 288.143 57.3672 288.295 57.3672H290.264C290.422 57.3672 290.551 57.4199 290.651 57.5254C290.75 57.625 290.8 57.7539 290.8 57.9121V61.1816C291.82 61.1816 292.517 60.7861 292.892 59.9951L293.736 58.2021C293.853 57.9502 294.026 57.748 294.254 57.5957C294.483 57.4434 294.729 57.3672 294.993 57.3672H296.654C296.947 57.3672 297.093 57.4814 297.093 57.71C297.093 57.8389 297.046 58.0029 296.953 58.2021L295.819 60.5928C295.625 60.9912 295.362 61.334 295.028 61.6211C294.694 61.9082 294.333 62.0928 293.947 62.1748C294.667 62.3916 295.291 62.9189 295.819 63.7568L297.313 66.1738C297.413 66.3438 297.465 66.4902 297.471 66.6133ZM299.646 69.4258V57.9121C299.646 57.7539 299.695 57.625 299.795 57.5254C299.9 57.4199 300.029 57.3672 300.182 57.3672H301.878C302.03 57.3672 302.156 57.4199 302.256 57.5254C302.361 57.625 302.414 57.7539 302.414 57.9121V58.1758C303.34 57.5195 304.415 57.1914 305.64 57.1914C306.864 57.1914 307.887 57.625 308.707 58.4922C309.527 59.3535 309.938 60.5898 309.938 62.2012C309.938 63.8066 309.513 65.0371 308.663 65.8926C307.813 66.748 306.668 67.1758 305.227 67.1758C304.482 67.1758 303.636 67.0264 302.687 66.7275V69.4258C302.687 69.584 302.634 69.7129 302.528 69.8125C302.429 69.918 302.303 69.9707 302.15 69.9707H300.182C300.029 69.9707 299.9 69.918 299.795 69.8125C299.695 69.7129 299.646 69.584 299.646 69.4258ZM302.687 64.6973C303.442 64.9375 304.078 65.0576 304.594 65.0576C305.396 65.0576 305.965 64.8291 306.299 64.3721C306.639 63.915 306.809 63.1855 306.809 62.1836C306.809 61.1816 306.647 60.4551 306.325 60.0039C306.009 59.5469 305.531 59.3184 304.893 59.3184C304.26 59.3184 303.524 59.582 302.687 60.1094V64.6973ZM313.079 66.3672C312.305 65.8281 311.919 65.0664 311.919 64.082C311.919 63.0977 312.305 62.3418 313.079 61.8145C313.858 61.2871 314.86 61.0234 316.085 61.0234H318.994C318.994 60.3379 318.85 59.8604 318.563 59.5908C318.276 59.3213 317.772 59.1865 317.051 59.1865C316.337 59.1865 315.833 59.3652 315.54 59.7227C315.253 60.0742 314.898 60.25 314.476 60.25H313.167C313.008 60.25 312.877 60.2002 312.771 60.1006C312.671 59.9951 312.622 59.8662 312.622 59.7139C312.622 58.0322 314.218 57.1914 317.412 57.1914C318.806 57.1914 319.925 57.5049 320.769 58.1318C321.613 58.7529 322.035 59.7168 322.035 61.0234V66.4639C322.035 66.6221 321.985 66.751 321.885 66.8506C321.786 66.9502 321.657 67 321.499 67H319.802C319.644 67 319.515 66.9502 319.416 66.8506C319.316 66.7451 319.266 66.6162 319.266 66.4639V66.1914C318.34 66.8535 317.271 67.1816 316.058 67.1758C314.851 67.1758 313.858 66.9062 313.079 66.3672ZM316.296 63.0186C315.885 63.0186 315.56 63.1182 315.32 63.3174C315.086 63.5166 314.968 63.7744 314.968 64.0908C314.968 64.4072 315.091 64.668 315.337 64.873C315.584 65.0781 315.932 65.1807 316.383 65.1807C317.286 65.1807 318.156 64.917 318.994 64.3896V63.0186H316.296ZM329.764 67.1758C328.123 67.1758 326.846 66.7539 325.932 65.9102C325.018 65.0664 324.561 63.8271 324.561 62.1924C324.561 60.5518 325.015 59.3096 325.923 58.4658C326.831 57.6162 328.094 57.1914 329.711 57.1914C331.334 57.1914 332.579 57.4492 333.446 57.9648C334.32 58.4805 334.756 59.2422 334.756 60.25C334.756 60.4082 334.703 60.5371 334.598 60.6367C334.498 60.7363 334.369 60.7861 334.211 60.7861H332.902C332.503 60.7861 332.166 60.5723 331.891 60.1445C331.545 59.5938 330.933 59.3184 330.054 59.3184C329.181 59.3184 328.569 59.5439 328.217 59.9951C327.871 60.4404 327.698 61.1699 327.698 62.1836C327.698 63.1973 327.877 63.9297 328.235 64.3809C328.598 64.832 329.225 65.0576 330.115 65.0576C331.012 65.0576 331.633 64.7822 331.979 64.2314C332.254 63.7979 332.591 63.5811 332.989 63.5811H334.299C334.457 63.5811 334.586 63.6338 334.686 63.7393C334.791 63.8389 334.844 63.9648 334.844 64.1172C334.844 65.125 334.407 65.8867 333.534 66.4023C332.667 66.918 331.41 67.1758 329.764 67.1758ZM346.897 66.6133C346.897 66.8711 346.745 67 346.44 67H344.779C344.217 67 343.768 66.7246 343.434 66.1738L342.318 64.3545C341.838 63.5752 341.14 63.1855 340.226 63.1855V66.4639C340.226 66.6221 340.174 66.751 340.068 66.8506C339.969 66.9502 339.843 67 339.69 67H337.721C337.563 67 337.434 66.9502 337.335 66.8506C337.235 66.751 337.185 66.6221 337.185 66.4639V57.9121C337.185 57.7539 337.235 57.625 337.335 57.5254C337.44 57.4199 337.569 57.3672 337.721 57.3672H339.69C339.848 57.3672 339.977 57.4199 340.077 57.5254C340.177 57.625 340.226 57.7539 340.226 57.9121V61.1816C341.246 61.1816 341.943 60.7861 342.318 59.9951L343.162 58.2021C343.279 57.9502 343.452 57.748 343.68 57.5957C343.909 57.4434 344.155 57.3672 344.419 57.3672H346.08C346.373 57.3672 346.519 57.4814 346.519 57.71C346.519 57.8389 346.472 58.0029 346.379 58.2021L345.245 60.5928C345.052 60.9912 344.788 61.334 344.454 61.6211C344.12 61.9082 343.76 62.0928 343.373 62.1748C344.094 62.3916 344.718 62.9189 345.245 63.7568L346.739 66.1738C346.839 66.3438 346.891 66.4902 346.897 66.6133ZM349.072 66.4639V57.9121C349.072 57.7539 349.121 57.625 349.221 57.5254C349.327 57.4199 349.455 57.3672 349.608 57.3672H351.445C351.603 57.3672 351.732 57.4199 351.831 57.5254C351.937 57.625 351.99 57.7539 351.99 57.9121V63.6865L355.083 58C355.177 57.8184 355.321 57.6689 355.514 57.5518C355.707 57.4287 355.895 57.3672 356.077 57.3672H358.538C358.696 57.3672 358.825 57.4199 358.924 57.5254C359.03 57.625 359.082 57.7539 359.082 57.9121V66.4639C359.082 66.6221 359.03 66.751 358.924 66.8506C358.825 66.9502 358.696 67 358.538 67H356.701C356.542 67 356.413 66.9502 356.314 66.8506C356.214 66.7451 356.164 66.6162 356.164 66.4639V60.6982L353.071 66.3672C352.977 66.5371 352.833 66.6865 352.64 66.8154C352.447 66.9385 352.259 67 352.078 67H349.608C349.45 67 349.321 66.9502 349.221 66.8506C349.121 66.751 349.072 66.6221 349.072 66.4639ZM361.433 65.5762C361.433 65.5527 361.433 65.5059 361.433 65.4355C361.433 65.3652 361.479 65.2451 361.573 65.0752L363.41 62.0693L361.573 59.0635C361.468 58.9053 361.418 58.7881 361.424 58.7119C361.43 58.6357 361.433 58.5771 361.433 58.5361C361.468 58.4072 361.576 58.3428 361.758 58.3428H362.839C363.114 58.3428 363.354 58.4746 363.56 58.7383L365.353 61.041C365.581 61.3398 365.695 61.6094 365.695 61.8496V62.2803C365.695 62.5205 365.581 62.793 365.353 63.0977L363.56 65.4004C363.354 65.6641 363.114 65.7959 362.839 65.7959H361.758C361.576 65.7959 361.468 65.7227 361.433 65.5762ZM365.379 58.6504C365.379 58.4453 365.49 58.3428 365.713 58.3428H366.794C367.069 58.3428 367.31 58.4746 367.515 58.7383L369.316 61.041C369.545 61.3398 369.659 61.6094 369.659 61.8496V62.2803C369.659 62.5205 369.545 62.793 369.316 63.0977L367.515 65.4004C367.31 65.6641 367.069 65.7959 366.794 65.7959H365.713C365.537 65.7959 365.432 65.7227 365.396 65.5762C365.396 65.5527 365.394 65.5059 365.388 65.4355C365.382 65.3652 365.432 65.2451 365.537 65.0752L367.374 62.0693L365.537 59.0635C365.432 58.9053 365.379 58.7676 365.379 58.6504Z" fill="#303030"/>
</svg>
