<svg width="866" height="92" viewBox="0 0 866 92" fill="none" xmlns="http://www.w3.org/2000/svg">
<path d="M5.02734 24.9258C5.02734 24.0117 5.35547 23.2266 6.01172 22.5703C6.66797 21.9141 7.45312 21.5859 8.36719 21.5859H36.9492C43.957 21.5859 49.125 23.6016 52.4531 27.6328C54.3047 29.8594 55.2305 32.707 55.2305 36.1758C55.2305 39.6211 53.6484 42.6328 50.4844 45.2109C54.9844 47.625 57.2344 51.375 57.2344 56.4609C57.2344 61.5469 55.4297 65.4141 51.8203 68.0625C48.2344 70.6875 43.8281 72 38.6016 72H8.36719C7.45312 72 6.66797 71.6836 6.01172 71.0508C5.35547 70.3945 5.02734 69.6094 5.02734 68.6953V24.9258ZM18.2812 62.5078H38.3906C40.1953 62.5078 41.5781 61.9688 42.5391 60.8906C43.5 59.8125 43.9805 58.3359 43.9805 56.4609C43.9805 54.5859 43.5 53.1094 42.5391 52.0312C41.5781 50.9531 40.1953 50.4141 38.3906 50.4141H18.2812V62.5078ZM18.2812 41.168H37.0898C38.5664 41.168 39.75 40.7344 40.6406 39.8672C41.5312 38.9766 41.9766 37.7461 41.9766 36.1758C41.9766 34.582 41.5312 33.3398 40.6406 32.4492C39.75 31.5586 38.5664 31.1133 37.0898 31.1133H18.2812V41.168ZM123.989 70.4883C123.989 71.4961 123.391 72 122.196 72H113.759C112.868 72 111.884 71.6836 110.805 71.0508C109.751 70.3945 108.942 69.6094 108.38 68.6953L102.403 59.3438C99.9422 55.5 96.9656 53.5781 93.4734 53.5781H84.8953V68.6953C84.8953 69.6094 84.5672 70.3945 83.9109 71.0508C83.2781 71.6836 82.5047 72 81.5906 72H74.9812C74.0672 72 73.282 71.6836 72.6258 71.0508C71.9695 70.3945 71.6414 69.6094 71.6414 68.6953V24.9258C71.6414 24.0117 71.9578 23.2266 72.5906 22.5703C73.2234 21.9141 73.9969 21.5859 74.9109 21.5859H103.915C109.282 21.5859 113.677 23.0273 117.098 25.9102C120.544 28.793 122.266 32.6836 122.266 37.582C122.266 44.4023 117.848 48.6797 109.012 50.4141C110.419 50.9297 111.72 51.8203 112.915 53.0859C114.11 54.3281 115.481 56.1445 117.028 58.5352L123.427 68.6953C123.802 69.3516 123.989 69.9492 123.989 70.4883ZM84.8953 43.6289H99.8719C102.286 43.6289 104.407 43.1484 106.235 42.1875C108.087 41.2266 109.012 39.6914 109.012 37.582C109.012 35.4727 108.087 33.9375 106.235 32.9766C104.407 32.0156 102.286 31.5352 99.8719 31.5352H84.8953V43.6289ZM136.357 52.0664V24.9258C136.357 24.0117 136.673 23.2266 137.306 22.5703C137.962 21.9141 138.771 21.5859 139.732 21.5859H146.306C147.197 21.5859 147.97 21.9141 148.627 22.5703C149.283 23.2266 149.611 24.0117 149.611 24.9258V52.1367C149.611 55.582 150.361 58.1484 151.861 59.8359C153.384 61.5234 155.728 62.3672 158.892 62.3672H164.517C167.681 62.3672 170.013 61.5234 171.513 59.8359C173.037 58.1484 173.798 55.582 173.798 52.1367V24.9258C173.798 24.0117 174.115 23.2266 174.748 22.5703C175.404 21.9141 176.189 21.5859 177.103 21.5859H183.642C184.603 21.5859 185.412 21.9141 186.068 22.5703C186.724 23.2266 187.052 24.0117 187.052 24.9258V52.0664C187.052 58.4883 185.166 63.4688 181.392 67.0078C177.619 70.5234 172.111 72.2812 164.869 72.2812H158.541C151.275 72.2812 145.755 70.5234 141.982 67.0078C138.232 63.4688 136.357 58.4883 136.357 52.0664ZM200.721 59.0977C200.721 57.7148 201.131 56.7305 201.952 56.1445C202.772 55.5352 203.569 55.2305 204.342 55.2305H208.526C210.635 55.2305 212.241 56.3789 213.342 58.6758C214.444 60.9727 216.916 62.1211 220.76 62.1211L233.065 62.3672C237.19 62.3672 239.252 61.0195 239.252 58.3242C239.252 56.2852 236.733 54.6797 231.694 53.5078C229.444 52.9688 226.959 52.4414 224.241 51.9258C221.522 51.3867 218.815 50.7188 216.12 49.9219C213.448 49.125 210.987 48.1875 208.737 47.1094C206.487 46.0312 204.659 44.5547 203.252 42.6797C201.87 40.7812 201.178 38.5547 201.178 36C201.178 31.2891 202.854 27.668 206.205 25.1367C209.557 22.582 215.323 21.3047 223.502 21.3047L232.432 21.5156C237.237 21.5156 241.561 22.7578 245.405 25.2422C249.272 27.7031 251.205 30.7852 251.205 34.4883C251.205 35.8711 250.795 36.8672 249.975 37.4766C249.155 38.0859 248.37 38.3906 247.62 38.3906H243.436C241.327 38.3906 239.721 37.2422 238.62 34.9453C237.518 32.625 235.045 31.4648 231.202 31.4648L220.62 31.2539C216.495 31.2539 214.432 32.6016 214.432 35.2969C214.432 36.7734 215.733 37.9805 218.334 38.918C220.959 39.8555 224.123 40.6875 227.827 41.4141C231.553 42.1172 235.291 42.9727 239.041 43.9805C242.791 44.9883 245.967 46.6523 248.569 48.9727C251.194 51.2695 252.506 54.1406 252.506 57.5859C252.506 62.2969 250.819 65.9297 247.444 68.4844C244.092 71.0156 238.338 72.2812 230.182 72.2812L219.53 72.0703C214.725 72.0703 210.389 70.8398 206.522 68.3789C202.655 65.8945 200.721 62.8008 200.721 59.0977ZM266.913 68.6953V24.9258C266.913 24.0117 267.241 23.2266 267.898 22.5703C268.554 21.9141 269.362 21.5859 270.323 21.5859H276.862C277.777 21.5859 278.55 21.9141 279.183 22.5703C279.839 23.2266 280.167 24.0117 280.167 24.9258V40.7461H304.355V24.9258C304.355 24.0117 304.683 23.2266 305.339 22.5703C305.995 21.9141 306.78 21.5859 307.695 21.5859H314.234C315.195 21.5859 315.991 21.9141 316.624 22.5703C317.28 23.2266 317.609 24.0117 317.609 24.9258V68.6953C317.609 69.6094 317.269 70.3945 316.589 71.0508C315.933 71.6836 315.148 72 314.234 72H307.695C306.78 72 305.995 71.6953 305.339 71.0859C304.683 70.4531 304.355 69.6797 304.355 68.7656V50.6953H280.167V68.7656C280.167 69.6797 279.839 70.4531 279.183 71.0859C278.55 71.6953 277.777 72 276.862 72H270.323C269.409 72 268.612 71.6836 267.933 71.0508C267.253 70.3945 266.913 69.6094 266.913 68.6953ZM334.934 68.625V24.8555C334.934 23.9414 335.262 23.168 335.918 22.5352C336.574 21.9023 337.359 21.5859 338.273 21.5859H378.809C379.723 21.5859 380.496 21.9141 381.129 22.5703C381.785 23.2266 382.113 24.0117 382.113 24.9258V28.2305C382.113 29.1445 381.785 29.9297 381.129 30.5859C380.496 31.2188 379.723 31.5352 378.809 31.5352H348.188V41.7656H374.555C375.469 41.7656 376.242 42.0938 376.875 42.75C377.531 43.3828 377.859 44.1562 377.859 45.0703V48.375C377.859 49.2891 377.531 50.0742 376.875 50.7305C376.242 51.3633 375.469 51.6797 374.555 51.6797H348.188V62.0508H378.738C379.629 62.0508 380.391 62.3672 381.023 63C381.656 63.6328 381.973 64.4062 381.973 65.3203V68.6953C381.973 69.6094 381.645 70.3945 380.988 71.0508C380.332 71.6836 379.547 72 378.633 72H338.273C337.359 72 336.574 71.6836 335.918 71.0508C335.262 70.3945 334.934 69.5859 334.934 68.625ZM392.899 59.0977C392.899 57.7148 393.309 56.7305 394.13 56.1445C394.95 55.5352 395.747 55.2305 396.52 55.2305H400.704C402.813 55.2305 404.419 56.3789 405.52 58.6758C406.622 60.9727 409.095 62.1211 412.938 62.1211L425.243 62.3672C429.368 62.3672 431.43 61.0195 431.43 58.3242C431.43 56.2852 428.911 54.6797 423.872 53.5078C421.622 52.9688 419.138 52.4414 416.419 51.9258C413.7 51.3867 410.993 50.7188 408.298 49.9219C405.626 49.125 403.165 48.1875 400.915 47.1094C398.665 46.0312 396.837 44.5547 395.43 42.6797C394.048 40.7812 393.356 38.5547 393.356 36C393.356 31.2891 395.032 27.668 398.384 25.1367C401.735 22.582 407.501 21.3047 415.68 21.3047L424.61 21.5156C429.415 21.5156 433.739 22.7578 437.583 25.2422C441.45 27.7031 443.384 30.7852 443.384 34.4883C443.384 35.8711 442.973 36.8672 442.153 37.4766C441.333 38.0859 440.548 38.3906 439.798 38.3906H435.614C433.505 38.3906 431.899 37.2422 430.798 34.9453C429.696 32.625 427.223 31.4648 423.38 31.4648L412.798 31.2539C408.673 31.2539 406.61 32.6016 406.61 35.2969C406.61 36.7734 407.911 37.9805 410.513 38.918C413.138 39.8555 416.302 40.6875 420.005 41.4141C423.731 42.1172 427.47 42.9727 431.22 43.9805C434.97 44.9883 438.145 46.6523 440.747 48.9727C443.372 51.2695 444.684 54.1406 444.684 57.5859C444.684 62.2969 442.997 65.9297 439.622 68.4844C436.27 71.0156 430.516 72.2812 422.36 72.2812L411.708 72.0703C406.903 72.0703 402.567 70.8398 398.7 68.3789C394.833 65.8945 392.899 62.8008 392.899 59.0977ZM523.976 68.6953V24.9258C523.976 24.0117 524.292 23.2266 524.925 22.5703C525.558 21.9141 526.331 21.5859 527.245 21.5859H554.07C568.249 21.5859 575.339 28.125 575.339 41.2031C575.339 54.2578 568.249 60.7852 554.07 60.7852H537.23V68.6953C537.23 69.6094 536.902 70.3945 536.245 71.0508C535.612 71.6836 534.839 72 533.925 72H527.316C526.402 72 525.616 71.6836 524.96 71.0508C524.304 70.3945 523.976 69.6094 523.976 68.6953ZM537.23 50.8359H550.062C553.999 50.8359 556.987 50.1797 559.027 48.8672C561.066 47.5312 562.085 44.9766 562.085 41.2031C562.085 37.4062 561.066 34.8516 559.027 33.5391C556.987 32.2031 553.999 31.5352 550.062 31.5352H537.23V50.8359ZM583.84 68.7656L592.664 35.2969C595.055 26.1797 602.836 21.6094 616.008 21.5859H634.957C635.824 21.5859 636.539 21.9141 637.102 22.5703C637.688 23.2266 637.98 23.9883 637.98 24.8555V68.7656C637.98 69.6797 637.652 70.4531 636.996 71.0859C636.34 71.6953 635.555 72 634.641 72H628.031C627.07 72 626.273 71.6953 625.641 71.0859C625.031 70.4531 624.727 69.6562 624.727 68.6953V59.8359H599.73L597.375 68.6953C597.141 69.6562 596.613 70.4531 595.793 71.0859C594.973 71.6953 594.105 72 593.191 72H586.266C585.352 72 584.695 71.7422 584.297 71.2266C583.898 70.6875 583.699 70.2188 583.699 69.8203C583.723 69.4219 583.77 69.0703 583.84 68.7656ZM602.332 49.8867H624.727V31.5352H614.707C612.457 31.5352 610.488 32.1797 608.801 33.4688C607.137 34.7344 606.012 36.4453 605.426 38.6016L602.332 49.8867ZM655.235 68.7656V24.9258C655.235 24.0117 655.563 23.2266 656.22 22.5703C656.876 21.9141 657.661 21.5859 658.575 21.5859H665.114C666.075 21.5859 666.872 21.9141 667.505 22.5703C668.161 23.2266 668.489 24.0117 668.489 24.9258V68.6953C668.489 69.6094 668.149 70.3945 667.47 71.0508C666.813 71.6836 666.028 72 665.114 72H658.575C657.661 72 656.876 71.6953 656.22 71.0859C655.563 70.4531 655.235 69.6797 655.235 68.7656ZM685.779 68.6953V24.9258C685.779 24.0117 686.095 23.2266 686.728 22.5703C687.361 21.9141 688.134 21.5859 689.048 21.5859H699.384C700.205 21.5859 701.072 21.9141 701.986 22.5703C702.9 23.2266 703.65 24.0117 704.236 24.9258L725.47 57.5859V24.8555C725.47 23.9414 725.787 23.168 726.42 22.5352C727.076 21.9023 727.861 21.5859 728.775 21.5859H734.822C735.736 21.5859 736.509 21.9023 737.142 22.5352C737.798 23.168 738.127 23.9648 738.127 24.9258V68.6953C738.127 69.6094 737.798 70.3945 737.142 71.0508C736.509 71.6836 735.736 72 734.822 72H723.15C722.236 72 721.298 71.6836 720.338 71.0508C719.377 70.3945 718.615 69.6094 718.052 68.6953L698.611 38.5312V68.6953C698.611 69.6094 698.283 70.3945 697.627 71.0508C696.994 71.6836 696.22 72 695.306 72H689.119C688.205 72 687.42 71.6836 686.763 71.0508C686.107 70.3945 685.779 69.6094 685.779 68.6953ZM751.092 28.2305V24.9258C751.092 23.9648 751.409 23.168 752.041 22.5352C752.674 21.9023 753.471 21.5859 754.432 21.5859H799.045C800.006 21.5859 800.803 21.9023 801.436 22.5352C802.069 23.168 802.385 23.9648 802.385 24.9258V28.2305C802.385 29.1914 802.069 29.9883 801.436 30.6211C800.803 31.2305 800.006 31.5352 799.045 31.5352H783.366V68.7656C783.366 69.6797 783.037 70.4531 782.381 71.0859C781.748 71.6953 780.975 72 780.061 72H773.416C772.502 72 771.717 71.6953 771.061 71.0859C770.428 70.4531 770.112 69.6797 770.112 68.7656V31.5352H754.432C753.471 31.5352 752.674 31.2305 752.041 30.6211C751.409 29.9883 751.092 29.1914 751.092 28.2305ZM811.765 59.0977C811.765 57.7148 812.175 56.7305 812.995 56.1445C813.816 55.5352 814.612 55.2305 815.386 55.2305H819.57C821.679 55.2305 823.284 56.3789 824.386 58.6758C825.487 60.9727 827.96 62.1211 831.804 62.1211L844.109 62.3672C848.234 62.3672 850.296 61.0195 850.296 58.3242C850.296 56.2852 847.777 54.6797 842.737 53.5078C840.487 52.9688 838.003 52.4414 835.284 51.9258C832.566 51.3867 829.859 50.7188 827.163 49.9219C824.491 49.125 822.03 48.1875 819.78 47.1094C817.53 46.0312 815.702 44.5547 814.296 42.6797C812.913 40.7812 812.222 38.5547 812.222 36C812.222 31.2891 813.898 27.668 817.249 25.1367C820.601 22.582 826.366 21.3047 834.546 21.3047L843.476 21.5156C848.28 21.5156 852.605 22.7578 856.448 25.2422C860.316 27.7031 862.249 30.7852 862.249 34.4883C862.249 35.8711 861.839 36.8672 861.019 37.4766C860.198 38.0859 859.413 38.3906 858.663 38.3906H854.48C852.37 38.3906 850.765 37.2422 849.663 34.9453C848.562 32.625 846.089 31.4648 842.245 31.4648L831.663 31.2539C827.538 31.2539 825.476 32.6016 825.476 35.2969C825.476 36.7734 826.777 37.9805 829.378 38.918C832.003 39.8555 835.167 40.6875 838.87 41.4141C842.597 42.1172 846.335 42.9727 850.085 43.9805C853.835 44.9883 857.011 46.6523 859.612 48.9727C862.237 51.2695 863.55 54.1406 863.55 57.5859C863.55 62.2969 861.862 65.9297 858.487 68.4844C855.136 71.0156 849.382 72.2812 841.226 72.2812L830.573 72.0703C825.769 72.0703 821.433 70.8398 817.566 68.3789C813.698 65.8945 811.765 62.8008 811.765 59.0977Z" fill="#303030"/>
<path d="M483.236 40.1809C474.896 37.4818 466.27 44.4809 463 48.3178H474.447C481.601 48.3178 483.236 51.8901 490.39 54.6685C496.113 56.8913 501.496 47.3916 503.472 42.3639C505.38 38.8578 508.051 33.5126 503.472 40.1809C497.749 48.5162 493.661 43.5547 483.236 40.1809Z" fill="#F95050"/>
</svg>
