<svg width="210" height="64" viewBox="0 0 210 64" fill="none" xmlns="http://www.w3.org/2000/svg">
<path d="M161.199 36.4652C146.736 36.4652 139.271 41.0033 132.687 45.0069C126.903 48.5227 122.335 51.3012 112.396 51.3012C102.459 51.3012 97.8905 48.5227 92.1085 45.0069C85.5241 41.0033 78.0592 36.4652 63.5966 36.4652C49.136 36.4652 41.6711 41.0033 35.0867 45.0069C29.3046 48.5227 24.7363 51.3012 14.7993 51.3012C4.86218 51.3012 0.293884 48.5227 -5.48816 45.0069C-12.0744 41.0033 -19.5393 36.4652 -34 36.4652V48.8285C-24.0611 48.8285 -19.4946 51.6054 -13.7126 55.1212C-7.12634 59.1264 0.3367 63.6645 14.7993 63.6645C29.2599 63.6645 36.7249 59.1248 43.3092 55.1212C49.0913 51.6054 53.6596 48.8285 63.5966 48.8285C73.5356 48.8285 78.102 51.6054 83.8859 55.1212C90.4703 59.1264 97.9352 63.6645 112.396 63.6645C126.858 63.6645 134.323 59.1248 140.91 55.1212C146.692 51.6054 151.26 48.8285 161.199 48.8285C171.138 48.8285 175.704 51.6054 181.488 55.1212C188.073 59.1264 195.537 63.6645 210 63.6645V51.3012C200.061 51.3012 195.493 48.5227 189.711 45.0069C183.124 41.0033 175.66 36.4652 161.199 36.4652Z" fill="#F7F2E6"/>
<path d="M189.711 8.54322C183.124 4.53803 175.66 0 161.199 0C146.736 0 139.271 4.53803 132.687 8.54322C126.903 12.059 122.335 14.8359 112.396 14.8359C102.459 14.8359 97.8905 12.059 92.1085 8.54322C85.5241 4.53803 78.0592 0 63.5966 0C49.136 0 41.6711 4.53803 35.0867 8.54322C29.3046 12.059 24.7363 14.8359 14.7993 14.8359C4.86218 14.8359 0.293884 12.059 -5.48816 8.54322C-12.0744 4.53803 -19.5393 0 -34 0V12.3633C-24.0611 12.3633 -19.4946 15.1402 -13.7126 18.656C-7.12634 22.6612 0.3367 27.1992 14.7993 27.1992C29.2599 27.1992 36.7249 22.6612 43.3092 18.656C49.0913 15.1402 53.6596 12.3633 63.5966 12.3633C73.5356 12.3633 78.102 15.1402 83.8859 18.656C90.4703 22.6612 97.9352 27.1992 112.396 27.1992C126.858 27.1992 134.323 22.6612 140.91 18.656C146.692 15.1402 151.26 12.3633 161.199 12.3633C171.138 12.3633 175.704 15.1402 181.488 18.656C188.073 22.6612 195.537 27.1992 210 27.1992V14.8359C200.061 14.8359 195.493 12.059 189.711 8.54322Z" fill="#F7F2E6"/>
</svg>
