<svg width="44" height="9" viewBox="0 0 44 9" fill="none" xmlns="http://www.w3.org/2000/svg">
<path d="M35.1998 0C32.5918 0 31.2457 1.44468 30.0583 2.71921C29.0153 3.83846 28.1915 4.723 26.3993 4.723C24.6073 4.723 23.7835 3.83846 22.7409 2.71921C21.5535 1.44468 20.2074 0 17.5994 0C14.9917 0 13.6456 1.44468 12.4583 2.71921C11.4156 3.83846 10.5918 4.723 8.79987 4.723C7.00793 4.723 6.18414 3.83846 5.14148 2.71921C3.9538 1.44468 2.60767 0 0 0V3.93583C1.79227 3.93583 2.61572 4.81986 3.65839 5.93911C4.84607 7.21416 6.19186 8.65883 8.79987 8.65883C11.4075 8.65883 12.7537 7.21364 13.941 5.93911C14.9837 4.81986 15.8075 3.93583 17.5994 3.93583C19.3917 3.93583 20.2151 4.81986 21.2581 5.93911C22.4455 7.21416 23.7916 8.65883 26.3993 8.65883C29.0073 8.65883 30.3534 7.21364 31.5411 5.93911C32.5837 4.81986 33.4075 3.93583 35.1998 3.93583C36.9921 3.93583 37.8155 4.81986 38.8585 5.93911C40.0459 7.21416 41.392 8.65883 44 8.65883V4.723C42.2077 4.723 41.3839 3.83846 40.3413 2.71921C39.1536 1.44468 37.8075 0 35.1998 0Z" fill="#F28484"/>
</svg>
