<svg width="954" height="704" viewBox="0 0 954 704" fill="none" xmlns="http://www.w3.org/2000/svg">
<path fill-rule="evenodd" clip-rule="evenodd" d="M566.805 138.804C653.9 137.422 798.284 100.187 863.337 143.133C931.755 188.299 832.965 274.869 856.295 329.912C874.271 372.324 956.895 410.522 950.44 451.165C943.988 491.793 873.454 510.473 823.754 534.815C779.63 556.426 738.517 575.602 678.328 560.855C618.363 540.435 554.627 559.552 493.366 557.93C402.929 555.535 286.13 611.164 204.734 577.401C128.587 545.814 208.522 475.254 175.324 426.005C143.423 378.679 47.2566 340.072 46.2074 292.726C45.1642 245.65 106.918 204.681 170.255 182.445C227.962 162.185 311.247 184.189 379.884 175.579C446.447 167.229 496.373 139.921 566.805 138.804Z" fill="#F28484" fill-opacity="0.4"/>
</svg>
