<svg width="1067" height="903" viewBox="0 0 1067 903" fill="none" xmlns="http://www.w3.org/2000/svg">
<path fill-rule="evenodd" clip-rule="evenodd" d="M1000.48 400.388C1038.91 458.5 1023.13 462.483 1005.82 534.973C987.917 609.972 761.674 655.431 681.885 698.703C607.091 739.265 520.721 726.393 440.282 722.127C378.136 718.832 320.787 705.342 272.847 677.01C229.023 651.11 214.101 605.225 181.682 569.295C133.156 515.515 22.9052 488.859 36.0063 414.527C48.6073 343.032 164.156 312.275 235.419 264.405C299.366 221.449 364.875 207.04 440.282 193.698C531.402 181 725.048 193.698 824.194 220.331C883.725 248.777 967.004 349.775 1000.48 400.388Z" fill="#FACECE"/>
</svg>
