<svg width="827" height="505" viewBox="0 0 827 505" fill="none" xmlns="http://www.w3.org/2000/svg">
<path fill-rule="evenodd" clip-rule="evenodd" d="M433.134 453.739C375.796 449.119 325.406 485.202 270.776 472.964C205.721 458.392 123.002 469.957 76.4826 435.213C30.0148 400.507 41.7985 344.097 33.738 295.926C25.0544 244.032 -13.3676 186.461 27.3107 141.355C68.582 95.5918 168.428 104.929 232.742 75.2612C295.792 46.1765 339.234 39.5849 410.903 24.675C484.847 9.29188 544.932 33.1957 601.872 67.4335C659.023 101.799 744.397 47.4778 782.481 93.3084C818.148 136.23 752.475 221.121 770.008 269.73C787.777 318.996 846.814 353.955 809.531 399.081C773.235 443.013 663.858 445.378 598.716 466.754C537.75 486.76 498.585 459.012 433.134 453.739Z" fill="#FACECE"/>
</svg>
