<svg width="151" height="151" viewBox="0 0 151 151" fill="none" xmlns="http://www.w3.org/2000/svg">
<g clip-path="url(#clip0)">
<path d="M129.41 112.776C125.544 108.91 119.471 108.357 114.971 111.461C114.934 111.486 114.897 111.513 114.862 111.54L103.643 120.066C103.235 118.132 102.306 116.364 100.954 115.012C99.2935 113.352 97.0863 112.438 94.7391 112.438H77.7299C76.1648 112.438 74.6933 111.828 73.5914 110.726L58.0055 95.0673C54.6852 91.7471 50.2711 89.9187 45.576 89.9187H22.9705C22.8416 88.4199 21.5859 87.2424 20.0537 87.2424H7.81055C6.19248 87.2424 4.88086 88.5543 4.88086 90.1721V142.321C4.88086 143.938 6.19248 145.25 7.81055 145.25H20.0537C21.6718 145.25 22.9834 143.938 22.9834 142.321V139.228L45.1822 150.22C45.5865 150.42 46.0312 150.524 46.4824 150.524H99.9492C100.611 150.524 101.254 150.299 101.772 149.888L128.559 128.602C130.91 126.709 132.352 123.894 132.514 120.879C132.676 117.864 131.545 114.91 129.41 112.776ZM17.124 134.508V139.391H10.7402V93.1018H17.124V134.508ZM126.663 120.564C126.589 121.94 125.957 123.174 124.899 124.026L98.927 144.664H47.1683L22.9837 132.69V95.7781H45.5763C48.706 95.7781 51.6489 96.9971 53.8579 99.2058L69.4438 114.865C71.6572 117.078 74.6001 118.297 77.7302 118.297H94.7393C95.5219 118.297 96.2575 118.602 96.8109 119.156C97.6019 119.946 98.042 121.136 98.0185 122.42C97.9983 123.53 97.6119 124.566 97.0107 125.125C95.867 126.189 95.758 127.962 96.7635 129.157C97.7692 130.352 99.535 130.549 100.778 129.604L118.348 116.25C120.515 114.79 123.415 115.068 125.267 116.919C126.241 117.893 126.737 119.188 126.663 120.564Z" fill="#826B62"/>
<path d="M78.2207 125.768H61.4908C57.192 125.768 53.1508 124.094 50.1113 121.054L46.4644 117.407C45.3203 116.264 43.4653 116.264 42.3209 117.407C41.1769 118.551 41.1769 120.406 42.3209 121.551L45.9678 125.198C50.1142 129.344 55.6267 131.627 61.4905 131.627H78.2205C79.8385 131.627 81.1501 130.315 81.1501 128.697C81.1501 127.08 79.8388 125.768 78.2207 125.768Z" fill="#826B62"/>
<path d="M91.6397 128.126C91.6016 127.939 91.5459 127.754 91.4727 127.578C91.3994 127.4 91.3086 127.23 91.2031 127.072C91.0947 126.91 90.9746 126.761 90.8369 126.626C90.7022 126.491 90.5527 126.368 90.3916 126.263C90.2334 126.158 90.0635 126.067 89.8877 125.993C89.709 125.92 89.5274 125.862 89.3399 125.823C88.9619 125.747 88.5723 125.747 88.1943 125.823C88.0068 125.862 87.8223 125.92 87.6465 125.993C87.4707 126.067 87.2979 126.155 87.1397 126.263C86.9785 126.368 86.8291 126.491 86.6943 126.626C86.5596 126.761 86.4365 126.91 86.3311 127.072C86.2256 127.23 86.1348 127.4 86.0615 127.578C85.9883 127.754 85.9326 127.939 85.8945 128.126C85.8564 128.314 85.8359 128.507 85.8359 128.698C85.8359 128.888 85.8564 129.081 85.8945 129.269C85.9326 129.456 85.9883 129.641 86.0615 129.816C86.1348 129.995 86.2256 130.165 86.3311 130.323C86.4365 130.484 86.5596 130.634 86.6943 130.768C86.8291 130.904 86.9814 131.027 87.1397 131.132C87.3008 131.237 87.4707 131.328 87.6465 131.401C87.8223 131.475 88.0068 131.533 88.1943 131.568C88.3818 131.606 88.5752 131.627 88.7656 131.627C88.9561 131.627 89.1494 131.606 89.3399 131.568C89.5274 131.533 89.709 131.475 89.8877 131.401C90.0635 131.328 90.2334 131.237 90.3916 131.132C90.5527 131.027 90.7022 130.904 90.8369 130.768C91.3848 130.224 91.6982 129.468 91.6982 128.698C91.6982 128.507 91.6777 128.314 91.6397 128.126Z" fill="#826B62"/>
<path d="M144.281 29.7886C145.425 28.6446 145.425 26.7895 144.281 25.6452L134.805 16.1685C134.255 15.6192 133.51 15.3104 132.733 15.3104C131.956 15.3104 131.211 15.6192 130.661 16.1685L124.128 22.7014C119.893 19.874 115.163 17.7318 110.098 16.4375C110.53 15.1868 110.759 13.864 110.759 12.5184C110.759 5.90435 105.378 0.523682 98.7647 0.523682C92.1509 0.523682 86.7699 5.90435 86.7699 12.5184C86.7699 13.864 86.9987 15.1871 87.4314 16.4375C67.6411 21.4941 52.9648 39.4733 52.9648 60.8172C52.9648 86.0714 73.5105 106.617 98.7647 106.617C124.019 106.617 144.564 86.0714 144.564 60.8172C144.564 51.8919 141.996 43.5567 137.563 36.507L144.281 29.7886ZM132.733 22.3835L138.066 27.7167L134.102 31.6809C132.498 29.7374 130.74 27.9309 128.84 26.2759L132.733 22.3835ZM98.7644 6.38306C102.147 6.38306 104.9 9.1355 104.9 12.5184C104.9 13.5078 104.661 14.4737 104.212 15.3385C104.084 15.3233 103.955 15.3127 103.826 15.2987C103.594 15.2732 103.362 15.2489 103.13 15.2269C102.957 15.2105 102.785 15.195 102.612 15.1806C102.33 15.1572 102.047 15.1367 101.764 15.1182C101.631 15.1097 101.497 15.1003 101.364 15.0927C101.008 15.0728 100.65 15.0576 100.292 15.0456C100.226 15.0435 100.16 15.04 100.094 15.0379C99.6524 15.0253 99.2094 15.0171 98.7644 15.0171C98.3196 15.0171 97.877 15.025 97.4352 15.0379C97.3763 15.0397 97.3174 15.0426 97.2585 15.0447C96.892 15.0567 96.5261 15.0722 96.1616 15.0927C96.0354 15.0998 95.9091 15.1088 95.7828 15.1167C95.4898 15.1358 95.1975 15.1569 94.906 15.1812C94.7428 15.1947 94.5799 15.2096 94.417 15.2249C94.1697 15.2483 93.9231 15.2741 93.677 15.3013C93.5571 15.3148 93.4367 15.3248 93.3166 15.3388C92.8681 14.474 92.629 13.5078 92.629 12.5184C92.629 9.13521 95.3815 6.38306 98.7644 6.38306ZM138.705 60.8175C138.705 82.8409 120.788 100.758 98.7647 100.758C76.7416 100.758 58.8242 82.8409 58.8242 60.8175C58.8242 40.8907 73.4929 24.3265 92.5991 21.3532C93.0093 21.2896 93.4206 21.2319 93.8337 21.1815C93.9579 21.166 94.083 21.1528 94.2078 21.1384C94.6399 21.0898 95.0732 21.0453 95.5077 21.0104C95.5356 21.0081 95.5628 21.0051 95.5906 21.0031C96.0945 20.9638 96.5996 20.9345 97.1053 20.914C97.1492 20.9123 97.1935 20.9105 97.2374 20.909C98.2555 20.8709 99.2756 20.8712 100.293 20.909C100.341 20.9108 100.39 20.9125 100.438 20.9146C100.938 20.9351 101.437 20.9638 101.935 21.0028C101.977 21.006 102.019 21.0107 102.061 21.0139C102.477 21.0476 102.892 21.0901 103.306 21.1367C103.441 21.1519 103.576 21.1663 103.71 21.183C104.115 21.2328 104.518 21.2893 104.919 21.3514C124.031 24.3201 138.705 40.8869 138.705 60.8175Z" fill="#826B62"/>
<path d="M98.7633 28.7697C98.5195 28.7697 98.2775 28.7703 98.0358 28.7782C89.6303 28.9651 81.7585 32.3785 75.8687 38.3911C69.9659 44.416 66.7148 52.3809 66.7148 60.8181C66.7148 78.4897 81.0917 92.8669 98.7633 92.8669C106.749 92.8669 114.401 89.9114 120.311 84.5439C126.935 78.5225 130.762 69.9415 130.812 60.9842V60.8184C130.812 43.1465 116.435 28.7697 98.7633 28.7697ZM116.371 80.2068C111.542 84.5923 105.289 87.0072 98.7633 87.0072C84.3226 87.0072 72.5742 75.2586 72.5742 60.8178C72.5742 47.4796 82.8103 36.2682 95.8336 34.7955V60.9837C95.8336 62.6017 97.1452 63.9133 98.7633 63.9133H124.766C124.021 70.1337 121.051 75.9526 116.371 80.2068ZM101.693 58.0537V34.7934C101.728 34.7972 101.763 34.8013 101.797 34.8054C102.132 34.8441 102.466 34.8881 102.797 34.9393C102.832 34.9446 102.866 34.951 102.901 34.9566C103.222 35.0079 103.542 35.0653 103.86 35.128C103.899 35.1356 103.939 35.1426 103.978 35.1506C104.3 35.2159 104.621 35.2888 104.939 35.3659C105.002 35.3811 105.065 35.3964 105.127 35.4119C105.439 35.4898 105.748 35.573 106.054 35.6621C106.114 35.6794 106.173 35.6975 106.232 35.7151C106.547 35.8091 106.861 35.907 107.171 36.0125C107.195 36.021 107.219 36.03 107.244 36.0382C107.543 36.1408 107.839 36.2495 108.133 36.3623C108.182 36.3813 108.232 36.3995 108.281 36.4188C108.576 36.5342 108.868 36.6555 109.157 36.7812C109.22 36.8085 109.283 36.836 109.345 36.8638C109.632 36.9907 109.915 37.1219 110.196 37.2588C110.25 37.2851 110.304 37.3124 110.357 37.339C110.64 37.4794 110.921 37.6232 111.197 37.7732C111.216 37.7832 111.235 37.7931 111.253 37.8031C111.533 37.9557 111.809 38.1145 112.083 38.2768C112.136 38.3085 112.19 38.3395 112.243 38.3714C112.508 38.5311 112.769 38.6958 113.028 38.8642C113.086 38.9023 113.144 38.9407 113.202 38.9791C113.461 39.1507 113.717 39.3259 113.969 39.5064C114.013 39.5381 114.057 39.5709 114.101 39.6028C114.345 39.7795 114.586 39.9599 114.824 40.1448C114.851 40.1662 114.879 40.187 114.906 40.2084C115.155 40.4035 115.399 40.6039 115.64 40.8078C115.69 40.8503 115.741 40.8927 115.791 40.9358C116.024 41.1356 116.253 41.3395 116.479 41.5472C116.529 41.5929 116.578 41.6395 116.627 41.6855C116.856 41.8991 117.082 42.1159 117.303 42.3374C117.333 42.3681 117.363 42.3995 117.393 42.4305C117.604 42.6441 117.811 42.8612 118.015 43.0818C118.046 43.1155 118.077 43.1483 118.108 43.182C118.319 43.4131 118.525 43.649 118.728 43.8878C118.771 43.9387 118.814 43.9894 118.857 44.0407C119.055 44.2777 119.249 44.5176 119.439 44.7617C119.477 44.8112 119.515 44.861 119.553 44.9108C119.748 45.1648 119.939 45.4212 120.125 45.6822C120.14 45.7033 120.154 45.725 120.169 45.7464C120.349 46.0004 120.523 46.2579 120.693 46.5183C120.721 46.5608 120.749 46.6027 120.777 46.6452C120.947 46.9094 121.113 47.1772 121.274 47.4476C121.307 47.5036 121.34 47.5592 121.373 47.6155C121.532 47.8874 121.687 48.1613 121.836 48.4384C121.862 48.4868 121.887 48.5354 121.913 48.5838C122.066 48.8726 122.216 49.1638 122.358 49.4589C122.361 49.4641 122.364 49.4694 122.366 49.4747C122.51 49.7732 122.647 50.0761 122.78 50.3808C122.802 50.4303 122.824 50.4799 122.845 50.5294C122.971 50.8223 123.091 51.1179 123.206 51.4162C123.229 51.4745 123.25 51.5331 123.273 51.5917C123.387 51.8937 123.496 52.1978 123.599 52.5049C123.614 52.5473 123.627 52.5901 123.641 52.6329C123.743 52.9414 123.84 53.2522 123.93 53.5657C123.936 53.5868 123.943 53.6073 123.949 53.6284C124.041 53.9489 124.125 54.2726 124.204 54.5978C124.218 54.6538 124.232 54.7097 124.245 54.766C124.32 55.0824 124.39 55.4011 124.453 55.7219C124.465 55.7811 124.476 55.8406 124.487 55.8998C124.55 56.2276 124.608 56.5572 124.658 56.8894C124.663 56.924 124.667 56.9589 124.673 56.9934C124.72 57.3189 124.762 57.6465 124.798 57.9757C124.801 58.0018 124.804 58.0276 124.807 58.0537H101.693Z" fill="#826B62"/>
</g>
<defs>
<clipPath id="clip0">
<rect width="150" height="150" fill="white" transform="translate(0.00976562 0.523682)"/>
</clipPath>
</defs>
</svg>
