<svg width="150" height="150" viewBox="0 0 150 150" fill="none" xmlns="http://www.w3.org/2000/svg">
<path d="M147.5 1.39532H2.5C1.11937 1.39532 0 2.51469 0 3.89532V103.895C0 105.276 1.11937 106.395 2.5 106.395H47.6425C47.7175 107.228 47.84 108.048 47.9875 108.86L34.275 125.203C33.3869 126.26 33.5241 127.837 34.5813 128.725C34.8791 128.975 35.2316 129.153 35.61 129.243L50.705 132.848L56.8775 147.098C57.4263 148.365 58.8981 148.947 60.165 148.398C60.5219 148.244 60.8375 148.008 61.0875 147.71L74.7775 131.395C74.8525 131.395 74.925 131.395 75 131.395C75.075 131.395 75.1475 131.395 75.2225 131.395L88.9125 147.71C89.7994 148.768 91.3763 148.907 92.4344 148.02C92.7322 147.771 92.9678 147.455 93.1225 147.098L99.295 132.848L114.39 129.243C115.733 128.923 116.563 127.575 116.243 126.232C116.152 125.853 115.975 125.501 115.725 125.203L102.012 108.86C102.16 108.048 102.283 107.228 102.357 106.395H147.5C148.881 106.395 150 105.276 150 103.895V3.89532C150 2.51438 148.881 1.39532 147.5 1.39532ZM59.8575 141.395L54.795 129.72C54.4822 128.998 53.8478 128.466 53.0825 128.283L40.7075 125.325L49.6825 114.628C49.73 114.738 49.7925 114.838 49.84 114.948C50.165 115.698 50.5175 116.41 50.9075 117.118C51.0675 117.413 51.2375 117.703 51.4075 117.99C51.7509 118.562 52.1141 119.122 52.4975 119.67C52.765 120.053 53.045 120.42 53.3325 120.795C53.6675 121.22 54.0125 121.635 54.375 122.045C54.7375 122.455 55.16 122.908 55.5775 123.323C55.885 123.63 56.2025 123.928 56.5275 124.22C56.7975 124.47 57.04 124.733 57.3225 124.97C57.605 125.208 57.87 125.368 58.14 125.578C58.2625 125.673 58.3675 125.783 58.4925 125.875C58.7175 126.045 58.955 126.193 59.185 126.355C59.545 126.605 59.9 126.875 60.2725 127.105C60.9825 127.56 61.715 127.975 62.4575 128.355C62.7425 128.5 63.0325 128.633 63.3225 128.768C63.9891 129.081 64.66 129.366 65.335 129.623C65.53 129.695 65.7225 129.778 65.9175 129.845C66.8644 130.178 67.8294 130.458 68.8075 130.683L68.835 130.69L59.8575 141.395ZM79.695 125.865C78.5484 126.108 77.385 126.261 76.215 126.323H76.1825C75.7875 126.343 75.3925 126.37 74.995 126.37C74.5975 126.37 74.2025 126.343 73.8075 126.323H73.775C72.6075 126.26 71.4466 126.108 70.3025 125.868L70.0925 125.825C69.6475 125.728 69.2075 125.608 68.7725 125.483C68.59 125.43 68.405 125.383 68.225 125.325C67.9125 125.228 67.605 125.113 67.2975 125.003C66.99 124.893 66.6975 124.785 66.4025 124.663C66.22 124.585 66.04 124.503 65.86 124.413C65.45 124.228 65.0425 124.04 64.645 123.833L64.445 123.723C63.4144 123.172 62.4281 122.541 61.495 121.838C60.975 121.45 60.495 121.023 60.0225 120.6C59.4638 120.102 58.9303 119.575 58.425 119.023C58.225 118.808 58.01 118.603 57.82 118.38C57.1219 117.559 56.485 116.688 55.915 115.773C55.83 115.638 55.7575 115.495 55.665 115.355C55.1334 114.467 54.6656 113.542 54.265 112.588C54.23 112.503 54.19 112.418 54.1575 112.338C53.7147 111.244 53.3584 110.118 53.0925 108.968C53.0925 108.923 53.0575 108.888 53.045 108.843C52.6819 107.219 52.4991 105.559 52.5 103.895C52.4925 91.4688 62.56 81.3894 74.9863 81.3816C87.4128 81.3741 97.4922 91.4416 97.5 103.868C97.5009 105.551 97.3131 107.229 96.94 108.87C96.9275 108.913 96.9025 108.95 96.8925 108.993C96.6269 110.141 96.2716 111.267 95.83 112.36C95.795 112.448 95.755 112.535 95.7175 112.61C95.3181 113.558 94.8519 114.478 94.3225 115.36C94.24 115.5 94.165 115.647 94.0725 115.787C93.5025 116.701 92.8666 117.572 92.17 118.393C91.9825 118.613 91.77 118.813 91.5725 119.028C91.0603 119.585 90.5203 120.117 89.955 120.62C89.48 121.043 89.0075 121.47 88.49 121.855C87.9725 122.24 87.51 122.565 87.005 122.888L86.975 122.905C86.5225 123.193 86.06 123.458 85.59 123.708C85.4975 123.758 85.4075 123.81 85.315 123.858C84.9375 124.055 84.565 124.233 84.1675 124.405C83.9675 124.495 83.77 124.588 83.5675 124.67C83.2875 124.788 83.0025 124.89 82.7175 124.993C82.4325 125.095 82.08 125.228 81.755 125.328C81.5825 125.383 81.4075 125.43 81.2325 125.48C80.79 125.605 80.345 125.73 79.895 125.825L79.695 125.865ZM109.292 125.318L96.9175 128.275C96.1522 128.458 95.5178 128.991 95.205 129.713L90.1425 141.395L81.165 130.698H81.1875C82.1694 130.473 83.1378 130.193 84.0875 129.858C84.275 129.793 84.455 129.715 84.6425 129.648C85.34 129.383 86.0275 129.093 86.7025 128.77C86.9775 128.643 87.2525 128.52 87.5225 128.38C88.2725 127.99 89.0225 127.568 89.7425 127.105C90.09 126.885 90.4225 126.638 90.76 126.4C91.01 126.228 91.26 126.07 91.51 125.888C91.6425 125.788 91.76 125.67 91.89 125.568C92.14 125.363 92.43 125.19 92.685 124.975C92.94 124.76 93.2 124.475 93.465 124.24C93.795 123.94 94.12 123.638 94.435 123.325C94.8466 122.914 95.245 122.49 95.63 122.055C95.9925 121.645 96.3375 121.23 96.675 120.805C96.9625 120.438 97.2425 120.055 97.51 119.68C97.895 119.135 98.26 118.575 98.5975 118.005C98.7725 117.715 98.9425 117.423 99.0975 117.125C99.4859 116.42 99.84 115.699 100.16 114.963C100.205 114.835 100.27 114.733 100.317 114.62L109.292 125.318ZM145 101.395H102.373C101.016 86.2766 87.6597 75.12 72.5409 76.4769C59.3022 77.665 48.8106 88.1566 47.6225 101.395H5V6.39532H145V101.395Z" fill="#826B62"/>
<path d="M12.5 11.3953C11.1194 11.3953 10 12.5147 10 13.8953V23.8953H15V16.3953H22.5V11.3953H12.5Z" fill="#826B62"/>
<path d="M137.5 11.3953H127.5V16.3953H135V23.8953H140V13.8953C140 12.5144 138.881 11.3953 137.5 11.3953Z" fill="#826B62"/>
<path d="M135 83.8953V91.3953H127.5V96.3953H137.5C138.881 96.3953 140 95.2759 140 93.8953V83.8953H135Z" fill="#826B62"/>
<path d="M15 91.3953V83.8953H10V93.8953C10 95.2759 11.1194 96.3953 12.5 96.3953H22.5V91.3953H15Z" fill="#826B62"/>
<path d="M105 28.8953H45V33.8953H105V28.8953Z" fill="#826B62"/>
<path d="M120 43.8953H30V48.8953H120V43.8953Z" fill="#826B62"/>
<path d="M75 86.3953C65.335 86.3953 57.5 94.2303 57.5 103.895C57.5109 113.556 65.3397 121.384 75 121.395C84.665 121.395 92.5 113.56 92.5 103.895C92.5 94.2303 84.665 86.3953 75 86.3953ZM75 116.395C68.0966 116.395 62.5 110.799 62.5 103.895C62.5081 96.9953 68.1 91.4034 75 91.3953C81.9034 91.3953 87.5 96.9919 87.5 103.895C87.5 110.799 81.9034 116.395 75 116.395Z" fill="#826B62"/>
</svg>
