<svg width="407" height="405" viewBox="0 0 407 405" fill="none" xmlns="http://www.w3.org/2000/svg">
<path fill-rule="evenodd" clip-rule="evenodd" d="M286.62 89.7573C316.706 108.557 348.236 137.054 349.192 172.63C350.144 208.072 306.101 226.731 291.166 258.974C277.27 288.975 293.043 333.362 265.96 352.328C239.097 371.14 202.041 352.619 170.755 343.297C145.458 335.76 123.794 321.828 104.234 304.141C85.249 286.975 69.3523 267.417 60.3118 243.434C50.2022 216.615 36.2492 185.413 49.9317 160.088C63.5949 134.8 100.757 137.828 125.376 123.012C149.533 108.473 164.58 80.1829 192.148 74.4974C224.24 67.8787 258.93 72.4545 286.62 89.7573Z" fill="#F28484" fill-opacity="0.5"/>
</svg>
