<svg width="291" height="285" viewBox="0 0 291 285" fill="none" xmlns="http://www.w3.org/2000/svg">
<path fill-rule="evenodd" clip-rule="evenodd" d="M155.175 18.8626C191.965 14.32 232.69 -12.7111 263.157 8.40621C293.526 29.4568 289.295 76.0152 290.892 112.933C292.133 141.654 282.541 168.311 271.212 194.732C260.927 218.716 249.304 242.207 228.63 258.132C207.539 274.379 181.75 282.503 155.175 284.118C127.225 285.817 98.0969 283.207 74.9327 267.474C51.3661 251.468 40.4806 224.051 28.6094 198.153C15.0737 168.625 -5.57742 138.79 1.40233 107.066C8.57561 74.4621 36.0146 49.4866 64.9726 32.8764C92.0292 17.3569 124.219 22.6848 155.175 18.8626Z" fill="#F9C2C2"/>
</svg>
