<svg width="292" height="284" viewBox="0 0 292 284" fill="none" xmlns="http://www.w3.org/2000/svg">
<path fill-rule="evenodd" clip-rule="evenodd" d="M123.772 1.62646C151.75 7.43486 161.517 42.2401 185.955 56.887C214.211 73.822 256.883 65.799 275.654 92.6571C295.098 120.479 297.521 162.427 280.024 191.482C262.865 219.975 220.433 216.674 191.174 232.94C166.879 246.447 150.994 272.387 123.772 278.348C92.4572 285.204 53.9756 289.671 30.4718 268.126C6.91834 246.535 18.4774 208.149 13.0731 176.872C8.6824 151.461 -2.59372 127.662 1.81113 102.253C6.73471 73.8521 16.7596 44.8903 39.1568 26.4109C62.2965 7.31901 94.2591 -4.5006 123.772 1.62646Z" fill="#F9C2C2"/>
</svg>
