<svg width="292" height="285" viewBox="0 0 292 285" fill="none" xmlns="http://www.w3.org/2000/svg">
<path fill-rule="evenodd" clip-rule="evenodd" d="M139.552 1.69408C171.162 -0.20017 208.421 -3.54804 230.806 16.1074C253.059 35.6471 236.343 69.6157 246.627 95.713C257.244 122.656 295.131 141.112 291.218 169.41C287.268 197.971 252.542 213.766 227.702 232.569C200.281 253.325 175.778 284.586 139.552 284.215C103.35 283.845 78.7224 253.013 52.8845 230.781C30.8356 211.809 7.44622 192.1 1.59083 165.507C-3.94312 140.374 12.8963 117.043 22.5198 92.8766C31.8831 69.3632 35.6989 43.0718 56.934 26.527C79.2406 9.14746 109.778 3.47835 139.552 1.69408Z" fill="#F9C2C2"/>
</svg>
