<svg width="292" height="284" viewBox="0 0 292 284" fill="none" xmlns="http://www.w3.org/2000/svg">
<path fill-rule="evenodd" clip-rule="evenodd" d="M138.472 7.67825C168.753 -0.201459 202.386 -5.05893 230.314 8.62407C260.043 23.1895 283.825 50.9336 290.582 82.2027C297.084 112.29 274.767 139.46 264.906 168.701C255.013 198.038 256.268 232.382 232.805 253.531C208.162 275.744 171.835 288.273 138.472 282.667C106.702 277.33 86.6407 248.711 65.5053 225.422C48.8862 207.11 40.039 185.383 29.9861 163.127C18.6606 138.054 -7.25211 112.851 3.17158 87.423C13.6756 61.7992 52.4548 62.9734 76.9639 48.528C98.7477 35.6888 113.777 14.104 138.472 7.67825Z" fill="#F9C2C2"/>
</svg>
