<svg width="292" height="284" viewBox="0 0 292 284" fill="none" xmlns="http://www.w3.org/2000/svg">
<path fill-rule="evenodd" clip-rule="evenodd" d="M164.397 0.0195214C195.38 0.628898 225.328 13.235 248.844 33.9271C271.154 53.5571 285.076 81.4527 290.594 111.059C295.657 138.226 284.908 164.219 278.114 190.986C270.791 219.838 272.486 254.938 249.457 273.14C226.348 291.406 193.574 281.177 164.397 280.869C135.591 280.564 106.285 284.732 80.6029 271.353C52.0549 256.482 27.6934 232.992 14.8015 202.938C1.06217 170.909 -4.48697 133.595 7.44792 100.815C19.1634 68.6368 49.1728 48.7906 77.5623 30.5584C104.146 13.4859 133.035 -0.597305 164.397 0.0195214Z" fill="#F9C2C2"/>
</svg>
