<svg width="29" height="18" fill="none" xmlns="http://www.w3.org/2000/svg"><path fill-rule="evenodd" clip-rule="evenodd" d="M28.218 15.63a2.23 2.23 0 00-.097-.198c-.49-.945-1.43-2.105-2.814-3.48l-.03-.032-.014-.015-.015-.017h-.015c-.628-.64-1.027-1.07-1.193-1.291-.305-.42-.374-.844-.207-1.276.118-.326.56-1.014 1.326-2.064.403-.555.723-1.002.958-1.339 1.7-2.416 2.437-3.959 2.21-4.63l-.087-.158c-.06-.094-.211-.18-.457-.26-.246-.079-.56-.091-.943-.038l-4.244.03c-.069-.026-.167-.023-.295.009-.128.03-.192.047-.192.047l-.074.04-.058.047a.659.659 0 00-.162.164 1.1 1.1 0 00-.147.277 26.595 26.595 0 01-1.577 3.544c-.364.65-.698 1.215-1.002 1.693-.305.477-.56.829-.767 1.054a5.421 5.421 0 01-.56.544c-.167.137-.294.195-.383.174a13.56 13.56 0 01-.25-.063 1.021 1.021 0 01-.332-.386 1.82 1.82 0 01-.17-.614 7.321 7.321 0 01-.05-.639 14.38 14.38 0 01.006-.755c.01-.327.015-.546.015-.663 0-.398.007-.831.022-1.298l.037-1.111c.01-.273.015-.562.015-.866a3.84 3.84 0 00-.052-.718 2.583 2.583 0 00-.154-.504.84.84 0 00-.302-.377 1.639 1.639 0 00-.494-.213c-.52-.126-1.184-.194-1.99-.205-1.827-.02-3 .105-3.521.378a2.028 2.028 0 00-.56.473c-.177.231-.202.357-.074.377.59.094 1.007.32 1.252.679l.089.189c.069.136.138.377.206.724.069.346.113.73.133 1.15.049.767.049 1.423 0 1.97-.05.546-.096.97-.14 1.274a2.709 2.709 0 01-.376 1.087.258.258 0 01-.074.079c-.127.052-.26.08-.398.08-.137 0-.304-.075-.5-.222a3.611 3.611 0 01-.612-.607 7.974 7.974 0 01-.715-1.078 19.321 19.321 0 01-.825-1.639l-.236-.456a41.371 41.371 0 01-.604-1.284 25.723 25.723 0 01-.678-1.63 1.036 1.036 0 00-.353-.505l-.074-.047a1.008 1.008 0 00-.236-.134A1.5 1.5 0 005.045.8L1.007.83c-.412 0-.692.1-.84.3l-.059.094a.546.546 0 00-.044.252c0 .115.03.257.089.426a53.484 53.484 0 001.923 4.284C2.768 7.561 3.37 8.67 3.88 9.508a39.528 39.528 0 001.563 2.38c.53.745.881 1.224 1.053 1.433.172.21.307.368.406.473l.368.378a8.99 8.99 0 001.039.905c.457.353.963.699 1.518 1.04.555.341 1.201.62 1.938.835a6.277 6.277 0 002.151.26h1.695c.344-.031.604-.147.781-.347l.059-.078c.04-.063.076-.161.11-.291.035-.132.052-.276.052-.434-.01-.45.022-.858.095-1.22.074-.362.158-.635.251-.819.094-.184.2-.34.317-.466.117-.124.201-.201.25-.226a.96.96 0 01.118-.056c.236-.084.514-.003.833.243.32.247.619.552.9.914.28.363.616.77 1.008 1.221.393.452.737.788 1.032 1.008l.294.19c.197.125.453.241.767.346.314.105.589.131.825.078l3.773-.062c.372 0 .663-.066.869-.198.206-.13.329-.274.369-.433a1.3 1.3 0 00.007-.535c-.035-.2-.07-.339-.104-.418z" fill="#F95050"/></svg>