<svg width="21" height="20" fill="none" xmlns="http://www.w3.org/2000/svg"><path d="M10.612 0h-.005C5.093 0 .609 4.485.609 10c0 2.188.705 4.215 1.904 5.861l-1.246 3.715 3.844-1.229A9.913 9.913 0 0010.61 20c5.515 0 9.998-4.486 9.998-10S16.126 0 10.612 0zm5.819 14.121c-.242.681-1.2 1.246-1.963 1.412-.522.11-1.205.2-3.502-.753-2.94-1.217-4.832-4.204-4.98-4.397C5.847 10.188 4.8 8.8 4.8 7.366c0-1.435.73-2.133 1.023-2.433.241-.247.64-.36 1.022-.36.124 0 .235.007.335.012.294.013.442.03.635.494.242.581.83 2.016.9 2.163.07.148.142.348.042.542-.094.2-.177.288-.324.458-.148.17-.288.3-.435.483-.135.159-.288.329-.118.623.17.287.758 1.246 1.623 2.016 1.116.993 2.021 1.311 2.345 1.446.241.1.529.076.705-.111.224-.242.5-.642.781-1.035.2-.283.453-.318.718-.218.27.094 1.698.8 1.992.947.294.147.488.217.559.34.07.124.07.706-.171 1.388z" fill="#F95050"/></svg>