<svg width="390" height="72" viewBox="0 0 390 72" fill="none" xmlns="http://www.w3.org/2000/svg">
<path d="M218.055 17.8822C214.303 16.668 210.422 19.8166 208.951 21.5427H214.101C217.319 21.5427 218.055 23.1497 221.273 24.3996C223.848 25.3996 226.269 21.126 227.158 18.8643C228.016 17.287 229.218 14.8824 227.158 17.8822C224.583 21.632 222.744 19.4 218.055 17.8822Z" fill="#F95050"/>
<path d="M2.2616 10.8232C2.2616 10.412 2.40922 10.0587 2.70444 9.76352C2.99966 9.4683 3.35287 9.32069 3.76407 9.32069H16.622C19.7745 9.32069 22.0994 10.2274 23.5966 12.0409C24.4295 13.0426 24.846 14.3236 24.846 15.8841C24.846 17.434 24.1343 18.7889 22.7109 19.9487C24.7353 21.0346 25.7475 22.7216 25.7475 25.0096C25.7475 27.2975 24.9356 29.0372 23.3119 30.2287C21.6988 31.4096 19.7166 32 17.3653 32H3.76407C3.35287 32 2.99966 31.8577 2.70444 31.573C2.40922 31.2778 2.2616 30.9246 2.2616 30.5134V10.8232ZM8.22402 27.7298H17.2704C18.0823 27.7298 18.7044 27.4873 19.1367 27.0023C19.5689 26.5173 19.7851 25.8531 19.7851 25.0096C19.7851 24.1661 19.5689 23.5018 19.1367 23.0168C18.7044 22.5318 18.0823 22.2893 17.2704 22.2893H8.22402V27.7298ZM8.22402 18.1299H16.6853C17.3495 18.1299 17.882 17.9348 18.2826 17.5447C18.6833 17.1441 18.8836 16.5905 18.8836 15.8841C18.8836 15.1671 18.6833 14.6083 18.2826 14.2077C17.882 13.807 17.3495 13.6067 16.6853 13.6067H8.22402V18.1299ZM55.7778 31.3199C55.7778 31.7733 55.5089 32 54.9712 32H51.1755C50.7749 32 50.332 31.8577 49.847 31.573C49.3726 31.2778 49.0088 30.9246 48.7558 30.5134L46.0671 26.3065C44.9601 24.5773 43.621 23.7127 42.05 23.7127H38.1911V30.5134C38.1911 30.9246 38.0435 31.2778 37.7482 31.573C37.4636 31.8577 37.1156 32 36.7044 32H33.7311C33.3199 32 32.9667 31.8577 32.6715 31.573C32.3763 31.2778 32.2287 30.9246 32.2287 30.5134V10.8232C32.2287 10.412 32.371 10.0587 32.6557 9.76352C32.9403 9.4683 33.2883 9.32069 33.6995 9.32069H46.7472C49.1617 9.32069 51.1386 9.96913 52.678 11.266C54.2279 12.5629 55.0029 14.3131 55.0029 16.5167C55.0029 19.5849 53.0154 21.5091 49.0404 22.2893C49.6731 22.5213 50.2582 22.922 50.796 23.4913C51.3337 24.0501 51.9505 24.8672 52.6464 25.9427L55.5248 30.5134C55.6935 30.8086 55.7778 31.0774 55.7778 31.3199ZM38.1911 19.237H44.9284C46.0144 19.237 46.9686 19.0208 47.791 18.5885C48.624 18.1562 49.0404 17.4656 49.0404 16.5167C49.0404 15.5678 48.624 14.8772 47.791 14.4449C46.9686 14.0126 46.0144 13.7965 44.9284 13.7965H38.1911V19.237ZM61.3417 23.0327V10.8232C61.3417 10.412 61.484 10.0587 61.7687 9.76352C62.0639 9.4683 62.4277 9.32069 62.86 9.32069H65.8174C66.2181 9.32069 66.566 9.4683 66.8613 9.76352C67.1565 10.0587 67.3041 10.412 67.3041 10.8232V23.0643C67.3041 24.6142 67.6415 25.7687 68.3163 26.5279C69.0016 27.287 70.056 27.6666 71.4794 27.6666H74.0098C75.4332 27.6666 76.4823 27.287 77.1571 26.5279C77.8424 25.7687 78.1851 24.6142 78.1851 23.0643V10.8232C78.1851 10.412 78.3274 10.0587 78.6121 9.76352C78.9073 9.4683 79.2605 9.32069 79.6717 9.32069H82.6134C83.0457 9.32069 83.4095 9.4683 83.7047 9.76352C83.9999 10.0587 84.1475 10.412 84.1475 10.8232V23.0327C84.1475 25.9216 83.2987 28.1621 81.6012 29.7542C79.9037 31.3358 77.426 32.1265 74.168 32.1265H71.3212C68.0527 32.1265 65.5697 31.3358 63.8721 29.7542C62.1852 28.1621 61.3417 25.9216 61.3417 23.0327ZM90.2965 26.1957C90.2965 25.5737 90.481 25.1308 90.8501 24.8672C91.2191 24.5931 91.5776 24.456 91.9255 24.456H93.8076C94.7565 24.456 95.4787 24.9727 95.9743 26.006C96.4698 27.0392 97.5822 27.5559 99.3113 27.5559L104.847 27.6666C106.702 27.6666 107.63 27.0603 107.63 25.8478C107.63 24.9305 106.497 24.2083 104.23 23.6811C103.218 23.4386 102.1 23.2014 100.877 22.9694C99.654 22.7269 98.4362 22.4264 97.2237 22.0679C96.0217 21.7094 94.9146 21.2877 93.9025 20.8027C92.8903 20.3177 92.0679 19.6534 91.4352 18.8099C90.8132 17.9559 90.5021 16.9543 90.5021 15.805C90.5021 13.6857 91.256 12.0568 92.7637 10.9181C94.2715 9.7688 96.8652 9.19417 100.545 9.19417L104.562 9.28906C106.723 9.28906 108.669 9.84787 110.398 10.9655C112.138 12.0726 113.007 13.4591 113.007 15.125C113.007 15.747 112.823 16.1951 112.454 16.4693C112.085 16.7434 111.732 16.8805 111.394 16.8805H109.512C108.563 16.8805 107.841 16.3638 107.346 15.3306C106.85 14.2867 105.738 13.7648 104.009 13.7648L99.2481 13.6699C97.3924 13.6699 96.4645 14.2762 96.4645 15.4887C96.4645 16.153 97.0497 16.6959 98.2201 17.1177C99.4009 17.5394 100.824 17.9137 102.49 18.2406C104.167 18.5569 105.848 18.9417 107.535 19.3951C109.222 19.8485 110.651 20.5971 111.821 21.6409C113.002 22.6742 113.593 23.9658 113.593 25.5157C113.593 27.6349 112.834 29.2692 111.315 30.4185C109.807 31.5572 107.219 32.1265 103.55 32.1265L98.7578 32.0316C96.5963 32.0316 94.6458 31.4781 92.9061 30.371C91.1664 29.2534 90.2965 27.8616 90.2965 26.1957ZM120.074 30.5134V10.8232C120.074 10.412 120.221 10.0587 120.517 9.76352C120.812 9.4683 121.176 9.32069 121.608 9.32069H124.55C124.961 9.32069 125.309 9.4683 125.593 9.76352C125.889 10.0587 126.036 10.412 126.036 10.8232V17.9401H136.917V10.8232C136.917 10.412 137.065 10.0587 137.36 9.76352C137.655 9.4683 138.008 9.32069 138.42 9.32069H141.361C141.794 9.32069 142.152 9.4683 142.437 9.76352C142.732 10.0587 142.88 10.412 142.88 10.8232V30.5134C142.88 30.9246 142.727 31.2778 142.421 31.573C142.126 31.8577 141.773 32 141.361 32H138.42C138.008 32 137.655 31.8629 137.36 31.5888C137.065 31.3041 136.917 30.9562 136.917 30.545V22.4159H126.036V30.545C126.036 30.9562 125.889 31.3041 125.593 31.5888C125.309 31.8629 124.961 32 124.55 32H121.608C121.197 32 120.838 31.8577 120.532 31.573C120.227 31.2778 120.074 30.9246 120.074 30.5134ZM150.673 30.4817V10.7915C150.673 10.3803 150.821 10.0324 151.116 9.74771C151.412 9.46303 151.765 9.32069 152.176 9.32069H170.411C170.822 9.32069 171.17 9.4683 171.455 9.76352C171.75 10.0587 171.898 10.412 171.898 10.8232V12.3098C171.898 12.721 171.75 13.0742 171.455 13.3694C171.17 13.6541 170.822 13.7965 170.411 13.7965H156.636V18.3987H168.497C168.909 18.3987 169.257 18.5464 169.541 18.8416C169.836 19.1263 169.984 19.4742 169.984 19.8854V21.372C169.984 21.7832 169.836 22.1365 169.541 22.4317C169.257 22.7164 168.909 22.8587 168.497 22.8587H156.636V27.5242H170.379C170.78 27.5242 171.123 27.6666 171.407 27.9513C171.692 28.2359 171.834 28.5839 171.834 28.9951V30.5134C171.834 30.9246 171.687 31.2778 171.392 31.573C171.096 31.8577 170.743 32 170.332 32H152.176C151.765 32 151.412 31.8577 151.116 31.573C150.821 31.2778 150.673 30.914 150.673 30.4817ZM176.75 26.1957C176.75 25.5737 176.934 25.1308 177.303 24.8672C177.672 24.5931 178.031 24.456 178.379 24.456H180.261C181.21 24.456 181.932 24.9727 182.428 26.006C182.923 27.0392 184.036 27.5559 185.765 27.5559L191.3 27.6666C193.156 27.6666 194.084 27.0603 194.084 25.8478C194.084 24.9305 192.95 24.2083 190.683 23.6811C189.671 23.4386 188.553 23.2014 187.33 22.9694C186.107 22.7269 184.89 22.4264 183.677 22.0679C182.475 21.7094 181.368 21.2877 180.356 20.8027C179.344 20.3177 178.521 19.6534 177.889 18.8099C177.267 17.9559 176.956 16.9543 176.956 15.805C176.956 13.6857 177.709 12.0568 179.217 10.9181C180.725 9.7688 183.319 9.19417 186.998 9.19417L191.015 9.28906C193.177 9.28906 195.122 9.84787 196.851 10.9655C198.591 12.0726 199.461 13.4591 199.461 15.125C199.461 15.747 199.276 16.1951 198.907 16.4693C198.538 16.7434 198.185 16.8805 197.848 16.8805H195.966C195.017 16.8805 194.294 16.3638 193.799 15.3306C193.303 14.2867 192.191 13.7648 190.462 13.7648L185.701 13.6699C183.846 13.6699 182.918 14.2762 182.918 15.4887C182.918 16.153 183.503 16.6959 184.673 17.1177C185.854 17.5394 187.278 17.9137 188.944 18.2406C190.62 18.5569 192.302 18.9417 193.989 19.3951C195.676 19.8485 197.104 20.5971 198.275 21.6409C199.456 22.6742 200.046 23.9658 200.046 25.5157C200.046 27.6349 199.287 29.2692 197.769 30.4185C196.261 31.5572 193.672 32.1265 190.003 32.1265L185.211 32.0316C183.05 32.0316 181.099 31.4781 179.359 30.371C177.62 29.2534 176.75 27.8616 176.75 26.1957ZM235.716 30.5134V10.8232C235.716 10.412 235.858 10.0587 236.143 9.76352C236.428 9.4683 236.776 9.32069 237.187 9.32069H249.254C255.633 9.32069 258.822 12.2624 258.822 18.1457C258.822 24.0185 255.633 26.9549 249.254 26.9549H241.679V30.5134C241.679 30.9246 241.531 31.2778 241.236 31.573C240.951 31.8577 240.603 32 240.192 32H237.219C236.807 32 236.454 31.8577 236.159 31.573C235.864 31.2778 235.716 30.9246 235.716 30.5134ZM241.679 22.4791H247.451C249.222 22.4791 250.567 22.1839 251.484 21.5935C252.401 20.9925 252.86 19.8432 252.86 18.1457C252.86 16.4376 252.401 15.2884 251.484 14.6979C250.567 14.0969 249.222 13.7965 247.451 13.7965H241.679V22.4791ZM262.647 30.545L266.616 15.4887C267.692 11.3872 271.192 9.33124 277.118 9.32069H285.642C286.032 9.32069 286.354 9.4683 286.607 9.76352C286.871 10.0587 287.002 10.4014 287.002 10.7915V30.545C287.002 30.9562 286.855 31.3041 286.56 31.5888C286.264 31.8629 285.911 32 285.5 32H282.527C282.094 32 281.736 31.8629 281.451 31.5888C281.177 31.3041 281.04 30.9456 281.04 30.5134V26.5279H269.795L268.736 30.5134C268.63 30.9456 268.393 31.3041 268.024 31.5888C267.655 31.8629 267.265 32 266.854 32H263.738C263.327 32 263.031 31.884 262.852 31.6521C262.673 31.4096 262.583 31.1987 262.583 31.0194C262.594 30.8402 262.615 30.682 262.647 30.545ZM270.966 22.0521H281.04V13.7965H276.533C275.52 13.7965 274.635 14.0864 273.876 14.6663C273.127 15.2357 272.621 16.0053 272.357 16.9754L270.966 22.0521ZM294.765 30.545V10.8232C294.765 10.412 294.912 10.0587 295.207 9.76352C295.503 9.4683 295.856 9.32069 296.267 9.32069H299.209C299.641 9.32069 299.999 9.4683 300.284 9.76352C300.579 10.0587 300.727 10.412 300.727 10.8232V30.5134C300.727 30.9246 300.574 31.2778 300.268 31.573C299.973 31.8577 299.62 32 299.209 32H296.267C295.856 32 295.503 31.8629 295.207 31.5888C294.912 31.3041 294.765 30.9562 294.765 30.545ZM308.505 30.5134V10.8232C308.505 10.412 308.647 10.0587 308.932 9.76352C309.217 9.4683 309.565 9.32069 309.976 9.32069H314.626C314.995 9.32069 315.385 9.4683 315.796 9.76352C316.207 10.0587 316.544 10.412 316.808 10.8232L326.361 25.5157V10.7915C326.361 10.3803 326.503 10.0324 326.788 9.74771C327.083 9.46303 327.436 9.32069 327.847 9.32069H330.567C330.979 9.32069 331.327 9.46303 331.611 9.74771C331.907 10.0324 332.054 10.3909 332.054 10.8232V30.5134C332.054 30.9246 331.907 31.2778 331.611 31.573C331.327 31.8577 330.979 32 330.567 32H325.317C324.906 32 324.484 31.8577 324.052 31.573C323.619 31.2778 323.277 30.9246 323.024 30.5134L314.278 16.9437V30.5134C314.278 30.9246 314.13 31.2778 313.835 31.573C313.55 31.8577 313.202 32 312.791 32H310.007C309.596 32 309.243 31.8577 308.948 31.573C308.653 31.2778 308.505 30.9246 308.505 30.5134ZM337.887 12.3098V10.8232C337.887 10.3909 338.029 10.0324 338.314 9.74771C338.599 9.46303 338.957 9.32069 339.389 9.32069H359.459C359.891 9.32069 360.25 9.46303 360.535 9.74771C360.819 10.0324 360.962 10.3909 360.962 10.8232V12.3098C360.962 12.7421 360.819 13.1006 360.535 13.3853C360.25 13.6594 359.891 13.7965 359.459 13.7965H352.405V30.545C352.405 30.9562 352.258 31.3041 351.963 31.5888C351.678 31.8629 351.33 32 350.919 32H347.93C347.518 32 347.165 31.8629 346.87 31.5888C346.585 31.3041 346.443 30.9562 346.443 30.545V13.7965H339.389C338.957 13.7965 338.599 13.6594 338.314 13.3853C338.029 13.1006 337.887 12.7421 337.887 12.3098ZM365.181 26.1957C365.181 25.5737 365.366 25.1308 365.735 24.8672C366.104 24.5931 366.462 24.456 366.81 24.456H368.692C369.641 24.456 370.363 24.9727 370.859 26.006C371.354 27.0392 372.467 27.5559 374.196 27.5559L379.731 27.6666C381.587 27.6666 382.515 27.0603 382.515 25.8478C382.515 24.9305 381.381 24.2083 379.114 23.6811C378.102 23.4386 376.985 23.2014 375.762 22.9694C374.539 22.7269 373.321 22.4264 372.108 22.0679C370.906 21.7094 369.799 21.2877 368.787 20.8027C367.775 20.3177 366.952 19.6534 366.32 18.8099C365.698 17.9559 365.387 16.9543 365.387 15.805C365.387 13.6857 366.141 12.0568 367.648 10.9181C369.156 9.7688 371.75 9.19417 375.429 9.19417L379.447 9.28906C381.608 9.28906 383.553 9.84787 385.283 10.9655C387.022 12.0726 387.892 13.4591 387.892 15.125C387.892 15.747 387.708 16.1951 387.339 16.4693C386.969 16.7434 386.616 16.8805 386.279 16.8805H384.397C383.448 16.8805 382.726 16.3638 382.23 15.3306C381.735 14.2867 380.622 13.7648 378.893 13.7648L374.133 13.6699C372.277 13.6699 371.349 14.2762 371.349 15.4887C371.349 16.153 371.934 16.6959 373.105 17.1177C374.286 17.5394 375.709 17.9137 377.375 18.2406C379.051 18.5569 380.733 18.9417 382.42 19.3951C384.107 19.8485 385.536 20.5971 386.706 21.6409C387.887 22.6742 388.477 23.9658 388.477 25.5157C388.477 27.6349 387.718 29.2692 386.2 30.4185C384.692 31.5572 382.104 32.1265 378.434 32.1265L373.642 32.0316C371.481 32.0316 369.53 31.4781 367.791 30.371C366.051 29.2534 365.181 27.8616 365.181 26.1957Z" fill="#303030"/>
<path opacity="0.5" d="M14.2998 66.6133C14.2998 66.8711 14.1475 67 13.8428 67H11.8301C11.6016 67 11.3555 66.9209 11.0918 66.7627C10.8281 66.5986 10.623 66.4023 10.4766 66.1738L8.92969 63.7217C8.56055 63.124 8.18848 62.6758 7.81348 62.377C7.43848 62.0723 6.9873 61.9199 6.45996 61.9199H4.57031V66.1914C4.57031 66.4199 4.48828 66.6133 4.32422 66.7715C4.16602 66.9238 3.97266 67 3.74414 67H2.0918C1.86328 67 1.66699 66.918 1.50293 66.7539C1.33887 66.584 1.25684 66.3848 1.25684 66.1562V55.2314C1.25684 55.0029 1.33887 54.8037 1.50293 54.6338C1.66699 54.4639 1.86328 54.3789 2.0918 54.3789H3.74414C3.97266 54.3789 4.16602 54.4639 4.32422 54.6338C4.48828 54.8037 4.57031 55.0029 4.57031 55.2314V59.4414H6.45996C6.97559 59.4414 7.42676 59.3008 7.81348 59.0195C8.20605 58.7383 8.57812 58.2842 8.92969 57.6572L10.292 55.2314C10.6025 54.6689 11.0244 54.3848 11.5576 54.3789H13.5879C13.8691 54.3789 14.0098 54.502 14.0098 54.748C14.0098 54.8828 13.96 55.0439 13.8604 55.2314L11.9531 58.6855C11.6777 59.1895 11.3672 59.6055 11.0215 59.9336C10.6816 60.2617 10.2363 60.4932 9.68555 60.6279C10.0723 60.71 10.4678 60.9531 10.8721 61.3574C11.2822 61.7617 11.6426 62.2012 11.9531 62.6758L14.1504 66.1738C14.25 66.3438 14.2998 66.4902 14.2998 66.6133ZM16.9049 66.3672C16.1314 65.8281 15.7447 65.0664 15.7447 64.082C15.7447 63.0977 16.1314 62.3418 16.9049 61.8145C17.6842 61.2871 18.6861 61.0234 19.9107 61.0234H22.8199C22.8199 60.3379 22.6764 59.8604 22.3893 59.5908C22.1021 59.3213 21.5982 59.1865 20.8775 59.1865C20.1627 59.1865 19.6588 59.3652 19.3658 59.7227C19.0787 60.0742 18.7242 60.25 18.3023 60.25H16.9928C16.8346 60.25 16.7027 60.2002 16.5973 60.1006C16.4977 59.9951 16.4479 59.8662 16.4479 59.7139C16.4479 58.0322 18.0445 57.1914 21.2379 57.1914C22.6324 57.1914 23.7516 57.5049 24.5953 58.1318C25.4391 58.7529 25.8609 59.7168 25.8609 61.0234V66.4639C25.8609 66.6221 25.8111 66.751 25.7115 66.8506C25.6119 66.9502 25.483 67 25.3248 67H23.6285C23.4703 67 23.3414 66.9502 23.2418 66.8506C23.1422 66.7451 23.0924 66.6162 23.0924 66.4639V66.1914C22.1666 66.8535 21.0973 67.1816 19.8844 67.1758C18.6773 67.1758 17.6842 66.9062 16.9049 66.3672ZM20.1217 63.0186C19.7115 63.0186 19.3863 63.1182 19.1461 63.3174C18.9117 63.5166 18.7945 63.7744 18.7945 64.0908C18.7945 64.4072 18.9176 64.668 19.1637 64.873C19.4098 65.0781 19.7584 65.1807 20.2096 65.1807C21.1119 65.1807 21.982 64.917 22.8199 64.3896V63.0186H20.1217ZM28.9318 69.4258V57.9121C28.9318 57.7539 28.9816 57.625 29.0812 57.5254C29.1867 57.4199 29.3156 57.3672 29.468 57.3672H31.1643C31.3166 57.3672 31.4426 57.4199 31.5422 57.5254C31.6477 57.625 31.7004 57.7539 31.7004 57.9121V58.1758C32.6262 57.5195 33.7014 57.1914 34.926 57.1914C36.1506 57.1914 37.173 57.625 37.9934 58.4922C38.8137 59.3535 39.2238 60.5898 39.2238 62.2012C39.2238 63.8066 38.799 65.0371 37.9494 65.8926C37.0998 66.748 35.9543 67.1758 34.5129 67.1758C33.7687 67.1758 32.9221 67.0264 31.9729 66.7275V69.4258C31.9729 69.584 31.9201 69.7129 31.8146 69.8125C31.715 69.918 31.5891 69.9707 31.4367 69.9707H29.468C29.3156 69.9707 29.1867 69.918 29.0812 69.8125C28.9816 69.7129 28.9318 69.584 28.9318 69.4258ZM31.9729 64.6973C32.7287 64.9375 33.3645 65.0576 33.8801 65.0576C34.6828 65.0576 35.2512 64.8291 35.5852 64.3721C35.925 63.915 36.0949 63.1855 36.0949 62.1836C36.0949 61.1816 35.9338 60.4551 35.6115 60.0039C35.2951 59.5469 34.8176 59.3184 34.1789 59.3184C33.5461 59.3184 32.8107 59.582 31.9729 60.1094V64.6973ZM40.6688 58.958V57.9121C40.6688 57.7539 40.7186 57.625 40.8182 57.5254C40.9236 57.4199 41.0555 57.3672 41.2137 57.3672H49.8709C50.0291 57.3672 50.158 57.4199 50.2576 57.5254C50.3572 57.625 50.407 57.7539 50.407 57.9121V58.958C50.407 59.1104 50.3572 59.2393 50.2576 59.3447C50.158 59.4443 50.0291 59.4941 49.8709 59.4941H47.0672V66.4639C47.0672 66.6162 47.0145 66.7451 46.909 66.8506C46.8094 66.9502 46.6805 67 46.5223 67H44.5623C44.4041 67 44.2723 66.9502 44.1668 66.8506C44.0672 66.7451 44.0174 66.6162 44.0174 66.4639V59.4941H41.2137C41.0555 59.4941 40.9236 59.4443 40.8182 59.3447C40.7186 59.2393 40.6688 59.1104 40.6688 58.958ZM52.5814 66.4639V57.9121C52.5814 57.7539 52.6312 57.625 52.7309 57.5254C52.8363 57.4199 52.9652 57.3672 53.1176 57.3672H54.9545C55.1127 57.3672 55.2416 57.4199 55.3412 57.5254C55.4467 57.625 55.4994 57.7539 55.4994 57.9121V63.6865L58.5932 58C58.6869 57.8184 58.8305 57.6689 59.0238 57.5518C59.2172 57.4287 59.4047 57.3672 59.5863 57.3672H62.0473C62.2055 57.3672 62.3344 57.4199 62.434 57.5254C62.5395 57.625 62.5922 57.7539 62.5922 57.9121V66.4639C62.5922 66.6221 62.5395 66.751 62.434 66.8506C62.3344 66.9502 62.2055 67 62.0473 67H60.2104C60.0521 67 59.9232 66.9502 59.8236 66.8506C59.724 66.7451 59.6742 66.6162 59.6742 66.4639V60.6982L56.5805 66.3672C56.4867 66.5371 56.3432 66.6865 56.1498 66.8154C55.9564 66.9385 55.7689 67 55.5873 67H53.1176C52.9594 67 52.8305 66.9502 52.7309 66.8506C52.6312 66.751 52.5814 66.6221 52.5814 66.4639ZM65.6455 66.4639V57.9121C65.6455 57.7539 65.6953 57.625 65.7949 57.5254C65.9004 57.4199 66.0293 57.3672 66.1816 57.3672H68.1504C68.3086 57.3672 68.4375 57.4199 68.5371 57.5254C68.6367 57.625 68.6865 57.7539 68.6865 57.9121V61.0586H72.5361V57.9121C72.5361 57.7539 72.5859 57.625 72.6855 57.5254C72.791 57.4199 72.9229 57.3672 73.0811 57.3672H75.041C75.1992 57.3672 75.3281 57.4199 75.4277 57.5254C75.5273 57.625 75.5771 57.7539 75.5771 57.9121V66.4639C75.5771 66.6221 75.5273 66.751 75.4277 66.8506C75.3281 66.9502 75.1992 67 75.041 67H73.0811C72.9229 67 72.791 66.9502 72.6855 66.8506C72.5859 66.7451 72.5361 66.6162 72.5361 66.4639V63.1855H68.6865V66.4639C68.6865 66.6221 68.6338 66.751 68.5283 66.8506C68.4287 66.9502 68.3027 67 68.1504 67H66.1816C66.0234 67 65.8945 66.9502 65.7949 66.8506C65.6953 66.751 65.6455 66.6221 65.6455 66.4639ZM78.6393 66.4639V57.9121C78.6393 57.7539 78.6891 57.625 78.7887 57.5254C78.8941 57.4199 79.023 57.3672 79.1754 57.3672H81.1441C81.3023 57.3672 81.4313 57.4199 81.5309 57.5254C81.6305 57.625 81.6803 57.7539 81.6803 57.9121V60.5576H83.7721C85.0201 60.5576 85.984 60.8037 86.6637 61.2959C87.3492 61.7881 87.692 62.6172 87.692 63.7832C87.692 64.9434 87.3492 65.7695 86.6637 66.2617C85.984 66.7539 85.0201 67 83.7721 67H79.1754C79.0172 67 78.8883 66.9502 78.7887 66.8506C78.6891 66.751 78.6393 66.6221 78.6393 66.4639ZM81.6275 65.04H83.4996C84.2672 65.04 84.651 64.6211 84.651 63.7832C84.651 62.9395 84.2672 62.5176 83.4996 62.5176H81.6275V65.04ZM88.9313 66.4639V57.9121C88.9313 57.7539 88.9811 57.625 89.0807 57.5254C89.1861 57.4199 89.318 57.3672 89.4762 57.3672H91.4361C91.5943 57.3672 91.7232 57.4199 91.8229 57.5254C91.9225 57.625 91.9723 57.7539 91.9723 57.9121V66.4639C91.9723 66.6221 91.9225 66.751 91.8229 66.8506C91.7232 66.9502 91.5943 67 91.4361 67H89.4762C89.318 67 89.1861 66.9502 89.0807 66.8506C88.9811 66.751 88.9313 66.6221 88.9313 66.4639ZM102.254 66.4639V57.9121C102.254 57.7539 102.304 57.625 102.403 57.5254C102.509 57.4199 102.637 57.3672 102.79 57.3672H111.649C111.807 57.3672 111.936 57.4199 112.036 57.5254C112.136 57.625 112.185 57.7539 112.185 57.9121V66.4639C112.185 66.6221 112.136 66.751 112.036 66.8506C111.936 66.9502 111.807 67 111.649 67H109.689C109.531 67 109.399 66.9502 109.294 66.8506C109.194 66.7451 109.144 66.6162 109.144 66.4639V59.4941H105.295V66.4639C105.295 66.6221 105.242 66.751 105.137 66.8506C105.037 66.9502 104.911 67 104.759 67H102.79C102.632 67 102.503 66.9502 102.403 66.8506C102.304 66.751 102.254 66.6221 102.254 66.4639ZM116.074 65.9102C115.16 65.0664 114.703 63.8242 114.703 62.1836C114.703 60.5371 115.16 59.2949 116.074 58.457C116.988 57.6133 118.3 57.1914 120.011 57.1914C121.728 57.1914 123.043 57.6133 123.957 58.457C124.871 59.2949 125.329 60.5371 125.329 62.1836C125.329 63.8242 124.871 65.0664 123.957 65.9102C123.043 66.7539 121.728 67.1758 120.011 67.1758C118.3 67.1758 116.988 66.7539 116.074 65.9102ZM118.297 59.8984C117.934 60.373 117.752 61.1318 117.752 62.1748C117.752 63.2178 117.934 63.9795 118.297 64.46C118.661 64.9404 119.232 65.1807 120.011 65.1807C120.796 65.1807 121.371 64.9404 121.734 64.46C122.103 63.9795 122.287 63.2178 122.287 62.1748C122.287 61.1318 122.103 60.373 121.734 59.8984C121.371 59.4238 120.796 59.1865 120.011 59.1865C119.232 59.1865 118.661 59.4238 118.297 59.8984ZM135.065 66.4639V57.9121C135.065 57.7539 135.115 57.625 135.214 57.5254C135.32 57.4199 135.449 57.3672 135.601 57.3672H137.57C137.728 57.3672 137.857 57.4199 137.957 57.5254C138.056 57.625 138.106 57.7539 138.106 57.9121V61.0586H141.956V57.9121C141.956 57.7539 142.005 57.625 142.105 57.5254C142.211 57.4199 142.342 57.3672 142.501 57.3672H144.461C144.619 57.3672 144.748 57.4199 144.847 57.5254C144.947 57.625 144.997 57.7539 144.997 57.9121V66.4639C144.997 66.6221 144.947 66.751 144.847 66.8506C144.748 66.9502 144.619 67 144.461 67H142.501C142.342 67 142.211 66.9502 142.105 66.8506C142.005 66.7451 141.956 66.6162 141.956 66.4639V63.1855H138.106V66.4639C138.106 66.6221 138.053 66.751 137.948 66.8506C137.848 66.9502 137.722 67 137.57 67H135.601C135.443 67 135.314 66.9502 135.214 66.8506C135.115 66.751 135.065 66.6221 135.065 66.4639ZM148.885 65.9102C147.971 65.0664 147.514 63.8242 147.514 62.1836C147.514 60.5371 147.971 59.2949 148.885 58.457C149.799 57.6133 151.112 57.1914 152.822 57.1914C154.539 57.1914 155.855 57.6133 156.769 58.457C157.683 59.2949 158.14 60.5371 158.14 62.1836C158.14 63.8242 157.683 65.0664 156.769 65.9102C155.855 66.7539 154.539 67.1758 152.822 67.1758C151.112 67.1758 149.799 66.7539 148.885 65.9102ZM151.109 59.8984C150.745 60.373 150.564 61.1318 150.564 62.1748C150.564 63.2178 150.745 63.9795 151.109 64.46C151.472 64.9404 152.043 65.1807 152.822 65.1807C153.608 65.1807 154.182 64.9404 154.545 64.46C154.914 63.9795 155.099 63.2178 155.099 62.1748C155.099 61.1318 154.914 60.373 154.545 59.8984C154.182 59.4238 153.608 59.1865 152.822 59.1865C152.043 59.1865 151.472 59.4238 151.109 59.8984ZM160.666 66.4639V57.9121C160.666 57.7539 160.716 57.625 160.815 57.5254C160.921 57.4199 161.05 57.3672 161.202 57.3672H164.225C164.571 57.3672 164.835 57.584 165.016 58.0176L167.161 63.2559L169.305 58.0176C169.487 57.584 169.751 57.3672 170.096 57.3672H173.12C173.278 57.3672 173.407 57.4199 173.507 57.5254C173.612 57.625 173.665 57.7539 173.665 57.9121V66.4639C173.665 66.6221 173.612 66.751 173.507 66.8506C173.407 66.9502 173.278 67 173.12 67H171.213C171.054 67 170.926 66.9502 170.826 66.8506C170.726 66.7451 170.677 66.6162 170.677 66.4639V60.9707L168.427 66.3848C168.245 66.7949 167.967 67 167.592 67H166.73C166.361 67 166.086 66.7949 165.904 66.3848L163.654 60.9707V66.4639C163.654 66.6221 163.601 66.751 163.496 66.8506C163.396 66.9502 163.267 67 163.109 67H161.202C161.044 67 160.915 66.9502 160.815 66.8506C160.716 66.751 160.666 66.6221 160.666 66.4639ZM177.527 65.8926C176.624 65.0371 176.173 63.8066 176.173 62.2012C176.173 60.5898 176.627 59.3535 177.536 58.4922C178.444 57.625 179.704 57.1914 181.315 57.1914C182.926 57.1914 184.183 57.6133 185.085 58.457C185.988 59.2949 186.439 60.499 186.439 62.0693V62.5703C186.439 62.7285 186.386 62.8604 186.281 62.9658C186.181 63.0654 186.052 63.1152 185.894 63.1152H179.276C179.334 63.8359 179.539 64.3604 179.891 64.6885C180.248 65.0166 180.817 65.1807 181.596 65.1807C182.375 65.1807 182.909 65.0049 183.196 64.6533C183.483 64.3018 183.837 64.123 184.259 64.1172H185.569C185.727 64.1172 185.856 64.1699 185.955 64.2754C186.061 64.375 186.114 64.5039 186.114 64.6621C186.114 66.3438 184.511 67.1816 181.306 67.1758C179.689 67.1758 178.429 66.748 177.527 65.8926ZM179.258 61.2607H183.345C183.287 59.8779 182.607 59.1865 181.306 59.1865C180.011 59.1865 179.329 59.8779 179.258 61.2607ZM188.956 69.4258V57.9121C188.956 57.7539 189.006 57.625 189.105 57.5254C189.211 57.4199 189.34 57.3672 189.492 57.3672H191.188C191.341 57.3672 191.467 57.4199 191.566 57.5254C191.672 57.625 191.725 57.7539 191.725 57.9121V58.1758C192.65 57.5195 193.726 57.1914 194.95 57.1914C196.175 57.1914 197.197 57.625 198.018 58.4922C198.838 59.3535 199.248 60.5898 199.248 62.2012C199.248 63.8066 198.823 65.0371 197.974 65.8926C197.124 66.748 195.979 67.1758 194.537 67.1758C193.793 67.1758 192.946 67.0264 191.997 66.7275V69.4258C191.997 69.584 191.944 69.7129 191.839 69.8125C191.739 69.918 191.613 69.9707 191.461 69.9707H189.492C189.34 69.9707 189.211 69.918 189.105 69.8125C189.006 69.7129 188.956 69.584 188.956 69.4258ZM191.997 64.6973C192.753 64.9375 193.389 65.0576 193.904 65.0576C194.707 65.0576 195.275 64.8291 195.609 64.3721C195.949 63.915 196.119 63.1855 196.119 62.1836C196.119 61.1816 195.958 60.4551 195.636 60.0039C195.319 59.5469 194.842 59.3184 194.203 59.3184C193.57 59.3184 192.835 59.582 191.997 60.1094V64.6973ZM202.389 66.3672C201.616 65.8281 201.229 65.0664 201.229 64.082C201.229 63.0977 201.616 62.3418 202.389 61.8145C203.169 61.2871 204.171 61.0234 205.395 61.0234H208.304C208.304 60.3379 208.161 59.8604 207.874 59.5908C207.587 59.3213 207.083 59.1865 206.362 59.1865C205.647 59.1865 205.143 59.3652 204.85 59.7227C204.563 60.0742 204.209 60.25 203.787 60.25H202.477C202.319 60.25 202.187 60.2002 202.082 60.1006C201.982 59.9951 201.932 59.8662 201.932 59.7139C201.932 58.0322 203.529 57.1914 206.722 57.1914C208.117 57.1914 209.236 57.5049 210.08 58.1318C210.923 58.7529 211.345 59.7168 211.345 61.0234V66.4639C211.345 66.6221 211.296 66.751 211.196 66.8506C211.096 66.9502 210.967 67 210.809 67H209.113C208.955 67 208.826 66.9502 208.726 66.8506C208.627 66.7451 208.577 66.6162 208.577 66.4639V66.1914C207.651 66.8535 206.582 67.1816 205.369 67.1758C204.162 67.1758 203.169 66.9062 202.389 66.3672ZM205.606 63.0186C205.196 63.0186 204.871 63.1182 204.63 63.3174C204.396 63.5166 204.279 63.7744 204.279 64.0908C204.279 64.4072 204.402 64.668 204.648 64.873C204.894 65.0781 205.243 65.1807 205.694 65.1807C206.596 65.1807 207.466 64.917 208.304 64.3896V63.0186H205.606ZM214.416 66.4639V57.9121C214.416 57.7539 214.466 57.625 214.566 57.5254C214.671 57.4199 214.8 57.3672 214.952 57.3672H217.976C218.321 57.3672 218.585 57.584 218.767 58.0176L220.911 63.2559L223.056 58.0176C223.238 57.584 223.501 57.3672 223.847 57.3672H226.87C227.029 57.3672 227.157 57.4199 227.257 57.5254C227.363 57.625 227.415 57.7539 227.415 57.9121V66.4639C227.415 66.6221 227.363 66.751 227.257 66.8506C227.157 66.9502 227.029 67 226.87 67H224.963C224.805 67 224.676 66.9502 224.576 66.8506C224.477 66.7451 224.427 66.6162 224.427 66.4639V60.9707L222.177 66.3848C221.995 66.7949 221.717 67 221.342 67H220.481C220.112 67 219.836 66.7949 219.654 66.3848L217.404 60.9707V66.4639C217.404 66.6221 217.352 66.751 217.246 66.8506C217.147 66.9502 217.018 67 216.86 67H214.952C214.794 67 214.665 66.9502 214.566 66.8506C214.466 66.751 214.416 66.6221 214.416 66.4639Z" fill="#303030"/>
</svg>
