<svg width="94" height="295" viewBox="0 0 94 295" fill="none" xmlns="http://www.w3.org/2000/svg">
<path d="M45.7617 2.70593C46.1723 20.7348 52.5475 32.5559 58.2181 46.0124C64.3998 60.6821 67.6619 78.7981 73.913 93.2393C76.1492 98.405 78.6384 102.296 80.7391 107.736C82.9531 113.468 84.8616 121.296 84.775 128.431C84.7094 133.832 83.8849 139.881 81.8353 143.839C80.1423 147.109 79.8672 155.729 79.8423 159.794C79.7743 170.865 80.3827 178.801 83.5293 188.331C86.4421 197.153 88.9384 206.049 91.0779 215.591C91.885 219.191 93.6548 221.791 90.5547 221.791C86.5524 221.791 83.2301 216.366 79.8423 213.267C75.8753 209.637 73.6562 209.329 71.5962 216.868C68.9677 226.487 72.5752 241.551 74.0127 250.1C74.8916 255.327 76.0058 260.677 76.6534 266.009C76.8498 267.626 65.8449 291.9 66.6929 292.676" stroke="white" stroke-width="3" stroke-linecap="round" stroke-linejoin="round"/>
<path d="M48.1623 292.47C48.5728 274.442 31.1218 239.321 36.7923 225.864C42.9741 211.195 13.8994 196.252 20.1506 181.811C22.3867 176.645 24.876 172.754 26.9766 167.315C29.1906 161.582 31.0991 153.754 31.0125 146.619C30.9469 141.219 30.1224 135.17 28.0728 131.211C26.3798 127.941 26.1047 119.321 26.0798 115.256C26.0118 104.186 26.6203 96.2491 29.7668 86.7191C32.6797 77.8972 35.1759 69.0012 37.3154 59.4588C38.1225 55.8591 39.8923 53.2592 36.7922 53.2592C32.7899 53.2592 29.4676 58.6841 26.0798 61.7837C22.1128 65.4131 19.8937 65.7215 17.8337 58.1824C15.2052 48.5632 22.3964 47.6188 23.8339 39.0703C24.7128 33.8436 17.8337 13.4311 9.06308 24.9503C9.25944 23.3335 1.67913 3.11947 2.52716 2.3436" stroke="white" stroke-width="3" stroke-linecap="round" stroke-linejoin="round"/>
</svg>
